G75*
G70*
%OFA0B0*%
%FSLAX24Y24*%
%IPPOS*%
%LPD*%
%AMOC8*
5,1,8,0,0,1.08239X$1,22.5*
%
%ADD10R,0.2190X0.0010*%
%ADD11R,0.2210X0.0010*%
%ADD12R,0.2200X0.0010*%
%ADD13R,0.2170X0.0010*%
%ADD14R,0.0090X0.0010*%
%ADD15R,0.0100X0.0010*%
%ADD16R,0.0010X0.0010*%
%ADD17R,0.0020X0.0010*%
%ADD18R,0.0030X0.0010*%
%ADD19R,0.0040X0.0010*%
%ADD20R,0.0050X0.0010*%
%ADD21R,0.0060X0.0010*%
%ADD22R,0.0070X0.0010*%
%ADD23R,0.0110X0.0010*%
%ADD24R,0.0130X0.0010*%
%ADD25R,0.0140X0.0010*%
%ADD26R,0.0160X0.0010*%
%ADD27R,0.0170X0.0010*%
%ADD28R,0.0180X0.0010*%
%ADD29R,0.0200X0.0010*%
%ADD30R,0.0210X0.0010*%
%ADD31R,0.0220X0.0010*%
%ADD32R,0.0240X0.0010*%
%ADD33R,0.0080X0.0010*%
%ADD34R,0.0120X0.0010*%
%ADD35R,0.0150X0.0010*%
%ADD36R,0.0230X0.0010*%
%ADD37R,0.0310X0.0010*%
%ADD38R,0.0300X0.0010*%
%ADD39R,0.0290X0.0010*%
%ADD40R,0.0270X0.0010*%
%ADD41R,0.0260X0.0010*%
%ADD42R,0.0250X0.0010*%
%ADD43R,0.0190X0.0010*%
%ADD44C,0.0090*%
%ADD45C,0.0060*%
%ADD46C,0.0000*%
D10*
X008745Y008356D03*
X008745Y008406D03*
D11*
X008745Y008386D03*
X008745Y008376D03*
X008745Y008366D03*
D12*
X008740Y008396D03*
D13*
X008745Y008416D03*
D14*
X008715Y008596D03*
X008755Y008806D03*
X008755Y008816D03*
X008755Y008826D03*
X008485Y009016D03*
X008525Y009136D03*
X008525Y009146D03*
X008215Y009316D03*
X008215Y009326D03*
X008225Y009336D03*
X008225Y009346D03*
X008235Y009356D03*
X008245Y009376D03*
X008255Y009396D03*
X008265Y009406D03*
X008265Y009416D03*
X008275Y009426D03*
X008285Y009446D03*
X008295Y009466D03*
X008305Y009476D03*
X008315Y009496D03*
X008325Y009516D03*
X008335Y009536D03*
X008345Y009546D03*
X008345Y009556D03*
X008355Y009566D03*
X008365Y009586D03*
X008375Y009606D03*
X008385Y009626D03*
X008395Y009636D03*
X008405Y009656D03*
X008415Y009676D03*
X008425Y009696D03*
X008435Y009706D03*
X008445Y009726D03*
X008455Y009746D03*
X008465Y009766D03*
X008475Y009776D03*
X008475Y009786D03*
X008485Y009796D03*
X008495Y009816D03*
X008505Y009836D03*
X008515Y009856D03*
X008525Y009866D03*
X008535Y009886D03*
X008545Y009906D03*
X008555Y009926D03*
X008565Y009936D03*
X008575Y009956D03*
X008585Y009976D03*
X008595Y009996D03*
X008615Y010026D03*
X008625Y010046D03*
X008635Y010066D03*
X008645Y010076D03*
X008655Y010096D03*
X008665Y010116D03*
X008675Y010136D03*
X008685Y010146D03*
X008685Y010156D03*
X008695Y010166D03*
X008705Y010186D03*
X008715Y010206D03*
X008825Y010206D03*
X008835Y010186D03*
X008845Y010166D03*
X008855Y010146D03*
X008865Y010136D03*
X008865Y010126D03*
X008875Y010116D03*
X008885Y010096D03*
X008895Y010076D03*
X008905Y010056D03*
X008915Y010036D03*
X008925Y010016D03*
X008935Y010006D03*
X008935Y009996D03*
X008945Y009986D03*
X008955Y009966D03*
X008965Y009946D03*
X008975Y009926D03*
X008985Y009906D03*
X008995Y009896D03*
X008995Y009886D03*
X009005Y009876D03*
X009005Y009866D03*
X009015Y009856D03*
X009025Y009836D03*
X009035Y009816D03*
X009045Y009796D03*
X009055Y009786D03*
X009055Y009776D03*
X009065Y009766D03*
X009065Y009756D03*
X009075Y009746D03*
X009075Y009736D03*
X009085Y009726D03*
X009085Y009716D03*
X009095Y009706D03*
X009105Y009686D03*
X009115Y009666D03*
X009125Y009646D03*
X009135Y009636D03*
X009135Y009626D03*
X009145Y009616D03*
X009145Y009606D03*
X009155Y009596D03*
X009155Y009586D03*
X009165Y009576D03*
X009175Y009556D03*
X009185Y009536D03*
X009195Y009526D03*
X009195Y009516D03*
X009205Y009496D03*
X009215Y009486D03*
X009215Y009476D03*
X009225Y009466D03*
X009225Y009456D03*
X009235Y009446D03*
X009245Y009426D03*
X009255Y009406D03*
X009265Y009386D03*
X009275Y009366D03*
X009285Y009356D03*
X009285Y009346D03*
X009295Y009336D03*
X009295Y009326D03*
X009305Y009316D03*
X009315Y009296D03*
X009325Y009276D03*
X009335Y009256D03*
X009345Y009236D03*
X009355Y009226D03*
X009355Y009216D03*
X009365Y009206D03*
X009365Y009196D03*
X009375Y009186D03*
X009385Y009166D03*
X009395Y009146D03*
X009405Y009136D03*
X009405Y009126D03*
X009415Y009116D03*
X009415Y009106D03*
X009425Y009096D03*
X009425Y009086D03*
X009435Y009076D03*
X009435Y009066D03*
X009445Y009056D03*
X009455Y009036D03*
X009465Y009016D03*
X009475Y008996D03*
X009485Y008976D03*
X009495Y008966D03*
X009495Y008956D03*
X009505Y008946D03*
X009505Y008936D03*
X009515Y008926D03*
X009525Y008906D03*
X009535Y008886D03*
X009545Y008866D03*
X009555Y008856D03*
X009555Y008846D03*
X009565Y008836D03*
X009565Y008826D03*
X009575Y008816D03*
X009575Y008806D03*
X009585Y008796D03*
X009595Y008776D03*
X009605Y008756D03*
X009615Y008736D03*
X009625Y008726D03*
X009625Y008716D03*
X009635Y008706D03*
X009635Y008696D03*
X009645Y008686D03*
X009645Y008676D03*
X009655Y008666D03*
X009665Y008646D03*
X009675Y008626D03*
X009685Y008606D03*
X009695Y008586D03*
X009705Y008576D03*
X009705Y008566D03*
X009715Y008556D03*
X009715Y008546D03*
X009725Y008536D03*
X009735Y008516D03*
X009745Y008496D03*
X009755Y008476D03*
X009765Y008456D03*
X009775Y008446D03*
X009775Y008436D03*
X009785Y008426D03*
X008175Y009246D03*
X008175Y009256D03*
X008185Y009266D03*
X008195Y009286D03*
X008205Y009306D03*
X008165Y009236D03*
X008155Y009216D03*
X008145Y009196D03*
X008135Y009186D03*
X008135Y009176D03*
X008125Y009166D03*
X008115Y009146D03*
X008105Y009126D03*
X008095Y009106D03*
X008085Y009096D03*
X008085Y009086D03*
X008075Y009076D03*
X008065Y009056D03*
X008055Y009036D03*
X008045Y009026D03*
X008045Y009016D03*
X008035Y009006D03*
X008025Y008986D03*
X008015Y008966D03*
X008005Y008956D03*
X008005Y008946D03*
X007995Y008936D03*
X007985Y008916D03*
X007975Y008896D03*
X007965Y008886D03*
X007965Y008876D03*
X007955Y008866D03*
X007945Y008846D03*
X007935Y008826D03*
X007925Y008816D03*
X007925Y008806D03*
X007905Y008776D03*
X007895Y008756D03*
X007885Y008736D03*
X007875Y008716D03*
X007865Y008706D03*
X007855Y008686D03*
X007845Y008666D03*
X007835Y008656D03*
X007835Y008646D03*
X007825Y008636D03*
X007815Y008616D03*
X007805Y008596D03*
X007795Y008576D03*
X007785Y008566D03*
X007775Y008546D03*
X007765Y008526D03*
X007755Y008506D03*
X007745Y008496D03*
X007745Y008486D03*
X007735Y008476D03*
X007725Y008456D03*
X007715Y008436D03*
X007705Y008426D03*
X008775Y010306D03*
D15*
X008770Y010296D03*
X008830Y010196D03*
X008840Y010176D03*
X008850Y010156D03*
X008880Y010106D03*
X008890Y010086D03*
X008900Y010066D03*
X008910Y010046D03*
X008920Y010026D03*
X008950Y009976D03*
X008960Y009956D03*
X008970Y009936D03*
X008980Y009916D03*
X009020Y009846D03*
X009030Y009826D03*
X009040Y009806D03*
X009100Y009696D03*
X009110Y009676D03*
X009120Y009656D03*
X009170Y009566D03*
X009180Y009546D03*
X009200Y009506D03*
X009240Y009436D03*
X009250Y009416D03*
X009260Y009396D03*
X009270Y009376D03*
X009310Y009306D03*
X009320Y009286D03*
X009330Y009266D03*
X009340Y009246D03*
X009380Y009176D03*
X009390Y009156D03*
X009450Y009046D03*
X009460Y009026D03*
X009470Y009006D03*
X009480Y008986D03*
X009520Y008916D03*
X009530Y008896D03*
X009540Y008876D03*
X009590Y008786D03*
X009600Y008766D03*
X009610Y008746D03*
X009660Y008656D03*
X009670Y008636D03*
X009680Y008616D03*
X009690Y008596D03*
X009730Y008526D03*
X009740Y008506D03*
X009750Y008486D03*
X009760Y008466D03*
X008720Y008606D03*
X008720Y008616D03*
X008760Y008836D03*
X008760Y008846D03*
X008760Y008856D03*
X008760Y008866D03*
X008770Y008896D03*
X008490Y009026D03*
X008530Y009156D03*
X008530Y009166D03*
X008540Y009176D03*
X008540Y009186D03*
X008540Y009196D03*
X008560Y009236D03*
X008890Y009296D03*
X008360Y009576D03*
X008370Y009596D03*
X008380Y009616D03*
X008400Y009646D03*
X008410Y009666D03*
X008420Y009686D03*
X008440Y009716D03*
X008450Y009736D03*
X008460Y009756D03*
X008490Y009806D03*
X008500Y009826D03*
X008510Y009846D03*
X008530Y009876D03*
X008540Y009896D03*
X008550Y009916D03*
X008570Y009946D03*
X008580Y009966D03*
X008590Y009986D03*
X008600Y010006D03*
X008610Y010016D03*
X008620Y010036D03*
X008630Y010056D03*
X008650Y010086D03*
X008660Y010106D03*
X008670Y010126D03*
X008700Y010176D03*
X008710Y010196D03*
X008330Y009526D03*
X008320Y009506D03*
X008310Y009486D03*
X008290Y009456D03*
X008280Y009436D03*
X008250Y009386D03*
X008240Y009366D03*
X008200Y009296D03*
X008190Y009276D03*
X008160Y009226D03*
X008150Y009206D03*
X008120Y009156D03*
X008110Y009136D03*
X008100Y009116D03*
X008070Y009066D03*
X008060Y009046D03*
X008030Y008996D03*
X008020Y008976D03*
X007990Y008926D03*
X007980Y008906D03*
X007950Y008856D03*
X007940Y008836D03*
X007920Y008796D03*
X007910Y008786D03*
X007900Y008766D03*
X007890Y008746D03*
X007880Y008726D03*
X007860Y008696D03*
X007850Y008676D03*
X007820Y008626D03*
X007810Y008606D03*
X007800Y008586D03*
X007780Y008556D03*
X007770Y008536D03*
X007760Y008516D03*
X007730Y008466D03*
X007720Y008446D03*
D16*
X008435Y008966D03*
X008705Y008516D03*
D17*
X008700Y008526D03*
X008950Y009356D03*
D18*
X008935Y009346D03*
X008445Y008976D03*
X008705Y008536D03*
D19*
X008710Y008546D03*
X008930Y009336D03*
D20*
X008465Y008996D03*
X008455Y008986D03*
X008705Y008556D03*
D21*
X008710Y008566D03*
X008920Y009326D03*
X008770Y010326D03*
D22*
X008905Y009316D03*
X008475Y009006D03*
X008715Y008586D03*
X008715Y008576D03*
D23*
X008725Y008626D03*
X008765Y008876D03*
X008765Y008886D03*
X008775Y008906D03*
X008775Y008916D03*
X008775Y008926D03*
X008775Y008936D03*
X008505Y009036D03*
X008545Y009206D03*
X008555Y009216D03*
X008555Y009226D03*
X008565Y009246D03*
X008565Y009256D03*
X008565Y009266D03*
X008575Y009286D03*
D24*
X008595Y009346D03*
X008605Y009366D03*
X008605Y009376D03*
X008615Y009396D03*
X008615Y009406D03*
X008625Y009426D03*
X008635Y009456D03*
X008515Y009046D03*
X008785Y009006D03*
X008785Y008996D03*
X008785Y008986D03*
X008785Y008976D03*
X008725Y008636D03*
D25*
X008730Y008646D03*
X008730Y008656D03*
X008790Y009016D03*
X008790Y009026D03*
X008790Y009036D03*
X008800Y009056D03*
X008800Y009066D03*
X008800Y009076D03*
X008860Y009266D03*
X008620Y009416D03*
X008630Y009436D03*
X008630Y009446D03*
X008640Y009466D03*
X008640Y009476D03*
X008650Y009496D03*
X008660Y009526D03*
X008520Y009056D03*
X008770Y010256D03*
X008770Y010266D03*
D26*
X008770Y010246D03*
X008770Y010236D03*
X008710Y009666D03*
X008700Y009646D03*
X008700Y009636D03*
X008690Y009616D03*
X008690Y009606D03*
X009010Y009626D03*
X008850Y009256D03*
X008840Y009246D03*
X008810Y009126D03*
X008710Y008766D03*
X008730Y008666D03*
D27*
X008735Y008676D03*
X008735Y008686D03*
X008545Y009076D03*
X008705Y009656D03*
X008715Y009676D03*
X008715Y009686D03*
X008725Y009706D03*
X008725Y009716D03*
X008735Y009736D03*
X008745Y009766D03*
D28*
X008750Y009776D03*
X008750Y009786D03*
X008760Y009806D03*
X008760Y009816D03*
X008740Y009756D03*
X008740Y009746D03*
X008730Y009726D03*
X008720Y009696D03*
X008830Y009236D03*
X008550Y009086D03*
X008740Y008696D03*
X008770Y010226D03*
D29*
X008770Y010216D03*
X008820Y009226D03*
X008810Y009216D03*
X008560Y009096D03*
X008740Y008706D03*
D30*
X008745Y008716D03*
X008745Y008726D03*
X008575Y009106D03*
D31*
X008800Y009206D03*
X008750Y008736D03*
D32*
X008750Y008746D03*
X008750Y008756D03*
X008590Y009126D03*
X008790Y009196D03*
D33*
X008900Y009306D03*
X008750Y008796D03*
X008750Y008786D03*
X008750Y008776D03*
X008660Y008776D03*
X008770Y010316D03*
D34*
X008770Y010286D03*
X008770Y010276D03*
X008790Y009826D03*
X008610Y009386D03*
X008600Y009356D03*
X008590Y009336D03*
X008590Y009326D03*
X008580Y009306D03*
X008580Y009296D03*
X008570Y009276D03*
X008870Y009276D03*
X008880Y009286D03*
X008780Y008966D03*
X008780Y008956D03*
X008780Y008946D03*
D35*
X008795Y009046D03*
X008805Y009086D03*
X008805Y009096D03*
X008805Y009106D03*
X008535Y009066D03*
X008645Y009486D03*
X008655Y009506D03*
X008655Y009516D03*
X008665Y009536D03*
X008665Y009546D03*
X008675Y009556D03*
X008675Y009566D03*
X008675Y009576D03*
X008685Y009586D03*
X008685Y009596D03*
X008695Y009626D03*
D36*
X008585Y009116D03*
D37*
X008735Y009136D03*
D38*
X008740Y009146D03*
D39*
X008755Y009156D03*
D40*
X008765Y009166D03*
D41*
X008770Y009176D03*
D42*
X008785Y009186D03*
D43*
X008755Y009796D03*
X008765Y009826D03*
D44*
X011269Y009406D02*
X011269Y009321D01*
X011609Y009321D01*
X011609Y009236D02*
X011609Y009406D01*
X011524Y009491D01*
X011354Y009491D01*
X011269Y009406D01*
X011354Y009151D02*
X011524Y009151D01*
X011609Y009236D01*
X011814Y009151D02*
X012070Y009321D01*
X011814Y009491D01*
X012070Y009662D02*
X012070Y009151D01*
X012282Y009236D02*
X012282Y009406D01*
X012367Y009491D01*
X012537Y009491D01*
X012622Y009406D01*
X012622Y009236D01*
X012537Y009151D01*
X012367Y009151D01*
X012282Y009236D01*
X012834Y009151D02*
X012834Y009406D01*
X012919Y009491D01*
X013004Y009406D01*
X013004Y009151D01*
X013175Y009151D02*
X013175Y009491D01*
X013090Y009491D01*
X013004Y009406D01*
X013387Y009321D02*
X013387Y009236D01*
X013472Y009151D01*
X013642Y009151D01*
X013727Y009236D01*
X013642Y009406D02*
X013472Y009406D01*
X013387Y009321D01*
X013387Y009577D02*
X013472Y009662D01*
X013642Y009662D01*
X013727Y009577D01*
X013727Y009491D01*
X013642Y009406D01*
X013727Y008762D02*
X013472Y008762D01*
X013387Y008677D01*
X013387Y008506D01*
X013472Y008421D01*
X013727Y008421D01*
X013727Y008251D02*
X013727Y008762D01*
X013557Y008421D02*
X013387Y008251D01*
X013175Y008251D02*
X012919Y008251D01*
X012834Y008336D01*
X012834Y008421D01*
X012919Y008506D01*
X013175Y008506D01*
X013175Y008251D02*
X013175Y008762D01*
X012919Y008762D01*
X012834Y008677D01*
X012834Y008591D01*
X012919Y008506D01*
X012622Y008336D02*
X012537Y008251D01*
X012367Y008251D01*
X012282Y008336D01*
X012282Y008677D01*
X012622Y008336D01*
X012622Y008677D01*
X012537Y008762D01*
X012367Y008762D01*
X012282Y008677D01*
X012070Y008591D02*
X011899Y008762D01*
X011899Y008251D01*
X011729Y008251D02*
X012070Y008251D01*
X012367Y009881D02*
X012282Y009966D01*
X012282Y010391D01*
X012537Y010391D01*
X012622Y010306D01*
X012622Y010136D01*
X012537Y010051D01*
X012282Y010051D01*
X012367Y009881D02*
X012452Y009881D01*
X012834Y010051D02*
X013090Y010051D01*
X013175Y010136D01*
X013090Y010221D01*
X012834Y010221D01*
X012834Y010306D02*
X012834Y010051D01*
X012834Y010306D02*
X012919Y010391D01*
X013090Y010391D01*
X013387Y010562D02*
X013387Y010051D01*
X013727Y010051D02*
X013727Y010562D01*
X013557Y010391D01*
X013387Y010562D01*
X012070Y010391D02*
X011985Y010391D01*
X011985Y010051D01*
X012070Y010051D02*
X011899Y010051D01*
X011701Y010136D02*
X011701Y010306D01*
X011616Y010391D01*
X011361Y010391D01*
X011361Y010051D02*
X011616Y010051D01*
X011701Y010136D01*
X011985Y010562D02*
X011985Y010647D01*
X006330Y011854D02*
X005990Y011854D01*
X005778Y011939D02*
X005693Y011854D01*
X005523Y011854D01*
X005437Y011939D01*
X005437Y012280D01*
X005523Y012365D01*
X005693Y012365D01*
X005778Y012280D01*
X005778Y011939D01*
X005225Y011854D02*
X005225Y012195D01*
X005055Y012365D01*
X004885Y012195D01*
X004885Y011854D01*
X004673Y011854D02*
X004418Y011854D01*
X004332Y011939D01*
X004332Y012280D01*
X004418Y012365D01*
X004673Y012365D01*
X004673Y011854D01*
X004885Y012110D02*
X005225Y012110D01*
X006330Y012365D02*
X006330Y011854D01*
X007671Y005262D02*
X007586Y005177D01*
X007926Y004836D01*
X007841Y004751D01*
X007671Y004751D01*
X007586Y004836D01*
X007586Y005177D01*
X007671Y005262D02*
X007841Y005262D01*
X007926Y005177D01*
X007926Y004836D01*
X008117Y004836D02*
X008117Y004751D01*
X008202Y004751D01*
X008202Y004836D01*
X008117Y004836D01*
X008415Y004836D02*
X008500Y004751D01*
X008670Y004751D01*
X008755Y004836D01*
X008585Y005006D02*
X008500Y005006D01*
X008415Y004921D01*
X008415Y004836D01*
X008500Y005006D02*
X008415Y005091D01*
X008415Y005177D01*
X008500Y005262D01*
X008670Y005262D01*
X008755Y005177D01*
X009519Y005091D02*
X009519Y004751D01*
X009519Y005006D02*
X009860Y005006D01*
X009860Y005091D02*
X009690Y005262D01*
X009519Y005091D01*
X009860Y005091D02*
X009860Y004751D01*
X010072Y004836D02*
X010157Y004751D01*
X010327Y004751D01*
X010412Y004836D01*
X010327Y005006D02*
X010157Y005006D01*
X010072Y004921D01*
X010072Y004836D01*
X010327Y005006D02*
X010412Y005091D01*
X010412Y005177D01*
X010327Y005262D01*
X010157Y005262D01*
X010072Y005177D01*
X010624Y005006D02*
X010965Y005006D01*
X011177Y005177D02*
X011177Y005262D01*
X011177Y005177D02*
X011347Y005006D01*
X011347Y004751D01*
X011347Y005006D02*
X011517Y005177D01*
X011517Y005262D01*
X011729Y005177D02*
X011729Y005091D01*
X011814Y005006D01*
X012070Y005006D01*
X012070Y004751D02*
X011814Y004751D01*
X011729Y004836D01*
X011729Y004921D01*
X011814Y005006D01*
X011729Y005177D02*
X011814Y005262D01*
X012070Y005262D01*
X012070Y004751D01*
X012834Y004836D02*
X012919Y004751D01*
X013090Y004751D01*
X013175Y004836D01*
X013175Y005177D01*
X013090Y005262D01*
X012919Y005262D01*
X012834Y005177D01*
X013387Y005177D02*
X013472Y005262D01*
X013642Y005262D01*
X013727Y005177D01*
X013727Y004836D01*
X013642Y004751D01*
X013472Y004751D01*
X013387Y004836D01*
D45*
X016057Y003839D02*
X016351Y003839D01*
X016204Y003839D02*
X016204Y004280D01*
X016351Y004133D01*
X016517Y003986D02*
X016517Y004280D01*
X016811Y004280D02*
X016811Y003986D01*
X016664Y003839D01*
X016517Y003986D01*
X016978Y003766D02*
X017271Y003766D01*
X017438Y003839D02*
X017732Y003839D01*
X017585Y003839D02*
X017585Y004280D01*
X017732Y004133D01*
X017899Y004133D02*
X017972Y004060D01*
X017899Y003986D01*
X017899Y003913D01*
X017972Y003839D01*
X018119Y003839D01*
X018192Y003913D01*
X018359Y003913D02*
X018432Y003839D01*
X018579Y003839D01*
X018653Y003913D01*
X018359Y004206D01*
X018359Y003913D01*
X018359Y004206D02*
X018432Y004280D01*
X018579Y004280D01*
X018653Y004206D01*
X018653Y003913D01*
X018819Y003913D02*
X018893Y003839D01*
X019040Y003839D01*
X019113Y003913D01*
X019113Y004060D02*
X018966Y004133D01*
X018893Y004133D01*
X018819Y004060D01*
X018819Y003913D01*
X019113Y004060D02*
X019113Y004280D01*
X018819Y004280D01*
X019280Y004206D02*
X019280Y004060D01*
X019353Y003986D01*
X019573Y003986D01*
X019573Y003839D02*
X019573Y004280D01*
X019353Y004280D01*
X019280Y004206D01*
X019740Y004206D02*
X019740Y003913D01*
X019814Y003839D01*
X020034Y003839D01*
X020034Y004280D01*
X019814Y004280D01*
X019740Y004206D01*
X018192Y004206D02*
X018119Y004280D01*
X017972Y004280D01*
X017899Y004206D01*
X017899Y004133D01*
X017972Y004060D02*
X018045Y004060D01*
X018828Y007096D02*
X018715Y007209D01*
X018828Y007322D01*
X019055Y007322D01*
X018998Y007464D02*
X018771Y007464D01*
X018715Y007521D01*
X018715Y007634D01*
X018771Y007691D01*
X018771Y007832D02*
X018715Y007889D01*
X018715Y008002D01*
X018771Y008059D01*
X018771Y007832D02*
X018998Y007832D01*
X019055Y007889D01*
X019055Y008002D01*
X018998Y008059D01*
X018998Y007691D02*
X019055Y007634D01*
X019055Y007521D01*
X018998Y007464D01*
X019055Y007096D02*
X018828Y007096D01*
X018760Y008986D02*
X018703Y009043D01*
X018703Y009156D01*
X018760Y009213D01*
X018986Y009213D02*
X019043Y009156D01*
X019043Y009043D01*
X018986Y008986D01*
X018760Y008986D01*
X019043Y009354D02*
X019043Y009581D01*
X019043Y009468D02*
X018703Y009468D01*
X018703Y009723D02*
X019043Y009723D01*
X019043Y009893D01*
X018986Y009950D01*
X018873Y009950D01*
X018816Y009893D01*
X018816Y009723D01*
X018816Y009836D02*
X018703Y009950D01*
X018703Y010091D02*
X018703Y010318D01*
X018703Y010091D02*
X019043Y010091D01*
X018986Y011186D02*
X018760Y011186D01*
X018703Y011243D01*
X018703Y011356D01*
X018760Y011413D01*
X018873Y011413D01*
X018873Y011300D01*
X018986Y011413D02*
X019043Y011356D01*
X019043Y011243D01*
X018986Y011186D01*
X019043Y011554D02*
X018703Y011554D01*
X018703Y011781D02*
X019043Y011781D01*
X019043Y011923D02*
X018703Y011923D01*
X018703Y012093D01*
X018760Y012150D01*
X018986Y012150D01*
X019043Y012093D01*
X019043Y011923D01*
X018703Y011781D02*
X019043Y011554D01*
X006448Y007273D02*
X006448Y006933D01*
X006221Y006933D02*
X006221Y007273D01*
X006080Y007103D02*
X006023Y007160D01*
X005910Y007160D01*
X005853Y007103D01*
X005853Y006990D01*
X005910Y006933D01*
X006023Y006933D01*
X006080Y006990D01*
X006080Y007103D01*
X006221Y006933D02*
X006448Y007273D01*
X005712Y007160D02*
X005712Y006933D01*
X005712Y007046D02*
X005598Y007160D01*
X005542Y007160D01*
X005405Y007160D02*
X005405Y006933D01*
X005291Y006933D02*
X005291Y007103D01*
X005235Y007160D01*
X005178Y007103D01*
X005178Y006933D01*
X005036Y006990D02*
X004980Y007046D01*
X004810Y007046D01*
X004810Y007103D02*
X004810Y006933D01*
X004980Y006933D01*
X005036Y006990D01*
X004980Y007160D02*
X004866Y007160D01*
X004810Y007103D01*
X004668Y006933D02*
X004555Y006933D01*
X004611Y006933D02*
X004611Y007273D01*
X004668Y007273D01*
X004423Y007273D02*
X004366Y007273D01*
X004366Y006933D01*
X004423Y006933D02*
X004309Y006933D01*
X004177Y006990D02*
X004177Y007160D01*
X004177Y006990D02*
X004120Y006933D01*
X003950Y006933D01*
X003950Y006876D02*
X004007Y006820D01*
X004064Y006820D01*
X003950Y006876D02*
X003950Y007160D01*
X005126Y006456D02*
X005126Y006286D01*
X005126Y006456D02*
X005183Y006513D01*
X005353Y006513D01*
X005353Y006286D01*
X005494Y006400D02*
X005721Y006400D01*
X005721Y006456D02*
X005664Y006513D01*
X005551Y006513D01*
X005494Y006456D01*
X005494Y006400D01*
X005551Y006286D02*
X005664Y006286D01*
X005721Y006343D01*
X005721Y006456D01*
X005863Y006456D02*
X005919Y006513D01*
X006089Y006513D01*
X006089Y006173D01*
X006089Y006286D02*
X005919Y006286D01*
X005863Y006343D01*
X005863Y006456D01*
X006231Y006343D02*
X006288Y006286D01*
X006401Y006286D01*
X006458Y006343D01*
X006458Y006570D01*
X006401Y006626D01*
X006288Y006626D01*
X006231Y006570D01*
X006231Y006343D01*
X005405Y007160D02*
X005348Y007160D01*
X005291Y007103D01*
D46*
X004709Y003416D02*
X021245Y003416D01*
X020615Y004990D02*
X020617Y005040D01*
X020623Y005090D01*
X020633Y005139D01*
X020647Y005187D01*
X020664Y005234D01*
X020685Y005279D01*
X020710Y005323D01*
X020738Y005364D01*
X020770Y005403D01*
X020804Y005440D01*
X020841Y005474D01*
X020881Y005504D01*
X020923Y005531D01*
X020967Y005555D01*
X021013Y005576D01*
X021060Y005592D01*
X021108Y005605D01*
X021158Y005614D01*
X021207Y005619D01*
X021258Y005620D01*
X021308Y005617D01*
X021357Y005610D01*
X021406Y005599D01*
X021454Y005584D01*
X021500Y005566D01*
X021545Y005544D01*
X021588Y005518D01*
X021629Y005489D01*
X021668Y005457D01*
X021704Y005422D01*
X021736Y005384D01*
X021766Y005344D01*
X021793Y005301D01*
X021816Y005257D01*
X021835Y005211D01*
X021851Y005163D01*
X021863Y005114D01*
X021871Y005065D01*
X021875Y005015D01*
X021875Y004965D01*
X021871Y004915D01*
X021863Y004866D01*
X021851Y004817D01*
X021835Y004769D01*
X021816Y004723D01*
X021793Y004679D01*
X021766Y004636D01*
X021736Y004596D01*
X021704Y004558D01*
X021668Y004523D01*
X021629Y004491D01*
X021588Y004462D01*
X021545Y004436D01*
X021500Y004414D01*
X021454Y004396D01*
X021406Y004381D01*
X021357Y004370D01*
X021308Y004363D01*
X021258Y004360D01*
X021207Y004361D01*
X021158Y004366D01*
X021108Y004375D01*
X021060Y004388D01*
X021013Y004404D01*
X020967Y004425D01*
X020923Y004449D01*
X020881Y004476D01*
X020841Y004506D01*
X020804Y004540D01*
X020770Y004577D01*
X020738Y004616D01*
X020710Y004657D01*
X020685Y004701D01*
X020664Y004746D01*
X020647Y004793D01*
X020633Y004841D01*
X020623Y004890D01*
X020617Y004940D01*
X020615Y004990D01*
X021245Y003415D02*
X021322Y003417D01*
X021399Y003423D01*
X021476Y003432D01*
X021552Y003445D01*
X021628Y003462D01*
X021702Y003483D01*
X021776Y003507D01*
X021848Y003535D01*
X021918Y003566D01*
X021987Y003601D01*
X022055Y003639D01*
X022120Y003680D01*
X022183Y003725D01*
X022244Y003773D01*
X022303Y003823D01*
X022359Y003876D01*
X022412Y003932D01*
X022462Y003991D01*
X022510Y004052D01*
X022555Y004115D01*
X022596Y004180D01*
X022634Y004248D01*
X022669Y004317D01*
X022700Y004387D01*
X022728Y004459D01*
X022752Y004533D01*
X022773Y004607D01*
X022790Y004683D01*
X022803Y004759D01*
X022812Y004836D01*
X022818Y004913D01*
X022820Y004990D01*
X022820Y014046D01*
X020615Y014046D02*
X020617Y014096D01*
X020623Y014146D01*
X020633Y014195D01*
X020647Y014243D01*
X020664Y014290D01*
X020685Y014335D01*
X020710Y014379D01*
X020738Y014420D01*
X020770Y014459D01*
X020804Y014496D01*
X020841Y014530D01*
X020881Y014560D01*
X020923Y014587D01*
X020967Y014611D01*
X021013Y014632D01*
X021060Y014648D01*
X021108Y014661D01*
X021158Y014670D01*
X021207Y014675D01*
X021258Y014676D01*
X021308Y014673D01*
X021357Y014666D01*
X021406Y014655D01*
X021454Y014640D01*
X021500Y014622D01*
X021545Y014600D01*
X021588Y014574D01*
X021629Y014545D01*
X021668Y014513D01*
X021704Y014478D01*
X021736Y014440D01*
X021766Y014400D01*
X021793Y014357D01*
X021816Y014313D01*
X021835Y014267D01*
X021851Y014219D01*
X021863Y014170D01*
X021871Y014121D01*
X021875Y014071D01*
X021875Y014021D01*
X021871Y013971D01*
X021863Y013922D01*
X021851Y013873D01*
X021835Y013825D01*
X021816Y013779D01*
X021793Y013735D01*
X021766Y013692D01*
X021736Y013652D01*
X021704Y013614D01*
X021668Y013579D01*
X021629Y013547D01*
X021588Y013518D01*
X021545Y013492D01*
X021500Y013470D01*
X021454Y013452D01*
X021406Y013437D01*
X021357Y013426D01*
X021308Y013419D01*
X021258Y013416D01*
X021207Y013417D01*
X021158Y013422D01*
X021108Y013431D01*
X021060Y013444D01*
X021013Y013460D01*
X020967Y013481D01*
X020923Y013505D01*
X020881Y013532D01*
X020841Y013562D01*
X020804Y013596D01*
X020770Y013633D01*
X020738Y013672D01*
X020710Y013713D01*
X020685Y013757D01*
X020664Y013802D01*
X020647Y013849D01*
X020633Y013897D01*
X020623Y013946D01*
X020617Y013996D01*
X020615Y014046D01*
X021245Y015621D02*
X021322Y015619D01*
X021399Y015613D01*
X021476Y015604D01*
X021552Y015591D01*
X021628Y015574D01*
X021702Y015553D01*
X021776Y015529D01*
X021848Y015501D01*
X021918Y015470D01*
X021987Y015435D01*
X022055Y015397D01*
X022120Y015356D01*
X022183Y015311D01*
X022244Y015263D01*
X022303Y015213D01*
X022359Y015160D01*
X022412Y015104D01*
X022462Y015045D01*
X022510Y014984D01*
X022555Y014921D01*
X022596Y014856D01*
X022634Y014788D01*
X022669Y014719D01*
X022700Y014649D01*
X022728Y014577D01*
X022752Y014503D01*
X022773Y014429D01*
X022790Y014353D01*
X022803Y014277D01*
X022812Y014200D01*
X022818Y014123D01*
X022820Y014046D01*
X021245Y015620D02*
X004709Y015620D01*
X004079Y014046D02*
X004081Y014096D01*
X004087Y014146D01*
X004097Y014195D01*
X004111Y014243D01*
X004128Y014290D01*
X004149Y014335D01*
X004174Y014379D01*
X004202Y014420D01*
X004234Y014459D01*
X004268Y014496D01*
X004305Y014530D01*
X004345Y014560D01*
X004387Y014587D01*
X004431Y014611D01*
X004477Y014632D01*
X004524Y014648D01*
X004572Y014661D01*
X004622Y014670D01*
X004671Y014675D01*
X004722Y014676D01*
X004772Y014673D01*
X004821Y014666D01*
X004870Y014655D01*
X004918Y014640D01*
X004964Y014622D01*
X005009Y014600D01*
X005052Y014574D01*
X005093Y014545D01*
X005132Y014513D01*
X005168Y014478D01*
X005200Y014440D01*
X005230Y014400D01*
X005257Y014357D01*
X005280Y014313D01*
X005299Y014267D01*
X005315Y014219D01*
X005327Y014170D01*
X005335Y014121D01*
X005339Y014071D01*
X005339Y014021D01*
X005335Y013971D01*
X005327Y013922D01*
X005315Y013873D01*
X005299Y013825D01*
X005280Y013779D01*
X005257Y013735D01*
X005230Y013692D01*
X005200Y013652D01*
X005168Y013614D01*
X005132Y013579D01*
X005093Y013547D01*
X005052Y013518D01*
X005009Y013492D01*
X004964Y013470D01*
X004918Y013452D01*
X004870Y013437D01*
X004821Y013426D01*
X004772Y013419D01*
X004722Y013416D01*
X004671Y013417D01*
X004622Y013422D01*
X004572Y013431D01*
X004524Y013444D01*
X004477Y013460D01*
X004431Y013481D01*
X004387Y013505D01*
X004345Y013532D01*
X004305Y013562D01*
X004268Y013596D01*
X004234Y013633D01*
X004202Y013672D01*
X004174Y013713D01*
X004149Y013757D01*
X004128Y013802D01*
X004111Y013849D01*
X004097Y013897D01*
X004087Y013946D01*
X004081Y013996D01*
X004079Y014046D01*
X003134Y014046D02*
X003136Y014123D01*
X003142Y014200D01*
X003151Y014277D01*
X003164Y014353D01*
X003181Y014429D01*
X003202Y014503D01*
X003226Y014577D01*
X003254Y014649D01*
X003285Y014719D01*
X003320Y014788D01*
X003358Y014856D01*
X003399Y014921D01*
X003444Y014984D01*
X003492Y015045D01*
X003542Y015104D01*
X003595Y015160D01*
X003651Y015213D01*
X003710Y015263D01*
X003771Y015311D01*
X003834Y015356D01*
X003899Y015397D01*
X003967Y015435D01*
X004036Y015470D01*
X004106Y015501D01*
X004178Y015529D01*
X004252Y015553D01*
X004326Y015574D01*
X004402Y015591D01*
X004478Y015604D01*
X004555Y015613D01*
X004632Y015619D01*
X004709Y015621D01*
X003135Y014046D02*
X003135Y004990D01*
X004079Y004990D02*
X004081Y005040D01*
X004087Y005090D01*
X004097Y005139D01*
X004111Y005187D01*
X004128Y005234D01*
X004149Y005279D01*
X004174Y005323D01*
X004202Y005364D01*
X004234Y005403D01*
X004268Y005440D01*
X004305Y005474D01*
X004345Y005504D01*
X004387Y005531D01*
X004431Y005555D01*
X004477Y005576D01*
X004524Y005592D01*
X004572Y005605D01*
X004622Y005614D01*
X004671Y005619D01*
X004722Y005620D01*
X004772Y005617D01*
X004821Y005610D01*
X004870Y005599D01*
X004918Y005584D01*
X004964Y005566D01*
X005009Y005544D01*
X005052Y005518D01*
X005093Y005489D01*
X005132Y005457D01*
X005168Y005422D01*
X005200Y005384D01*
X005230Y005344D01*
X005257Y005301D01*
X005280Y005257D01*
X005299Y005211D01*
X005315Y005163D01*
X005327Y005114D01*
X005335Y005065D01*
X005339Y005015D01*
X005339Y004965D01*
X005335Y004915D01*
X005327Y004866D01*
X005315Y004817D01*
X005299Y004769D01*
X005280Y004723D01*
X005257Y004679D01*
X005230Y004636D01*
X005200Y004596D01*
X005168Y004558D01*
X005132Y004523D01*
X005093Y004491D01*
X005052Y004462D01*
X005009Y004436D01*
X004964Y004414D01*
X004918Y004396D01*
X004870Y004381D01*
X004821Y004370D01*
X004772Y004363D01*
X004722Y004360D01*
X004671Y004361D01*
X004622Y004366D01*
X004572Y004375D01*
X004524Y004388D01*
X004477Y004404D01*
X004431Y004425D01*
X004387Y004449D01*
X004345Y004476D01*
X004305Y004506D01*
X004268Y004540D01*
X004234Y004577D01*
X004202Y004616D01*
X004174Y004657D01*
X004149Y004701D01*
X004128Y004746D01*
X004111Y004793D01*
X004097Y004841D01*
X004087Y004890D01*
X004081Y004940D01*
X004079Y004990D01*
X003134Y004990D02*
X003136Y004913D01*
X003142Y004836D01*
X003151Y004759D01*
X003164Y004683D01*
X003181Y004607D01*
X003202Y004533D01*
X003226Y004459D01*
X003254Y004387D01*
X003285Y004317D01*
X003320Y004248D01*
X003358Y004180D01*
X003399Y004115D01*
X003444Y004052D01*
X003492Y003991D01*
X003542Y003932D01*
X003595Y003876D01*
X003651Y003823D01*
X003710Y003773D01*
X003771Y003725D01*
X003834Y003680D01*
X003899Y003639D01*
X003967Y003601D01*
X004036Y003566D01*
X004106Y003535D01*
X004178Y003507D01*
X004252Y003483D01*
X004326Y003462D01*
X004402Y003445D01*
X004478Y003432D01*
X004555Y003423D01*
X004632Y003417D01*
X004709Y003415D01*
M02*
