%
M48
M72
T01C0.0320
T02C0.0354
T03C0.0512
T04C0.0551
T05C0.1260
%
T01
X16635Y5916
X17635Y5916
X17635Y8416
X16635Y8416
X17135Y9166
T02
X17135Y10416
X16135Y10416
X15135Y10416
X15135Y8916
X15135Y5916
X15135Y13416
X16135Y13416
X17135Y13416
T03
X12977Y12156
X10615Y12943
X8253Y12156
X8253Y7353
X12977Y7353
T04
X20891Y7538
X20891Y9506
X20891Y11475
X5123Y10502
X5123Y8534
T05
X4709Y4990
X4709Y14046
X21245Y14046
X21245Y4990
M30
