G75*
G70*
%OFA0B0*%
%FSLAX24Y24*%
%IPPOS*%
%LPD*%
%AMOC8*
5,1,8,0,0,1.08239X$1,22.5*
%
%ADD10C,0.0740*%
%ADD11C,0.0937*%
%ADD12OC8,0.0480*%
%ADD13C,0.0768*%
%ADD14C,0.0000*%
%ADD15C,0.0160*%
%ADD16C,0.0100*%
%ADD17C,0.0860*%
%ADD18C,0.1500*%
%ADD19C,0.1000*%
D10*
X015135Y005916D03*
X016635Y005916D03*
X017635Y005916D03*
X015135Y008916D03*
X015135Y010416D03*
X016135Y010416D03*
X017135Y010416D03*
X017135Y013416D03*
X016135Y013416D03*
X015135Y013416D03*
D11*
X020422Y011475D02*
X021359Y011475D01*
X021359Y009506D02*
X020422Y009506D01*
X020422Y007538D02*
X021359Y007538D01*
X005591Y008534D02*
X004654Y008534D01*
X004654Y010502D02*
X005591Y010502D01*
D12*
X016635Y008416D03*
X017635Y008416D03*
X017135Y009166D03*
D13*
X012977Y012156D03*
X010615Y012943D03*
X008253Y012156D03*
X008253Y007353D03*
D14*
X004709Y003416D02*
X021245Y003416D01*
X020615Y004990D02*
X020617Y005040D01*
X020623Y005090D01*
X020633Y005139D01*
X020647Y005187D01*
X020664Y005234D01*
X020685Y005279D01*
X020710Y005323D01*
X020738Y005364D01*
X020770Y005403D01*
X020804Y005440D01*
X020841Y005474D01*
X020881Y005504D01*
X020923Y005531D01*
X020967Y005555D01*
X021013Y005576D01*
X021060Y005592D01*
X021108Y005605D01*
X021158Y005614D01*
X021207Y005619D01*
X021258Y005620D01*
X021308Y005617D01*
X021357Y005610D01*
X021406Y005599D01*
X021454Y005584D01*
X021500Y005566D01*
X021545Y005544D01*
X021588Y005518D01*
X021629Y005489D01*
X021668Y005457D01*
X021704Y005422D01*
X021736Y005384D01*
X021766Y005344D01*
X021793Y005301D01*
X021816Y005257D01*
X021835Y005211D01*
X021851Y005163D01*
X021863Y005114D01*
X021871Y005065D01*
X021875Y005015D01*
X021875Y004965D01*
X021871Y004915D01*
X021863Y004866D01*
X021851Y004817D01*
X021835Y004769D01*
X021816Y004723D01*
X021793Y004679D01*
X021766Y004636D01*
X021736Y004596D01*
X021704Y004558D01*
X021668Y004523D01*
X021629Y004491D01*
X021588Y004462D01*
X021545Y004436D01*
X021500Y004414D01*
X021454Y004396D01*
X021406Y004381D01*
X021357Y004370D01*
X021308Y004363D01*
X021258Y004360D01*
X021207Y004361D01*
X021158Y004366D01*
X021108Y004375D01*
X021060Y004388D01*
X021013Y004404D01*
X020967Y004425D01*
X020923Y004449D01*
X020881Y004476D01*
X020841Y004506D01*
X020804Y004540D01*
X020770Y004577D01*
X020738Y004616D01*
X020710Y004657D01*
X020685Y004701D01*
X020664Y004746D01*
X020647Y004793D01*
X020633Y004841D01*
X020623Y004890D01*
X020617Y004940D01*
X020615Y004990D01*
X021245Y003415D02*
X021322Y003417D01*
X021399Y003423D01*
X021476Y003432D01*
X021552Y003445D01*
X021628Y003462D01*
X021702Y003483D01*
X021776Y003507D01*
X021848Y003535D01*
X021918Y003566D01*
X021987Y003601D01*
X022055Y003639D01*
X022120Y003680D01*
X022183Y003725D01*
X022244Y003773D01*
X022303Y003823D01*
X022359Y003876D01*
X022412Y003932D01*
X022462Y003991D01*
X022510Y004052D01*
X022555Y004115D01*
X022596Y004180D01*
X022634Y004248D01*
X022669Y004317D01*
X022700Y004387D01*
X022728Y004459D01*
X022752Y004533D01*
X022773Y004607D01*
X022790Y004683D01*
X022803Y004759D01*
X022812Y004836D01*
X022818Y004913D01*
X022820Y004990D01*
X022820Y014046D01*
X020615Y014046D02*
X020617Y014096D01*
X020623Y014146D01*
X020633Y014195D01*
X020647Y014243D01*
X020664Y014290D01*
X020685Y014335D01*
X020710Y014379D01*
X020738Y014420D01*
X020770Y014459D01*
X020804Y014496D01*
X020841Y014530D01*
X020881Y014560D01*
X020923Y014587D01*
X020967Y014611D01*
X021013Y014632D01*
X021060Y014648D01*
X021108Y014661D01*
X021158Y014670D01*
X021207Y014675D01*
X021258Y014676D01*
X021308Y014673D01*
X021357Y014666D01*
X021406Y014655D01*
X021454Y014640D01*
X021500Y014622D01*
X021545Y014600D01*
X021588Y014574D01*
X021629Y014545D01*
X021668Y014513D01*
X021704Y014478D01*
X021736Y014440D01*
X021766Y014400D01*
X021793Y014357D01*
X021816Y014313D01*
X021835Y014267D01*
X021851Y014219D01*
X021863Y014170D01*
X021871Y014121D01*
X021875Y014071D01*
X021875Y014021D01*
X021871Y013971D01*
X021863Y013922D01*
X021851Y013873D01*
X021835Y013825D01*
X021816Y013779D01*
X021793Y013735D01*
X021766Y013692D01*
X021736Y013652D01*
X021704Y013614D01*
X021668Y013579D01*
X021629Y013547D01*
X021588Y013518D01*
X021545Y013492D01*
X021500Y013470D01*
X021454Y013452D01*
X021406Y013437D01*
X021357Y013426D01*
X021308Y013419D01*
X021258Y013416D01*
X021207Y013417D01*
X021158Y013422D01*
X021108Y013431D01*
X021060Y013444D01*
X021013Y013460D01*
X020967Y013481D01*
X020923Y013505D01*
X020881Y013532D01*
X020841Y013562D01*
X020804Y013596D01*
X020770Y013633D01*
X020738Y013672D01*
X020710Y013713D01*
X020685Y013757D01*
X020664Y013802D01*
X020647Y013849D01*
X020633Y013897D01*
X020623Y013946D01*
X020617Y013996D01*
X020615Y014046D01*
X021245Y015621D02*
X021322Y015619D01*
X021399Y015613D01*
X021476Y015604D01*
X021552Y015591D01*
X021628Y015574D01*
X021702Y015553D01*
X021776Y015529D01*
X021848Y015501D01*
X021918Y015470D01*
X021987Y015435D01*
X022055Y015397D01*
X022120Y015356D01*
X022183Y015311D01*
X022244Y015263D01*
X022303Y015213D01*
X022359Y015160D01*
X022412Y015104D01*
X022462Y015045D01*
X022510Y014984D01*
X022555Y014921D01*
X022596Y014856D01*
X022634Y014788D01*
X022669Y014719D01*
X022700Y014649D01*
X022728Y014577D01*
X022752Y014503D01*
X022773Y014429D01*
X022790Y014353D01*
X022803Y014277D01*
X022812Y014200D01*
X022818Y014123D01*
X022820Y014046D01*
X021245Y015620D02*
X004709Y015620D01*
X004079Y014046D02*
X004081Y014096D01*
X004087Y014146D01*
X004097Y014195D01*
X004111Y014243D01*
X004128Y014290D01*
X004149Y014335D01*
X004174Y014379D01*
X004202Y014420D01*
X004234Y014459D01*
X004268Y014496D01*
X004305Y014530D01*
X004345Y014560D01*
X004387Y014587D01*
X004431Y014611D01*
X004477Y014632D01*
X004524Y014648D01*
X004572Y014661D01*
X004622Y014670D01*
X004671Y014675D01*
X004722Y014676D01*
X004772Y014673D01*
X004821Y014666D01*
X004870Y014655D01*
X004918Y014640D01*
X004964Y014622D01*
X005009Y014600D01*
X005052Y014574D01*
X005093Y014545D01*
X005132Y014513D01*
X005168Y014478D01*
X005200Y014440D01*
X005230Y014400D01*
X005257Y014357D01*
X005280Y014313D01*
X005299Y014267D01*
X005315Y014219D01*
X005327Y014170D01*
X005335Y014121D01*
X005339Y014071D01*
X005339Y014021D01*
X005335Y013971D01*
X005327Y013922D01*
X005315Y013873D01*
X005299Y013825D01*
X005280Y013779D01*
X005257Y013735D01*
X005230Y013692D01*
X005200Y013652D01*
X005168Y013614D01*
X005132Y013579D01*
X005093Y013547D01*
X005052Y013518D01*
X005009Y013492D01*
X004964Y013470D01*
X004918Y013452D01*
X004870Y013437D01*
X004821Y013426D01*
X004772Y013419D01*
X004722Y013416D01*
X004671Y013417D01*
X004622Y013422D01*
X004572Y013431D01*
X004524Y013444D01*
X004477Y013460D01*
X004431Y013481D01*
X004387Y013505D01*
X004345Y013532D01*
X004305Y013562D01*
X004268Y013596D01*
X004234Y013633D01*
X004202Y013672D01*
X004174Y013713D01*
X004149Y013757D01*
X004128Y013802D01*
X004111Y013849D01*
X004097Y013897D01*
X004087Y013946D01*
X004081Y013996D01*
X004079Y014046D01*
X003134Y014046D02*
X003136Y014123D01*
X003142Y014200D01*
X003151Y014277D01*
X003164Y014353D01*
X003181Y014429D01*
X003202Y014503D01*
X003226Y014577D01*
X003254Y014649D01*
X003285Y014719D01*
X003320Y014788D01*
X003358Y014856D01*
X003399Y014921D01*
X003444Y014984D01*
X003492Y015045D01*
X003542Y015104D01*
X003595Y015160D01*
X003651Y015213D01*
X003710Y015263D01*
X003771Y015311D01*
X003834Y015356D01*
X003899Y015397D01*
X003967Y015435D01*
X004036Y015470D01*
X004106Y015501D01*
X004178Y015529D01*
X004252Y015553D01*
X004326Y015574D01*
X004402Y015591D01*
X004478Y015604D01*
X004555Y015613D01*
X004632Y015619D01*
X004709Y015621D01*
X003135Y014046D02*
X003135Y004990D01*
X004079Y004990D02*
X004081Y005040D01*
X004087Y005090D01*
X004097Y005139D01*
X004111Y005187D01*
X004128Y005234D01*
X004149Y005279D01*
X004174Y005323D01*
X004202Y005364D01*
X004234Y005403D01*
X004268Y005440D01*
X004305Y005474D01*
X004345Y005504D01*
X004387Y005531D01*
X004431Y005555D01*
X004477Y005576D01*
X004524Y005592D01*
X004572Y005605D01*
X004622Y005614D01*
X004671Y005619D01*
X004722Y005620D01*
X004772Y005617D01*
X004821Y005610D01*
X004870Y005599D01*
X004918Y005584D01*
X004964Y005566D01*
X005009Y005544D01*
X005052Y005518D01*
X005093Y005489D01*
X005132Y005457D01*
X005168Y005422D01*
X005200Y005384D01*
X005230Y005344D01*
X005257Y005301D01*
X005280Y005257D01*
X005299Y005211D01*
X005315Y005163D01*
X005327Y005114D01*
X005335Y005065D01*
X005339Y005015D01*
X005339Y004965D01*
X005335Y004915D01*
X005327Y004866D01*
X005315Y004817D01*
X005299Y004769D01*
X005280Y004723D01*
X005257Y004679D01*
X005230Y004636D01*
X005200Y004596D01*
X005168Y004558D01*
X005132Y004523D01*
X005093Y004491D01*
X005052Y004462D01*
X005009Y004436D01*
X004964Y004414D01*
X004918Y004396D01*
X004870Y004381D01*
X004821Y004370D01*
X004772Y004363D01*
X004722Y004360D01*
X004671Y004361D01*
X004622Y004366D01*
X004572Y004375D01*
X004524Y004388D01*
X004477Y004404D01*
X004431Y004425D01*
X004387Y004449D01*
X004345Y004476D01*
X004305Y004506D01*
X004268Y004540D01*
X004234Y004577D01*
X004202Y004616D01*
X004174Y004657D01*
X004149Y004701D01*
X004128Y004746D01*
X004111Y004793D01*
X004097Y004841D01*
X004087Y004890D01*
X004081Y004940D01*
X004079Y004990D01*
X003134Y004990D02*
X003136Y004913D01*
X003142Y004836D01*
X003151Y004759D01*
X003164Y004683D01*
X003181Y004607D01*
X003202Y004533D01*
X003226Y004459D01*
X003254Y004387D01*
X003285Y004317D01*
X003320Y004248D01*
X003358Y004180D01*
X003399Y004115D01*
X003444Y004052D01*
X003492Y003991D01*
X003542Y003932D01*
X003595Y003876D01*
X003651Y003823D01*
X003710Y003773D01*
X003771Y003725D01*
X003834Y003680D01*
X003899Y003639D01*
X003967Y003601D01*
X004036Y003566D01*
X004106Y003535D01*
X004178Y003507D01*
X004252Y003483D01*
X004326Y003462D01*
X004402Y003445D01*
X004478Y003432D01*
X004555Y003423D01*
X004632Y003417D01*
X004709Y003415D01*
D15*
X015135Y012416D02*
X015635Y011916D01*
X018135Y011916D01*
X019135Y010916D01*
X019135Y007916D01*
X019513Y007538D01*
X020891Y007538D01*
X020635Y011416D02*
X020135Y011416D01*
X019635Y011916D01*
X019635Y012916D01*
X018135Y014416D01*
X016635Y014416D01*
X016135Y013916D01*
X016135Y013416D01*
X015135Y013416D02*
X015135Y012416D01*
X020635Y011416D02*
X020891Y011475D01*
D16*
X011402Y011486D02*
X009935Y010016D01*
X009738Y009794D01*
X006285Y009816D01*
X006188Y010040D01*
X006096Y010144D01*
X006120Y010178D01*
X006165Y010265D01*
X006195Y010357D01*
X006210Y010452D01*
X005824Y010452D01*
X005791Y010490D01*
X005829Y010552D01*
X006210Y010552D01*
X006195Y010647D01*
X006165Y010740D01*
X006120Y010826D01*
X006063Y010905D01*
X006053Y010915D01*
X006284Y011290D01*
X006297Y011294D01*
X006311Y011294D01*
X006324Y011290D01*
X008646Y011290D01*
X009237Y011880D01*
X009237Y012864D01*
X010024Y013652D01*
X011009Y013652D01*
X011402Y013258D01*
X011402Y011486D01*
X011402Y011493D02*
X008849Y011493D01*
X008751Y011394D02*
X011310Y011394D01*
X011212Y011296D02*
X008652Y011296D01*
X008948Y011591D02*
X011402Y011591D01*
X011402Y011690D02*
X009046Y011690D01*
X009145Y011788D02*
X011402Y011788D01*
X011402Y011887D02*
X009237Y011887D01*
X009237Y011985D02*
X011402Y011985D01*
X011402Y012084D02*
X009237Y012084D01*
X009237Y012182D02*
X011402Y012182D01*
X011402Y012281D02*
X009237Y012281D01*
X009237Y012379D02*
X011402Y012379D01*
X011402Y012478D02*
X010877Y012478D01*
X010895Y012487D02*
X010820Y012448D01*
X010740Y012422D01*
X010665Y012411D01*
X010665Y012893D01*
X010565Y012893D01*
X010565Y012411D01*
X010490Y012422D01*
X010410Y012448D01*
X010335Y012487D01*
X010267Y012536D01*
X010208Y012595D01*
X010158Y012663D01*
X010120Y012738D01*
X010094Y012818D01*
X010082Y012893D01*
X010565Y012893D01*
X010565Y012993D01*
X010082Y012993D01*
X010094Y013068D01*
X010120Y013148D01*
X010158Y013223D01*
X010208Y013291D01*
X010267Y013350D01*
X010335Y013400D01*
X010410Y013438D01*
X010490Y013464D01*
X010565Y013476D01*
X010565Y012993D01*
X010665Y012993D01*
X011148Y012993D01*
X011136Y013068D01*
X011110Y013148D01*
X011072Y013223D01*
X011022Y013291D01*
X010963Y013350D01*
X010895Y013400D01*
X010820Y013438D01*
X010740Y013464D01*
X010665Y013476D01*
X010665Y012993D01*
X010665Y012893D01*
X011148Y012893D01*
X011136Y012818D01*
X011110Y012738D01*
X011072Y012663D01*
X011022Y012595D01*
X010963Y012536D01*
X010895Y012487D01*
X011003Y012576D02*
X011402Y012576D01*
X011402Y012675D02*
X011077Y012675D01*
X011121Y012773D02*
X011402Y012773D01*
X011402Y012872D02*
X011144Y012872D01*
X011136Y013069D02*
X011402Y013069D01*
X011402Y013167D02*
X011100Y013167D01*
X011041Y013266D02*
X011395Y013266D01*
X011296Y013364D02*
X010944Y013364D01*
X010744Y013463D02*
X011198Y013463D01*
X011099Y013561D02*
X009934Y013561D01*
X009835Y013463D02*
X010486Y013463D01*
X010565Y013463D02*
X010665Y013463D01*
X010665Y013364D02*
X010565Y013364D01*
X010565Y013266D02*
X010665Y013266D01*
X010665Y013167D02*
X010565Y013167D01*
X010565Y013069D02*
X010665Y013069D01*
X010665Y012970D02*
X011402Y012970D01*
X010665Y012872D02*
X010565Y012872D01*
X010565Y012970D02*
X009343Y012970D01*
X009441Y013069D02*
X010094Y013069D01*
X010130Y013167D02*
X009540Y013167D01*
X009638Y013266D02*
X010189Y013266D01*
X010286Y013364D02*
X009737Y013364D01*
X010086Y012872D02*
X009244Y012872D01*
X009237Y012773D02*
X010109Y012773D01*
X010153Y012675D02*
X009237Y012675D01*
X009237Y012576D02*
X010227Y012576D01*
X010353Y012478D02*
X009237Y012478D01*
X010565Y012478D02*
X010665Y012478D01*
X010665Y012576D02*
X010565Y012576D01*
X010565Y012675D02*
X010665Y012675D01*
X010665Y012773D02*
X010565Y012773D01*
X011114Y011197D02*
X006227Y011197D01*
X006166Y011099D02*
X011015Y011099D01*
X010917Y011000D02*
X006105Y011000D01*
X006066Y010902D02*
X010819Y010902D01*
X010720Y010803D02*
X006132Y010803D01*
X006176Y010705D02*
X010622Y010705D01*
X010524Y010606D02*
X006201Y010606D01*
X006203Y010409D02*
X010327Y010409D01*
X010229Y010311D02*
X006179Y010311D01*
X006138Y010212D02*
X010131Y010212D01*
X010032Y010114D02*
X006123Y010114D01*
X006199Y010015D02*
X009934Y010015D01*
X009847Y009917D02*
X006241Y009917D01*
X006284Y009818D02*
X009760Y009818D01*
X010426Y010508D02*
X005801Y010508D01*
X006285Y009216D02*
X006206Y009046D01*
X006064Y008936D01*
X006120Y008858D01*
X006165Y008771D01*
X006195Y008679D01*
X006210Y008584D01*
X005735Y008584D01*
X005821Y008484D01*
X006210Y008484D01*
X006195Y008389D01*
X006165Y008296D01*
X006120Y008210D01*
X006091Y008169D01*
X007465Y006565D01*
X008646Y006565D01*
X009040Y006959D01*
X009040Y007943D01*
X007788Y009212D01*
X006285Y009216D01*
X006244Y009129D02*
X007871Y009129D01*
X007968Y009030D02*
X006186Y009030D01*
X006067Y008932D02*
X008065Y008932D01*
X008162Y008833D02*
X006133Y008833D01*
X006176Y008735D02*
X008259Y008735D01*
X008356Y008636D02*
X006201Y008636D01*
X006203Y008439D02*
X008551Y008439D01*
X008648Y008341D02*
X006179Y008341D01*
X006137Y008242D02*
X008745Y008242D01*
X008842Y008144D02*
X006112Y008144D01*
X006197Y008045D02*
X008940Y008045D01*
X009037Y007947D02*
X006281Y007947D01*
X006366Y007848D02*
X008050Y007848D01*
X008048Y007847D02*
X007973Y007809D01*
X007905Y007760D01*
X007846Y007700D01*
X007796Y007632D01*
X007758Y007558D01*
X007732Y007478D01*
X007720Y007403D01*
X008203Y007403D01*
X008203Y007885D01*
X008128Y007873D01*
X008048Y007847D01*
X008203Y007848D02*
X008303Y007848D01*
X008303Y007885D02*
X008303Y007403D01*
X008203Y007403D01*
X008203Y007303D01*
X007720Y007303D01*
X007732Y007228D01*
X007758Y007148D01*
X007796Y007073D01*
X007846Y007005D01*
X007905Y006945D01*
X007973Y006896D01*
X008048Y006858D01*
X008128Y006832D01*
X008203Y006820D01*
X008203Y007303D01*
X008303Y007303D01*
X008303Y007403D01*
X008785Y007403D01*
X008773Y007478D01*
X008748Y007558D01*
X008709Y007632D01*
X008660Y007700D01*
X008601Y007760D01*
X008533Y007809D01*
X008458Y007847D01*
X008378Y007873D01*
X008303Y007885D01*
X008303Y007750D02*
X008203Y007750D01*
X008203Y007651D02*
X008303Y007651D01*
X008303Y007553D02*
X008203Y007553D01*
X008203Y007454D02*
X008303Y007454D01*
X008303Y007356D02*
X009040Y007356D01*
X009040Y007454D02*
X008777Y007454D01*
X008749Y007553D02*
X009040Y007553D01*
X009040Y007651D02*
X008696Y007651D01*
X008611Y007750D02*
X009040Y007750D01*
X009040Y007848D02*
X008455Y007848D01*
X007895Y007750D02*
X006450Y007750D01*
X006535Y007651D02*
X007810Y007651D01*
X007756Y007553D02*
X006619Y007553D01*
X006703Y007454D02*
X007728Y007454D01*
X007727Y007257D02*
X006872Y007257D01*
X006788Y007356D02*
X008203Y007356D01*
X008203Y007257D02*
X008303Y007257D01*
X008303Y007303D02*
X008303Y006820D01*
X008378Y006832D01*
X008458Y006858D01*
X008533Y006896D01*
X008601Y006945D01*
X008660Y007005D01*
X008709Y007073D01*
X008748Y007148D01*
X008773Y007228D01*
X008785Y007303D01*
X008303Y007303D01*
X008303Y007159D02*
X008203Y007159D01*
X008203Y007060D02*
X008303Y007060D01*
X008303Y006962D02*
X008203Y006962D01*
X008203Y006863D02*
X008303Y006863D01*
X008468Y006863D02*
X008944Y006863D01*
X009040Y006962D02*
X008617Y006962D01*
X008700Y007060D02*
X009040Y007060D01*
X009040Y007159D02*
X008751Y007159D01*
X008778Y007257D02*
X009040Y007257D01*
X008846Y006765D02*
X007294Y006765D01*
X007210Y006863D02*
X008038Y006863D01*
X007889Y006962D02*
X007126Y006962D01*
X007041Y007060D02*
X007805Y007060D01*
X007754Y007159D02*
X006957Y007159D01*
X007379Y006666D02*
X008747Y006666D01*
X008649Y006568D02*
X007463Y006568D01*
X008454Y008538D02*
X005775Y008538D01*
D17*
X005135Y008566D02*
X007035Y008566D01*
X005135Y010516D02*
X009235Y010516D01*
D18*
X010635Y012416D02*
X010635Y012916D01*
D19*
X007035Y008566D02*
X008285Y007316D01*
M02*
