G75*
G70*
%OFA0B0*%
%FSLAX24Y24*%
%IPPOS*%
%LPD*%
%AMOC8*
5,1,8,0,0,1.08239X$1,22.5*
%
%ADD10C,0.0060*%
%ADD11C,0.0090*%
%ADD12C,0.0050*%
%ADD13C,0.0080*%
%ADD14C,0.0030*%
%ADD15C,0.0010*%
%ADD16C,0.0000*%
D10*
X009202Y006112D02*
X009146Y006168D01*
X009202Y006112D02*
X009316Y006112D01*
X009373Y006168D01*
X009373Y006225D01*
X009316Y006282D01*
X009202Y006282D01*
X009146Y006339D01*
X009146Y006395D01*
X009202Y006452D01*
X009316Y006452D01*
X009373Y006395D01*
X009514Y006282D02*
X009514Y006168D01*
X009571Y006112D01*
X009684Y006112D01*
X009741Y006168D01*
X009741Y006282D01*
X009684Y006339D01*
X009571Y006339D01*
X009514Y006282D01*
X009882Y006339D02*
X009882Y006112D01*
X010109Y006112D02*
X010109Y006282D01*
X010053Y006339D01*
X009882Y006339D01*
X010251Y006282D02*
X010251Y006168D01*
X010307Y006112D01*
X010478Y006112D01*
X010478Y006055D02*
X010478Y006339D01*
X010307Y006339D01*
X010251Y006282D01*
X010364Y005998D02*
X010421Y005998D01*
X010478Y006055D01*
X010619Y006112D02*
X010732Y006112D01*
X010676Y006112D02*
X010676Y006452D01*
X010619Y006452D01*
X010865Y006282D02*
X010921Y006339D01*
X011035Y006339D01*
X011091Y006282D01*
X011091Y006225D01*
X010865Y006225D01*
X010865Y006168D02*
X010865Y006282D01*
X010865Y006168D02*
X010921Y006112D01*
X011035Y006112D01*
X011601Y006168D02*
X011658Y006112D01*
X011771Y006112D01*
X011828Y006168D01*
X011828Y006225D01*
X011771Y006282D01*
X011658Y006282D01*
X011601Y006339D01*
X011601Y006395D01*
X011658Y006452D01*
X011771Y006452D01*
X011828Y006395D01*
X011969Y006452D02*
X012140Y006452D01*
X012196Y006395D01*
X012196Y006282D01*
X012140Y006225D01*
X011969Y006225D01*
X011969Y006112D02*
X011969Y006452D01*
X012083Y006225D02*
X012196Y006112D01*
X012338Y006112D02*
X012508Y006112D01*
X012565Y006168D01*
X012565Y006395D01*
X012508Y006452D01*
X012338Y006452D01*
X012338Y006112D01*
X016493Y007716D02*
X017777Y007716D01*
X018714Y007634D02*
X018714Y007521D01*
X018771Y007464D01*
X018998Y007464D01*
X019055Y007521D01*
X019055Y007634D01*
X018998Y007691D01*
X018998Y007832D02*
X018771Y007832D01*
X018714Y007889D01*
X018714Y008002D01*
X018771Y008059D01*
X018998Y008059D02*
X019055Y008002D01*
X019055Y007889D01*
X018998Y007832D01*
X018771Y007691D02*
X018714Y007634D01*
X018714Y007322D02*
X018941Y007322D01*
X019055Y007209D01*
X018941Y007096D01*
X018714Y007096D01*
X019237Y006553D02*
X019633Y006553D01*
X019865Y006553D01*
X019918Y006553D01*
X019918Y012459D01*
X021898Y012459D01*
X021898Y006553D01*
X019918Y006553D01*
X019237Y006553D02*
X019237Y012459D01*
X019918Y012459D01*
X019043Y012093D02*
X019043Y011923D01*
X018703Y011923D01*
X018703Y012093D01*
X018759Y012150D01*
X018986Y012150D01*
X019043Y012093D01*
X019043Y011781D02*
X018703Y011781D01*
X018703Y011554D02*
X019043Y011781D01*
X019043Y011554D02*
X018703Y011554D01*
X018759Y011413D02*
X018703Y011356D01*
X018703Y011243D01*
X018759Y011186D01*
X018986Y011186D01*
X019043Y011243D01*
X019043Y011356D01*
X018986Y011413D01*
X018873Y011413D01*
X018873Y011300D01*
X019043Y010318D02*
X019043Y010091D01*
X018703Y010091D01*
X018759Y009950D02*
X018873Y009950D01*
X018929Y009893D01*
X018929Y009723D01*
X018929Y009836D02*
X019043Y009950D01*
X019043Y009723D02*
X018703Y009723D01*
X018703Y009893D01*
X018759Y009950D01*
X018703Y009581D02*
X018703Y009354D01*
X018703Y009468D02*
X019043Y009468D01*
X018986Y009213D02*
X019043Y009156D01*
X019043Y009043D01*
X018986Y008986D01*
X018759Y008986D01*
X018703Y009043D01*
X018703Y009156D01*
X018759Y009213D01*
X016753Y009286D02*
X016699Y009260D01*
X016645Y009230D01*
X016594Y009197D01*
X016545Y009161D01*
X016499Y009122D01*
X016455Y009079D01*
X016414Y009035D01*
X016376Y008987D01*
X016341Y008937D01*
X016309Y008885D01*
X016281Y008832D01*
X016256Y008776D01*
X016235Y008719D01*
X016217Y008661D01*
X016203Y008602D01*
X016193Y008542D01*
X016187Y008481D01*
X016185Y008420D01*
X016187Y008359D01*
X016192Y008299D01*
X016202Y008239D01*
X016215Y008179D01*
X016232Y008121D01*
X016253Y008064D01*
X016277Y008008D01*
X016305Y007954D01*
X016336Y007902D01*
X016371Y007852D01*
X016409Y007804D01*
X016449Y007759D01*
X016493Y007716D01*
X017777Y007716D02*
X017821Y007759D01*
X017861Y007804D01*
X017899Y007852D01*
X017934Y007902D01*
X017965Y007954D01*
X017993Y008008D01*
X018017Y008064D01*
X018038Y008121D01*
X018055Y008179D01*
X018068Y008239D01*
X018078Y008299D01*
X018083Y008359D01*
X018085Y008420D01*
X018083Y008481D01*
X018077Y008542D01*
X018067Y008602D01*
X018053Y008661D01*
X018035Y008719D01*
X018014Y008776D01*
X017989Y008832D01*
X017961Y008885D01*
X017929Y008937D01*
X017894Y008987D01*
X017856Y009035D01*
X017815Y009079D01*
X017771Y009122D01*
X017725Y009161D01*
X017676Y009197D01*
X017625Y009230D01*
X017571Y009260D01*
X017517Y009286D01*
X021898Y006553D02*
X022190Y006553D01*
X022190Y012459D01*
X021898Y012459D01*
X012491Y014196D02*
X012434Y014139D01*
X012320Y014139D01*
X012264Y014196D01*
X012264Y014423D01*
X012320Y014480D01*
X012434Y014480D01*
X012491Y014423D01*
X012122Y014366D02*
X012122Y014139D01*
X012122Y014309D02*
X011895Y014309D01*
X011895Y014366D02*
X012009Y014480D01*
X012122Y014366D01*
X011895Y014366D02*
X011895Y014139D01*
X011754Y014253D02*
X011754Y014480D01*
X011527Y014480D02*
X011527Y014253D01*
X011641Y014139D01*
X011754Y014253D01*
X011386Y014196D02*
X011329Y014139D01*
X011215Y014139D01*
X011159Y014196D01*
X011386Y014423D01*
X011386Y014196D01*
X011159Y014196D02*
X011159Y014423D01*
X011215Y014480D01*
X011329Y014480D01*
X011386Y014423D01*
X011017Y014480D02*
X010790Y014480D01*
X010790Y014309D01*
X010904Y014366D01*
X010961Y014366D01*
X011017Y014309D01*
X011017Y014196D01*
X010961Y014139D01*
X010847Y014139D01*
X010790Y014196D01*
X010649Y014139D02*
X010422Y014139D01*
X010649Y014366D01*
X010649Y014423D01*
X010592Y014480D01*
X010479Y014480D01*
X010422Y014423D01*
X009912Y014366D02*
X009912Y014139D01*
X009912Y014309D02*
X009686Y014309D01*
X009686Y014366D02*
X009799Y014480D01*
X009912Y014366D01*
X009686Y014366D02*
X009686Y014139D01*
X009544Y014196D02*
X009487Y014139D01*
X009374Y014139D01*
X009317Y014196D01*
X009544Y014423D01*
X009544Y014196D01*
X009317Y014196D02*
X009317Y014423D01*
X009374Y014480D01*
X009487Y014480D01*
X009544Y014423D01*
X009176Y014139D02*
X008949Y014139D01*
X009062Y014139D02*
X009062Y014480D01*
X008949Y014366D01*
X006776Y011486D02*
X006381Y011486D01*
X006148Y011486D01*
X006095Y011486D01*
X006095Y007549D01*
X004115Y007549D01*
X004115Y011486D01*
X006095Y011486D01*
X006776Y011486D02*
X006776Y007549D01*
X006095Y007549D01*
X006091Y007273D02*
X006034Y007273D01*
X006091Y007273D02*
X006091Y006933D01*
X006034Y006933D02*
X006148Y006933D01*
X006280Y006990D02*
X006336Y006933D01*
X006506Y006933D01*
X006506Y006876D02*
X006450Y006820D01*
X006393Y006820D01*
X006506Y006876D02*
X006506Y007160D01*
X006280Y007160D02*
X006280Y006990D01*
X005902Y006933D02*
X005789Y006933D01*
X005845Y006933D02*
X005845Y007273D01*
X005789Y007273D01*
X005647Y007103D02*
X005647Y006933D01*
X005477Y006933D01*
X005420Y006990D01*
X005477Y007046D01*
X005647Y007046D01*
X005647Y007103D02*
X005590Y007160D01*
X005477Y007160D01*
X005279Y007103D02*
X005279Y006933D01*
X005165Y006933D02*
X005165Y007103D01*
X005222Y007160D01*
X005279Y007103D01*
X005165Y007103D02*
X005109Y007160D01*
X005052Y007160D01*
X005052Y006933D01*
X004915Y007160D02*
X004858Y007160D01*
X004745Y007046D01*
X004745Y006933D02*
X004745Y007160D01*
X004604Y007103D02*
X004604Y006990D01*
X004547Y006933D01*
X004433Y006933D01*
X004377Y006990D01*
X004377Y007103D01*
X004433Y007160D01*
X004547Y007160D01*
X004604Y007103D01*
X004235Y006933D02*
X004235Y007273D01*
X004008Y007273D02*
X004235Y006933D01*
X004008Y006933D02*
X004008Y007273D01*
X004115Y007549D02*
X003824Y007549D01*
X003824Y011486D01*
X004115Y011486D01*
X004075Y006626D02*
X004018Y006570D01*
X004018Y006343D01*
X004075Y006286D01*
X004188Y006286D01*
X004245Y006343D01*
X004245Y006570D01*
X004188Y006626D01*
X004075Y006626D01*
X004386Y006513D02*
X004556Y006513D01*
X004613Y006456D01*
X004613Y006343D01*
X004556Y006286D01*
X004386Y006286D01*
X004386Y006173D02*
X004386Y006513D01*
X004754Y006456D02*
X004811Y006513D01*
X004925Y006513D01*
X004981Y006456D01*
X004981Y006400D01*
X004754Y006400D01*
X004754Y006456D02*
X004754Y006343D01*
X004811Y006286D01*
X004925Y006286D01*
X005123Y006286D02*
X005123Y006513D01*
X005293Y006513D01*
X005350Y006456D01*
X005350Y006286D01*
X016135Y005916D02*
X016137Y005979D01*
X016143Y006041D01*
X016153Y006103D01*
X016166Y006165D01*
X016184Y006225D01*
X016205Y006284D01*
X016230Y006342D01*
X016259Y006398D01*
X016291Y006452D01*
X016326Y006504D01*
X016364Y006553D01*
X016406Y006601D01*
X016450Y006645D01*
X016498Y006687D01*
X016547Y006725D01*
X016599Y006760D01*
X016653Y006792D01*
X016709Y006821D01*
X016767Y006846D01*
X016826Y006867D01*
X016886Y006885D01*
X016948Y006898D01*
X017010Y006908D01*
X017072Y006914D01*
X017135Y006916D01*
X017198Y006914D01*
X017260Y006908D01*
X017322Y006898D01*
X017384Y006885D01*
X017444Y006867D01*
X017503Y006846D01*
X017561Y006821D01*
X017617Y006792D01*
X017671Y006760D01*
X017723Y006725D01*
X017772Y006687D01*
X017820Y006645D01*
X017864Y006601D01*
X017906Y006553D01*
X017944Y006504D01*
X017979Y006452D01*
X018011Y006398D01*
X018040Y006342D01*
X018065Y006284D01*
X018086Y006225D01*
X018104Y006165D01*
X018117Y006103D01*
X018127Y006041D01*
X018133Y005979D01*
X018135Y005916D01*
X018133Y005853D01*
X018127Y005791D01*
X018117Y005729D01*
X018104Y005667D01*
X018086Y005607D01*
X018065Y005548D01*
X018040Y005490D01*
X018011Y005434D01*
X017979Y005380D01*
X017944Y005328D01*
X017906Y005279D01*
X017864Y005231D01*
X017820Y005187D01*
X017772Y005145D01*
X017723Y005107D01*
X017671Y005072D01*
X017617Y005040D01*
X017561Y005011D01*
X017503Y004986D01*
X017444Y004965D01*
X017384Y004947D01*
X017322Y004934D01*
X017260Y004924D01*
X017198Y004918D01*
X017135Y004916D01*
X017072Y004918D01*
X017010Y004924D01*
X016948Y004934D01*
X016886Y004947D01*
X016826Y004965D01*
X016767Y004986D01*
X016709Y005011D01*
X016653Y005040D01*
X016599Y005072D01*
X016547Y005107D01*
X016498Y005145D01*
X016450Y005187D01*
X016406Y005231D01*
X016364Y005279D01*
X016326Y005328D01*
X016291Y005380D01*
X016259Y005434D01*
X016230Y005490D01*
X016205Y005548D01*
X016184Y005607D01*
X016166Y005667D01*
X016153Y005729D01*
X016143Y005791D01*
X016137Y005853D01*
X016135Y005916D01*
D11*
X014852Y004677D02*
X014767Y004762D01*
X014512Y004762D01*
X014512Y004251D01*
X014767Y004251D01*
X014852Y004336D01*
X014852Y004421D01*
X014767Y004506D01*
X014512Y004506D01*
X014767Y004506D02*
X014852Y004591D01*
X014852Y004677D01*
X014300Y004677D02*
X014215Y004762D01*
X014045Y004762D01*
X013960Y004677D01*
X013960Y004336D01*
X014045Y004251D01*
X014215Y004251D01*
X014300Y004336D01*
X013747Y004506D02*
X013747Y004677D01*
X013662Y004762D01*
X013407Y004762D01*
X013407Y004251D01*
X013407Y004421D02*
X013662Y004421D01*
X013747Y004506D01*
X012656Y004251D02*
X012486Y004251D01*
X012571Y004251D02*
X012571Y004762D01*
X012486Y004762D01*
X012274Y004506D02*
X012189Y004591D01*
X012019Y004591D01*
X011934Y004506D01*
X011934Y004336D01*
X012019Y004251D01*
X012189Y004251D01*
X012274Y004336D01*
X012274Y004506D01*
X011729Y004591D02*
X011644Y004591D01*
X011473Y004421D01*
X011473Y004251D02*
X011473Y004591D01*
X011275Y004591D02*
X011105Y004591D01*
X011190Y004677D02*
X011190Y004336D01*
X011275Y004251D01*
X010893Y004251D02*
X010893Y004506D01*
X010808Y004591D01*
X010553Y004591D01*
X010553Y004251D01*
X010340Y004336D02*
X010340Y004506D01*
X010255Y004591D01*
X010085Y004591D01*
X010000Y004506D01*
X010000Y004336D01*
X010085Y004251D01*
X010255Y004251D01*
X010340Y004336D01*
X009788Y004336D02*
X009703Y004251D01*
X009533Y004251D01*
X009448Y004336D01*
X009448Y004677D01*
X009533Y004762D01*
X009703Y004762D01*
X009788Y004677D01*
X008683Y004591D02*
X008683Y004166D01*
X008598Y004081D01*
X008513Y004081D01*
X008428Y004251D02*
X008343Y004336D01*
X008343Y004591D01*
X008131Y004506D02*
X008131Y004251D01*
X007875Y004251D01*
X007790Y004336D01*
X007875Y004421D01*
X008131Y004421D01*
X008131Y004506D02*
X008046Y004591D01*
X007875Y004591D01*
X007507Y004762D02*
X007507Y004251D01*
X007422Y004251D02*
X007592Y004251D01*
X007210Y004421D02*
X006870Y004421D01*
X006870Y004336D02*
X006870Y004506D01*
X006955Y004591D01*
X007125Y004591D01*
X007210Y004506D01*
X007210Y004421D01*
X007125Y004251D02*
X006955Y004251D01*
X006870Y004336D01*
X006657Y004251D02*
X006487Y004421D01*
X006572Y004421D02*
X006317Y004421D01*
X006317Y004251D02*
X006317Y004762D01*
X006572Y004762D01*
X006657Y004677D01*
X006657Y004506D01*
X006572Y004421D01*
X007422Y004762D02*
X007507Y004762D01*
X008428Y004251D02*
X008683Y004251D01*
X006333Y011854D02*
X006078Y011854D01*
X006078Y012365D01*
X006333Y012365D01*
X006418Y012280D01*
X006418Y011939D01*
X006333Y011854D01*
X005865Y011854D02*
X005865Y012195D01*
X005695Y012365D01*
X005525Y012195D01*
X005525Y011854D01*
X005313Y011939D02*
X005313Y012280D01*
X005228Y012365D01*
X005058Y012365D01*
X004973Y012280D01*
X004973Y011939D01*
X005058Y011854D01*
X005228Y011854D01*
X005313Y011939D01*
X005525Y012110D02*
X005865Y012110D01*
X004760Y011854D02*
X004420Y011854D01*
X004420Y012365D01*
D12*
X003708Y008595D02*
X003708Y008295D01*
X003708Y008445D02*
X003258Y008445D01*
X003408Y008295D01*
X016468Y007585D02*
X016468Y007314D01*
X016603Y007314D01*
X016648Y007359D01*
X016648Y007404D01*
X016603Y007449D01*
X016468Y007449D01*
X016603Y007449D02*
X016648Y007494D01*
X016648Y007540D01*
X016603Y007585D01*
X016468Y007585D01*
X016763Y007540D02*
X016763Y007359D01*
X016808Y007314D01*
X016898Y007314D01*
X016943Y007359D01*
X017058Y007359D02*
X017103Y007314D01*
X017193Y007314D01*
X017238Y007359D01*
X017238Y007449D01*
X017193Y007494D01*
X017148Y007494D01*
X017058Y007449D01*
X017058Y007585D01*
X017238Y007585D01*
X017352Y007449D02*
X017532Y007449D01*
X017487Y007314D02*
X017487Y007585D01*
X017352Y007449D01*
X016943Y007540D02*
X016898Y007585D01*
X016808Y007585D01*
X016763Y007540D01*
X017647Y007585D02*
X017827Y007585D01*
X017827Y007540D01*
X017647Y007359D01*
X017647Y007314D01*
X022305Y011453D02*
X022455Y011303D01*
X022305Y011453D02*
X022755Y011453D01*
X022755Y011303D02*
X022755Y011603D01*
D13*
X017435Y010916D02*
X017135Y010916D01*
X017135Y010816D01*
X017135Y010916D02*
X016835Y010916D01*
X016835Y012916D01*
X017135Y012916D01*
X017135Y013016D01*
X017135Y012916D02*
X017435Y012916D01*
X017435Y010916D01*
X016435Y010916D02*
X016135Y010916D01*
X016135Y010816D01*
X016135Y010916D02*
X015835Y010916D01*
X015835Y012916D01*
X016135Y012916D01*
X016135Y013016D01*
X016135Y012916D02*
X016435Y012916D01*
X016435Y010916D01*
X015435Y010916D02*
X015135Y010916D01*
X015135Y010816D01*
X015135Y010916D02*
X014835Y010916D01*
X014835Y012916D01*
X015135Y012916D01*
X015135Y013016D01*
X015135Y012916D02*
X015435Y012916D01*
X015435Y010916D01*
X015385Y012666D02*
X014885Y012666D01*
X013725Y013569D02*
X013725Y005467D01*
X013723Y005438D01*
X013718Y005410D01*
X013709Y005382D01*
X013698Y005355D01*
X013683Y005331D01*
X013665Y005308D01*
X013644Y005287D01*
X013621Y005269D01*
X013597Y005254D01*
X013570Y005243D01*
X013542Y005234D01*
X013514Y005229D01*
X013485Y005227D01*
X007745Y005227D01*
X007716Y005229D01*
X007688Y005234D01*
X007660Y005243D01*
X007633Y005254D01*
X007609Y005269D01*
X007586Y005287D01*
X007565Y005308D01*
X007547Y005331D01*
X007532Y005355D01*
X007521Y005382D01*
X007512Y005410D01*
X007507Y005438D01*
X007505Y005467D01*
X007505Y013569D01*
X007507Y013598D01*
X007512Y013626D01*
X007521Y013654D01*
X007532Y013681D01*
X007547Y013705D01*
X007565Y013728D01*
X007586Y013749D01*
X007609Y013767D01*
X007633Y013782D01*
X007660Y013793D01*
X007688Y013802D01*
X007716Y013807D01*
X007745Y013809D01*
X013485Y013809D01*
X013514Y013807D01*
X013542Y013802D01*
X013570Y013793D01*
X013597Y013782D01*
X013621Y013767D01*
X013644Y013749D01*
X013665Y013728D01*
X013683Y013705D01*
X013698Y013681D01*
X013709Y013654D01*
X013718Y013626D01*
X013723Y013598D01*
X013725Y013569D01*
X015135Y008516D02*
X015135Y008416D01*
X015435Y008416D01*
X015435Y006416D01*
X015135Y006416D01*
X015135Y006316D01*
X015135Y006416D02*
X014835Y006416D01*
X014835Y008416D01*
X015135Y008416D01*
X016135Y006666D02*
X016135Y005166D01*
D14*
X015990Y005392D02*
X015990Y005586D01*
X015990Y005687D02*
X015699Y005687D01*
X015699Y005880D01*
X015699Y005981D02*
X015699Y006126D01*
X015748Y006175D01*
X015941Y006175D01*
X015990Y006126D01*
X015990Y005981D01*
X015699Y005981D01*
X015990Y005880D02*
X015990Y005687D01*
X015845Y005687D02*
X015845Y005783D01*
X015699Y005392D02*
X015990Y005392D01*
X015990Y006276D02*
X015990Y006469D01*
X015990Y006373D02*
X015699Y006373D01*
X015796Y006276D01*
X015290Y007141D02*
X014999Y007141D01*
X014999Y007286D01*
X015048Y007335D01*
X015145Y007335D01*
X015193Y007286D01*
X015193Y007141D01*
X015193Y007238D02*
X015290Y007335D01*
X015145Y007436D02*
X015145Y007629D01*
X015290Y007581D02*
X014999Y007581D01*
X015145Y007436D01*
X019572Y006325D02*
X019926Y006325D01*
X019865Y006553D01*
X019633Y006553D02*
X019572Y006325D01*
X019572Y007538D02*
X019574Y007564D01*
X019580Y007590D01*
X019590Y007615D01*
X019603Y007638D01*
X019619Y007658D01*
X019639Y007676D01*
X019661Y007691D01*
X019684Y007703D01*
X019710Y007711D01*
X019736Y007715D01*
X019762Y007715D01*
X019788Y007711D01*
X019814Y007703D01*
X019838Y007691D01*
X019859Y007676D01*
X019879Y007658D01*
X019895Y007638D01*
X019908Y007615D01*
X019918Y007590D01*
X019924Y007564D01*
X019926Y007538D01*
X019924Y007512D01*
X019918Y007486D01*
X019908Y007461D01*
X019895Y007438D01*
X019879Y007418D01*
X019859Y007400D01*
X019837Y007385D01*
X019814Y007373D01*
X019788Y007365D01*
X019762Y007361D01*
X019736Y007361D01*
X019710Y007365D01*
X019684Y007373D01*
X019660Y007385D01*
X019639Y007400D01*
X019619Y007418D01*
X019603Y007438D01*
X019590Y007461D01*
X019580Y007486D01*
X019574Y007512D01*
X019572Y007538D01*
X019572Y009506D02*
X019574Y009532D01*
X019580Y009558D01*
X019590Y009583D01*
X019603Y009606D01*
X019619Y009626D01*
X019639Y009644D01*
X019661Y009659D01*
X019684Y009671D01*
X019710Y009679D01*
X019736Y009683D01*
X019762Y009683D01*
X019788Y009679D01*
X019814Y009671D01*
X019838Y009659D01*
X019859Y009644D01*
X019879Y009626D01*
X019895Y009606D01*
X019908Y009583D01*
X019918Y009558D01*
X019924Y009532D01*
X019926Y009506D01*
X019924Y009480D01*
X019918Y009454D01*
X019908Y009429D01*
X019895Y009406D01*
X019879Y009386D01*
X019859Y009368D01*
X019837Y009353D01*
X019814Y009341D01*
X019788Y009333D01*
X019762Y009329D01*
X019736Y009329D01*
X019710Y009333D01*
X019684Y009341D01*
X019660Y009353D01*
X019639Y009368D01*
X019619Y009386D01*
X019603Y009406D01*
X019590Y009429D01*
X019580Y009454D01*
X019574Y009480D01*
X019572Y009506D01*
X019572Y011475D02*
X019574Y011501D01*
X019580Y011527D01*
X019590Y011552D01*
X019603Y011575D01*
X019619Y011595D01*
X019639Y011613D01*
X019661Y011628D01*
X019684Y011640D01*
X019710Y011648D01*
X019736Y011652D01*
X019762Y011652D01*
X019788Y011648D01*
X019814Y011640D01*
X019838Y011628D01*
X019859Y011613D01*
X019879Y011595D01*
X019895Y011575D01*
X019908Y011552D01*
X019918Y011527D01*
X019924Y011501D01*
X019926Y011475D01*
X019924Y011449D01*
X019918Y011423D01*
X019908Y011398D01*
X019895Y011375D01*
X019879Y011355D01*
X019859Y011337D01*
X019837Y011322D01*
X019814Y011310D01*
X019788Y011302D01*
X019762Y011298D01*
X019736Y011298D01*
X019710Y011302D01*
X019684Y011310D01*
X019660Y011322D01*
X019639Y011337D01*
X019619Y011355D01*
X019603Y011375D01*
X019590Y011398D01*
X019580Y011423D01*
X019574Y011449D01*
X019572Y011475D01*
X017270Y011681D02*
X016979Y011681D01*
X016979Y011826D01*
X017028Y011874D01*
X017125Y011874D01*
X017173Y011826D01*
X017173Y011681D01*
X017173Y011777D02*
X017270Y011874D01*
X017270Y011975D02*
X017076Y012169D01*
X017028Y012169D01*
X016979Y012120D01*
X016979Y012024D01*
X017028Y011975D01*
X017270Y011975D02*
X017270Y012169D01*
X016270Y012169D02*
X016270Y011975D01*
X016270Y012072D02*
X015979Y012072D01*
X016076Y011975D01*
X016028Y011874D02*
X016125Y011874D01*
X016173Y011826D01*
X016173Y011681D01*
X016173Y011777D02*
X016270Y011874D01*
X016270Y011681D02*
X015979Y011681D01*
X015979Y011826D01*
X016028Y011874D01*
X015270Y011826D02*
X015270Y011681D01*
X014979Y011681D01*
X014979Y011826D01*
X015028Y011874D01*
X015221Y011874D01*
X015270Y011826D01*
X015270Y011975D02*
X015270Y012169D01*
X015270Y012072D02*
X014979Y012072D01*
X015076Y011975D01*
X006442Y011715D02*
X006381Y011486D01*
X006148Y011486D02*
X006087Y011715D01*
X006442Y011715D01*
X006088Y010502D02*
X006090Y010528D01*
X006096Y010554D01*
X006106Y010579D01*
X006119Y010602D01*
X006135Y010622D01*
X006155Y010640D01*
X006177Y010655D01*
X006200Y010667D01*
X006226Y010675D01*
X006252Y010679D01*
X006278Y010679D01*
X006304Y010675D01*
X006330Y010667D01*
X006354Y010655D01*
X006375Y010640D01*
X006395Y010622D01*
X006411Y010602D01*
X006424Y010579D01*
X006434Y010554D01*
X006440Y010528D01*
X006442Y010502D01*
X006440Y010476D01*
X006434Y010450D01*
X006424Y010425D01*
X006411Y010402D01*
X006395Y010382D01*
X006375Y010364D01*
X006353Y010349D01*
X006330Y010337D01*
X006304Y010329D01*
X006278Y010325D01*
X006252Y010325D01*
X006226Y010329D01*
X006200Y010337D01*
X006176Y010349D01*
X006155Y010364D01*
X006135Y010382D01*
X006119Y010402D01*
X006106Y010425D01*
X006096Y010450D01*
X006090Y010476D01*
X006088Y010502D01*
X006088Y008534D02*
X006090Y008560D01*
X006096Y008586D01*
X006106Y008611D01*
X006119Y008634D01*
X006135Y008654D01*
X006155Y008672D01*
X006177Y008687D01*
X006200Y008699D01*
X006226Y008707D01*
X006252Y008711D01*
X006278Y008711D01*
X006304Y008707D01*
X006330Y008699D01*
X006354Y008687D01*
X006375Y008672D01*
X006395Y008654D01*
X006411Y008634D01*
X006424Y008611D01*
X006434Y008586D01*
X006440Y008560D01*
X006442Y008534D01*
X006440Y008508D01*
X006434Y008482D01*
X006424Y008457D01*
X006411Y008434D01*
X006395Y008414D01*
X006375Y008396D01*
X006353Y008381D01*
X006330Y008369D01*
X006304Y008361D01*
X006278Y008357D01*
X006252Y008357D01*
X006226Y008361D01*
X006200Y008369D01*
X006176Y008381D01*
X006155Y008396D01*
X006135Y008414D01*
X006119Y008434D01*
X006106Y008457D01*
X006096Y008482D01*
X006090Y008508D01*
X006088Y008534D01*
D15*
X016103Y005136D02*
X016175Y005190D01*
X016174Y005189D02*
X016217Y005136D01*
X016262Y005085D01*
X016311Y005037D01*
X016362Y004992D01*
X016416Y004949D01*
X016472Y004910D01*
X016530Y004874D01*
X016590Y004841D01*
X016651Y004812D01*
X016715Y004787D01*
X016779Y004765D01*
X016845Y004746D01*
X016912Y004732D01*
X016979Y004721D01*
X017047Y004714D01*
X017115Y004711D01*
X017184Y004712D01*
X017252Y004717D01*
X017320Y004725D01*
X017387Y004738D01*
X017453Y004754D01*
X017518Y004774D01*
X017583Y004797D01*
X017645Y004824D01*
X017706Y004855D01*
X017765Y004889D01*
X017823Y004926D01*
X017878Y004967D01*
X017930Y005011D01*
X017980Y005057D01*
X018027Y005106D01*
X018072Y005158D01*
X018113Y005212D01*
X018152Y005269D01*
X018187Y005328D01*
X018218Y005388D01*
X018246Y005450D01*
X018271Y005514D01*
X018292Y005579D01*
X018309Y005645D01*
X018323Y005712D01*
X018332Y005780D01*
X018338Y005848D01*
X018340Y005916D01*
X018338Y005984D01*
X018332Y006052D01*
X018323Y006120D01*
X018309Y006187D01*
X018292Y006253D01*
X018271Y006318D01*
X018246Y006382D01*
X018218Y006444D01*
X018187Y006504D01*
X018152Y006563D01*
X018113Y006620D01*
X018072Y006674D01*
X018027Y006726D01*
X017980Y006775D01*
X017930Y006821D01*
X017878Y006865D01*
X017823Y006906D01*
X017765Y006943D01*
X017706Y006977D01*
X017645Y007008D01*
X017583Y007035D01*
X017518Y007058D01*
X017453Y007078D01*
X017387Y007094D01*
X017320Y007107D01*
X017252Y007115D01*
X017184Y007120D01*
X017115Y007121D01*
X017047Y007118D01*
X016979Y007111D01*
X016912Y007100D01*
X016845Y007086D01*
X016779Y007067D01*
X016715Y007045D01*
X016651Y007020D01*
X016590Y006991D01*
X016530Y006958D01*
X016472Y006922D01*
X016416Y006883D01*
X016362Y006840D01*
X016311Y006795D01*
X016262Y006747D01*
X016217Y006696D01*
X016174Y006643D01*
X016103Y006696D01*
X016102Y006697D01*
X016146Y006752D01*
X016194Y006805D01*
X016244Y006856D01*
X016297Y006903D01*
X016352Y006947D01*
X016410Y006989D01*
X016470Y007027D01*
X016531Y007062D01*
X016595Y007093D01*
X016660Y007121D01*
X016727Y007145D01*
X016795Y007166D01*
X016864Y007182D01*
X016934Y007195D01*
X017004Y007204D01*
X017075Y007210D01*
X017146Y007211D01*
X017217Y007208D01*
X017288Y007202D01*
X017358Y007192D01*
X017427Y007178D01*
X017496Y007160D01*
X017564Y007138D01*
X017630Y007113D01*
X017695Y007084D01*
X017758Y007051D01*
X017819Y007015D01*
X017878Y006976D01*
X017935Y006934D01*
X017990Y006889D01*
X018042Y006840D01*
X018091Y006789D01*
X018138Y006736D01*
X018181Y006679D01*
X018221Y006621D01*
X018258Y006560D01*
X018292Y006498D01*
X018322Y006434D01*
X018349Y006368D01*
X018372Y006301D01*
X018391Y006232D01*
X018406Y006163D01*
X018418Y006093D01*
X018426Y006022D01*
X018430Y005951D01*
X018430Y005881D01*
X018426Y005810D01*
X018418Y005739D01*
X018406Y005669D01*
X018391Y005600D01*
X018372Y005531D01*
X018349Y005464D01*
X018322Y005398D01*
X018292Y005334D01*
X018258Y005272D01*
X018221Y005211D01*
X018181Y005153D01*
X018138Y005096D01*
X018091Y005043D01*
X018042Y004992D01*
X017990Y004943D01*
X017935Y004898D01*
X017878Y004856D01*
X017819Y004817D01*
X017758Y004781D01*
X017695Y004748D01*
X017630Y004719D01*
X017564Y004694D01*
X017496Y004672D01*
X017427Y004654D01*
X017358Y004640D01*
X017288Y004630D01*
X017217Y004624D01*
X017146Y004621D01*
X017075Y004622D01*
X017004Y004628D01*
X016934Y004637D01*
X016864Y004650D01*
X016795Y004666D01*
X016727Y004687D01*
X016660Y004711D01*
X016595Y004739D01*
X016531Y004770D01*
X016470Y004805D01*
X016410Y004843D01*
X016352Y004885D01*
X016297Y004929D01*
X016244Y004976D01*
X016194Y005027D01*
X016146Y005080D01*
X016102Y005135D01*
X016109Y005140D01*
X016154Y005085D01*
X016201Y005032D01*
X016252Y004981D01*
X016305Y004934D01*
X016361Y004889D01*
X016419Y004848D01*
X016479Y004810D01*
X016541Y004775D01*
X016605Y004744D01*
X016671Y004717D01*
X016738Y004693D01*
X016807Y004673D01*
X016876Y004656D01*
X016946Y004644D01*
X017017Y004635D01*
X017088Y004631D01*
X017159Y004630D01*
X017230Y004634D01*
X017301Y004641D01*
X017372Y004652D01*
X017441Y004667D01*
X017510Y004686D01*
X017578Y004709D01*
X017644Y004735D01*
X017709Y004765D01*
X017771Y004799D01*
X017832Y004835D01*
X017891Y004876D01*
X017948Y004919D01*
X018002Y004966D01*
X018053Y005015D01*
X018101Y005068D01*
X018147Y005122D01*
X018189Y005180D01*
X018228Y005239D01*
X018264Y005301D01*
X018297Y005364D01*
X018325Y005429D01*
X018351Y005496D01*
X018372Y005564D01*
X018390Y005633D01*
X018403Y005703D01*
X018413Y005774D01*
X018419Y005845D01*
X018421Y005916D01*
X018419Y005987D01*
X018413Y006058D01*
X018403Y006129D01*
X018390Y006199D01*
X018372Y006268D01*
X018351Y006336D01*
X018325Y006403D01*
X018297Y006468D01*
X018264Y006531D01*
X018228Y006593D01*
X018189Y006652D01*
X018147Y006710D01*
X018101Y006764D01*
X018053Y006817D01*
X018002Y006866D01*
X017948Y006913D01*
X017891Y006956D01*
X017832Y006997D01*
X017771Y007033D01*
X017709Y007067D01*
X017644Y007097D01*
X017578Y007123D01*
X017510Y007146D01*
X017441Y007165D01*
X017372Y007180D01*
X017301Y007191D01*
X017230Y007198D01*
X017159Y007202D01*
X017088Y007201D01*
X017017Y007197D01*
X016946Y007188D01*
X016876Y007176D01*
X016807Y007159D01*
X016738Y007139D01*
X016671Y007115D01*
X016605Y007088D01*
X016541Y007057D01*
X016479Y007022D01*
X016419Y006984D01*
X016361Y006943D01*
X016305Y006898D01*
X016252Y006851D01*
X016201Y006800D01*
X016154Y006747D01*
X016109Y006692D01*
X016116Y006686D01*
X016161Y006741D01*
X016208Y006794D01*
X016258Y006844D01*
X016311Y006891D01*
X016366Y006935D01*
X016424Y006977D01*
X016483Y007014D01*
X016545Y007049D01*
X016609Y007080D01*
X016674Y007107D01*
X016741Y007131D01*
X016809Y007151D01*
X016878Y007167D01*
X016947Y007179D01*
X017018Y007188D01*
X017088Y007192D01*
X017159Y007193D01*
X017230Y007189D01*
X017300Y007182D01*
X017370Y007171D01*
X017439Y007156D01*
X017507Y007137D01*
X017575Y007115D01*
X017640Y007089D01*
X017705Y007059D01*
X017767Y007026D01*
X017827Y006989D01*
X017886Y006949D01*
X017942Y006906D01*
X017996Y006860D01*
X018046Y006810D01*
X018095Y006759D01*
X018140Y006704D01*
X018182Y006647D01*
X018221Y006588D01*
X018256Y006527D01*
X018289Y006464D01*
X018317Y006399D01*
X018342Y006333D01*
X018363Y006265D01*
X018381Y006197D01*
X018394Y006127D01*
X018404Y006057D01*
X018410Y005987D01*
X018412Y005916D01*
X018410Y005845D01*
X018404Y005775D01*
X018394Y005705D01*
X018381Y005635D01*
X018363Y005567D01*
X018342Y005499D01*
X018317Y005433D01*
X018289Y005368D01*
X018256Y005305D01*
X018221Y005244D01*
X018182Y005185D01*
X018140Y005128D01*
X018095Y005073D01*
X018046Y005022D01*
X017996Y004972D01*
X017942Y004926D01*
X017886Y004883D01*
X017827Y004843D01*
X017767Y004806D01*
X017705Y004773D01*
X017640Y004743D01*
X017575Y004717D01*
X017507Y004695D01*
X017439Y004676D01*
X017370Y004661D01*
X017300Y004650D01*
X017230Y004643D01*
X017159Y004639D01*
X017088Y004640D01*
X017018Y004644D01*
X016947Y004653D01*
X016878Y004665D01*
X016809Y004681D01*
X016741Y004701D01*
X016674Y004725D01*
X016609Y004752D01*
X016545Y004783D01*
X016483Y004818D01*
X016424Y004855D01*
X016366Y004897D01*
X016311Y004941D01*
X016258Y004988D01*
X016208Y005038D01*
X016161Y005091D01*
X016116Y005146D01*
X016124Y005151D01*
X016168Y005096D01*
X016216Y005043D01*
X016266Y004993D01*
X016319Y004945D01*
X016375Y004901D01*
X016433Y004860D01*
X016493Y004823D01*
X016555Y004788D01*
X016619Y004758D01*
X016685Y004731D01*
X016752Y004707D01*
X016820Y004688D01*
X016890Y004672D01*
X016960Y004660D01*
X017030Y004652D01*
X017101Y004648D01*
X017172Y004649D01*
X017243Y004653D01*
X017314Y004661D01*
X017384Y004673D01*
X017453Y004689D01*
X017521Y004708D01*
X017589Y004732D01*
X017654Y004759D01*
X017718Y004790D01*
X017780Y004824D01*
X017840Y004862D01*
X017898Y004904D01*
X017954Y004948D01*
X018007Y004995D01*
X018057Y005046D01*
X018104Y005099D01*
X018149Y005154D01*
X018190Y005212D01*
X018227Y005272D01*
X018262Y005335D01*
X018293Y005399D01*
X018320Y005464D01*
X018343Y005531D01*
X018363Y005600D01*
X018379Y005669D01*
X018391Y005739D01*
X018399Y005810D01*
X018403Y005880D01*
X018403Y005952D01*
X018399Y006022D01*
X018391Y006093D01*
X018379Y006163D01*
X018363Y006232D01*
X018343Y006301D01*
X018320Y006368D01*
X018293Y006433D01*
X018262Y006497D01*
X018227Y006560D01*
X018190Y006620D01*
X018149Y006678D01*
X018104Y006733D01*
X018057Y006786D01*
X018007Y006837D01*
X017954Y006884D01*
X017898Y006928D01*
X017840Y006970D01*
X017780Y007008D01*
X017718Y007042D01*
X017654Y007073D01*
X017589Y007100D01*
X017521Y007124D01*
X017453Y007143D01*
X017384Y007159D01*
X017314Y007171D01*
X017243Y007179D01*
X017172Y007183D01*
X017101Y007184D01*
X017030Y007180D01*
X016960Y007172D01*
X016890Y007160D01*
X016820Y007144D01*
X016752Y007125D01*
X016685Y007101D01*
X016619Y007074D01*
X016555Y007044D01*
X016493Y007009D01*
X016433Y006972D01*
X016375Y006931D01*
X016319Y006887D01*
X016266Y006839D01*
X016216Y006789D01*
X016168Y006736D01*
X016124Y006681D01*
X016131Y006675D01*
X016175Y006730D01*
X016222Y006783D01*
X016272Y006833D01*
X016325Y006880D01*
X016380Y006924D01*
X016438Y006964D01*
X016497Y007002D01*
X016559Y007036D01*
X016623Y007066D01*
X016688Y007093D01*
X016755Y007116D01*
X016823Y007136D01*
X016891Y007151D01*
X016961Y007163D01*
X017031Y007171D01*
X017102Y007175D01*
X017172Y007174D01*
X017243Y007170D01*
X017313Y007162D01*
X017382Y007150D01*
X017451Y007135D01*
X017519Y007115D01*
X017585Y007092D01*
X017650Y007065D01*
X017714Y007034D01*
X017776Y007000D01*
X017835Y006962D01*
X017893Y006921D01*
X017948Y006877D01*
X018001Y006830D01*
X018050Y006780D01*
X018097Y006728D01*
X018141Y006672D01*
X018182Y006615D01*
X018220Y006555D01*
X018254Y006493D01*
X018284Y006430D01*
X018311Y006365D01*
X018335Y006298D01*
X018354Y006230D01*
X018370Y006161D01*
X018382Y006092D01*
X018390Y006022D01*
X018394Y005951D01*
X018394Y005881D01*
X018390Y005810D01*
X018382Y005740D01*
X018370Y005671D01*
X018354Y005602D01*
X018335Y005534D01*
X018311Y005467D01*
X018284Y005402D01*
X018254Y005339D01*
X018220Y005277D01*
X018182Y005217D01*
X018141Y005160D01*
X018097Y005104D01*
X018050Y005052D01*
X018001Y005002D01*
X017948Y004955D01*
X017893Y004911D01*
X017835Y004870D01*
X017776Y004832D01*
X017714Y004798D01*
X017650Y004767D01*
X017585Y004740D01*
X017519Y004717D01*
X017451Y004697D01*
X017382Y004682D01*
X017313Y004670D01*
X017243Y004662D01*
X017172Y004658D01*
X017102Y004657D01*
X017031Y004661D01*
X016961Y004669D01*
X016891Y004681D01*
X016823Y004696D01*
X016755Y004716D01*
X016688Y004739D01*
X016623Y004766D01*
X016559Y004796D01*
X016497Y004830D01*
X016438Y004868D01*
X016380Y004908D01*
X016325Y004952D01*
X016272Y004999D01*
X016222Y005049D01*
X016175Y005102D01*
X016131Y005157D01*
X016138Y005162D01*
X016182Y005107D01*
X016229Y005055D01*
X016278Y005006D01*
X016331Y004959D01*
X016385Y004916D01*
X016443Y004875D01*
X016502Y004838D01*
X016563Y004804D01*
X016627Y004774D01*
X016691Y004747D01*
X016758Y004724D01*
X016825Y004705D01*
X016893Y004690D01*
X016962Y004678D01*
X017032Y004670D01*
X017102Y004666D01*
X017172Y004667D01*
X017242Y004671D01*
X017311Y004679D01*
X017380Y004690D01*
X017449Y004706D01*
X017516Y004725D01*
X017582Y004749D01*
X017647Y004776D01*
X017710Y004806D01*
X017771Y004840D01*
X017830Y004877D01*
X017888Y004918D01*
X017942Y004962D01*
X017994Y005008D01*
X018044Y005058D01*
X018091Y005110D01*
X018134Y005165D01*
X018175Y005222D01*
X018212Y005281D01*
X018246Y005343D01*
X018276Y005406D01*
X018303Y005471D01*
X018326Y005537D01*
X018345Y005604D01*
X018361Y005672D01*
X018373Y005741D01*
X018381Y005811D01*
X018385Y005881D01*
X018385Y005951D01*
X018381Y006021D01*
X018373Y006091D01*
X018361Y006160D01*
X018345Y006228D01*
X018326Y006295D01*
X018303Y006361D01*
X018276Y006426D01*
X018246Y006489D01*
X018212Y006551D01*
X018175Y006610D01*
X018134Y006667D01*
X018091Y006722D01*
X018044Y006774D01*
X017994Y006824D01*
X017942Y006870D01*
X017888Y006914D01*
X017830Y006955D01*
X017771Y006992D01*
X017710Y007026D01*
X017647Y007056D01*
X017582Y007083D01*
X017516Y007107D01*
X017449Y007126D01*
X017380Y007142D01*
X017311Y007153D01*
X017242Y007161D01*
X017172Y007165D01*
X017102Y007166D01*
X017032Y007162D01*
X016962Y007154D01*
X016893Y007142D01*
X016825Y007127D01*
X016758Y007108D01*
X016691Y007085D01*
X016627Y007058D01*
X016563Y007028D01*
X016502Y006994D01*
X016443Y006957D01*
X016385Y006916D01*
X016331Y006873D01*
X016278Y006826D01*
X016229Y006777D01*
X016182Y006725D01*
X016138Y006670D01*
X016145Y006665D01*
X016189Y006719D01*
X016235Y006771D01*
X016284Y006820D01*
X016336Y006866D01*
X016391Y006909D01*
X016448Y006949D01*
X016507Y006986D01*
X016568Y007020D01*
X016630Y007050D01*
X016695Y007076D01*
X016760Y007099D01*
X016827Y007118D01*
X016895Y007134D01*
X016964Y007145D01*
X017033Y007153D01*
X017102Y007157D01*
X017172Y007156D01*
X017241Y007152D01*
X017310Y007145D01*
X017379Y007133D01*
X017446Y007117D01*
X017513Y007098D01*
X017579Y007075D01*
X017643Y007048D01*
X017706Y007018D01*
X017767Y006984D01*
X017825Y006947D01*
X017882Y006907D01*
X017936Y006864D01*
X017988Y006817D01*
X018037Y006768D01*
X018084Y006716D01*
X018127Y006662D01*
X018167Y006605D01*
X018204Y006546D01*
X018238Y006485D01*
X018268Y006422D01*
X018295Y006358D01*
X018318Y006293D01*
X018337Y006226D01*
X018352Y006158D01*
X018364Y006089D01*
X018372Y006020D01*
X018376Y005951D01*
X018376Y005881D01*
X018372Y005812D01*
X018364Y005743D01*
X018352Y005674D01*
X018337Y005606D01*
X018318Y005539D01*
X018295Y005474D01*
X018268Y005410D01*
X018238Y005347D01*
X018204Y005286D01*
X018167Y005227D01*
X018127Y005170D01*
X018084Y005116D01*
X018037Y005064D01*
X017988Y005015D01*
X017936Y004968D01*
X017882Y004925D01*
X017825Y004885D01*
X017767Y004848D01*
X017706Y004814D01*
X017643Y004784D01*
X017579Y004757D01*
X017513Y004734D01*
X017446Y004715D01*
X017379Y004699D01*
X017310Y004687D01*
X017241Y004680D01*
X017172Y004676D01*
X017102Y004675D01*
X017033Y004679D01*
X016964Y004687D01*
X016895Y004698D01*
X016827Y004714D01*
X016760Y004733D01*
X016695Y004756D01*
X016630Y004782D01*
X016568Y004812D01*
X016507Y004846D01*
X016448Y004883D01*
X016391Y004923D01*
X016336Y004966D01*
X016284Y005012D01*
X016235Y005061D01*
X016189Y005113D01*
X016145Y005167D01*
X016152Y005173D01*
X016196Y005119D01*
X016242Y005068D01*
X016291Y005019D01*
X016342Y004973D01*
X016396Y004930D01*
X016453Y004890D01*
X016511Y004854D01*
X016572Y004820D01*
X016634Y004790D01*
X016698Y004764D01*
X016763Y004742D01*
X016829Y004723D01*
X016897Y004707D01*
X016965Y004696D01*
X017033Y004688D01*
X017102Y004684D01*
X017171Y004685D01*
X017240Y004689D01*
X017309Y004696D01*
X017377Y004708D01*
X017444Y004723D01*
X017511Y004743D01*
X017576Y004766D01*
X017639Y004792D01*
X017702Y004822D01*
X017762Y004855D01*
X017820Y004892D01*
X017877Y004932D01*
X017931Y004975D01*
X017982Y005021D01*
X018031Y005070D01*
X018077Y005122D01*
X018120Y005176D01*
X018160Y005232D01*
X018196Y005291D01*
X018230Y005351D01*
X018260Y005413D01*
X018286Y005477D01*
X018309Y005542D01*
X018328Y005609D01*
X018343Y005676D01*
X018355Y005744D01*
X018363Y005813D01*
X018367Y005881D01*
X018367Y005951D01*
X018363Y006019D01*
X018355Y006088D01*
X018343Y006156D01*
X018328Y006223D01*
X018309Y006290D01*
X018286Y006355D01*
X018260Y006419D01*
X018230Y006481D01*
X018196Y006541D01*
X018160Y006600D01*
X018120Y006656D01*
X018077Y006710D01*
X018031Y006762D01*
X017982Y006811D01*
X017931Y006857D01*
X017877Y006900D01*
X017820Y006940D01*
X017762Y006977D01*
X017702Y007010D01*
X017639Y007040D01*
X017576Y007066D01*
X017511Y007089D01*
X017444Y007109D01*
X017377Y007124D01*
X017309Y007136D01*
X017240Y007143D01*
X017171Y007147D01*
X017102Y007148D01*
X017033Y007144D01*
X016965Y007136D01*
X016897Y007125D01*
X016829Y007109D01*
X016763Y007090D01*
X016698Y007068D01*
X016634Y007042D01*
X016572Y007012D01*
X016511Y006978D01*
X016453Y006942D01*
X016396Y006902D01*
X016342Y006859D01*
X016291Y006813D01*
X016242Y006764D01*
X016196Y006713D01*
X016152Y006659D01*
X016160Y006654D01*
X016203Y006708D01*
X016249Y006759D01*
X016299Y006808D01*
X016350Y006854D01*
X016405Y006897D01*
X016462Y006937D01*
X016520Y006973D01*
X016581Y007007D01*
X016644Y007036D01*
X016708Y007062D01*
X016774Y007084D01*
X016841Y007103D01*
X016908Y007118D01*
X016977Y007129D01*
X017046Y007136D01*
X017115Y007139D01*
X017184Y007138D01*
X017254Y007133D01*
X017322Y007125D01*
X017390Y007112D01*
X017458Y007096D01*
X017524Y007075D01*
X017589Y007052D01*
X017653Y007024D01*
X017715Y006993D01*
X017775Y006958D01*
X017833Y006920D01*
X017889Y006879D01*
X017942Y006835D01*
X017993Y006788D01*
X018041Y006738D01*
X018086Y006685D01*
X018128Y006630D01*
X018167Y006573D01*
X018202Y006513D01*
X018234Y006452D01*
X018263Y006389D01*
X018288Y006324D01*
X018309Y006258D01*
X018327Y006191D01*
X018340Y006123D01*
X018350Y006054D01*
X018356Y005985D01*
X018358Y005916D01*
X018356Y005847D01*
X018350Y005778D01*
X018340Y005709D01*
X018327Y005641D01*
X018309Y005574D01*
X018288Y005508D01*
X018263Y005443D01*
X018234Y005380D01*
X018202Y005319D01*
X018167Y005259D01*
X018128Y005202D01*
X018086Y005147D01*
X018041Y005094D01*
X017993Y005044D01*
X017942Y004997D01*
X017889Y004953D01*
X017833Y004912D01*
X017775Y004874D01*
X017715Y004839D01*
X017653Y004808D01*
X017589Y004780D01*
X017524Y004757D01*
X017458Y004736D01*
X017390Y004720D01*
X017322Y004707D01*
X017254Y004699D01*
X017184Y004694D01*
X017115Y004693D01*
X017046Y004696D01*
X016977Y004703D01*
X016908Y004714D01*
X016841Y004729D01*
X016774Y004748D01*
X016708Y004770D01*
X016644Y004796D01*
X016581Y004825D01*
X016520Y004859D01*
X016462Y004895D01*
X016405Y004935D01*
X016350Y004978D01*
X016299Y005024D01*
X016249Y005073D01*
X016203Y005124D01*
X016160Y005178D01*
X016167Y005184D01*
X016210Y005130D01*
X016256Y005079D01*
X016305Y005030D01*
X016356Y004985D01*
X016410Y004942D01*
X016467Y004903D01*
X016525Y004866D01*
X016585Y004833D01*
X016648Y004804D01*
X016711Y004778D01*
X016777Y004756D01*
X016843Y004738D01*
X016910Y004723D01*
X016978Y004712D01*
X017047Y004705D01*
X017115Y004702D01*
X017184Y004703D01*
X017253Y004708D01*
X017321Y004716D01*
X017389Y004729D01*
X017455Y004745D01*
X017521Y004765D01*
X017586Y004789D01*
X017649Y004816D01*
X017710Y004847D01*
X017770Y004881D01*
X017828Y004919D01*
X017883Y004960D01*
X017936Y005004D01*
X017986Y005051D01*
X018034Y005100D01*
X018079Y005152D01*
X018121Y005207D01*
X018159Y005264D01*
X018194Y005323D01*
X018226Y005384D01*
X018255Y005447D01*
X018279Y005511D01*
X018301Y005577D01*
X018318Y005643D01*
X018331Y005711D01*
X018341Y005779D01*
X018347Y005847D01*
X018349Y005916D01*
X018347Y005985D01*
X018341Y006053D01*
X018331Y006121D01*
X018318Y006189D01*
X018301Y006255D01*
X018279Y006321D01*
X018255Y006385D01*
X018226Y006448D01*
X018194Y006509D01*
X018159Y006568D01*
X018121Y006625D01*
X018079Y006680D01*
X018034Y006732D01*
X017986Y006781D01*
X017936Y006828D01*
X017883Y006872D01*
X017828Y006913D01*
X017770Y006951D01*
X017710Y006985D01*
X017649Y007016D01*
X017586Y007043D01*
X017521Y007067D01*
X017455Y007087D01*
X017389Y007103D01*
X017321Y007116D01*
X017253Y007124D01*
X017184Y007129D01*
X017115Y007130D01*
X017047Y007127D01*
X016978Y007120D01*
X016910Y007109D01*
X016843Y007094D01*
X016777Y007076D01*
X016711Y007054D01*
X016648Y007028D01*
X016585Y006999D01*
X016525Y006966D01*
X016467Y006929D01*
X016410Y006890D01*
X016356Y006847D01*
X016305Y006802D01*
X016256Y006753D01*
X016210Y006702D01*
X016167Y006648D01*
D16*
X021245Y003416D02*
X004709Y003416D01*
X004079Y004990D02*
X004081Y005040D01*
X004087Y005090D01*
X004097Y005139D01*
X004111Y005187D01*
X004128Y005234D01*
X004149Y005279D01*
X004174Y005323D01*
X004202Y005364D01*
X004234Y005403D01*
X004268Y005440D01*
X004305Y005474D01*
X004345Y005504D01*
X004387Y005531D01*
X004431Y005555D01*
X004477Y005576D01*
X004524Y005592D01*
X004572Y005605D01*
X004622Y005614D01*
X004671Y005619D01*
X004722Y005620D01*
X004772Y005617D01*
X004821Y005610D01*
X004870Y005599D01*
X004918Y005584D01*
X004964Y005566D01*
X005009Y005544D01*
X005052Y005518D01*
X005093Y005489D01*
X005132Y005457D01*
X005168Y005422D01*
X005200Y005384D01*
X005230Y005344D01*
X005257Y005301D01*
X005280Y005257D01*
X005299Y005211D01*
X005315Y005163D01*
X005327Y005114D01*
X005335Y005065D01*
X005339Y005015D01*
X005339Y004965D01*
X005335Y004915D01*
X005327Y004866D01*
X005315Y004817D01*
X005299Y004769D01*
X005280Y004723D01*
X005257Y004679D01*
X005230Y004636D01*
X005200Y004596D01*
X005168Y004558D01*
X005132Y004523D01*
X005093Y004491D01*
X005052Y004462D01*
X005009Y004436D01*
X004964Y004414D01*
X004918Y004396D01*
X004870Y004381D01*
X004821Y004370D01*
X004772Y004363D01*
X004722Y004360D01*
X004671Y004361D01*
X004622Y004366D01*
X004572Y004375D01*
X004524Y004388D01*
X004477Y004404D01*
X004431Y004425D01*
X004387Y004449D01*
X004345Y004476D01*
X004305Y004506D01*
X004268Y004540D01*
X004234Y004577D01*
X004202Y004616D01*
X004174Y004657D01*
X004149Y004701D01*
X004128Y004746D01*
X004111Y004793D01*
X004097Y004841D01*
X004087Y004890D01*
X004081Y004940D01*
X004079Y004990D01*
X003134Y004990D02*
X003136Y004913D01*
X003142Y004836D01*
X003151Y004759D01*
X003164Y004683D01*
X003181Y004607D01*
X003202Y004533D01*
X003226Y004459D01*
X003254Y004387D01*
X003285Y004317D01*
X003320Y004248D01*
X003358Y004180D01*
X003399Y004115D01*
X003444Y004052D01*
X003492Y003991D01*
X003542Y003932D01*
X003595Y003876D01*
X003651Y003823D01*
X003710Y003773D01*
X003771Y003725D01*
X003834Y003680D01*
X003899Y003639D01*
X003967Y003601D01*
X004036Y003566D01*
X004106Y003535D01*
X004178Y003507D01*
X004252Y003483D01*
X004326Y003462D01*
X004402Y003445D01*
X004478Y003432D01*
X004555Y003423D01*
X004632Y003417D01*
X004709Y003415D01*
X003135Y004990D02*
X003135Y014046D01*
X004079Y014046D02*
X004081Y014096D01*
X004087Y014146D01*
X004097Y014195D01*
X004111Y014243D01*
X004128Y014290D01*
X004149Y014335D01*
X004174Y014379D01*
X004202Y014420D01*
X004234Y014459D01*
X004268Y014496D01*
X004305Y014530D01*
X004345Y014560D01*
X004387Y014587D01*
X004431Y014611D01*
X004477Y014632D01*
X004524Y014648D01*
X004572Y014661D01*
X004622Y014670D01*
X004671Y014675D01*
X004722Y014676D01*
X004772Y014673D01*
X004821Y014666D01*
X004870Y014655D01*
X004918Y014640D01*
X004964Y014622D01*
X005009Y014600D01*
X005052Y014574D01*
X005093Y014545D01*
X005132Y014513D01*
X005168Y014478D01*
X005200Y014440D01*
X005230Y014400D01*
X005257Y014357D01*
X005280Y014313D01*
X005299Y014267D01*
X005315Y014219D01*
X005327Y014170D01*
X005335Y014121D01*
X005339Y014071D01*
X005339Y014021D01*
X005335Y013971D01*
X005327Y013922D01*
X005315Y013873D01*
X005299Y013825D01*
X005280Y013779D01*
X005257Y013735D01*
X005230Y013692D01*
X005200Y013652D01*
X005168Y013614D01*
X005132Y013579D01*
X005093Y013547D01*
X005052Y013518D01*
X005009Y013492D01*
X004964Y013470D01*
X004918Y013452D01*
X004870Y013437D01*
X004821Y013426D01*
X004772Y013419D01*
X004722Y013416D01*
X004671Y013417D01*
X004622Y013422D01*
X004572Y013431D01*
X004524Y013444D01*
X004477Y013460D01*
X004431Y013481D01*
X004387Y013505D01*
X004345Y013532D01*
X004305Y013562D01*
X004268Y013596D01*
X004234Y013633D01*
X004202Y013672D01*
X004174Y013713D01*
X004149Y013757D01*
X004128Y013802D01*
X004111Y013849D01*
X004097Y013897D01*
X004087Y013946D01*
X004081Y013996D01*
X004079Y014046D01*
X003134Y014046D02*
X003136Y014123D01*
X003142Y014200D01*
X003151Y014277D01*
X003164Y014353D01*
X003181Y014429D01*
X003202Y014503D01*
X003226Y014577D01*
X003254Y014649D01*
X003285Y014719D01*
X003320Y014788D01*
X003358Y014856D01*
X003399Y014921D01*
X003444Y014984D01*
X003492Y015045D01*
X003542Y015104D01*
X003595Y015160D01*
X003651Y015213D01*
X003710Y015263D01*
X003771Y015311D01*
X003834Y015356D01*
X003899Y015397D01*
X003967Y015435D01*
X004036Y015470D01*
X004106Y015501D01*
X004178Y015529D01*
X004252Y015553D01*
X004326Y015574D01*
X004402Y015591D01*
X004478Y015604D01*
X004555Y015613D01*
X004632Y015619D01*
X004709Y015621D01*
X004709Y015620D02*
X021245Y015620D01*
X020615Y014046D02*
X020617Y014096D01*
X020623Y014146D01*
X020633Y014195D01*
X020647Y014243D01*
X020664Y014290D01*
X020685Y014335D01*
X020710Y014379D01*
X020738Y014420D01*
X020770Y014459D01*
X020804Y014496D01*
X020841Y014530D01*
X020881Y014560D01*
X020923Y014587D01*
X020967Y014611D01*
X021013Y014632D01*
X021060Y014648D01*
X021108Y014661D01*
X021158Y014670D01*
X021207Y014675D01*
X021258Y014676D01*
X021308Y014673D01*
X021357Y014666D01*
X021406Y014655D01*
X021454Y014640D01*
X021500Y014622D01*
X021545Y014600D01*
X021588Y014574D01*
X021629Y014545D01*
X021668Y014513D01*
X021704Y014478D01*
X021736Y014440D01*
X021766Y014400D01*
X021793Y014357D01*
X021816Y014313D01*
X021835Y014267D01*
X021851Y014219D01*
X021863Y014170D01*
X021871Y014121D01*
X021875Y014071D01*
X021875Y014021D01*
X021871Y013971D01*
X021863Y013922D01*
X021851Y013873D01*
X021835Y013825D01*
X021816Y013779D01*
X021793Y013735D01*
X021766Y013692D01*
X021736Y013652D01*
X021704Y013614D01*
X021668Y013579D01*
X021629Y013547D01*
X021588Y013518D01*
X021545Y013492D01*
X021500Y013470D01*
X021454Y013452D01*
X021406Y013437D01*
X021357Y013426D01*
X021308Y013419D01*
X021258Y013416D01*
X021207Y013417D01*
X021158Y013422D01*
X021108Y013431D01*
X021060Y013444D01*
X021013Y013460D01*
X020967Y013481D01*
X020923Y013505D01*
X020881Y013532D01*
X020841Y013562D01*
X020804Y013596D01*
X020770Y013633D01*
X020738Y013672D01*
X020710Y013713D01*
X020685Y013757D01*
X020664Y013802D01*
X020647Y013849D01*
X020633Y013897D01*
X020623Y013946D01*
X020617Y013996D01*
X020615Y014046D01*
X021245Y015621D02*
X021322Y015619D01*
X021399Y015613D01*
X021476Y015604D01*
X021552Y015591D01*
X021628Y015574D01*
X021702Y015553D01*
X021776Y015529D01*
X021848Y015501D01*
X021918Y015470D01*
X021987Y015435D01*
X022055Y015397D01*
X022120Y015356D01*
X022183Y015311D01*
X022244Y015263D01*
X022303Y015213D01*
X022359Y015160D01*
X022412Y015104D01*
X022462Y015045D01*
X022510Y014984D01*
X022555Y014921D01*
X022596Y014856D01*
X022634Y014788D01*
X022669Y014719D01*
X022700Y014649D01*
X022728Y014577D01*
X022752Y014503D01*
X022773Y014429D01*
X022790Y014353D01*
X022803Y014277D01*
X022812Y014200D01*
X022818Y014123D01*
X022820Y014046D01*
X022820Y004990D01*
X020615Y004990D02*
X020617Y005040D01*
X020623Y005090D01*
X020633Y005139D01*
X020647Y005187D01*
X020664Y005234D01*
X020685Y005279D01*
X020710Y005323D01*
X020738Y005364D01*
X020770Y005403D01*
X020804Y005440D01*
X020841Y005474D01*
X020881Y005504D01*
X020923Y005531D01*
X020967Y005555D01*
X021013Y005576D01*
X021060Y005592D01*
X021108Y005605D01*
X021158Y005614D01*
X021207Y005619D01*
X021258Y005620D01*
X021308Y005617D01*
X021357Y005610D01*
X021406Y005599D01*
X021454Y005584D01*
X021500Y005566D01*
X021545Y005544D01*
X021588Y005518D01*
X021629Y005489D01*
X021668Y005457D01*
X021704Y005422D01*
X021736Y005384D01*
X021766Y005344D01*
X021793Y005301D01*
X021816Y005257D01*
X021835Y005211D01*
X021851Y005163D01*
X021863Y005114D01*
X021871Y005065D01*
X021875Y005015D01*
X021875Y004965D01*
X021871Y004915D01*
X021863Y004866D01*
X021851Y004817D01*
X021835Y004769D01*
X021816Y004723D01*
X021793Y004679D01*
X021766Y004636D01*
X021736Y004596D01*
X021704Y004558D01*
X021668Y004523D01*
X021629Y004491D01*
X021588Y004462D01*
X021545Y004436D01*
X021500Y004414D01*
X021454Y004396D01*
X021406Y004381D01*
X021357Y004370D01*
X021308Y004363D01*
X021258Y004360D01*
X021207Y004361D01*
X021158Y004366D01*
X021108Y004375D01*
X021060Y004388D01*
X021013Y004404D01*
X020967Y004425D01*
X020923Y004449D01*
X020881Y004476D01*
X020841Y004506D01*
X020804Y004540D01*
X020770Y004577D01*
X020738Y004616D01*
X020710Y004657D01*
X020685Y004701D01*
X020664Y004746D01*
X020647Y004793D01*
X020633Y004841D01*
X020623Y004890D01*
X020617Y004940D01*
X020615Y004990D01*
X021245Y003415D02*
X021322Y003417D01*
X021399Y003423D01*
X021476Y003432D01*
X021552Y003445D01*
X021628Y003462D01*
X021702Y003483D01*
X021776Y003507D01*
X021848Y003535D01*
X021918Y003566D01*
X021987Y003601D01*
X022055Y003639D01*
X022120Y003680D01*
X022183Y003725D01*
X022244Y003773D01*
X022303Y003823D01*
X022359Y003876D01*
X022412Y003932D01*
X022462Y003991D01*
X022510Y004052D01*
X022555Y004115D01*
X022596Y004180D01*
X022634Y004248D01*
X022669Y004317D01*
X022700Y004387D01*
X022728Y004459D01*
X022752Y004533D01*
X022773Y004607D01*
X022790Y004683D01*
X022803Y004759D01*
X022812Y004836D01*
X022818Y004913D01*
X022820Y004990D01*
M02*
