G75*
G70*
%OFA0B0*%
%FSLAX24Y24*%
%IPPOS*%
%LPD*%
%AMOC8*
5,1,8,0,0,1.08239X$1,22.5*
%
%ADD10R,0.2190X0.0010*%
%ADD11R,0.2210X0.0010*%
%ADD12R,0.2200X0.0010*%
%ADD13R,0.2170X0.0010*%
%ADD14R,0.0090X0.0010*%
%ADD15R,0.0100X0.0010*%
%ADD16R,0.0010X0.0010*%
%ADD17R,0.0020X0.0010*%
%ADD18R,0.0030X0.0010*%
%ADD19R,0.0040X0.0010*%
%ADD20R,0.0050X0.0010*%
%ADD21R,0.0060X0.0010*%
%ADD22R,0.0070X0.0010*%
%ADD23R,0.0110X0.0010*%
%ADD24R,0.0130X0.0010*%
%ADD25R,0.0140X0.0010*%
%ADD26R,0.0160X0.0010*%
%ADD27R,0.0170X0.0010*%
%ADD28R,0.0180X0.0010*%
%ADD29R,0.0200X0.0010*%
%ADD30R,0.0210X0.0010*%
%ADD31R,0.0220X0.0010*%
%ADD32R,0.0240X0.0010*%
%ADD33R,0.0080X0.0010*%
%ADD34R,0.0120X0.0010*%
%ADD35R,0.0150X0.0010*%
%ADD36R,0.0230X0.0010*%
%ADD37R,0.0310X0.0010*%
%ADD38R,0.0300X0.0010*%
%ADD39R,0.0290X0.0010*%
%ADD40R,0.0270X0.0010*%
%ADD41R,0.0260X0.0010*%
%ADD42R,0.0250X0.0010*%
%ADD43R,0.0190X0.0010*%
%ADD44C,0.0060*%
%ADD45C,0.0090*%
%ADD46R,0.0110X0.0005*%
%ADD47R,0.0210X0.0005*%
%ADD48R,0.0280X0.0005*%
%ADD49R,0.0325X0.0005*%
%ADD50R,0.0365X0.0005*%
%ADD51R,0.0410X0.0005*%
%ADD52R,0.0440X0.0005*%
%ADD53R,0.0470X0.0005*%
%ADD54R,0.0505X0.0005*%
%ADD55R,0.0530X0.0005*%
%ADD56R,0.0555X0.0005*%
%ADD57R,0.0580X0.0005*%
%ADD58R,0.0600X0.0005*%
%ADD59R,0.0625X0.0005*%
%ADD60R,0.0645X0.0005*%
%ADD61R,0.0665X0.0005*%
%ADD62R,0.0685X0.0005*%
%ADD63R,0.0705X0.0005*%
%ADD64R,0.0715X0.0005*%
%ADD65R,0.0735X0.0005*%
%ADD66R,0.0755X0.0005*%
%ADD67R,0.0090X0.0005*%
%ADD68R,0.0770X0.0005*%
%ADD69R,0.0190X0.0005*%
%ADD70R,0.0355X0.0005*%
%ADD71R,0.0360X0.0005*%
%ADD72R,0.0260X0.0005*%
%ADD73R,0.0315X0.0005*%
%ADD74R,0.0320X0.0005*%
%ADD75R,0.0295X0.0005*%
%ADD76R,0.0275X0.0005*%
%ADD77R,0.0400X0.0005*%
%ADD78R,0.0265X0.0005*%
%ADD79R,0.0435X0.0005*%
%ADD80R,0.0255X0.0005*%
%ADD81R,0.0465X0.0005*%
%ADD82R,0.0245X0.0005*%
%ADD83R,0.0495X0.0005*%
%ADD84R,0.0235X0.0005*%
%ADD85R,0.0525X0.0005*%
%ADD86R,0.0230X0.0005*%
%ADD87R,0.0240X0.0005*%
%ADD88R,0.0545X0.0005*%
%ADD89R,0.0820X0.0005*%
%ADD90R,0.0220X0.0005*%
%ADD91R,0.0025X0.0005*%
%ADD92R,0.0795X0.0005*%
%ADD93R,0.0215X0.0005*%
%ADD94R,0.0035X0.0005*%
%ADD95R,0.0040X0.0005*%
%ADD96R,0.0800X0.0005*%
%ADD97R,0.0205X0.0005*%
%ADD98R,0.0050X0.0005*%
%ADD99R,0.0805X0.0005*%
%ADD100R,0.0165X0.0005*%
%ADD101R,0.0055X0.0005*%
%ADD102R,0.0200X0.0005*%
%ADD103R,0.0060X0.0005*%
%ADD104R,0.0300X0.0005*%
%ADD105R,0.0195X0.0005*%
%ADD106R,0.0065X0.0005*%
%ADD107R,0.0345X0.0005*%
%ADD108R,0.0070X0.0005*%
%ADD109R,0.0385X0.0005*%
%ADD110R,0.0080X0.0005*%
%ADD111R,0.0425X0.0005*%
%ADD112R,0.0185X0.0005*%
%ADD113R,0.0085X0.0005*%
%ADD114R,0.0635X0.0005*%
%ADD115R,0.0810X0.0005*%
%ADD116R,0.0095X0.0005*%
%ADD117R,0.0335X0.0005*%
%ADD118R,0.0655X0.0005*%
%ADD119R,0.0105X0.0005*%
%ADD120R,0.0290X0.0005*%
%ADD121R,0.0660X0.0005*%
%ADD122R,0.0115X0.0005*%
%ADD123R,0.0285X0.0005*%
%ADD124R,0.0120X0.0005*%
%ADD125R,0.0270X0.0005*%
%ADD126R,0.0675X0.0005*%
%ADD127R,0.0130X0.0005*%
%ADD128R,0.0680X0.0005*%
%ADD129R,0.0135X0.0005*%
%ADD130R,0.0250X0.0005*%
%ADD131R,0.0140X0.0005*%
%ADD132R,0.0180X0.0005*%
%ADD133R,0.0695X0.0005*%
%ADD134R,0.0150X0.0005*%
%ADD135R,0.0160X0.0005*%
%ADD136R,0.0155X0.0005*%
%ADD137R,0.0145X0.0005*%
%ADD138R,0.0700X0.0005*%
%ADD139R,0.0225X0.0005*%
%ADD140R,0.0170X0.0005*%
%ADD141R,0.0100X0.0005*%
%ADD142R,0.0075X0.0005*%
%ADD143R,0.0720X0.0005*%
%ADD144R,0.0725X0.0005*%
%ADD145R,0.0340X0.0005*%
%ADD146R,0.0305X0.0005*%
%ADD147R,0.0175X0.0005*%
%ADD148R,0.0005X0.0005*%
%ADD149R,0.0010X0.0005*%
%ADD150R,0.0015X0.0005*%
%ADD151R,0.0020X0.0005*%
%ADD152R,0.0030X0.0005*%
%ADD153R,0.0125X0.0005*%
%ADD154R,0.0045X0.0005*%
%ADD155R,0.0370X0.0005*%
%ADD156R,0.0375X0.0005*%
%ADD157R,0.0350X0.0005*%
%ADD158R,0.0330X0.0005*%
%ADD159R,0.0485X0.0005*%
%ADD160R,0.0480X0.0005*%
%ADD161R,0.0460X0.0005*%
%ADD162R,0.0445X0.0005*%
%ADD163R,0.0310X0.0005*%
%ADD164R,0.0380X0.0005*%
%ADD165R,0.0415X0.0005*%
%ADD166R,0.0450X0.0005*%
%ADD167R,0.0490X0.0005*%
%ADD168R,0.0965X0.0005*%
%ADD169R,0.0975X0.0005*%
%ADD170R,0.0980X0.0005*%
%ADD171R,0.0990X0.0005*%
%ADD172R,0.1005X0.0005*%
%ADD173R,0.0615X0.0005*%
%ADD174R,0.0640X0.0005*%
%ADD175R,0.0605X0.0005*%
%ADD176R,0.0620X0.0005*%
%ADD177R,0.0590X0.0005*%
%ADD178R,0.0570X0.0005*%
%ADD179R,0.0540X0.0005*%
%ADD180R,0.0515X0.0005*%
%ADD181R,0.0565X0.0005*%
%ADD182R,0.0535X0.0005*%
%ADD183R,0.0395X0.0005*%
%ADD184R,0.0520X0.0005*%
%ADD185R,0.0500X0.0005*%
%ADD186R,0.0430X0.0005*%
%ADD187C,0.0000*%
%ADD188C,0.0059*%
D10*
X008745Y008356D03*
X008745Y008406D03*
D11*
X008745Y008386D03*
X008745Y008376D03*
X008745Y008366D03*
D12*
X008740Y008396D03*
D13*
X008745Y008416D03*
D14*
X008715Y008596D03*
X008755Y008806D03*
X008755Y008816D03*
X008755Y008826D03*
X008485Y009016D03*
X008525Y009136D03*
X008525Y009146D03*
X008215Y009316D03*
X008215Y009326D03*
X008225Y009336D03*
X008225Y009346D03*
X008235Y009356D03*
X008245Y009376D03*
X008255Y009396D03*
X008265Y009406D03*
X008265Y009416D03*
X008275Y009426D03*
X008285Y009446D03*
X008295Y009466D03*
X008305Y009476D03*
X008315Y009496D03*
X008325Y009516D03*
X008335Y009536D03*
X008345Y009546D03*
X008345Y009556D03*
X008355Y009566D03*
X008365Y009586D03*
X008375Y009606D03*
X008385Y009626D03*
X008395Y009636D03*
X008405Y009656D03*
X008415Y009676D03*
X008425Y009696D03*
X008435Y009706D03*
X008445Y009726D03*
X008455Y009746D03*
X008465Y009766D03*
X008475Y009776D03*
X008475Y009786D03*
X008485Y009796D03*
X008495Y009816D03*
X008505Y009836D03*
X008515Y009856D03*
X008525Y009866D03*
X008535Y009886D03*
X008545Y009906D03*
X008555Y009926D03*
X008565Y009936D03*
X008575Y009956D03*
X008585Y009976D03*
X008595Y009996D03*
X008615Y010026D03*
X008625Y010046D03*
X008635Y010066D03*
X008645Y010076D03*
X008655Y010096D03*
X008665Y010116D03*
X008675Y010136D03*
X008685Y010146D03*
X008685Y010156D03*
X008695Y010166D03*
X008705Y010186D03*
X008715Y010206D03*
X008825Y010206D03*
X008835Y010186D03*
X008845Y010166D03*
X008855Y010146D03*
X008865Y010136D03*
X008865Y010126D03*
X008875Y010116D03*
X008885Y010096D03*
X008895Y010076D03*
X008905Y010056D03*
X008915Y010036D03*
X008925Y010016D03*
X008935Y010006D03*
X008935Y009996D03*
X008945Y009986D03*
X008955Y009966D03*
X008965Y009946D03*
X008975Y009926D03*
X008985Y009906D03*
X008995Y009896D03*
X008995Y009886D03*
X009005Y009876D03*
X009005Y009866D03*
X009015Y009856D03*
X009025Y009836D03*
X009035Y009816D03*
X009045Y009796D03*
X009055Y009786D03*
X009055Y009776D03*
X009065Y009766D03*
X009065Y009756D03*
X009075Y009746D03*
X009075Y009736D03*
X009085Y009726D03*
X009085Y009716D03*
X009095Y009706D03*
X009105Y009686D03*
X009115Y009666D03*
X009125Y009646D03*
X009135Y009636D03*
X009135Y009626D03*
X009145Y009616D03*
X009145Y009606D03*
X009155Y009596D03*
X009155Y009586D03*
X009165Y009576D03*
X009175Y009556D03*
X009185Y009536D03*
X009195Y009526D03*
X009195Y009516D03*
X009205Y009496D03*
X009215Y009486D03*
X009215Y009476D03*
X009225Y009466D03*
X009225Y009456D03*
X009235Y009446D03*
X009245Y009426D03*
X009255Y009406D03*
X009265Y009386D03*
X009275Y009366D03*
X009285Y009356D03*
X009285Y009346D03*
X009295Y009336D03*
X009295Y009326D03*
X009305Y009316D03*
X009315Y009296D03*
X009325Y009276D03*
X009335Y009256D03*
X009345Y009236D03*
X009355Y009226D03*
X009355Y009216D03*
X009365Y009206D03*
X009365Y009196D03*
X009375Y009186D03*
X009385Y009166D03*
X009395Y009146D03*
X009405Y009136D03*
X009405Y009126D03*
X009415Y009116D03*
X009415Y009106D03*
X009425Y009096D03*
X009425Y009086D03*
X009435Y009076D03*
X009435Y009066D03*
X009445Y009056D03*
X009455Y009036D03*
X009465Y009016D03*
X009475Y008996D03*
X009485Y008976D03*
X009495Y008966D03*
X009495Y008956D03*
X009505Y008946D03*
X009505Y008936D03*
X009515Y008926D03*
X009525Y008906D03*
X009535Y008886D03*
X009545Y008866D03*
X009555Y008856D03*
X009555Y008846D03*
X009565Y008836D03*
X009565Y008826D03*
X009575Y008816D03*
X009575Y008806D03*
X009585Y008796D03*
X009595Y008776D03*
X009605Y008756D03*
X009615Y008736D03*
X009625Y008726D03*
X009625Y008716D03*
X009635Y008706D03*
X009635Y008696D03*
X009645Y008686D03*
X009645Y008676D03*
X009655Y008666D03*
X009665Y008646D03*
X009675Y008626D03*
X009685Y008606D03*
X009695Y008586D03*
X009705Y008576D03*
X009705Y008566D03*
X009715Y008556D03*
X009715Y008546D03*
X009725Y008536D03*
X009735Y008516D03*
X009745Y008496D03*
X009755Y008476D03*
X009765Y008456D03*
X009775Y008446D03*
X009775Y008436D03*
X009785Y008426D03*
X008175Y009246D03*
X008175Y009256D03*
X008185Y009266D03*
X008195Y009286D03*
X008205Y009306D03*
X008165Y009236D03*
X008155Y009216D03*
X008145Y009196D03*
X008135Y009186D03*
X008135Y009176D03*
X008125Y009166D03*
X008115Y009146D03*
X008105Y009126D03*
X008095Y009106D03*
X008085Y009096D03*
X008085Y009086D03*
X008075Y009076D03*
X008065Y009056D03*
X008055Y009036D03*
X008045Y009026D03*
X008045Y009016D03*
X008035Y009006D03*
X008025Y008986D03*
X008015Y008966D03*
X008005Y008956D03*
X008005Y008946D03*
X007995Y008936D03*
X007985Y008916D03*
X007975Y008896D03*
X007965Y008886D03*
X007965Y008876D03*
X007955Y008866D03*
X007945Y008846D03*
X007935Y008826D03*
X007925Y008816D03*
X007925Y008806D03*
X007905Y008776D03*
X007895Y008756D03*
X007885Y008736D03*
X007875Y008716D03*
X007865Y008706D03*
X007855Y008686D03*
X007845Y008666D03*
X007835Y008656D03*
X007835Y008646D03*
X007825Y008636D03*
X007815Y008616D03*
X007805Y008596D03*
X007795Y008576D03*
X007785Y008566D03*
X007775Y008546D03*
X007765Y008526D03*
X007755Y008506D03*
X007745Y008496D03*
X007745Y008486D03*
X007735Y008476D03*
X007725Y008456D03*
X007715Y008436D03*
X007705Y008426D03*
X008775Y010306D03*
D15*
X008770Y010296D03*
X008830Y010196D03*
X008840Y010176D03*
X008850Y010156D03*
X008880Y010106D03*
X008890Y010086D03*
X008900Y010066D03*
X008910Y010046D03*
X008920Y010026D03*
X008950Y009976D03*
X008960Y009956D03*
X008970Y009936D03*
X008980Y009916D03*
X009020Y009846D03*
X009030Y009826D03*
X009040Y009806D03*
X009100Y009696D03*
X009110Y009676D03*
X009120Y009656D03*
X009170Y009566D03*
X009180Y009546D03*
X009200Y009506D03*
X009240Y009436D03*
X009250Y009416D03*
X009260Y009396D03*
X009270Y009376D03*
X009310Y009306D03*
X009320Y009286D03*
X009330Y009266D03*
X009340Y009246D03*
X009380Y009176D03*
X009390Y009156D03*
X009450Y009046D03*
X009460Y009026D03*
X009470Y009006D03*
X009480Y008986D03*
X009520Y008916D03*
X009530Y008896D03*
X009540Y008876D03*
X009590Y008786D03*
X009600Y008766D03*
X009610Y008746D03*
X009660Y008656D03*
X009670Y008636D03*
X009680Y008616D03*
X009690Y008596D03*
X009730Y008526D03*
X009740Y008506D03*
X009750Y008486D03*
X009760Y008466D03*
X008720Y008606D03*
X008720Y008616D03*
X008760Y008836D03*
X008760Y008846D03*
X008760Y008856D03*
X008760Y008866D03*
X008770Y008896D03*
X008490Y009026D03*
X008530Y009156D03*
X008530Y009166D03*
X008540Y009176D03*
X008540Y009186D03*
X008540Y009196D03*
X008560Y009236D03*
X008890Y009296D03*
X008360Y009576D03*
X008370Y009596D03*
X008380Y009616D03*
X008400Y009646D03*
X008410Y009666D03*
X008420Y009686D03*
X008440Y009716D03*
X008450Y009736D03*
X008460Y009756D03*
X008490Y009806D03*
X008500Y009826D03*
X008510Y009846D03*
X008530Y009876D03*
X008540Y009896D03*
X008550Y009916D03*
X008570Y009946D03*
X008580Y009966D03*
X008590Y009986D03*
X008600Y010006D03*
X008610Y010016D03*
X008620Y010036D03*
X008630Y010056D03*
X008650Y010086D03*
X008660Y010106D03*
X008670Y010126D03*
X008700Y010176D03*
X008710Y010196D03*
X008330Y009526D03*
X008320Y009506D03*
X008310Y009486D03*
X008290Y009456D03*
X008280Y009436D03*
X008250Y009386D03*
X008240Y009366D03*
X008200Y009296D03*
X008190Y009276D03*
X008160Y009226D03*
X008150Y009206D03*
X008120Y009156D03*
X008110Y009136D03*
X008100Y009116D03*
X008070Y009066D03*
X008060Y009046D03*
X008030Y008996D03*
X008020Y008976D03*
X007990Y008926D03*
X007980Y008906D03*
X007950Y008856D03*
X007940Y008836D03*
X007920Y008796D03*
X007910Y008786D03*
X007900Y008766D03*
X007890Y008746D03*
X007880Y008726D03*
X007860Y008696D03*
X007850Y008676D03*
X007820Y008626D03*
X007810Y008606D03*
X007800Y008586D03*
X007780Y008556D03*
X007770Y008536D03*
X007760Y008516D03*
X007730Y008466D03*
X007720Y008446D03*
D16*
X008435Y008966D03*
X008705Y008516D03*
D17*
X008700Y008526D03*
X008950Y009356D03*
D18*
X008935Y009346D03*
X008445Y008976D03*
X008705Y008536D03*
D19*
X008710Y008546D03*
X008930Y009336D03*
D20*
X008465Y008996D03*
X008455Y008986D03*
X008705Y008556D03*
D21*
X008710Y008566D03*
X008920Y009326D03*
X008770Y010326D03*
D22*
X008905Y009316D03*
X008475Y009006D03*
X008715Y008586D03*
X008715Y008576D03*
D23*
X008725Y008626D03*
X008765Y008876D03*
X008765Y008886D03*
X008775Y008906D03*
X008775Y008916D03*
X008775Y008926D03*
X008775Y008936D03*
X008505Y009036D03*
X008545Y009206D03*
X008555Y009216D03*
X008555Y009226D03*
X008565Y009246D03*
X008565Y009256D03*
X008565Y009266D03*
X008575Y009286D03*
D24*
X008595Y009346D03*
X008605Y009366D03*
X008605Y009376D03*
X008615Y009396D03*
X008615Y009406D03*
X008625Y009426D03*
X008635Y009456D03*
X008515Y009046D03*
X008785Y009006D03*
X008785Y008996D03*
X008785Y008986D03*
X008785Y008976D03*
X008725Y008636D03*
D25*
X008730Y008646D03*
X008730Y008656D03*
X008790Y009016D03*
X008790Y009026D03*
X008790Y009036D03*
X008800Y009056D03*
X008800Y009066D03*
X008800Y009076D03*
X008860Y009266D03*
X008620Y009416D03*
X008630Y009436D03*
X008630Y009446D03*
X008640Y009466D03*
X008640Y009476D03*
X008650Y009496D03*
X008660Y009526D03*
X008520Y009056D03*
X008770Y010256D03*
X008770Y010266D03*
D26*
X008770Y010246D03*
X008770Y010236D03*
X008710Y009666D03*
X008700Y009646D03*
X008700Y009636D03*
X008690Y009616D03*
X008690Y009606D03*
X008850Y009256D03*
X008840Y009246D03*
X008810Y009126D03*
X008808Y009113D03*
X008710Y008766D03*
X008730Y008666D03*
D27*
X008735Y008676D03*
X008735Y008686D03*
X008545Y009076D03*
X008705Y009656D03*
X008715Y009676D03*
X008715Y009686D03*
X008725Y009706D03*
X008725Y009716D03*
X008735Y009736D03*
X008745Y009766D03*
D28*
X008750Y009776D03*
X008750Y009786D03*
X008760Y009806D03*
X008760Y009816D03*
X008740Y009756D03*
X008740Y009746D03*
X008730Y009726D03*
X008720Y009696D03*
X008830Y009236D03*
X008550Y009086D03*
X008740Y008696D03*
X008770Y010226D03*
D29*
X008770Y010216D03*
X008820Y009226D03*
X008810Y009216D03*
X008560Y009096D03*
X008740Y008706D03*
D30*
X008745Y008716D03*
X008745Y008726D03*
X008575Y009106D03*
D31*
X008800Y009206D03*
X008750Y008736D03*
D32*
X008750Y008746D03*
X008750Y008756D03*
X008590Y009126D03*
X008790Y009196D03*
D33*
X008900Y009306D03*
X008750Y008796D03*
X008750Y008786D03*
X008750Y008776D03*
X008660Y008776D03*
X008770Y010316D03*
D34*
X008770Y010286D03*
X008770Y010276D03*
X008790Y009826D03*
X008610Y009386D03*
X008600Y009356D03*
X008590Y009336D03*
X008590Y009326D03*
X008586Y009315D03*
X008580Y009306D03*
X008580Y009296D03*
X008570Y009276D03*
X008870Y009276D03*
X008880Y009286D03*
X008780Y008966D03*
X008780Y008956D03*
X008780Y008946D03*
D35*
X008795Y009046D03*
X008805Y009086D03*
X008805Y009096D03*
X008805Y009106D03*
X008535Y009066D03*
X008645Y009486D03*
X008655Y009506D03*
X008655Y009516D03*
X008665Y009536D03*
X008665Y009546D03*
X008675Y009556D03*
X008675Y009566D03*
X008675Y009576D03*
X008685Y009586D03*
X008685Y009596D03*
X008695Y009626D03*
D36*
X008585Y009116D03*
D37*
X008735Y009136D03*
D38*
X008740Y009146D03*
D39*
X008755Y009156D03*
D40*
X008765Y009166D03*
D41*
X008770Y009176D03*
D42*
X008785Y009186D03*
D43*
X008755Y009796D03*
X008765Y009826D03*
D44*
X006448Y007273D02*
X006221Y006933D01*
X006221Y007273D01*
X006080Y007103D02*
X006023Y007160D01*
X005910Y007160D01*
X005853Y007103D01*
X005853Y006990D01*
X005910Y006933D01*
X006023Y006933D01*
X006080Y006990D01*
X006080Y007103D01*
X006448Y006933D02*
X006448Y007273D01*
X005712Y007160D02*
X005712Y006933D01*
X005712Y007046D02*
X005598Y007160D01*
X005542Y007160D01*
X005405Y007160D02*
X005405Y006933D01*
X005291Y006933D02*
X005291Y007103D01*
X005235Y007160D01*
X005178Y007103D01*
X005178Y006933D01*
X005036Y006990D02*
X004980Y007046D01*
X004810Y007046D01*
X004810Y007103D02*
X004810Y006933D01*
X004980Y006933D01*
X005036Y006990D01*
X004980Y007160D02*
X004866Y007160D01*
X004810Y007103D01*
X004668Y006933D02*
X004555Y006933D01*
X004611Y006933D02*
X004611Y007273D01*
X004668Y007273D01*
X004423Y007273D02*
X004366Y007273D01*
X004366Y006933D01*
X004423Y006933D02*
X004309Y006933D01*
X004177Y006990D02*
X004177Y007160D01*
X004177Y006990D02*
X004120Y006933D01*
X003950Y006933D01*
X003950Y006876D02*
X004007Y006820D01*
X004064Y006820D01*
X003950Y006876D02*
X003950Y007160D01*
X005126Y006456D02*
X005126Y006286D01*
X005126Y006456D02*
X005183Y006513D01*
X005353Y006513D01*
X005353Y006286D01*
X005494Y006400D02*
X005721Y006400D01*
X005721Y006456D02*
X005664Y006513D01*
X005551Y006513D01*
X005494Y006456D01*
X005494Y006400D01*
X005551Y006286D02*
X005664Y006286D01*
X005721Y006343D01*
X005721Y006456D01*
X005863Y006456D02*
X005919Y006513D01*
X006089Y006513D01*
X006089Y006173D01*
X006089Y006286D02*
X005919Y006286D01*
X005863Y006343D01*
X005863Y006456D01*
X006231Y006343D02*
X006288Y006286D01*
X006401Y006286D01*
X006458Y006343D01*
X006458Y006570D01*
X006401Y006626D01*
X006288Y006626D01*
X006231Y006570D01*
X006231Y006343D01*
X005405Y007160D02*
X005348Y007160D01*
X005291Y007103D01*
X008548Y004820D02*
X008775Y004593D01*
X008718Y004536D01*
X008605Y004536D01*
X008548Y004593D01*
X008548Y004820D01*
X008605Y004876D01*
X008718Y004876D01*
X008775Y004820D01*
X008775Y004593D01*
X008902Y004593D02*
X008902Y004536D01*
X008959Y004536D01*
X008959Y004593D01*
X008902Y004593D01*
X009100Y004593D02*
X009157Y004536D01*
X009271Y004536D01*
X009327Y004593D01*
X009214Y004706D02*
X009157Y004706D01*
X009100Y004650D01*
X009100Y004593D01*
X009157Y004706D02*
X009100Y004763D01*
X009100Y004820D01*
X009157Y004876D01*
X009271Y004876D01*
X009327Y004820D01*
X009837Y004763D02*
X009837Y004536D01*
X009837Y004706D02*
X010064Y004706D01*
X010064Y004763D02*
X009950Y004876D01*
X009837Y004763D01*
X010064Y004763D02*
X010064Y004536D01*
X010205Y004593D02*
X010262Y004536D01*
X010375Y004536D01*
X010432Y004593D01*
X010375Y004706D02*
X010262Y004706D01*
X010205Y004650D01*
X010205Y004593D01*
X010375Y004706D02*
X010432Y004763D01*
X010432Y004820D01*
X010375Y004876D01*
X010262Y004876D01*
X010205Y004820D01*
X010574Y004706D02*
X010800Y004706D01*
X010942Y004820D02*
X010942Y004876D01*
X010942Y004820D02*
X011055Y004706D01*
X011055Y004536D01*
X011055Y004706D02*
X011169Y004820D01*
X011169Y004876D01*
X011310Y004820D02*
X011310Y004763D01*
X011367Y004706D01*
X011537Y004706D01*
X011537Y004536D02*
X011367Y004536D01*
X011310Y004593D01*
X011310Y004650D01*
X011367Y004706D01*
X011310Y004820D02*
X011367Y004876D01*
X011537Y004876D01*
X011537Y004536D01*
X012047Y004593D02*
X012104Y004536D01*
X012217Y004536D01*
X012274Y004593D01*
X012274Y004820D01*
X012217Y004876D01*
X012104Y004876D01*
X012047Y004820D01*
X012415Y004820D02*
X012472Y004876D01*
X012585Y004876D01*
X012642Y004820D01*
X012642Y004593D01*
X012585Y004536D01*
X012472Y004536D01*
X012415Y004593D01*
X016057Y003839D02*
X016351Y003839D01*
X016204Y003839D02*
X016204Y004280D01*
X016351Y004133D01*
X016517Y003986D02*
X016517Y004280D01*
X016811Y004280D02*
X016811Y003986D01*
X016664Y003839D01*
X016517Y003986D01*
X016978Y003766D02*
X017271Y003766D01*
X017438Y003839D02*
X017732Y003839D01*
X017585Y003839D02*
X017585Y004280D01*
X017732Y004133D01*
X017899Y004133D02*
X017972Y004060D01*
X017899Y003986D01*
X017899Y003913D01*
X017972Y003839D01*
X018119Y003839D01*
X018192Y003913D01*
X018359Y003913D02*
X018432Y003839D01*
X018579Y003839D01*
X018653Y003913D01*
X018359Y004206D01*
X018359Y003913D01*
X018359Y004206D02*
X018432Y004280D01*
X018579Y004280D01*
X018653Y004206D01*
X018653Y003913D01*
X018819Y003913D02*
X018893Y003839D01*
X019040Y003839D01*
X019113Y003913D01*
X019113Y004060D02*
X018966Y004133D01*
X018893Y004133D01*
X018819Y004060D01*
X018819Y003913D01*
X019113Y004060D02*
X019113Y004280D01*
X018819Y004280D01*
X019280Y004206D02*
X019280Y004060D01*
X019353Y003986D01*
X019573Y003986D01*
X019573Y003839D02*
X019573Y004280D01*
X019353Y004280D01*
X019280Y004206D01*
X019740Y004206D02*
X019740Y003913D01*
X019814Y003839D01*
X020034Y003839D01*
X020034Y004280D01*
X019814Y004280D01*
X019740Y004206D01*
X018192Y004206D02*
X018119Y004280D01*
X017972Y004280D01*
X017899Y004206D01*
X017899Y004133D01*
X017972Y004060D02*
X018045Y004060D01*
X018828Y007096D02*
X018715Y007209D01*
X018828Y007322D01*
X019055Y007322D01*
X018998Y007464D02*
X018771Y007464D01*
X018715Y007521D01*
X018715Y007634D01*
X018771Y007691D01*
X018771Y007832D02*
X018715Y007889D01*
X018715Y008002D01*
X018771Y008059D01*
X018771Y007832D02*
X018998Y007832D01*
X019055Y007889D01*
X019055Y008002D01*
X018998Y008059D01*
X018998Y007691D02*
X019055Y007634D01*
X019055Y007521D01*
X018998Y007464D01*
X019055Y007096D02*
X018828Y007096D01*
X018760Y008986D02*
X018703Y009043D01*
X018703Y009156D01*
X018760Y009213D01*
X018986Y009213D02*
X019043Y009156D01*
X019043Y009043D01*
X018986Y008986D01*
X018760Y008986D01*
X019043Y009354D02*
X019043Y009581D01*
X019043Y009468D02*
X018703Y009468D01*
X018703Y009723D02*
X019043Y009723D01*
X019043Y009893D01*
X018986Y009950D01*
X018873Y009950D01*
X018816Y009893D01*
X018816Y009723D01*
X018816Y009836D02*
X018703Y009950D01*
X018703Y010091D02*
X018703Y010318D01*
X018703Y010091D02*
X019043Y010091D01*
X018986Y011186D02*
X018760Y011186D01*
X018703Y011243D01*
X018703Y011356D01*
X018760Y011413D01*
X018873Y011413D01*
X018873Y011300D01*
X018986Y011413D02*
X019043Y011356D01*
X019043Y011243D01*
X018986Y011186D01*
X019043Y011554D02*
X018703Y011554D01*
X018703Y011781D02*
X019043Y011781D01*
X019043Y011923D02*
X018703Y011923D01*
X018703Y012093D01*
X018760Y012150D01*
X018986Y012150D01*
X019043Y012093D01*
X019043Y011923D01*
X018703Y011781D02*
X019043Y011554D01*
D45*
X014007Y011632D02*
X014007Y011121D01*
X013667Y011121D02*
X013667Y011632D01*
X013837Y011461D01*
X014007Y011632D01*
X013370Y011461D02*
X013199Y011461D01*
X013114Y011376D01*
X013114Y011121D01*
X013370Y011121D01*
X013455Y011206D01*
X013370Y011291D01*
X013114Y011291D01*
X012902Y011376D02*
X012902Y011206D01*
X012817Y011121D01*
X012562Y011121D01*
X012562Y011036D02*
X012562Y011461D01*
X012817Y011461D01*
X012902Y011376D01*
X012732Y010951D02*
X012647Y010951D01*
X012562Y011036D01*
X012350Y011121D02*
X012179Y011121D01*
X012265Y011121D02*
X012265Y011461D01*
X012350Y011461D01*
X012265Y011632D02*
X012265Y011717D01*
X011981Y011376D02*
X011896Y011461D01*
X011641Y011461D01*
X011981Y011376D02*
X011981Y011206D01*
X011896Y011121D01*
X011641Y011121D01*
X012350Y010732D02*
X012350Y010221D01*
X012350Y010391D02*
X012094Y010561D01*
X011889Y010476D02*
X011804Y010561D01*
X011634Y010561D01*
X011549Y010476D01*
X011549Y010391D01*
X011889Y010391D01*
X011889Y010306D02*
X011889Y010476D01*
X011889Y010306D02*
X011804Y010221D01*
X011634Y010221D01*
X012094Y010221D02*
X012350Y010391D01*
X012562Y010306D02*
X012562Y010476D01*
X012647Y010561D01*
X012817Y010561D01*
X012902Y010476D01*
X012902Y010306D01*
X012817Y010221D01*
X012647Y010221D01*
X012562Y010306D01*
X013114Y010221D02*
X013114Y010476D01*
X013199Y010561D01*
X013284Y010476D01*
X013284Y010221D01*
X013455Y010221D02*
X013455Y010561D01*
X013370Y010561D01*
X013284Y010476D01*
X013667Y010391D02*
X013667Y010306D01*
X013752Y010221D01*
X013922Y010221D01*
X014007Y010306D01*
X013922Y010476D02*
X013752Y010476D01*
X013667Y010391D01*
X013667Y010647D02*
X013752Y010732D01*
X013922Y010732D01*
X014007Y010647D01*
X014007Y010561D01*
X013922Y010476D01*
X014007Y009832D02*
X013752Y009832D01*
X013667Y009747D01*
X013667Y009576D01*
X013752Y009491D01*
X014007Y009491D01*
X014007Y009321D02*
X014007Y009832D01*
X013837Y009491D02*
X013667Y009321D01*
X013455Y009321D02*
X013199Y009321D01*
X013114Y009406D01*
X013114Y009491D01*
X013199Y009576D01*
X013455Y009576D01*
X013455Y009321D02*
X013455Y009832D01*
X013199Y009832D01*
X013114Y009747D01*
X013114Y009661D01*
X013199Y009576D01*
X012902Y009406D02*
X012562Y009747D01*
X012562Y009406D01*
X012647Y009321D01*
X012817Y009321D01*
X012902Y009406D01*
X012902Y009747D01*
X012817Y009832D01*
X012647Y009832D01*
X012562Y009747D01*
X012350Y009661D02*
X012179Y009832D01*
X012179Y009321D01*
X012009Y009321D02*
X012350Y009321D01*
X006330Y011854D02*
X005990Y011854D01*
X005778Y011939D02*
X005693Y011854D01*
X005523Y011854D01*
X005437Y011939D01*
X005437Y012280D01*
X005523Y012365D01*
X005693Y012365D01*
X005778Y012280D01*
X005778Y011939D01*
X005225Y011854D02*
X005225Y012195D01*
X005055Y012365D01*
X004885Y012195D01*
X004885Y011854D01*
X004673Y011854D02*
X004418Y011854D01*
X004332Y011939D01*
X004332Y012280D01*
X004418Y012365D01*
X004673Y012365D01*
X004673Y011854D01*
X004885Y012110D02*
X005225Y012110D01*
X006330Y012365D02*
X006330Y011854D01*
D46*
X012882Y008387D03*
X012882Y008382D03*
X013037Y007822D03*
X013037Y007817D03*
X013197Y007842D03*
X013197Y007847D03*
X012632Y007507D03*
X012512Y007662D03*
X012512Y007667D03*
X012507Y007672D03*
X012507Y007677D03*
X012807Y007247D03*
X012802Y007242D03*
X012797Y007237D03*
X012787Y007232D03*
X012782Y007227D03*
X012767Y007217D03*
X012752Y007207D03*
X012747Y007202D03*
X012732Y007192D03*
X012687Y007162D03*
X012672Y007152D03*
X012667Y007147D03*
X012662Y007142D03*
X012647Y007132D03*
X012817Y007252D03*
X012822Y007257D03*
X012832Y007262D03*
X012837Y007267D03*
X012852Y007277D03*
X013227Y007177D03*
X013257Y007372D03*
X012752Y006857D03*
D47*
X012752Y006862D03*
X013112Y007027D03*
X013842Y007207D03*
X014097Y007727D03*
X014102Y007732D03*
X014102Y008272D03*
X013162Y008777D03*
X012752Y008582D03*
X011847Y008312D03*
X011562Y008162D03*
X011647Y007132D03*
D48*
X012477Y006982D03*
X012752Y006867D03*
X011812Y008292D03*
X013162Y008772D03*
X014007Y008322D03*
D49*
X013160Y008767D03*
X012740Y008612D03*
X011780Y007072D03*
X012750Y006872D03*
D50*
X012750Y006877D03*
X011755Y008247D03*
D51*
X012752Y006882D03*
X013847Y008377D03*
D52*
X013857Y008367D03*
X012752Y006887D03*
D53*
X012752Y006892D03*
X013867Y008352D03*
D54*
X013150Y008737D03*
X012750Y006897D03*
D55*
X012752Y006902D03*
D56*
X012750Y006907D03*
X013125Y008717D03*
D57*
X013107Y008702D03*
X012752Y006912D03*
D58*
X012752Y006917D03*
X013097Y008692D03*
D59*
X012750Y006922D03*
D60*
X012750Y006927D03*
X013395Y007072D03*
D61*
X013425Y007087D03*
X012750Y006932D03*
D62*
X012750Y006937D03*
X013450Y007102D03*
D63*
X013480Y007122D03*
X012750Y006942D03*
D64*
X012750Y006947D03*
X013485Y007127D03*
X013490Y007132D03*
D65*
X012750Y006952D03*
D66*
X012750Y006957D03*
D67*
X012567Y007067D03*
X012632Y007482D03*
X012497Y007712D03*
X012492Y007722D03*
X012492Y007727D03*
X013037Y007842D03*
X013202Y007817D03*
X013257Y007347D03*
X013222Y007182D03*
X012017Y006957D03*
X012877Y008412D03*
D68*
X012752Y006962D03*
D69*
X012832Y007292D03*
X012017Y006962D03*
X011542Y007617D03*
X011537Y007622D03*
X011532Y007632D03*
X011527Y007637D03*
X011522Y007642D03*
X011517Y007647D03*
X011512Y008122D03*
X011517Y008127D03*
X011522Y008132D03*
X011857Y008317D03*
X011982Y008537D03*
X011987Y008542D03*
X011992Y008547D03*
X013882Y007237D03*
X013887Y007242D03*
X013972Y007632D03*
X014132Y007757D03*
X014137Y007762D03*
X014137Y008242D03*
X014132Y008247D03*
D70*
X012965Y006967D03*
X012015Y006977D03*
X011770Y008257D03*
D71*
X011762Y008252D03*
X011712Y008222D03*
X012947Y008672D03*
X013827Y008397D03*
X013947Y008337D03*
X012537Y006967D03*
D72*
X012017Y006967D03*
X011717Y007092D03*
X011822Y008297D03*
X012102Y008617D03*
X012747Y008597D03*
X013772Y007167D03*
D73*
X012995Y006972D03*
X012505Y006972D03*
X012915Y008667D03*
D74*
X013972Y008332D03*
X012017Y006972D03*
X011682Y008217D03*
X011792Y008277D03*
D75*
X011805Y008287D03*
X011665Y008212D03*
X012490Y006977D03*
X013010Y006977D03*
X013990Y008327D03*
D76*
X013795Y008422D03*
X012825Y007317D03*
X013025Y006982D03*
X013280Y007147D03*
X013755Y007162D03*
D77*
X013842Y008382D03*
X012017Y006982D03*
D78*
X012280Y007082D03*
X012460Y006987D03*
X012815Y007307D03*
X013040Y006987D03*
X011635Y008202D03*
X014020Y008317D03*
D79*
X012015Y006987D03*
D80*
X012450Y006992D03*
X012815Y007302D03*
X013050Y006992D03*
X013780Y007172D03*
X014030Y008312D03*
X011625Y008197D03*
D81*
X013175Y008752D03*
X012015Y006992D03*
D82*
X012440Y006997D03*
X013060Y006997D03*
X013790Y007177D03*
X014005Y007667D03*
X014010Y007672D03*
X014045Y007697D03*
X012080Y008607D03*
X011615Y008192D03*
D83*
X012015Y006997D03*
D84*
X012430Y007002D03*
X013070Y007002D03*
X013475Y007042D03*
X013810Y007187D03*
X013995Y007657D03*
X014000Y007662D03*
X014060Y008297D03*
X012070Y008602D03*
X011595Y008182D03*
D85*
X012015Y007002D03*
D86*
X011687Y007107D03*
X011677Y007112D03*
X013077Y007007D03*
X013087Y007012D03*
X014062Y007707D03*
X014072Y007712D03*
X014072Y008292D03*
X012062Y008597D03*
X011837Y008307D03*
X011587Y008177D03*
D87*
X011602Y008187D03*
X012747Y008592D03*
X014052Y008302D03*
X014052Y007702D03*
X013802Y007182D03*
X012812Y007322D03*
X012422Y007007D03*
X012287Y007087D03*
X011697Y007102D03*
D88*
X012015Y007007D03*
X013130Y008722D03*
D89*
X012137Y007012D03*
D90*
X011662Y007122D03*
X013097Y007017D03*
X013827Y007197D03*
X014087Y008282D03*
X012052Y008592D03*
X012047Y008587D03*
X011577Y008172D03*
D91*
X012445Y007882D03*
X012445Y007877D03*
X013045Y007907D03*
X013220Y007732D03*
X013220Y007727D03*
X013265Y007277D03*
X012645Y007377D03*
X012645Y007382D03*
X012540Y007017D03*
X012865Y008497D03*
X012865Y008502D03*
D92*
X012115Y007017D03*
X012105Y007022D03*
D93*
X012295Y007092D03*
X012800Y007327D03*
X013105Y007022D03*
X013835Y007202D03*
X013985Y007647D03*
X014090Y007722D03*
X014095Y008277D03*
X012040Y008582D03*
X011570Y008167D03*
X011655Y007127D03*
D94*
X012545Y007022D03*
X013220Y007192D03*
X013220Y007742D03*
X013045Y007897D03*
X013045Y007902D03*
X012455Y007847D03*
X012450Y007857D03*
X012450Y007862D03*
X012870Y008482D03*
D95*
X012867Y008477D03*
X013042Y007892D03*
X013217Y007752D03*
X013217Y007747D03*
X012642Y007407D03*
X012642Y007402D03*
X012317Y007137D03*
X012547Y007027D03*
X013262Y007292D03*
X013262Y007297D03*
X012457Y007837D03*
X012457Y007842D03*
X012452Y007852D03*
D96*
X012067Y007042D03*
X012077Y007037D03*
X012097Y007027D03*
D97*
X011640Y007137D03*
X011635Y007142D03*
X013120Y007032D03*
X013125Y007037D03*
X013850Y007212D03*
X013980Y007642D03*
X014110Y007737D03*
X014110Y008267D03*
X012030Y008577D03*
X012025Y008572D03*
X011555Y008157D03*
D98*
X012462Y007822D03*
X012462Y007817D03*
X013042Y007882D03*
X013212Y007767D03*
X013262Y007312D03*
X013262Y007307D03*
X013262Y007302D03*
X012547Y007032D03*
X012872Y008462D03*
D99*
X012045Y007057D03*
X012050Y007052D03*
X012060Y007047D03*
X012035Y007062D03*
X012085Y007032D03*
D100*
X012600Y007117D03*
X013475Y007037D03*
X013940Y007302D03*
X013945Y007307D03*
X013945Y007312D03*
X013950Y007317D03*
X013955Y007327D03*
X013965Y007622D03*
X014190Y007817D03*
X014195Y007827D03*
X014200Y007832D03*
X014205Y007837D03*
X014210Y007847D03*
X014210Y008157D03*
X014205Y008167D03*
X014200Y008172D03*
X014195Y008177D03*
X014190Y008187D03*
X011940Y008487D03*
X011935Y008482D03*
X011930Y008477D03*
X011930Y008472D03*
X011925Y008467D03*
X011870Y008322D03*
X011460Y008062D03*
X011455Y008057D03*
X011450Y008047D03*
X011445Y007732D03*
X011450Y007722D03*
X011455Y007717D03*
X011555Y007597D03*
X011555Y007592D03*
X011550Y007582D03*
X011550Y007577D03*
X011545Y007572D03*
X011540Y007562D03*
X011545Y007237D03*
X011550Y007232D03*
X011550Y007227D03*
X011555Y007222D03*
D101*
X012550Y007037D03*
X012640Y007422D03*
X012640Y007427D03*
X012470Y007797D03*
X012470Y007802D03*
X012465Y007807D03*
X012465Y007812D03*
X013040Y007877D03*
X013215Y007772D03*
X013330Y008467D03*
X013335Y008497D03*
X013340Y008527D03*
X013345Y008557D03*
X013350Y008582D03*
X013350Y008587D03*
X013355Y008612D03*
X013355Y008617D03*
X013360Y008642D03*
X013360Y008647D03*
X013380Y008767D03*
X013380Y008772D03*
X012870Y008457D03*
D102*
X013292Y008672D03*
X013762Y008437D03*
X014117Y008262D03*
X014122Y008257D03*
X014122Y007747D03*
X014117Y007742D03*
X013977Y007637D03*
X013862Y007222D03*
X013857Y007217D03*
X013252Y007157D03*
X013132Y007042D03*
X012297Y007097D03*
X011627Y007147D03*
X011542Y008147D03*
X011547Y008152D03*
X012017Y008567D03*
D103*
X012847Y008337D03*
X012842Y008317D03*
X012837Y008297D03*
X012837Y008292D03*
X012832Y008272D03*
X012827Y008252D03*
X012822Y008232D03*
X012817Y008207D03*
X012812Y008187D03*
X012807Y008167D03*
X012802Y008142D03*
X012797Y008122D03*
X012792Y008102D03*
X012787Y008077D03*
X012782Y008057D03*
X012777Y008037D03*
X012772Y008012D03*
X012767Y007992D03*
X012762Y007972D03*
X012757Y007947D03*
X012752Y007927D03*
X012747Y007907D03*
X012742Y007882D03*
X012737Y007862D03*
X012732Y007842D03*
X012727Y007817D03*
X012722Y007797D03*
X012717Y007777D03*
X012712Y007752D03*
X012707Y007732D03*
X012702Y007712D03*
X012697Y007687D03*
X012692Y007667D03*
X012687Y007647D03*
X012682Y007622D03*
X012677Y007607D03*
X012677Y007602D03*
X012672Y007592D03*
X012672Y007587D03*
X012672Y007582D03*
X012667Y007567D03*
X012667Y007562D03*
X012667Y007557D03*
X012662Y007547D03*
X012662Y007542D03*
X012637Y007437D03*
X012637Y007432D03*
X012512Y007432D03*
X012512Y007437D03*
X012512Y007442D03*
X012507Y007482D03*
X012507Y007487D03*
X012502Y007512D03*
X012502Y007517D03*
X012502Y007522D03*
X012502Y007527D03*
X012502Y007532D03*
X012497Y007542D03*
X012497Y007547D03*
X012497Y007552D03*
X012497Y007557D03*
X012497Y007562D03*
X012497Y007567D03*
X012497Y007572D03*
X012497Y007577D03*
X012492Y007587D03*
X012492Y007592D03*
X012492Y007597D03*
X012492Y007602D03*
X012492Y007607D03*
X012492Y007612D03*
X012472Y007787D03*
X012472Y007792D03*
X012517Y007397D03*
X012517Y007392D03*
X012517Y007387D03*
X012517Y007382D03*
X012522Y007372D03*
X012522Y007367D03*
X012522Y007362D03*
X012522Y007357D03*
X012522Y007352D03*
X012522Y007347D03*
X012522Y007342D03*
X012522Y007337D03*
X012522Y007332D03*
X012527Y007327D03*
X012527Y007322D03*
X012527Y007317D03*
X012527Y007312D03*
X012527Y007307D03*
X012527Y007302D03*
X012527Y007297D03*
X012527Y007292D03*
X012527Y007287D03*
X012527Y007282D03*
X012532Y007277D03*
X012532Y007272D03*
X012532Y007267D03*
X012532Y007262D03*
X012532Y007257D03*
X012532Y007252D03*
X012532Y007247D03*
X012532Y007242D03*
X012532Y007237D03*
X012532Y007232D03*
X012537Y007227D03*
X012537Y007222D03*
X012537Y007217D03*
X012537Y007212D03*
X012537Y007207D03*
X012537Y007202D03*
X012537Y007197D03*
X012537Y007192D03*
X012537Y007187D03*
X012537Y007182D03*
X012542Y007177D03*
X012542Y007172D03*
X012542Y007167D03*
X012542Y007162D03*
X012542Y007157D03*
X012542Y007152D03*
X012542Y007147D03*
X012542Y007142D03*
X012542Y007137D03*
X012542Y007132D03*
X012547Y007127D03*
X012552Y007042D03*
X013262Y007317D03*
X013262Y007322D03*
X013302Y007427D03*
X013312Y007452D03*
X013322Y007477D03*
X013332Y007502D03*
X013357Y007567D03*
X013367Y007592D03*
X013377Y007617D03*
X013387Y007642D03*
X013412Y007707D03*
X013422Y007732D03*
X013432Y007757D03*
X013442Y007782D03*
X013467Y007847D03*
X013477Y007872D03*
X013487Y007897D03*
X013497Y007922D03*
X013532Y008012D03*
X013542Y008037D03*
X013552Y008062D03*
X013562Y008087D03*
X013587Y008152D03*
X013597Y008177D03*
X013607Y008202D03*
X013617Y008227D03*
X013627Y008252D03*
X013637Y008277D03*
X013642Y008292D03*
X013652Y008317D03*
X013317Y008382D03*
X013317Y008387D03*
X013317Y008392D03*
X013317Y008397D03*
X013317Y008402D03*
X013317Y008407D03*
X013322Y008412D03*
X013322Y008417D03*
X013322Y008422D03*
X013322Y008427D03*
X013322Y008432D03*
X013322Y008437D03*
X013327Y008442D03*
X013327Y008447D03*
X013327Y008452D03*
X013327Y008457D03*
X013327Y008462D03*
X013332Y008472D03*
X013332Y008477D03*
X013332Y008482D03*
X013332Y008487D03*
X013332Y008492D03*
X013337Y008502D03*
X013337Y008507D03*
X013337Y008512D03*
X013337Y008517D03*
X013337Y008522D03*
X013342Y008532D03*
X013342Y008537D03*
X013342Y008542D03*
X013342Y008547D03*
X013342Y008552D03*
X013347Y008562D03*
X013347Y008567D03*
X013347Y008572D03*
X013347Y008577D03*
X013352Y008592D03*
X013352Y008597D03*
X013352Y008602D03*
X013352Y008607D03*
X013357Y008622D03*
X013357Y008627D03*
X013357Y008632D03*
X013357Y008637D03*
X013382Y008777D03*
X013382Y008782D03*
X013312Y008377D03*
X013312Y008372D03*
X013312Y008367D03*
X013312Y008362D03*
X013312Y008357D03*
X013312Y008352D03*
X013307Y008342D03*
X013307Y008337D03*
X013307Y008332D03*
X013307Y008327D03*
X013307Y008322D03*
X013302Y008312D03*
X013302Y008307D03*
X013302Y008302D03*
X013302Y008297D03*
X013297Y008287D03*
X013297Y008282D03*
X013297Y008277D03*
X013297Y008272D03*
X013297Y008267D03*
X013292Y008257D03*
X013292Y008252D03*
X013292Y008247D03*
X013292Y008242D03*
X013292Y008237D03*
X013287Y008227D03*
X013287Y008222D03*
X013287Y008217D03*
X013287Y008212D03*
X013287Y008207D03*
X013282Y008197D03*
X013282Y008192D03*
X013282Y008187D03*
X013282Y008182D03*
X013277Y008172D03*
X013277Y008167D03*
X013277Y008162D03*
X013277Y008157D03*
X013277Y008152D03*
X013272Y008142D03*
X013272Y008137D03*
X013272Y008132D03*
X013272Y008127D03*
X013272Y008122D03*
X013267Y008112D03*
X013267Y008107D03*
X013267Y008102D03*
X013267Y008097D03*
X013267Y008092D03*
X013262Y008082D03*
X013262Y008077D03*
X013262Y008072D03*
X013262Y008067D03*
X013262Y008062D03*
X013257Y008052D03*
X013257Y008047D03*
X013257Y008042D03*
X013257Y008037D03*
X013252Y008027D03*
X013252Y008022D03*
X013252Y008017D03*
X013252Y008012D03*
X013252Y008007D03*
X013247Y007997D03*
X013247Y007992D03*
X013247Y007987D03*
X013247Y007982D03*
X013247Y007977D03*
X013242Y007967D03*
X013242Y007962D03*
X013242Y007957D03*
X013242Y007952D03*
X013242Y007947D03*
X013237Y007937D03*
X013237Y007932D03*
X013237Y007927D03*
X013237Y007922D03*
X013232Y007912D03*
X013232Y007907D03*
X013232Y007902D03*
X013232Y007897D03*
X013232Y007892D03*
X013212Y007777D03*
X013092Y007737D03*
X013082Y007762D03*
X013102Y007712D03*
X013112Y007687D03*
X013042Y007872D03*
X012872Y008447D03*
X012872Y008452D03*
D104*
X012742Y008607D03*
X012397Y008737D03*
X011757Y007077D03*
X013477Y007047D03*
D105*
X013150Y007057D03*
X013145Y007052D03*
X013140Y007047D03*
X013870Y007227D03*
X013875Y007232D03*
X014130Y007752D03*
X014125Y008252D03*
X012010Y008562D03*
X012005Y008557D03*
X012000Y008552D03*
X011535Y008142D03*
X011530Y008137D03*
X011610Y007162D03*
X011615Y007157D03*
X011620Y007152D03*
D106*
X012520Y007377D03*
X012515Y007402D03*
X012515Y007407D03*
X012515Y007412D03*
X012515Y007417D03*
X012515Y007422D03*
X012515Y007427D03*
X012510Y007447D03*
X012510Y007452D03*
X012510Y007457D03*
X012510Y007462D03*
X012510Y007467D03*
X012510Y007472D03*
X012510Y007477D03*
X012505Y007492D03*
X012505Y007497D03*
X012505Y007502D03*
X012505Y007507D03*
X012500Y007537D03*
X012495Y007582D03*
X012560Y007612D03*
X012565Y007602D03*
X012570Y007592D03*
X012575Y007582D03*
X012580Y007572D03*
X012585Y007562D03*
X012590Y007552D03*
X012595Y007542D03*
X012665Y007552D03*
X012670Y007572D03*
X012670Y007577D03*
X012675Y007597D03*
X012680Y007612D03*
X012680Y007617D03*
X012685Y007627D03*
X012685Y007632D03*
X012685Y007637D03*
X012685Y007642D03*
X012690Y007652D03*
X012690Y007657D03*
X012690Y007662D03*
X012695Y007672D03*
X012695Y007677D03*
X012695Y007682D03*
X012700Y007692D03*
X012700Y007697D03*
X012700Y007702D03*
X012700Y007707D03*
X012705Y007717D03*
X012705Y007722D03*
X012705Y007727D03*
X012710Y007737D03*
X012710Y007742D03*
X012710Y007747D03*
X012715Y007757D03*
X012715Y007762D03*
X012715Y007767D03*
X012715Y007772D03*
X012720Y007782D03*
X012720Y007787D03*
X012720Y007792D03*
X012725Y007802D03*
X012725Y007807D03*
X012725Y007812D03*
X012730Y007822D03*
X012730Y007827D03*
X012730Y007832D03*
X012730Y007837D03*
X012735Y007847D03*
X012735Y007852D03*
X012735Y007857D03*
X012740Y007867D03*
X012740Y007872D03*
X012740Y007877D03*
X012745Y007887D03*
X012745Y007892D03*
X012745Y007897D03*
X012745Y007902D03*
X012750Y007912D03*
X012750Y007917D03*
X012750Y007922D03*
X012755Y007932D03*
X012755Y007937D03*
X012755Y007942D03*
X012760Y007952D03*
X012760Y007957D03*
X012760Y007962D03*
X012760Y007967D03*
X012765Y007977D03*
X012765Y007982D03*
X012765Y007987D03*
X012770Y007997D03*
X012770Y008002D03*
X012770Y008007D03*
X012775Y008017D03*
X012775Y008022D03*
X012775Y008027D03*
X012775Y008032D03*
X012780Y008042D03*
X012780Y008047D03*
X012780Y008052D03*
X012785Y008062D03*
X012785Y008067D03*
X012785Y008072D03*
X012790Y008082D03*
X012790Y008087D03*
X012790Y008092D03*
X012790Y008097D03*
X012795Y008107D03*
X012795Y008112D03*
X012795Y008117D03*
X012800Y008127D03*
X012800Y008132D03*
X012800Y008137D03*
X012805Y008147D03*
X012805Y008152D03*
X012805Y008157D03*
X012805Y008162D03*
X012810Y008172D03*
X012810Y008177D03*
X012810Y008182D03*
X012815Y008192D03*
X012815Y008197D03*
X012815Y008202D03*
X012820Y008212D03*
X012820Y008217D03*
X012820Y008222D03*
X012820Y008227D03*
X012825Y008237D03*
X012825Y008242D03*
X012825Y008247D03*
X012830Y008257D03*
X012830Y008262D03*
X012830Y008267D03*
X012835Y008277D03*
X012835Y008282D03*
X012835Y008287D03*
X012840Y008302D03*
X012840Y008307D03*
X012840Y008312D03*
X012845Y008322D03*
X012845Y008327D03*
X012845Y008332D03*
X012850Y008342D03*
X012850Y008347D03*
X012850Y008352D03*
X012920Y008352D03*
X012925Y008342D03*
X012930Y008332D03*
X012935Y008322D03*
X012940Y008312D03*
X012945Y008302D03*
X012950Y008292D03*
X012955Y008282D03*
X012960Y008272D03*
X012965Y008262D03*
X012970Y008252D03*
X012975Y008242D03*
X012980Y008232D03*
X012985Y008222D03*
X012990Y008212D03*
X012995Y008202D03*
X013000Y008192D03*
X013005Y008182D03*
X013010Y008172D03*
X013015Y008162D03*
X013020Y008152D03*
X013025Y008147D03*
X013025Y008142D03*
X013030Y008137D03*
X013030Y008132D03*
X013035Y008127D03*
X013035Y008122D03*
X013040Y008117D03*
X013040Y008112D03*
X013045Y008107D03*
X013050Y008097D03*
X013055Y008087D03*
X013060Y008077D03*
X013065Y008067D03*
X013070Y008057D03*
X013075Y008047D03*
X013080Y008037D03*
X013085Y008027D03*
X013090Y008017D03*
X013040Y007867D03*
X013075Y007787D03*
X013075Y007782D03*
X013075Y007777D03*
X013080Y007772D03*
X013080Y007767D03*
X013085Y007757D03*
X013085Y007752D03*
X013090Y007747D03*
X013090Y007742D03*
X013095Y007732D03*
X013095Y007727D03*
X013100Y007722D03*
X013100Y007717D03*
X013105Y007707D03*
X013105Y007702D03*
X013110Y007697D03*
X013110Y007692D03*
X013115Y007682D03*
X013115Y007677D03*
X013120Y007672D03*
X013120Y007667D03*
X013120Y007662D03*
X013125Y007657D03*
X013125Y007652D03*
X013130Y007647D03*
X013130Y007642D03*
X013130Y007637D03*
X013135Y007627D03*
X013140Y007617D03*
X013140Y007612D03*
X013145Y007602D03*
X013150Y007592D03*
X013150Y007587D03*
X013155Y007577D03*
X013160Y007567D03*
X013165Y007557D03*
X013165Y007552D03*
X013170Y007542D03*
X013175Y007532D03*
X013175Y007527D03*
X013180Y007517D03*
X013185Y007507D03*
X013185Y007502D03*
X013190Y007492D03*
X013195Y007482D03*
X013200Y007467D03*
X013205Y007457D03*
X013215Y007432D03*
X013295Y007412D03*
X013300Y007417D03*
X013300Y007422D03*
X013305Y007432D03*
X013305Y007437D03*
X013310Y007442D03*
X013310Y007447D03*
X013315Y007457D03*
X013315Y007462D03*
X013320Y007467D03*
X013320Y007472D03*
X013325Y007482D03*
X013325Y007487D03*
X013330Y007492D03*
X013330Y007497D03*
X013335Y007507D03*
X013335Y007512D03*
X013340Y007517D03*
X013340Y007522D03*
X013340Y007527D03*
X013345Y007532D03*
X013345Y007537D03*
X013350Y007542D03*
X013350Y007547D03*
X013350Y007552D03*
X013355Y007557D03*
X013355Y007562D03*
X013360Y007572D03*
X013360Y007577D03*
X013365Y007582D03*
X013365Y007587D03*
X013370Y007597D03*
X013370Y007602D03*
X013375Y007607D03*
X013375Y007612D03*
X013380Y007622D03*
X013380Y007627D03*
X013385Y007632D03*
X013385Y007637D03*
X013390Y007647D03*
X013390Y007652D03*
X013395Y007657D03*
X013395Y007662D03*
X013395Y007667D03*
X013400Y007672D03*
X013400Y007677D03*
X013405Y007682D03*
X013405Y007687D03*
X013405Y007692D03*
X013410Y007697D03*
X013410Y007702D03*
X013415Y007712D03*
X013415Y007717D03*
X013420Y007722D03*
X013420Y007727D03*
X013425Y007737D03*
X013425Y007742D03*
X013430Y007747D03*
X013430Y007752D03*
X013435Y007762D03*
X013435Y007767D03*
X013440Y007772D03*
X013440Y007777D03*
X013445Y007787D03*
X013445Y007792D03*
X013450Y007797D03*
X013450Y007802D03*
X013450Y007807D03*
X013455Y007812D03*
X013455Y007817D03*
X013460Y007822D03*
X013460Y007827D03*
X013460Y007832D03*
X013465Y007837D03*
X013465Y007842D03*
X013470Y007852D03*
X013470Y007857D03*
X013475Y007862D03*
X013475Y007867D03*
X013480Y007877D03*
X013480Y007882D03*
X013485Y007887D03*
X013485Y007892D03*
X013490Y007902D03*
X013490Y007907D03*
X013495Y007912D03*
X013495Y007917D03*
X013500Y007927D03*
X013500Y007932D03*
X013505Y007937D03*
X013505Y007942D03*
X013505Y007947D03*
X013510Y007952D03*
X013510Y007957D03*
X013515Y007962D03*
X013515Y007967D03*
X013515Y007972D03*
X013520Y007977D03*
X013520Y007982D03*
X013525Y007987D03*
X013525Y007992D03*
X013525Y007997D03*
X013530Y008002D03*
X013530Y008007D03*
X013535Y008017D03*
X013535Y008022D03*
X013540Y008027D03*
X013540Y008032D03*
X013545Y008042D03*
X013545Y008047D03*
X013550Y008052D03*
X013550Y008057D03*
X013555Y008067D03*
X013555Y008072D03*
X013560Y008077D03*
X013560Y008082D03*
X013565Y008092D03*
X013565Y008097D03*
X013570Y008102D03*
X013570Y008107D03*
X013570Y008112D03*
X013575Y008117D03*
X013575Y008122D03*
X013580Y008127D03*
X013580Y008132D03*
X013580Y008137D03*
X013585Y008142D03*
X013585Y008147D03*
X013590Y008157D03*
X013590Y008162D03*
X013595Y008167D03*
X013595Y008172D03*
X013600Y008182D03*
X013600Y008187D03*
X013605Y008192D03*
X013605Y008197D03*
X013610Y008207D03*
X013610Y008212D03*
X013615Y008217D03*
X013615Y008222D03*
X013620Y008232D03*
X013620Y008237D03*
X013625Y008242D03*
X013625Y008247D03*
X013630Y008257D03*
X013630Y008262D03*
X013635Y008267D03*
X013635Y008272D03*
X013640Y008282D03*
X013640Y008287D03*
X013645Y008297D03*
X013645Y008302D03*
X013650Y008307D03*
X013650Y008312D03*
X013655Y008322D03*
X013655Y008327D03*
X013660Y008332D03*
X013705Y008452D03*
X013705Y008457D03*
X013710Y008467D03*
X013715Y008482D03*
X013720Y008492D03*
X013725Y008507D03*
X013730Y008517D03*
X013735Y008532D03*
X013745Y008557D03*
X013755Y008582D03*
X013760Y008597D03*
X013765Y008607D03*
X013770Y008622D03*
X013775Y008632D03*
X013780Y008647D03*
X013785Y008657D03*
X013790Y008672D03*
X013795Y008682D03*
X013800Y008697D03*
X013805Y008707D03*
X013810Y008722D03*
X013815Y008732D03*
X013815Y008737D03*
X013820Y008747D03*
X013825Y008757D03*
X013825Y008762D03*
X013825Y008767D03*
X013830Y008772D03*
X013830Y008777D03*
X013835Y008782D03*
X013310Y008347D03*
X013305Y008317D03*
X013300Y008292D03*
X013295Y008262D03*
X013290Y008232D03*
X013285Y008202D03*
X013280Y008177D03*
X013275Y008147D03*
X013270Y008117D03*
X013265Y008087D03*
X013260Y008057D03*
X013255Y008032D03*
X013250Y008002D03*
X013245Y007972D03*
X013240Y007942D03*
X013235Y007917D03*
X013230Y007887D03*
X013210Y007782D03*
X012640Y007442D03*
X012475Y007777D03*
X012475Y007782D03*
X012875Y008437D03*
X012875Y008442D03*
X012760Y008537D03*
X013225Y007187D03*
X012555Y007047D03*
D107*
X013475Y007052D03*
D108*
X013262Y007327D03*
X013262Y007332D03*
X013222Y007412D03*
X013222Y007417D03*
X013217Y007422D03*
X013217Y007427D03*
X013212Y007437D03*
X013212Y007442D03*
X013207Y007447D03*
X013207Y007452D03*
X013202Y007462D03*
X013197Y007472D03*
X013197Y007477D03*
X013192Y007487D03*
X013187Y007497D03*
X013182Y007512D03*
X013177Y007522D03*
X013172Y007537D03*
X013167Y007547D03*
X013162Y007562D03*
X013157Y007572D03*
X013152Y007582D03*
X013147Y007597D03*
X013142Y007607D03*
X013137Y007622D03*
X013132Y007632D03*
X013207Y007787D03*
X013207Y007792D03*
X013157Y007887D03*
X013152Y007897D03*
X013147Y007907D03*
X013142Y007912D03*
X013142Y007917D03*
X013137Y007922D03*
X013137Y007927D03*
X013132Y007932D03*
X013132Y007937D03*
X013127Y007942D03*
X013127Y007947D03*
X013122Y007952D03*
X013122Y007957D03*
X013117Y007962D03*
X013117Y007967D03*
X013112Y007972D03*
X013112Y007977D03*
X013107Y007982D03*
X013107Y007987D03*
X013102Y007992D03*
X013102Y007997D03*
X013097Y008002D03*
X013097Y008007D03*
X013092Y008012D03*
X013087Y008022D03*
X013082Y008032D03*
X013077Y008042D03*
X013072Y008052D03*
X013067Y008062D03*
X013062Y008072D03*
X013057Y008082D03*
X013052Y008092D03*
X013047Y008102D03*
X013017Y008157D03*
X013012Y008167D03*
X013007Y008177D03*
X013002Y008187D03*
X012997Y008197D03*
X012992Y008207D03*
X012987Y008217D03*
X012982Y008227D03*
X012977Y008237D03*
X012972Y008247D03*
X012967Y008257D03*
X012962Y008267D03*
X012957Y008277D03*
X012952Y008287D03*
X012947Y008297D03*
X012942Y008307D03*
X012937Y008317D03*
X012932Y008327D03*
X012927Y008337D03*
X012922Y008347D03*
X013042Y007862D03*
X012977Y007747D03*
X012962Y007722D03*
X012947Y007697D03*
X012942Y007687D03*
X012932Y007672D03*
X012927Y007662D03*
X012922Y007652D03*
X012917Y007647D03*
X012912Y007637D03*
X012907Y007627D03*
X012902Y007622D03*
X012897Y007612D03*
X012892Y007602D03*
X012887Y007592D03*
X012882Y007587D03*
X012882Y007582D03*
X012877Y007577D03*
X012877Y007572D03*
X012872Y007567D03*
X012867Y007562D03*
X012867Y007557D03*
X012862Y007552D03*
X012862Y007547D03*
X012857Y007542D03*
X012852Y007537D03*
X012852Y007532D03*
X012847Y007527D03*
X012847Y007522D03*
X012842Y007517D03*
X012837Y007512D03*
X012837Y007507D03*
X012832Y007502D03*
X012832Y007497D03*
X012827Y007492D03*
X012822Y007487D03*
X012822Y007482D03*
X012817Y007477D03*
X012817Y007472D03*
X012812Y007467D03*
X012807Y007462D03*
X012807Y007457D03*
X012802Y007452D03*
X012802Y007447D03*
X012797Y007442D03*
X012792Y007437D03*
X012792Y007432D03*
X012787Y007427D03*
X012787Y007422D03*
X012782Y007417D03*
X012777Y007412D03*
X012777Y007407D03*
X012772Y007402D03*
X012772Y007397D03*
X012767Y007392D03*
X012762Y007387D03*
X012762Y007382D03*
X012757Y007377D03*
X012757Y007372D03*
X012752Y007367D03*
X012747Y007362D03*
X012747Y007357D03*
X012742Y007352D03*
X012637Y007447D03*
X012637Y007452D03*
X012592Y007547D03*
X012587Y007557D03*
X012582Y007567D03*
X012577Y007577D03*
X012572Y007587D03*
X012567Y007597D03*
X012562Y007607D03*
X012477Y007772D03*
X012557Y007052D03*
X013707Y008462D03*
X013712Y008472D03*
X013712Y008477D03*
X013717Y008487D03*
X013722Y008497D03*
X013722Y008502D03*
X013727Y008512D03*
X013732Y008522D03*
X013732Y008527D03*
X013737Y008537D03*
X013737Y008542D03*
X013742Y008547D03*
X013742Y008552D03*
X013747Y008562D03*
X013747Y008567D03*
X013752Y008572D03*
X013752Y008577D03*
X013757Y008587D03*
X013757Y008592D03*
X013762Y008602D03*
X013767Y008612D03*
X013767Y008617D03*
X013772Y008627D03*
X013777Y008637D03*
X013777Y008642D03*
X013782Y008652D03*
X013787Y008662D03*
X013787Y008667D03*
X013792Y008677D03*
X013797Y008687D03*
X013797Y008692D03*
X013802Y008702D03*
X013807Y008712D03*
X013807Y008717D03*
X013812Y008727D03*
X013817Y008742D03*
X013822Y008752D03*
D109*
X013840Y008387D03*
X013475Y007057D03*
D110*
X013262Y007342D03*
X012747Y007347D03*
X012562Y007057D03*
X012487Y007742D03*
X012487Y007747D03*
X013207Y007797D03*
X013207Y007802D03*
X012877Y008422D03*
X012877Y008427D03*
D111*
X012395Y008722D03*
X013850Y008372D03*
X013475Y007062D03*
D112*
X013155Y007062D03*
X013890Y007247D03*
X013895Y007252D03*
X014145Y007767D03*
X014150Y007772D03*
X014155Y007777D03*
X014155Y008227D03*
X014150Y008232D03*
X014145Y008237D03*
X012755Y008577D03*
X011505Y008117D03*
X011500Y008112D03*
X011495Y007667D03*
X011500Y007662D03*
X011505Y007657D03*
X011510Y007652D03*
X011535Y007627D03*
X011545Y007612D03*
X011595Y007177D03*
X011600Y007172D03*
X011605Y007167D03*
D113*
X012565Y007062D03*
X012635Y007467D03*
X012635Y007472D03*
X012635Y007477D03*
X012490Y007732D03*
X012490Y007737D03*
X013040Y007847D03*
X013205Y007812D03*
X013205Y007807D03*
X012880Y008417D03*
X012760Y008542D03*
D114*
X013385Y007067D03*
D115*
X012027Y007067D03*
D116*
X012570Y007072D03*
X012635Y007487D03*
X012500Y007702D03*
X012500Y007707D03*
X012495Y007717D03*
X013040Y007837D03*
X013200Y007822D03*
X013260Y007352D03*
X012880Y008402D03*
X012880Y008407D03*
X013345Y008657D03*
D117*
X011780Y008267D03*
X012260Y007072D03*
D118*
X013410Y007077D03*
D119*
X013260Y007367D03*
X012775Y007222D03*
X012760Y007212D03*
X012740Y007197D03*
X012725Y007187D03*
X012720Y007182D03*
X012710Y007177D03*
X012655Y007137D03*
X012640Y007127D03*
X012575Y007077D03*
X012630Y007502D03*
X012505Y007682D03*
X012505Y007687D03*
X013200Y007832D03*
X013200Y007837D03*
X012880Y008392D03*
X012880Y008397D03*
X013160Y008782D03*
X013720Y008447D03*
D120*
X013802Y008417D03*
X013742Y007157D03*
X012272Y007077D03*
D121*
X013417Y007082D03*
X012397Y008677D03*
D122*
X013195Y007852D03*
X012630Y007522D03*
X012630Y007517D03*
X012630Y007512D03*
X012515Y007652D03*
X012515Y007657D03*
X012760Y007342D03*
X012845Y007272D03*
X012700Y007172D03*
X012695Y007167D03*
X012680Y007157D03*
X012575Y007082D03*
X012315Y007122D03*
X013260Y007377D03*
D123*
X011745Y007082D03*
X011650Y008207D03*
X012130Y008627D03*
X012745Y008602D03*
D124*
X012757Y008552D03*
X012882Y008377D03*
X012882Y008372D03*
X013332Y008662D03*
X013197Y007857D03*
X013037Y007812D03*
X013257Y007387D03*
X013257Y007382D03*
X012852Y007282D03*
X012627Y007527D03*
X012517Y007642D03*
X012517Y007647D03*
X012577Y007087D03*
D125*
X012822Y007312D03*
X011732Y007087D03*
X012112Y008622D03*
D126*
X013435Y007092D03*
D127*
X013232Y007172D03*
X013257Y007397D03*
X013192Y007872D03*
X013192Y007877D03*
X012627Y007537D03*
X012527Y007617D03*
X012522Y007627D03*
X012582Y007092D03*
X012312Y007117D03*
X012887Y008357D03*
X012757Y008557D03*
D128*
X012397Y008672D03*
X013442Y007097D03*
D129*
X013260Y007402D03*
X013035Y007792D03*
X013035Y007797D03*
X013190Y007882D03*
X012585Y007097D03*
D130*
X011707Y007097D03*
X011827Y008302D03*
X012092Y008612D03*
X012397Y008742D03*
X013787Y008427D03*
X014042Y008307D03*
X014037Y007692D03*
X014027Y007687D03*
X014022Y007682D03*
X014017Y007677D03*
D131*
X013257Y007407D03*
X012587Y007102D03*
D132*
X012302Y007102D03*
X012787Y007332D03*
X013242Y007162D03*
X013902Y007257D03*
X013907Y007262D03*
X013912Y007267D03*
X014157Y008222D03*
X012397Y008747D03*
X011977Y008532D03*
X011972Y008527D03*
X011967Y008522D03*
X011962Y008517D03*
X011497Y008107D03*
X011492Y008102D03*
X011487Y008097D03*
X011492Y007672D03*
X011547Y007607D03*
X011587Y007182D03*
D133*
X013460Y007107D03*
X013465Y007112D03*
D134*
X013237Y007167D03*
X012592Y007107D03*
X011512Y007302D03*
X011507Y007312D03*
X011507Y007317D03*
X011507Y007322D03*
X011502Y007332D03*
X011502Y007337D03*
X011502Y007342D03*
X011497Y007352D03*
X011497Y007357D03*
X011497Y007362D03*
X011497Y007367D03*
X011497Y007372D03*
X011492Y007412D03*
X011492Y007417D03*
X011492Y007422D03*
X011497Y007442D03*
X011497Y007447D03*
X011497Y007452D03*
X011497Y007457D03*
X011497Y007462D03*
X011502Y007467D03*
X011502Y007472D03*
X011502Y007477D03*
X011502Y007482D03*
X011507Y007487D03*
X011507Y007492D03*
X011512Y007507D03*
X011422Y007777D03*
X011417Y007792D03*
X011412Y007802D03*
X011412Y007807D03*
X011412Y007812D03*
X011407Y007822D03*
X011407Y007827D03*
X011407Y007832D03*
X011407Y007837D03*
X011402Y007852D03*
X011402Y007857D03*
X011402Y007862D03*
X011402Y007867D03*
X011402Y007872D03*
X011402Y007877D03*
X011402Y007882D03*
X011402Y007887D03*
X011402Y007892D03*
X011402Y007897D03*
X011402Y007902D03*
X011402Y007907D03*
X011402Y007912D03*
X011402Y007917D03*
X011407Y007937D03*
X011407Y007942D03*
X011407Y007947D03*
X011407Y007952D03*
X011412Y007957D03*
X011412Y007962D03*
X011412Y007967D03*
X011417Y007977D03*
X011417Y007982D03*
X011877Y008327D03*
X011877Y008332D03*
X011877Y008337D03*
X011882Y008352D03*
X011882Y008357D03*
X011882Y008362D03*
X011882Y008367D03*
X011887Y008377D03*
X011887Y008382D03*
X011887Y008387D03*
X011892Y008397D03*
X011897Y008412D03*
X013982Y007577D03*
X013987Y007567D03*
X013987Y007562D03*
X013987Y007557D03*
X013992Y007547D03*
X013992Y007542D03*
X013992Y007537D03*
X013992Y007532D03*
X013997Y007522D03*
X013997Y007517D03*
X013997Y007512D03*
X013997Y007507D03*
X013997Y007502D03*
X013997Y007497D03*
X013997Y007492D03*
X013997Y007487D03*
X013997Y007482D03*
X013997Y007477D03*
X013997Y007472D03*
X013997Y007467D03*
X013997Y007462D03*
X013997Y007457D03*
X013997Y007452D03*
X013997Y007447D03*
X013997Y007442D03*
X013992Y007427D03*
X013992Y007422D03*
X013992Y007417D03*
X013992Y007412D03*
X013987Y007407D03*
X013987Y007402D03*
X013987Y007397D03*
X013982Y007387D03*
X014237Y007907D03*
X014242Y007922D03*
X014242Y007927D03*
X014242Y007932D03*
X014247Y007937D03*
X014247Y007942D03*
X014247Y007947D03*
X014247Y007952D03*
X014252Y007962D03*
X014252Y007967D03*
X014252Y007972D03*
X014252Y007977D03*
X014252Y007982D03*
X014252Y007987D03*
X014252Y007992D03*
X014252Y007997D03*
X014252Y008002D03*
X014252Y008007D03*
X014252Y008012D03*
X014252Y008017D03*
X014252Y008022D03*
X014252Y008027D03*
X014252Y008032D03*
X014252Y008037D03*
X014247Y008052D03*
X014247Y008057D03*
X014247Y008062D03*
X014247Y008067D03*
X014242Y008072D03*
X014242Y008077D03*
X014242Y008082D03*
X014237Y008092D03*
X014237Y008097D03*
D135*
X014227Y008122D03*
X014222Y008132D03*
X014217Y008142D03*
X014212Y008152D03*
X014207Y008162D03*
X014227Y007882D03*
X014222Y007872D03*
X014217Y007862D03*
X014212Y007852D03*
X014207Y007842D03*
X013967Y007612D03*
X013972Y007602D03*
X013967Y007347D03*
X013962Y007337D03*
X013957Y007332D03*
X013952Y007322D03*
X012307Y007107D03*
X011542Y007242D03*
X011537Y007247D03*
X011537Y007252D03*
X011532Y007257D03*
X011527Y007267D03*
X011522Y007277D03*
X011522Y007532D03*
X011527Y007542D03*
X011532Y007552D03*
X011537Y007557D03*
X011542Y007567D03*
X011552Y007587D03*
X011447Y007727D03*
X011442Y007737D03*
X011437Y007742D03*
X011437Y007747D03*
X011432Y008017D03*
X011437Y008027D03*
X011442Y008032D03*
X011442Y008037D03*
X011447Y008042D03*
X011452Y008052D03*
X011912Y008442D03*
X011912Y008447D03*
X011917Y008452D03*
X011917Y008457D03*
X011922Y008462D03*
X012757Y008567D03*
D136*
X011910Y008437D03*
X011905Y008432D03*
X011905Y008427D03*
X011900Y008422D03*
X011900Y008417D03*
X011895Y008407D03*
X011895Y008402D03*
X011890Y008392D03*
X011435Y008022D03*
X011430Y008012D03*
X011430Y008007D03*
X011425Y008002D03*
X011425Y007997D03*
X011420Y007992D03*
X011420Y007987D03*
X011415Y007972D03*
X011410Y007817D03*
X011415Y007797D03*
X011420Y007787D03*
X011420Y007782D03*
X011425Y007772D03*
X011425Y007767D03*
X011430Y007762D03*
X011430Y007757D03*
X011435Y007752D03*
X011530Y007547D03*
X011525Y007537D03*
X011520Y007527D03*
X011520Y007522D03*
X011515Y007517D03*
X011515Y007512D03*
X011510Y007502D03*
X011510Y007497D03*
X011505Y007327D03*
X011510Y007307D03*
X011515Y007297D03*
X011515Y007292D03*
X011520Y007287D03*
X011520Y007282D03*
X011525Y007272D03*
X011530Y007262D03*
X012595Y007112D03*
X012845Y007287D03*
X013965Y007342D03*
X013970Y007352D03*
X013970Y007357D03*
X013975Y007362D03*
X013975Y007367D03*
X013980Y007372D03*
X013980Y007377D03*
X013980Y007382D03*
X013985Y007392D03*
X013990Y007552D03*
X013985Y007572D03*
X013980Y007582D03*
X013980Y007587D03*
X013975Y007592D03*
X013975Y007597D03*
X013970Y007607D03*
X013965Y007617D03*
X014215Y007857D03*
X014220Y007867D03*
X014225Y007877D03*
X014230Y007887D03*
X014230Y007892D03*
X014235Y007897D03*
X014235Y007902D03*
X014240Y007912D03*
X014240Y007917D03*
X014240Y008087D03*
X014235Y008102D03*
X014235Y008107D03*
X014230Y008112D03*
X014230Y008117D03*
X014225Y008127D03*
X014220Y008137D03*
X014215Y008147D03*
D137*
X014250Y008047D03*
X014250Y008042D03*
X014250Y007957D03*
X013995Y007527D03*
X013995Y007437D03*
X013995Y007432D03*
X012775Y007337D03*
X012310Y007112D03*
X011500Y007347D03*
X011495Y007377D03*
X011495Y007382D03*
X011495Y007387D03*
X011495Y007392D03*
X011495Y007397D03*
X011495Y007402D03*
X011495Y007407D03*
X011495Y007427D03*
X011495Y007432D03*
X011495Y007437D03*
X011405Y007842D03*
X011405Y007847D03*
X011405Y007922D03*
X011405Y007927D03*
X011405Y007932D03*
X011880Y008342D03*
X011880Y008347D03*
X011885Y008372D03*
X012755Y008562D03*
X013320Y008667D03*
D138*
X012397Y008667D03*
X013472Y007117D03*
D139*
X013260Y007152D03*
X012825Y007297D03*
X013820Y007192D03*
X013990Y007652D03*
X014080Y007717D03*
X014080Y008287D03*
X013775Y008432D03*
X012750Y008587D03*
X011670Y007117D03*
D140*
X011567Y007207D03*
X011562Y007212D03*
X011557Y007217D03*
X011477Y007687D03*
X011472Y007692D03*
X011467Y007697D03*
X011467Y007702D03*
X011462Y007707D03*
X011457Y007712D03*
X011462Y008067D03*
X011467Y008072D03*
X011472Y008077D03*
X011472Y008082D03*
X011942Y008492D03*
X011947Y008497D03*
X013752Y008442D03*
X014177Y008202D03*
X014182Y008197D03*
X014187Y008192D03*
X014192Y008182D03*
X014192Y007822D03*
X014187Y007812D03*
X014182Y007807D03*
X014177Y007802D03*
X013937Y007297D03*
X013932Y007292D03*
X013927Y007287D03*
X012602Y007122D03*
D141*
X012317Y007127D03*
X012632Y007492D03*
X012632Y007497D03*
X012502Y007692D03*
X012502Y007697D03*
X013037Y007827D03*
X013037Y007832D03*
X013202Y007827D03*
X013257Y007362D03*
X013257Y007357D03*
X012757Y008547D03*
D142*
X012875Y008432D03*
X013355Y008652D03*
X013665Y008337D03*
X013150Y007902D03*
X013155Y007892D03*
X013040Y007857D03*
X013040Y007852D03*
X013000Y007787D03*
X013000Y007782D03*
X012995Y007777D03*
X012990Y007772D03*
X012990Y007767D03*
X012985Y007762D03*
X012985Y007757D03*
X012980Y007752D03*
X012975Y007742D03*
X012970Y007737D03*
X012970Y007732D03*
X012965Y007727D03*
X012960Y007717D03*
X012955Y007712D03*
X012955Y007707D03*
X012950Y007702D03*
X012945Y007692D03*
X012940Y007682D03*
X012935Y007677D03*
X012930Y007667D03*
X012925Y007657D03*
X012915Y007642D03*
X012910Y007632D03*
X012900Y007617D03*
X012895Y007607D03*
X012890Y007597D03*
X012635Y007462D03*
X012635Y007457D03*
X012485Y007752D03*
X012485Y007757D03*
X012480Y007762D03*
X012480Y007767D03*
X013260Y007337D03*
X012315Y007132D03*
D143*
X013497Y007137D03*
D144*
X013505Y007142D03*
D145*
X013702Y007147D03*
X013822Y008402D03*
D146*
X012145Y008632D03*
X011800Y008282D03*
X013730Y007152D03*
D147*
X013915Y007272D03*
X013920Y007277D03*
X013925Y007282D03*
X013970Y007627D03*
X014160Y007782D03*
X014165Y007787D03*
X014170Y007792D03*
X014175Y007797D03*
X014175Y008207D03*
X014170Y008212D03*
X014165Y008217D03*
X012755Y008572D03*
X011960Y008512D03*
X011955Y008507D03*
X011950Y008502D03*
X011485Y008092D03*
X011480Y008087D03*
X011480Y007682D03*
X011485Y007677D03*
X011550Y007602D03*
X011570Y007202D03*
X011575Y007197D03*
X011580Y007192D03*
X011585Y007187D03*
D148*
X012645Y007352D03*
X013265Y007252D03*
X013225Y007697D03*
X013225Y007702D03*
X012430Y007927D03*
X012430Y007932D03*
X012760Y008532D03*
D149*
X012862Y008522D03*
X012862Y008517D03*
X013047Y007927D03*
X013047Y007922D03*
X013222Y007707D03*
X013262Y007257D03*
X012647Y007357D03*
X012647Y007362D03*
X012432Y007917D03*
X012432Y007922D03*
D150*
X012435Y007912D03*
X012435Y007907D03*
X013045Y007917D03*
X013225Y007712D03*
X013265Y007262D03*
X012645Y007367D03*
X012645Y007372D03*
X012865Y008507D03*
X012865Y008512D03*
X012400Y008752D03*
D151*
X012437Y007902D03*
X012437Y007897D03*
X012442Y007892D03*
X012442Y007887D03*
X013047Y007912D03*
X013222Y007722D03*
X013222Y007717D03*
X013262Y007272D03*
X013262Y007267D03*
D152*
X013262Y007282D03*
X013262Y007287D03*
X013217Y007737D03*
X012642Y007397D03*
X012642Y007392D03*
X012642Y007387D03*
X012447Y007867D03*
X012447Y007872D03*
X012867Y008487D03*
X012867Y008492D03*
D153*
X012885Y008367D03*
X012885Y008362D03*
X013035Y007807D03*
X013035Y007802D03*
X013195Y007862D03*
X013195Y007867D03*
X013260Y007392D03*
X012630Y007532D03*
X012525Y007622D03*
X012520Y007632D03*
X012520Y007637D03*
D154*
X012460Y007827D03*
X012460Y007832D03*
X012640Y007417D03*
X012640Y007412D03*
X013045Y007887D03*
X013215Y007762D03*
X013215Y007757D03*
X012870Y008467D03*
X012870Y008472D03*
D155*
X011747Y008242D03*
X011732Y008232D03*
X011722Y008227D03*
D156*
X011740Y008237D03*
X013835Y008392D03*
D157*
X012737Y008617D03*
X012397Y008732D03*
X011772Y008262D03*
D158*
X011787Y008272D03*
X012162Y008637D03*
X013817Y008407D03*
D159*
X013875Y008342D03*
X013165Y008747D03*
D160*
X013872Y008347D03*
D161*
X013862Y008357D03*
X012397Y008717D03*
D162*
X013860Y008362D03*
D163*
X013812Y008412D03*
D164*
X012732Y008622D03*
D165*
X012730Y008627D03*
D166*
X012722Y008632D03*
X013182Y008757D03*
D167*
X012712Y008637D03*
X012397Y008712D03*
D168*
X012490Y008642D03*
D169*
X012500Y008647D03*
D170*
X012512Y008652D03*
D171*
X012527Y008657D03*
D172*
X012545Y008662D03*
D173*
X013085Y008677D03*
X013090Y008682D03*
D174*
X012397Y008682D03*
D175*
X013095Y008687D03*
D176*
X012397Y008687D03*
D177*
X012397Y008692D03*
X013102Y008697D03*
D178*
X013112Y008707D03*
X012397Y008697D03*
D179*
X012397Y008702D03*
D180*
X012395Y008707D03*
D181*
X013120Y008712D03*
D182*
X013135Y008727D03*
D183*
X012395Y008727D03*
D184*
X013142Y008732D03*
D185*
X013157Y008742D03*
D186*
X013192Y008762D03*
D187*
X021245Y003416D02*
X004709Y003416D01*
X004079Y004990D02*
X004081Y005040D01*
X004087Y005090D01*
X004097Y005139D01*
X004111Y005187D01*
X004128Y005234D01*
X004149Y005279D01*
X004174Y005323D01*
X004202Y005364D01*
X004234Y005403D01*
X004268Y005440D01*
X004305Y005474D01*
X004345Y005504D01*
X004387Y005531D01*
X004431Y005555D01*
X004477Y005576D01*
X004524Y005592D01*
X004572Y005605D01*
X004622Y005614D01*
X004671Y005619D01*
X004722Y005620D01*
X004772Y005617D01*
X004821Y005610D01*
X004870Y005599D01*
X004918Y005584D01*
X004964Y005566D01*
X005009Y005544D01*
X005052Y005518D01*
X005093Y005489D01*
X005132Y005457D01*
X005168Y005422D01*
X005200Y005384D01*
X005230Y005344D01*
X005257Y005301D01*
X005280Y005257D01*
X005299Y005211D01*
X005315Y005163D01*
X005327Y005114D01*
X005335Y005065D01*
X005339Y005015D01*
X005339Y004965D01*
X005335Y004915D01*
X005327Y004866D01*
X005315Y004817D01*
X005299Y004769D01*
X005280Y004723D01*
X005257Y004679D01*
X005230Y004636D01*
X005200Y004596D01*
X005168Y004558D01*
X005132Y004523D01*
X005093Y004491D01*
X005052Y004462D01*
X005009Y004436D01*
X004964Y004414D01*
X004918Y004396D01*
X004870Y004381D01*
X004821Y004370D01*
X004772Y004363D01*
X004722Y004360D01*
X004671Y004361D01*
X004622Y004366D01*
X004572Y004375D01*
X004524Y004388D01*
X004477Y004404D01*
X004431Y004425D01*
X004387Y004449D01*
X004345Y004476D01*
X004305Y004506D01*
X004268Y004540D01*
X004234Y004577D01*
X004202Y004616D01*
X004174Y004657D01*
X004149Y004701D01*
X004128Y004746D01*
X004111Y004793D01*
X004097Y004841D01*
X004087Y004890D01*
X004081Y004940D01*
X004079Y004990D01*
X003134Y004990D02*
X003136Y004913D01*
X003142Y004836D01*
X003151Y004759D01*
X003164Y004683D01*
X003181Y004607D01*
X003202Y004533D01*
X003226Y004459D01*
X003254Y004387D01*
X003285Y004317D01*
X003320Y004248D01*
X003358Y004180D01*
X003399Y004115D01*
X003444Y004052D01*
X003492Y003991D01*
X003542Y003932D01*
X003595Y003876D01*
X003651Y003823D01*
X003710Y003773D01*
X003771Y003725D01*
X003834Y003680D01*
X003899Y003639D01*
X003967Y003601D01*
X004036Y003566D01*
X004106Y003535D01*
X004178Y003507D01*
X004252Y003483D01*
X004326Y003462D01*
X004402Y003445D01*
X004478Y003432D01*
X004555Y003423D01*
X004632Y003417D01*
X004709Y003415D01*
X003135Y004990D02*
X003135Y014046D01*
X004079Y014046D02*
X004081Y014096D01*
X004087Y014146D01*
X004097Y014195D01*
X004111Y014243D01*
X004128Y014290D01*
X004149Y014335D01*
X004174Y014379D01*
X004202Y014420D01*
X004234Y014459D01*
X004268Y014496D01*
X004305Y014530D01*
X004345Y014560D01*
X004387Y014587D01*
X004431Y014611D01*
X004477Y014632D01*
X004524Y014648D01*
X004572Y014661D01*
X004622Y014670D01*
X004671Y014675D01*
X004722Y014676D01*
X004772Y014673D01*
X004821Y014666D01*
X004870Y014655D01*
X004918Y014640D01*
X004964Y014622D01*
X005009Y014600D01*
X005052Y014574D01*
X005093Y014545D01*
X005132Y014513D01*
X005168Y014478D01*
X005200Y014440D01*
X005230Y014400D01*
X005257Y014357D01*
X005280Y014313D01*
X005299Y014267D01*
X005315Y014219D01*
X005327Y014170D01*
X005335Y014121D01*
X005339Y014071D01*
X005339Y014021D01*
X005335Y013971D01*
X005327Y013922D01*
X005315Y013873D01*
X005299Y013825D01*
X005280Y013779D01*
X005257Y013735D01*
X005230Y013692D01*
X005200Y013652D01*
X005168Y013614D01*
X005132Y013579D01*
X005093Y013547D01*
X005052Y013518D01*
X005009Y013492D01*
X004964Y013470D01*
X004918Y013452D01*
X004870Y013437D01*
X004821Y013426D01*
X004772Y013419D01*
X004722Y013416D01*
X004671Y013417D01*
X004622Y013422D01*
X004572Y013431D01*
X004524Y013444D01*
X004477Y013460D01*
X004431Y013481D01*
X004387Y013505D01*
X004345Y013532D01*
X004305Y013562D01*
X004268Y013596D01*
X004234Y013633D01*
X004202Y013672D01*
X004174Y013713D01*
X004149Y013757D01*
X004128Y013802D01*
X004111Y013849D01*
X004097Y013897D01*
X004087Y013946D01*
X004081Y013996D01*
X004079Y014046D01*
X003134Y014046D02*
X003136Y014123D01*
X003142Y014200D01*
X003151Y014277D01*
X003164Y014353D01*
X003181Y014429D01*
X003202Y014503D01*
X003226Y014577D01*
X003254Y014649D01*
X003285Y014719D01*
X003320Y014788D01*
X003358Y014856D01*
X003399Y014921D01*
X003444Y014984D01*
X003492Y015045D01*
X003542Y015104D01*
X003595Y015160D01*
X003651Y015213D01*
X003710Y015263D01*
X003771Y015311D01*
X003834Y015356D01*
X003899Y015397D01*
X003967Y015435D01*
X004036Y015470D01*
X004106Y015501D01*
X004178Y015529D01*
X004252Y015553D01*
X004326Y015574D01*
X004402Y015591D01*
X004478Y015604D01*
X004555Y015613D01*
X004632Y015619D01*
X004709Y015621D01*
X004709Y015620D02*
X021245Y015620D01*
X020615Y014046D02*
X020617Y014096D01*
X020623Y014146D01*
X020633Y014195D01*
X020647Y014243D01*
X020664Y014290D01*
X020685Y014335D01*
X020710Y014379D01*
X020738Y014420D01*
X020770Y014459D01*
X020804Y014496D01*
X020841Y014530D01*
X020881Y014560D01*
X020923Y014587D01*
X020967Y014611D01*
X021013Y014632D01*
X021060Y014648D01*
X021108Y014661D01*
X021158Y014670D01*
X021207Y014675D01*
X021258Y014676D01*
X021308Y014673D01*
X021357Y014666D01*
X021406Y014655D01*
X021454Y014640D01*
X021500Y014622D01*
X021545Y014600D01*
X021588Y014574D01*
X021629Y014545D01*
X021668Y014513D01*
X021704Y014478D01*
X021736Y014440D01*
X021766Y014400D01*
X021793Y014357D01*
X021816Y014313D01*
X021835Y014267D01*
X021851Y014219D01*
X021863Y014170D01*
X021871Y014121D01*
X021875Y014071D01*
X021875Y014021D01*
X021871Y013971D01*
X021863Y013922D01*
X021851Y013873D01*
X021835Y013825D01*
X021816Y013779D01*
X021793Y013735D01*
X021766Y013692D01*
X021736Y013652D01*
X021704Y013614D01*
X021668Y013579D01*
X021629Y013547D01*
X021588Y013518D01*
X021545Y013492D01*
X021500Y013470D01*
X021454Y013452D01*
X021406Y013437D01*
X021357Y013426D01*
X021308Y013419D01*
X021258Y013416D01*
X021207Y013417D01*
X021158Y013422D01*
X021108Y013431D01*
X021060Y013444D01*
X021013Y013460D01*
X020967Y013481D01*
X020923Y013505D01*
X020881Y013532D01*
X020841Y013562D01*
X020804Y013596D01*
X020770Y013633D01*
X020738Y013672D01*
X020710Y013713D01*
X020685Y013757D01*
X020664Y013802D01*
X020647Y013849D01*
X020633Y013897D01*
X020623Y013946D01*
X020617Y013996D01*
X020615Y014046D01*
X021245Y015621D02*
X021322Y015619D01*
X021399Y015613D01*
X021476Y015604D01*
X021552Y015591D01*
X021628Y015574D01*
X021702Y015553D01*
X021776Y015529D01*
X021848Y015501D01*
X021918Y015470D01*
X021987Y015435D01*
X022055Y015397D01*
X022120Y015356D01*
X022183Y015311D01*
X022244Y015263D01*
X022303Y015213D01*
X022359Y015160D01*
X022412Y015104D01*
X022462Y015045D01*
X022510Y014984D01*
X022555Y014921D01*
X022596Y014856D01*
X022634Y014788D01*
X022669Y014719D01*
X022700Y014649D01*
X022728Y014577D01*
X022752Y014503D01*
X022773Y014429D01*
X022790Y014353D01*
X022803Y014277D01*
X022812Y014200D01*
X022818Y014123D01*
X022820Y014046D01*
X022820Y004990D01*
X020615Y004990D02*
X020617Y005040D01*
X020623Y005090D01*
X020633Y005139D01*
X020647Y005187D01*
X020664Y005234D01*
X020685Y005279D01*
X020710Y005323D01*
X020738Y005364D01*
X020770Y005403D01*
X020804Y005440D01*
X020841Y005474D01*
X020881Y005504D01*
X020923Y005531D01*
X020967Y005555D01*
X021013Y005576D01*
X021060Y005592D01*
X021108Y005605D01*
X021158Y005614D01*
X021207Y005619D01*
X021258Y005620D01*
X021308Y005617D01*
X021357Y005610D01*
X021406Y005599D01*
X021454Y005584D01*
X021500Y005566D01*
X021545Y005544D01*
X021588Y005518D01*
X021629Y005489D01*
X021668Y005457D01*
X021704Y005422D01*
X021736Y005384D01*
X021766Y005344D01*
X021793Y005301D01*
X021816Y005257D01*
X021835Y005211D01*
X021851Y005163D01*
X021863Y005114D01*
X021871Y005065D01*
X021875Y005015D01*
X021875Y004965D01*
X021871Y004915D01*
X021863Y004866D01*
X021851Y004817D01*
X021835Y004769D01*
X021816Y004723D01*
X021793Y004679D01*
X021766Y004636D01*
X021736Y004596D01*
X021704Y004558D01*
X021668Y004523D01*
X021629Y004491D01*
X021588Y004462D01*
X021545Y004436D01*
X021500Y004414D01*
X021454Y004396D01*
X021406Y004381D01*
X021357Y004370D01*
X021308Y004363D01*
X021258Y004360D01*
X021207Y004361D01*
X021158Y004366D01*
X021108Y004375D01*
X021060Y004388D01*
X021013Y004404D01*
X020967Y004425D01*
X020923Y004449D01*
X020881Y004476D01*
X020841Y004506D01*
X020804Y004540D01*
X020770Y004577D01*
X020738Y004616D01*
X020710Y004657D01*
X020685Y004701D01*
X020664Y004746D01*
X020647Y004793D01*
X020633Y004841D01*
X020623Y004890D01*
X020617Y004940D01*
X020615Y004990D01*
X021245Y003415D02*
X021322Y003417D01*
X021399Y003423D01*
X021476Y003432D01*
X021552Y003445D01*
X021628Y003462D01*
X021702Y003483D01*
X021776Y003507D01*
X021848Y003535D01*
X021918Y003566D01*
X021987Y003601D01*
X022055Y003639D01*
X022120Y003680D01*
X022183Y003725D01*
X022244Y003773D01*
X022303Y003823D01*
X022359Y003876D01*
X022412Y003932D01*
X022462Y003991D01*
X022510Y004052D01*
X022555Y004115D01*
X022596Y004180D01*
X022634Y004248D01*
X022669Y004317D01*
X022700Y004387D01*
X022728Y004459D01*
X022752Y004533D01*
X022773Y004607D01*
X022790Y004683D01*
X022803Y004759D01*
X022812Y004836D01*
X022818Y004913D01*
X022820Y004990D01*
D188*
X011221Y005544D02*
X011030Y005524D01*
X011010Y005460D01*
X010979Y005400D01*
X011100Y005252D01*
X010998Y005150D01*
X010850Y005271D01*
X010790Y005240D01*
X010705Y005445D01*
X010743Y005466D01*
X010775Y005496D01*
X010799Y005532D01*
X010814Y005573D01*
X010819Y005616D01*
X010814Y005659D01*
X010798Y005701D01*
X010773Y005737D01*
X010741Y005767D01*
X010702Y005788D01*
X010659Y005799D01*
X010615Y005799D01*
X010572Y005789D01*
X010532Y005769D01*
X010499Y005740D01*
X010473Y005704D01*
X010456Y005663D01*
X010450Y005620D01*
X010455Y005576D01*
X010469Y005534D01*
X010493Y005497D01*
X010526Y005467D01*
X010564Y005445D01*
X010479Y005240D01*
X010419Y005271D01*
X010271Y005150D01*
X010169Y005252D01*
X010290Y005400D01*
X010260Y005460D01*
X010239Y005524D01*
X010049Y005544D01*
X010049Y005688D01*
X010239Y005707D01*
X010260Y005771D01*
X010290Y005831D01*
X010169Y005979D01*
X010271Y006081D01*
X010419Y005960D01*
X010479Y005991D01*
X010543Y006011D01*
X010563Y006202D01*
X010707Y006202D01*
X010726Y006011D01*
X010790Y005991D01*
X010850Y005960D01*
X010998Y006081D01*
X011100Y005979D01*
X010979Y005831D01*
X011010Y005771D01*
X011030Y005707D01*
X011221Y005688D01*
X011221Y005544D01*
X011221Y005545D02*
X010804Y005545D01*
X010818Y005603D02*
X011221Y005603D01*
X011221Y005660D02*
X010814Y005660D01*
X010787Y005718D02*
X011027Y005718D01*
X011008Y005775D02*
X010724Y005775D01*
X010545Y005775D02*
X010262Y005775D01*
X010242Y005718D02*
X010483Y005718D01*
X010456Y005660D02*
X010049Y005660D01*
X010049Y005603D02*
X010452Y005603D01*
X010465Y005545D02*
X010049Y005545D01*
X010251Y005488D02*
X010503Y005488D01*
X010558Y005430D02*
X010275Y005430D01*
X010268Y005372D02*
X010534Y005372D01*
X010510Y005315D02*
X010221Y005315D01*
X010174Y005257D02*
X010402Y005257D01*
X010446Y005257D02*
X010486Y005257D01*
X010332Y005200D02*
X010221Y005200D01*
X010712Y005430D02*
X010994Y005430D01*
X011002Y005372D02*
X010735Y005372D01*
X010759Y005315D02*
X011049Y005315D01*
X011096Y005257D02*
X010867Y005257D01*
X010823Y005257D02*
X010783Y005257D01*
X010937Y005200D02*
X011048Y005200D01*
X011019Y005488D02*
X010766Y005488D01*
X010981Y005833D02*
X010289Y005833D01*
X010242Y005890D02*
X011028Y005890D01*
X011075Y005948D02*
X010195Y005948D01*
X010196Y006006D02*
X010363Y006006D01*
X010293Y006063D02*
X010253Y006063D01*
X010526Y006006D02*
X010744Y006006D01*
X010721Y006063D02*
X010549Y006063D01*
X010554Y006121D02*
X010715Y006121D01*
X010709Y006178D02*
X010560Y006178D01*
X010906Y006006D02*
X011074Y006006D01*
X011016Y006063D02*
X010976Y006063D01*
M02*
