G75*
G70*
%OFA0B0*%
%FSLAX24Y24*%
%IPPOS*%
%LPD*%
%AMOC8*
5,1,8,0,0,1.08239X$1,22.5*
%
%ADD10R,0.2190X0.0010*%
%ADD11R,0.2210X0.0010*%
%ADD12R,0.2200X0.0010*%
%ADD13R,0.2170X0.0010*%
%ADD14R,0.0090X0.0010*%
%ADD15R,0.0100X0.0010*%
%ADD16R,0.0010X0.0010*%
%ADD17R,0.0020X0.0010*%
%ADD18R,0.0030X0.0010*%
%ADD19R,0.0040X0.0010*%
%ADD20R,0.0050X0.0010*%
%ADD21R,0.0060X0.0010*%
%ADD22R,0.0070X0.0010*%
%ADD23R,0.0110X0.0010*%
%ADD24R,0.0130X0.0010*%
%ADD25R,0.0140X0.0010*%
%ADD26R,0.0160X0.0010*%
%ADD27R,0.0170X0.0010*%
%ADD28R,0.0180X0.0010*%
%ADD29R,0.0200X0.0010*%
%ADD30R,0.0210X0.0010*%
%ADD31R,0.0220X0.0010*%
%ADD32R,0.0240X0.0010*%
%ADD33R,0.0080X0.0010*%
%ADD34R,0.0120X0.0010*%
%ADD35R,0.0150X0.0010*%
%ADD36R,0.0230X0.0010*%
%ADD37R,0.0310X0.0010*%
%ADD38R,0.0300X0.0010*%
%ADD39R,0.0290X0.0010*%
%ADD40R,0.0270X0.0010*%
%ADD41R,0.0260X0.0010*%
%ADD42R,0.0250X0.0010*%
%ADD43R,0.0190X0.0010*%
%ADD44C,0.0060*%
%ADD45C,0.0090*%
%ADD46R,0.0110X0.0005*%
%ADD47R,0.0210X0.0005*%
%ADD48R,0.0280X0.0005*%
%ADD49R,0.0325X0.0005*%
%ADD50R,0.0365X0.0005*%
%ADD51R,0.0410X0.0005*%
%ADD52R,0.0440X0.0005*%
%ADD53R,0.0470X0.0005*%
%ADD54R,0.0505X0.0005*%
%ADD55R,0.0530X0.0005*%
%ADD56R,0.0555X0.0005*%
%ADD57R,0.0580X0.0005*%
%ADD58R,0.0600X0.0005*%
%ADD59R,0.0625X0.0005*%
%ADD60R,0.0645X0.0005*%
%ADD61R,0.0665X0.0005*%
%ADD62R,0.0685X0.0005*%
%ADD63R,0.0705X0.0005*%
%ADD64R,0.0715X0.0005*%
%ADD65R,0.0735X0.0005*%
%ADD66R,0.0755X0.0005*%
%ADD67R,0.0090X0.0005*%
%ADD68R,0.0770X0.0005*%
%ADD69R,0.0190X0.0005*%
%ADD70R,0.0355X0.0005*%
%ADD71R,0.0360X0.0005*%
%ADD72R,0.0260X0.0005*%
%ADD73R,0.0315X0.0005*%
%ADD74R,0.0320X0.0005*%
%ADD75R,0.0295X0.0005*%
%ADD76R,0.0275X0.0005*%
%ADD77R,0.0400X0.0005*%
%ADD78R,0.0265X0.0005*%
%ADD79R,0.0435X0.0005*%
%ADD80R,0.0255X0.0005*%
%ADD81R,0.0465X0.0005*%
%ADD82R,0.0245X0.0005*%
%ADD83R,0.0495X0.0005*%
%ADD84R,0.0235X0.0005*%
%ADD85R,0.0525X0.0005*%
%ADD86R,0.0230X0.0005*%
%ADD87R,0.0240X0.0005*%
%ADD88R,0.0545X0.0005*%
%ADD89R,0.0820X0.0005*%
%ADD90R,0.0220X0.0005*%
%ADD91R,0.0025X0.0005*%
%ADD92R,0.0795X0.0005*%
%ADD93R,0.0215X0.0005*%
%ADD94R,0.0035X0.0005*%
%ADD95R,0.0040X0.0005*%
%ADD96R,0.0800X0.0005*%
%ADD97R,0.0205X0.0005*%
%ADD98R,0.0050X0.0005*%
%ADD99R,0.0805X0.0005*%
%ADD100R,0.0165X0.0005*%
%ADD101R,0.0055X0.0005*%
%ADD102R,0.0200X0.0005*%
%ADD103R,0.0060X0.0005*%
%ADD104R,0.0300X0.0005*%
%ADD105R,0.0195X0.0005*%
%ADD106R,0.0065X0.0005*%
%ADD107R,0.0345X0.0005*%
%ADD108R,0.0070X0.0005*%
%ADD109R,0.0385X0.0005*%
%ADD110R,0.0080X0.0005*%
%ADD111R,0.0425X0.0005*%
%ADD112R,0.0185X0.0005*%
%ADD113R,0.0085X0.0005*%
%ADD114R,0.0635X0.0005*%
%ADD115R,0.0810X0.0005*%
%ADD116R,0.0095X0.0005*%
%ADD117R,0.0335X0.0005*%
%ADD118R,0.0655X0.0005*%
%ADD119R,0.0105X0.0005*%
%ADD120R,0.0290X0.0005*%
%ADD121R,0.0660X0.0005*%
%ADD122R,0.0115X0.0005*%
%ADD123R,0.0285X0.0005*%
%ADD124R,0.0120X0.0005*%
%ADD125R,0.0270X0.0005*%
%ADD126R,0.0675X0.0005*%
%ADD127R,0.0130X0.0005*%
%ADD128R,0.0680X0.0005*%
%ADD129R,0.0135X0.0005*%
%ADD130R,0.0250X0.0005*%
%ADD131R,0.0140X0.0005*%
%ADD132R,0.0180X0.0005*%
%ADD133R,0.0695X0.0005*%
%ADD134R,0.0150X0.0005*%
%ADD135R,0.0160X0.0005*%
%ADD136R,0.0155X0.0005*%
%ADD137R,0.0145X0.0005*%
%ADD138R,0.0700X0.0005*%
%ADD139R,0.0225X0.0005*%
%ADD140R,0.0170X0.0005*%
%ADD141R,0.0100X0.0005*%
%ADD142R,0.0075X0.0005*%
%ADD143R,0.0720X0.0005*%
%ADD144R,0.0725X0.0005*%
%ADD145R,0.0340X0.0005*%
%ADD146R,0.0305X0.0005*%
%ADD147R,0.0175X0.0005*%
%ADD148R,0.0005X0.0005*%
%ADD149R,0.0010X0.0005*%
%ADD150R,0.0015X0.0005*%
%ADD151R,0.0020X0.0005*%
%ADD152R,0.0030X0.0005*%
%ADD153R,0.0125X0.0005*%
%ADD154R,0.0045X0.0005*%
%ADD155R,0.0370X0.0005*%
%ADD156R,0.0375X0.0005*%
%ADD157R,0.0350X0.0005*%
%ADD158R,0.0330X0.0005*%
%ADD159R,0.0485X0.0005*%
%ADD160R,0.0480X0.0005*%
%ADD161R,0.0460X0.0005*%
%ADD162R,0.0445X0.0005*%
%ADD163R,0.0310X0.0005*%
%ADD164R,0.0380X0.0005*%
%ADD165R,0.0415X0.0005*%
%ADD166R,0.0450X0.0005*%
%ADD167R,0.0490X0.0005*%
%ADD168R,0.0965X0.0005*%
%ADD169R,0.0975X0.0005*%
%ADD170R,0.0980X0.0005*%
%ADD171R,0.0990X0.0005*%
%ADD172R,0.1005X0.0005*%
%ADD173R,0.0615X0.0005*%
%ADD174R,0.0640X0.0005*%
%ADD175R,0.0605X0.0005*%
%ADD176R,0.0620X0.0005*%
%ADD177R,0.0590X0.0005*%
%ADD178R,0.0570X0.0005*%
%ADD179R,0.0540X0.0005*%
%ADD180R,0.0515X0.0005*%
%ADD181R,0.0565X0.0005*%
%ADD182R,0.0535X0.0005*%
%ADD183R,0.0395X0.0005*%
%ADD184R,0.0520X0.0005*%
%ADD185R,0.0500X0.0005*%
%ADD186R,0.0430X0.0005*%
%ADD187C,0.0000*%
%ADD188C,0.0059*%
D10*
X008745Y008356D03*
X008745Y008406D03*
D11*
X008745Y008386D03*
X008745Y008376D03*
X008745Y008366D03*
D12*
X008740Y008396D03*
D13*
X008745Y008416D03*
D14*
X008715Y008596D03*
X008755Y008806D03*
X008755Y008816D03*
X008755Y008826D03*
X008485Y009016D03*
X008525Y009136D03*
X008525Y009146D03*
X008215Y009316D03*
X008215Y009326D03*
X008225Y009336D03*
X008225Y009346D03*
X008235Y009356D03*
X008245Y009376D03*
X008255Y009396D03*
X008265Y009406D03*
X008265Y009416D03*
X008275Y009426D03*
X008285Y009446D03*
X008295Y009466D03*
X008305Y009476D03*
X008315Y009496D03*
X008325Y009516D03*
X008335Y009536D03*
X008345Y009546D03*
X008345Y009556D03*
X008355Y009566D03*
X008365Y009586D03*
X008375Y009606D03*
X008385Y009626D03*
X008395Y009636D03*
X008405Y009656D03*
X008415Y009676D03*
X008425Y009696D03*
X008435Y009706D03*
X008445Y009726D03*
X008455Y009746D03*
X008465Y009766D03*
X008475Y009776D03*
X008475Y009786D03*
X008485Y009796D03*
X008495Y009816D03*
X008505Y009836D03*
X008515Y009856D03*
X008525Y009866D03*
X008535Y009886D03*
X008545Y009906D03*
X008555Y009926D03*
X008565Y009936D03*
X008575Y009956D03*
X008585Y009976D03*
X008595Y009996D03*
X008615Y010026D03*
X008625Y010046D03*
X008635Y010066D03*
X008645Y010076D03*
X008655Y010096D03*
X008665Y010116D03*
X008675Y010136D03*
X008685Y010146D03*
X008685Y010156D03*
X008695Y010166D03*
X008705Y010186D03*
X008715Y010206D03*
X008825Y010206D03*
X008835Y010186D03*
X008845Y010166D03*
X008855Y010146D03*
X008865Y010136D03*
X008865Y010126D03*
X008875Y010116D03*
X008885Y010096D03*
X008895Y010076D03*
X008905Y010056D03*
X008915Y010036D03*
X008925Y010016D03*
X008935Y010006D03*
X008935Y009996D03*
X008945Y009986D03*
X008955Y009966D03*
X008965Y009946D03*
X008975Y009926D03*
X008985Y009906D03*
X008995Y009896D03*
X008995Y009886D03*
X009005Y009876D03*
X009005Y009866D03*
X009015Y009856D03*
X009025Y009836D03*
X009035Y009816D03*
X009045Y009796D03*
X009055Y009786D03*
X009055Y009776D03*
X009065Y009766D03*
X009065Y009756D03*
X009075Y009746D03*
X009075Y009736D03*
X009085Y009726D03*
X009085Y009716D03*
X009095Y009706D03*
X009105Y009686D03*
X009115Y009666D03*
X009125Y009646D03*
X009135Y009636D03*
X009135Y009626D03*
X009145Y009616D03*
X009145Y009606D03*
X009155Y009596D03*
X009155Y009586D03*
X009165Y009576D03*
X009175Y009556D03*
X009185Y009536D03*
X009195Y009526D03*
X009195Y009516D03*
X009205Y009496D03*
X009215Y009486D03*
X009215Y009476D03*
X009225Y009466D03*
X009225Y009456D03*
X009235Y009446D03*
X009245Y009426D03*
X009255Y009406D03*
X009265Y009386D03*
X009275Y009366D03*
X009285Y009356D03*
X009285Y009346D03*
X009295Y009336D03*
X009295Y009326D03*
X009305Y009316D03*
X009315Y009296D03*
X009325Y009276D03*
X009335Y009256D03*
X009345Y009236D03*
X009355Y009226D03*
X009355Y009216D03*
X009365Y009206D03*
X009365Y009196D03*
X009375Y009186D03*
X009385Y009166D03*
X009395Y009146D03*
X009405Y009136D03*
X009405Y009126D03*
X009415Y009116D03*
X009415Y009106D03*
X009425Y009096D03*
X009425Y009086D03*
X009435Y009076D03*
X009435Y009066D03*
X009445Y009056D03*
X009455Y009036D03*
X009465Y009016D03*
X009475Y008996D03*
X009485Y008976D03*
X009495Y008966D03*
X009495Y008956D03*
X009505Y008946D03*
X009505Y008936D03*
X009515Y008926D03*
X009525Y008906D03*
X009535Y008886D03*
X009545Y008866D03*
X009555Y008856D03*
X009555Y008846D03*
X009565Y008836D03*
X009565Y008826D03*
X009575Y008816D03*
X009575Y008806D03*
X009585Y008796D03*
X009595Y008776D03*
X009605Y008756D03*
X009615Y008736D03*
X009625Y008726D03*
X009625Y008716D03*
X009635Y008706D03*
X009635Y008696D03*
X009645Y008686D03*
X009645Y008676D03*
X009655Y008666D03*
X009665Y008646D03*
X009675Y008626D03*
X009685Y008606D03*
X009695Y008586D03*
X009705Y008576D03*
X009705Y008566D03*
X009715Y008556D03*
X009715Y008546D03*
X009725Y008536D03*
X009735Y008516D03*
X009745Y008496D03*
X009755Y008476D03*
X009765Y008456D03*
X009775Y008446D03*
X009775Y008436D03*
X009785Y008426D03*
X008175Y009246D03*
X008175Y009256D03*
X008185Y009266D03*
X008195Y009286D03*
X008205Y009306D03*
X008165Y009236D03*
X008155Y009216D03*
X008145Y009196D03*
X008135Y009186D03*
X008135Y009176D03*
X008125Y009166D03*
X008115Y009146D03*
X008105Y009126D03*
X008095Y009106D03*
X008085Y009096D03*
X008085Y009086D03*
X008075Y009076D03*
X008065Y009056D03*
X008055Y009036D03*
X008045Y009026D03*
X008045Y009016D03*
X008035Y009006D03*
X008025Y008986D03*
X008015Y008966D03*
X008005Y008956D03*
X008005Y008946D03*
X007995Y008936D03*
X007985Y008916D03*
X007975Y008896D03*
X007965Y008886D03*
X007965Y008876D03*
X007955Y008866D03*
X007945Y008846D03*
X007935Y008826D03*
X007925Y008816D03*
X007925Y008806D03*
X007905Y008776D03*
X007895Y008756D03*
X007885Y008736D03*
X007875Y008716D03*
X007865Y008706D03*
X007855Y008686D03*
X007845Y008666D03*
X007835Y008656D03*
X007835Y008646D03*
X007825Y008636D03*
X007815Y008616D03*
X007805Y008596D03*
X007795Y008576D03*
X007785Y008566D03*
X007775Y008546D03*
X007765Y008526D03*
X007755Y008506D03*
X007745Y008496D03*
X007745Y008486D03*
X007735Y008476D03*
X007725Y008456D03*
X007715Y008436D03*
X007705Y008426D03*
X008775Y010306D03*
D15*
X008770Y010296D03*
X008830Y010196D03*
X008840Y010176D03*
X008850Y010156D03*
X008880Y010106D03*
X008890Y010086D03*
X008900Y010066D03*
X008910Y010046D03*
X008920Y010026D03*
X008950Y009976D03*
X008960Y009956D03*
X008970Y009936D03*
X008980Y009916D03*
X009020Y009846D03*
X009030Y009826D03*
X009040Y009806D03*
X009100Y009696D03*
X009110Y009676D03*
X009120Y009656D03*
X009170Y009566D03*
X009180Y009546D03*
X009200Y009506D03*
X009240Y009436D03*
X009250Y009416D03*
X009260Y009396D03*
X009270Y009376D03*
X009310Y009306D03*
X009320Y009286D03*
X009330Y009266D03*
X009340Y009246D03*
X009380Y009176D03*
X009390Y009156D03*
X009450Y009046D03*
X009460Y009026D03*
X009470Y009006D03*
X009480Y008986D03*
X009520Y008916D03*
X009530Y008896D03*
X009540Y008876D03*
X009590Y008786D03*
X009600Y008766D03*
X009610Y008746D03*
X009660Y008656D03*
X009670Y008636D03*
X009680Y008616D03*
X009690Y008596D03*
X009730Y008526D03*
X009740Y008506D03*
X009750Y008486D03*
X009760Y008466D03*
X008720Y008606D03*
X008720Y008616D03*
X008760Y008836D03*
X008760Y008846D03*
X008760Y008856D03*
X008760Y008866D03*
X008770Y008896D03*
X008490Y009026D03*
X008530Y009156D03*
X008530Y009166D03*
X008540Y009176D03*
X008540Y009186D03*
X008540Y009196D03*
X008560Y009236D03*
X008890Y009296D03*
X008360Y009576D03*
X008370Y009596D03*
X008380Y009616D03*
X008400Y009646D03*
X008410Y009666D03*
X008420Y009686D03*
X008440Y009716D03*
X008450Y009736D03*
X008460Y009756D03*
X008490Y009806D03*
X008500Y009826D03*
X008510Y009846D03*
X008530Y009876D03*
X008540Y009896D03*
X008550Y009916D03*
X008570Y009946D03*
X008580Y009966D03*
X008590Y009986D03*
X008600Y010006D03*
X008610Y010016D03*
X008620Y010036D03*
X008630Y010056D03*
X008650Y010086D03*
X008660Y010106D03*
X008670Y010126D03*
X008700Y010176D03*
X008710Y010196D03*
X008330Y009526D03*
X008320Y009506D03*
X008310Y009486D03*
X008290Y009456D03*
X008280Y009436D03*
X008250Y009386D03*
X008240Y009366D03*
X008200Y009296D03*
X008190Y009276D03*
X008160Y009226D03*
X008150Y009206D03*
X008120Y009156D03*
X008110Y009136D03*
X008100Y009116D03*
X008070Y009066D03*
X008060Y009046D03*
X008030Y008996D03*
X008020Y008976D03*
X007990Y008926D03*
X007980Y008906D03*
X007950Y008856D03*
X007940Y008836D03*
X007920Y008796D03*
X007910Y008786D03*
X007900Y008766D03*
X007890Y008746D03*
X007880Y008726D03*
X007860Y008696D03*
X007850Y008676D03*
X007820Y008626D03*
X007810Y008606D03*
X007800Y008586D03*
X007780Y008556D03*
X007770Y008536D03*
X007760Y008516D03*
X007730Y008466D03*
X007720Y008446D03*
D16*
X008435Y008966D03*
X008705Y008516D03*
D17*
X008700Y008526D03*
X008950Y009356D03*
D18*
X008935Y009346D03*
X008445Y008976D03*
X008705Y008536D03*
D19*
X008710Y008546D03*
X008930Y009336D03*
D20*
X008465Y008996D03*
X008455Y008986D03*
X008705Y008556D03*
D21*
X008710Y008566D03*
X008920Y009326D03*
X008770Y010326D03*
D22*
X008905Y009316D03*
X008475Y009006D03*
X008715Y008586D03*
X008715Y008576D03*
D23*
X008725Y008626D03*
X008765Y008876D03*
X008765Y008886D03*
X008775Y008906D03*
X008775Y008916D03*
X008775Y008926D03*
X008775Y008936D03*
X008505Y009036D03*
X008545Y009206D03*
X008555Y009216D03*
X008555Y009226D03*
X008565Y009246D03*
X008565Y009256D03*
X008565Y009266D03*
X008575Y009286D03*
D24*
X008595Y009346D03*
X008605Y009366D03*
X008605Y009376D03*
X008615Y009396D03*
X008615Y009406D03*
X008625Y009426D03*
X008635Y009456D03*
X008515Y009046D03*
X008785Y009006D03*
X008785Y008996D03*
X008785Y008986D03*
X008785Y008976D03*
X008725Y008636D03*
D25*
X008730Y008646D03*
X008730Y008656D03*
X008790Y009016D03*
X008790Y009026D03*
X008790Y009036D03*
X008800Y009056D03*
X008800Y009066D03*
X008800Y009076D03*
X008860Y009266D03*
X008620Y009416D03*
X008630Y009436D03*
X008630Y009446D03*
X008640Y009466D03*
X008640Y009476D03*
X008650Y009496D03*
X008660Y009526D03*
X008520Y009056D03*
X008770Y010256D03*
X008770Y010266D03*
D26*
X008770Y010246D03*
X008770Y010236D03*
X008710Y009666D03*
X008700Y009646D03*
X008700Y009636D03*
X008690Y009616D03*
X008690Y009606D03*
X009010Y009626D03*
X008850Y009256D03*
X008840Y009246D03*
X008810Y009126D03*
X008710Y008766D03*
X008730Y008666D03*
D27*
X008735Y008676D03*
X008735Y008686D03*
X008545Y009076D03*
X008705Y009656D03*
X008715Y009676D03*
X008715Y009686D03*
X008725Y009706D03*
X008725Y009716D03*
X008735Y009736D03*
X008745Y009766D03*
D28*
X008750Y009776D03*
X008750Y009786D03*
X008760Y009806D03*
X008760Y009816D03*
X008740Y009756D03*
X008740Y009746D03*
X008730Y009726D03*
X008720Y009696D03*
X008830Y009236D03*
X008550Y009086D03*
X008740Y008696D03*
X008770Y010226D03*
D29*
X008770Y010216D03*
X008820Y009226D03*
X008810Y009216D03*
X008560Y009096D03*
X008740Y008706D03*
D30*
X008745Y008716D03*
X008745Y008726D03*
X008575Y009106D03*
D31*
X008800Y009206D03*
X008750Y008736D03*
D32*
X008750Y008746D03*
X008750Y008756D03*
X008590Y009126D03*
X008790Y009196D03*
D33*
X008900Y009306D03*
X008750Y008796D03*
X008750Y008786D03*
X008750Y008776D03*
X008660Y008776D03*
X008770Y010316D03*
D34*
X008770Y010286D03*
X008770Y010276D03*
X008790Y009826D03*
X008610Y009386D03*
X008600Y009356D03*
X008590Y009336D03*
X008590Y009326D03*
X008580Y009306D03*
X008580Y009296D03*
X008570Y009276D03*
X008870Y009276D03*
X008880Y009286D03*
X008780Y008966D03*
X008780Y008956D03*
X008780Y008946D03*
D35*
X008795Y009046D03*
X008805Y009086D03*
X008805Y009096D03*
X008805Y009106D03*
X008535Y009066D03*
X008645Y009486D03*
X008655Y009506D03*
X008655Y009516D03*
X008665Y009536D03*
X008665Y009546D03*
X008675Y009556D03*
X008675Y009566D03*
X008675Y009576D03*
X008685Y009586D03*
X008685Y009596D03*
X008695Y009626D03*
D36*
X008585Y009116D03*
D37*
X008735Y009136D03*
D38*
X008740Y009146D03*
D39*
X008755Y009156D03*
D40*
X008765Y009166D03*
D41*
X008770Y009176D03*
D42*
X008785Y009186D03*
D43*
X008755Y009796D03*
X008765Y009826D03*
D44*
X006448Y007273D02*
X006221Y006933D01*
X006221Y007273D01*
X006080Y007103D02*
X006023Y007160D01*
X005910Y007160D01*
X005853Y007103D01*
X005853Y006990D01*
X005910Y006933D01*
X006023Y006933D01*
X006080Y006990D01*
X006080Y007103D01*
X006448Y006933D02*
X006448Y007273D01*
X005712Y007160D02*
X005712Y006933D01*
X005712Y007046D02*
X005598Y007160D01*
X005542Y007160D01*
X005405Y007160D02*
X005405Y006933D01*
X005291Y006933D02*
X005291Y007103D01*
X005235Y007160D01*
X005178Y007103D01*
X005178Y006933D01*
X005036Y006990D02*
X004980Y007046D01*
X004810Y007046D01*
X004810Y007103D02*
X004810Y006933D01*
X004980Y006933D01*
X005036Y006990D01*
X004980Y007160D02*
X004866Y007160D01*
X004810Y007103D01*
X004668Y006933D02*
X004555Y006933D01*
X004611Y006933D02*
X004611Y007273D01*
X004668Y007273D01*
X004423Y007273D02*
X004366Y007273D01*
X004366Y006933D01*
X004423Y006933D02*
X004309Y006933D01*
X004177Y006990D02*
X004177Y007160D01*
X004177Y006990D02*
X004120Y006933D01*
X003950Y006933D01*
X003950Y006876D02*
X004007Y006820D01*
X004064Y006820D01*
X003950Y006876D02*
X003950Y007160D01*
X005126Y006456D02*
X005126Y006286D01*
X005126Y006456D02*
X005183Y006513D01*
X005353Y006513D01*
X005353Y006286D01*
X005494Y006400D02*
X005721Y006400D01*
X005721Y006456D02*
X005664Y006513D01*
X005551Y006513D01*
X005494Y006456D01*
X005494Y006400D01*
X005551Y006286D02*
X005664Y006286D01*
X005721Y006343D01*
X005721Y006456D01*
X005863Y006456D02*
X005919Y006513D01*
X006089Y006513D01*
X006089Y006173D01*
X006089Y006286D02*
X005919Y006286D01*
X005863Y006343D01*
X005863Y006456D01*
X006231Y006343D02*
X006288Y006286D01*
X006401Y006286D01*
X006458Y006343D01*
X006458Y006570D01*
X006401Y006626D01*
X006288Y006626D01*
X006231Y006570D01*
X006231Y006343D01*
X005405Y007160D02*
X005348Y007160D01*
X005291Y007103D01*
X008548Y005320D02*
X008548Y005093D01*
X008605Y005036D01*
X008718Y005036D01*
X008775Y005093D01*
X008548Y005320D01*
X008605Y005376D01*
X008718Y005376D01*
X008775Y005320D01*
X008775Y005093D01*
X008902Y005093D02*
X008902Y005036D01*
X008959Y005036D01*
X008959Y005093D01*
X008902Y005093D01*
X009100Y005093D02*
X009100Y005150D01*
X009157Y005206D01*
X009214Y005206D01*
X009157Y005206D02*
X009100Y005263D01*
X009100Y005320D01*
X009157Y005376D01*
X009271Y005376D01*
X009327Y005320D01*
X009327Y005093D02*
X009271Y005036D01*
X009157Y005036D01*
X009100Y005093D01*
X009837Y005036D02*
X009837Y005263D01*
X009950Y005376D01*
X010064Y005263D01*
X010064Y005036D01*
X010205Y005093D02*
X010262Y005036D01*
X010375Y005036D01*
X010432Y005093D01*
X010375Y005206D02*
X010262Y005206D01*
X010205Y005150D01*
X010205Y005093D01*
X010064Y005206D02*
X009837Y005206D01*
X010205Y005320D02*
X010262Y005376D01*
X010375Y005376D01*
X010432Y005320D01*
X010432Y005263D01*
X010375Y005206D01*
X010574Y005206D02*
X010800Y005206D01*
X010942Y005320D02*
X010942Y005376D01*
X010942Y005320D02*
X011055Y005206D01*
X011055Y005036D01*
X011055Y005206D02*
X011169Y005320D01*
X011169Y005376D01*
X011310Y005320D02*
X011310Y005263D01*
X011367Y005206D01*
X011537Y005206D01*
X011537Y005036D02*
X011367Y005036D01*
X011310Y005093D01*
X011310Y005150D01*
X011367Y005206D01*
X011310Y005320D02*
X011367Y005376D01*
X011537Y005376D01*
X011537Y005036D01*
X012047Y005093D02*
X012104Y005036D01*
X012217Y005036D01*
X012274Y005093D01*
X012274Y005320D01*
X012217Y005376D01*
X012104Y005376D01*
X012047Y005320D01*
X012415Y005320D02*
X012472Y005376D01*
X012585Y005376D01*
X012642Y005320D01*
X012642Y005093D01*
X012585Y005036D01*
X012472Y005036D01*
X012415Y005093D01*
X016057Y003839D02*
X016351Y003839D01*
X016204Y003839D02*
X016204Y004280D01*
X016351Y004133D01*
X016517Y003986D02*
X016517Y004280D01*
X016811Y004280D02*
X016811Y003986D01*
X016664Y003839D01*
X016517Y003986D01*
X016978Y003766D02*
X017271Y003766D01*
X017438Y003839D02*
X017732Y003839D01*
X017585Y003839D02*
X017585Y004280D01*
X017732Y004133D01*
X017899Y004133D02*
X017972Y004060D01*
X017899Y003986D01*
X017899Y003913D01*
X017972Y003839D01*
X018119Y003839D01*
X018192Y003913D01*
X018359Y003913D02*
X018432Y003839D01*
X018579Y003839D01*
X018653Y003913D01*
X018359Y004206D01*
X018359Y003913D01*
X018359Y004206D02*
X018432Y004280D01*
X018579Y004280D01*
X018653Y004206D01*
X018653Y003913D01*
X018819Y003913D02*
X018893Y003839D01*
X019040Y003839D01*
X019113Y003913D01*
X019113Y004060D02*
X018966Y004133D01*
X018893Y004133D01*
X018819Y004060D01*
X018819Y003913D01*
X019113Y004060D02*
X019113Y004280D01*
X018819Y004280D01*
X019280Y004206D02*
X019280Y004060D01*
X019353Y003986D01*
X019573Y003986D01*
X019573Y003839D02*
X019573Y004280D01*
X019353Y004280D01*
X019280Y004206D01*
X019740Y004206D02*
X019740Y003913D01*
X019814Y003839D01*
X020034Y003839D01*
X020034Y004280D01*
X019814Y004280D01*
X019740Y004206D01*
X018192Y004206D02*
X018119Y004280D01*
X017972Y004280D01*
X017899Y004206D01*
X017899Y004133D01*
X017972Y004060D02*
X018045Y004060D01*
X018828Y007096D02*
X018715Y007209D01*
X018828Y007322D01*
X019055Y007322D01*
X018998Y007464D02*
X018771Y007464D01*
X018715Y007521D01*
X018715Y007634D01*
X018771Y007691D01*
X018771Y007832D02*
X018715Y007889D01*
X018715Y008002D01*
X018771Y008059D01*
X018771Y007832D02*
X018998Y007832D01*
X019055Y007889D01*
X019055Y008002D01*
X018998Y008059D01*
X018998Y007691D02*
X019055Y007634D01*
X019055Y007521D01*
X018998Y007464D01*
X019055Y007096D02*
X018828Y007096D01*
X018760Y008986D02*
X018703Y009043D01*
X018703Y009156D01*
X018760Y009213D01*
X018986Y009213D02*
X019043Y009156D01*
X019043Y009043D01*
X018986Y008986D01*
X018760Y008986D01*
X019043Y009354D02*
X019043Y009581D01*
X019043Y009468D02*
X018703Y009468D01*
X018703Y009723D02*
X019043Y009723D01*
X019043Y009893D01*
X018986Y009950D01*
X018873Y009950D01*
X018816Y009893D01*
X018816Y009723D01*
X018816Y009836D02*
X018703Y009950D01*
X018703Y010091D02*
X018703Y010318D01*
X018703Y010091D02*
X019043Y010091D01*
X018986Y011186D02*
X018760Y011186D01*
X018703Y011243D01*
X018703Y011356D01*
X018760Y011413D01*
X018873Y011413D01*
X018873Y011300D01*
X018986Y011413D02*
X019043Y011356D01*
X019043Y011243D01*
X018986Y011186D01*
X019043Y011554D02*
X018703Y011554D01*
X018703Y011781D02*
X019043Y011781D01*
X019043Y011923D02*
X018703Y011923D01*
X018703Y012093D01*
X018760Y012150D01*
X018986Y012150D01*
X019043Y012093D01*
X019043Y011923D01*
X018703Y011781D02*
X019043Y011554D01*
D45*
X014007Y011132D02*
X014007Y010621D01*
X013667Y010621D02*
X013667Y011132D01*
X013837Y010961D01*
X014007Y011132D01*
X013370Y010961D02*
X013199Y010961D01*
X013114Y010876D01*
X013114Y010621D01*
X013370Y010621D01*
X013455Y010706D01*
X013370Y010791D01*
X013114Y010791D01*
X012902Y010876D02*
X012902Y010706D01*
X012817Y010621D01*
X012562Y010621D01*
X012562Y010536D02*
X012562Y010961D01*
X012817Y010961D01*
X012902Y010876D01*
X012732Y010451D02*
X012647Y010451D01*
X012562Y010536D01*
X012350Y010621D02*
X012179Y010621D01*
X012265Y010621D02*
X012265Y010961D01*
X012350Y010961D01*
X012265Y011132D02*
X012265Y011217D01*
X011981Y010876D02*
X011896Y010961D01*
X011641Y010961D01*
X011981Y010876D02*
X011981Y010706D01*
X011896Y010621D01*
X011641Y010621D01*
X012350Y010232D02*
X012350Y009721D01*
X012350Y009891D02*
X012094Y010061D01*
X011889Y009976D02*
X011804Y010061D01*
X011634Y010061D01*
X011549Y009976D01*
X011549Y009891D01*
X011889Y009891D01*
X011889Y009806D02*
X011889Y009976D01*
X011889Y009806D02*
X011804Y009721D01*
X011634Y009721D01*
X012094Y009721D02*
X012350Y009891D01*
X012562Y009806D02*
X012562Y009976D01*
X012647Y010061D01*
X012817Y010061D01*
X012902Y009976D01*
X012902Y009806D01*
X012817Y009721D01*
X012647Y009721D01*
X012562Y009806D01*
X012647Y009332D02*
X012562Y009247D01*
X012902Y008906D01*
X012817Y008821D01*
X012647Y008821D01*
X012562Y008906D01*
X012562Y009247D01*
X012647Y009332D02*
X012817Y009332D01*
X012902Y009247D01*
X012902Y008906D01*
X013114Y008906D02*
X013199Y008821D01*
X013455Y008821D01*
X013455Y009332D01*
X013199Y009332D01*
X013114Y009247D01*
X013114Y009161D01*
X013199Y009076D01*
X013455Y009076D01*
X013667Y009076D02*
X013752Y008991D01*
X014007Y008991D01*
X014007Y008821D02*
X014007Y009332D01*
X013752Y009332D01*
X013667Y009247D01*
X013667Y009076D01*
X013837Y008991D02*
X013667Y008821D01*
X013199Y009076D02*
X013114Y008991D01*
X013114Y008906D01*
X012350Y008821D02*
X012009Y008821D01*
X012179Y008821D02*
X012179Y009332D01*
X012350Y009161D01*
X013114Y009721D02*
X013114Y009976D01*
X013199Y010061D01*
X013284Y009976D01*
X013284Y009721D01*
X013455Y009721D02*
X013455Y010061D01*
X013370Y010061D01*
X013284Y009976D01*
X013667Y009891D02*
X013667Y009806D01*
X013752Y009721D01*
X013922Y009721D01*
X014007Y009806D01*
X013922Y009976D02*
X013752Y009976D01*
X013667Y009891D01*
X013667Y010147D02*
X013752Y010232D01*
X013922Y010232D01*
X014007Y010147D01*
X014007Y010061D01*
X013922Y009976D01*
X006330Y011854D02*
X005990Y011854D01*
X005778Y011939D02*
X005693Y011854D01*
X005523Y011854D01*
X005437Y011939D01*
X005437Y012280D01*
X005523Y012365D01*
X005693Y012365D01*
X005778Y012280D01*
X005778Y011939D01*
X005225Y011854D02*
X005225Y012195D01*
X005055Y012365D01*
X004885Y012195D01*
X004885Y011854D01*
X004673Y011854D02*
X004418Y011854D01*
X004332Y011939D01*
X004332Y012280D01*
X004418Y012365D01*
X004673Y012365D01*
X004673Y011854D01*
X004885Y012110D02*
X005225Y012110D01*
X006330Y012365D02*
X006330Y011854D01*
D46*
X012982Y007987D03*
X012982Y007982D03*
X013137Y007422D03*
X013137Y007417D03*
X013297Y007442D03*
X013297Y007447D03*
X012732Y007107D03*
X012612Y007262D03*
X012612Y007267D03*
X012607Y007272D03*
X012607Y007277D03*
X012937Y006867D03*
X012932Y006862D03*
X012922Y006857D03*
X012917Y006852D03*
X012907Y006847D03*
X012902Y006842D03*
X012897Y006837D03*
X012887Y006832D03*
X012882Y006827D03*
X012867Y006817D03*
X012852Y006807D03*
X012847Y006802D03*
X012832Y006792D03*
X012787Y006762D03*
X012772Y006752D03*
X012767Y006747D03*
X012762Y006742D03*
X012747Y006732D03*
X012952Y006877D03*
X013327Y006777D03*
X013357Y006972D03*
X012852Y006457D03*
D47*
X012852Y006462D03*
X013212Y006627D03*
X013942Y006807D03*
X014197Y007327D03*
X014202Y007332D03*
X014202Y007872D03*
X013262Y008377D03*
X012852Y008182D03*
X011947Y007912D03*
X011662Y007762D03*
X011747Y006732D03*
D48*
X012577Y006582D03*
X012852Y006467D03*
X011912Y007892D03*
X013262Y008372D03*
X014107Y007922D03*
D49*
X013260Y008367D03*
X012840Y008212D03*
X011880Y006672D03*
X012850Y006472D03*
D50*
X012850Y006477D03*
X011855Y007847D03*
D51*
X012852Y006482D03*
X013947Y007977D03*
D52*
X013957Y007967D03*
X012852Y006487D03*
D53*
X012852Y006492D03*
X013967Y007952D03*
D54*
X013250Y008337D03*
X012850Y006497D03*
D55*
X012852Y006502D03*
D56*
X012850Y006507D03*
X013225Y008317D03*
D57*
X013207Y008302D03*
X012852Y006512D03*
D58*
X012852Y006517D03*
X013197Y008292D03*
D59*
X012850Y006522D03*
D60*
X012850Y006527D03*
X013495Y006672D03*
D61*
X013525Y006687D03*
X012850Y006532D03*
D62*
X012850Y006537D03*
X013550Y006702D03*
D63*
X013580Y006722D03*
X012850Y006542D03*
D64*
X012850Y006547D03*
X013585Y006727D03*
X013590Y006732D03*
D65*
X012850Y006552D03*
D66*
X012850Y006557D03*
D67*
X012667Y006667D03*
X012117Y006557D03*
X012732Y007082D03*
X012597Y007312D03*
X012592Y007322D03*
X012592Y007327D03*
X013137Y007442D03*
X013302Y007417D03*
X013357Y006947D03*
X013322Y006782D03*
X012977Y008012D03*
D68*
X012852Y006562D03*
D69*
X012932Y006892D03*
X012117Y006562D03*
X011642Y007217D03*
X011637Y007222D03*
X011632Y007232D03*
X011627Y007237D03*
X011622Y007242D03*
X011617Y007247D03*
X011612Y007722D03*
X011617Y007727D03*
X011622Y007732D03*
X011957Y007917D03*
X012082Y008137D03*
X012087Y008142D03*
X012092Y008147D03*
X014072Y007232D03*
X014232Y007357D03*
X014237Y007362D03*
X014237Y007842D03*
X014232Y007847D03*
X013987Y006842D03*
X013982Y006837D03*
D70*
X013065Y006567D03*
X012115Y006577D03*
X011870Y007857D03*
D71*
X011862Y007852D03*
X011812Y007822D03*
X013047Y008272D03*
X013927Y007997D03*
X014047Y007937D03*
X012637Y006567D03*
D72*
X012117Y006567D03*
X011817Y006692D03*
X011922Y007897D03*
X012202Y008217D03*
X012847Y008197D03*
X013872Y006767D03*
D73*
X013095Y006572D03*
X012605Y006572D03*
X013015Y008267D03*
D74*
X014072Y007932D03*
X011892Y007877D03*
X011782Y007817D03*
X012117Y006572D03*
D75*
X012590Y006577D03*
X013110Y006577D03*
X011905Y007887D03*
X011765Y007812D03*
X014090Y007927D03*
D76*
X013895Y008022D03*
X012925Y006917D03*
X013380Y006747D03*
X013125Y006582D03*
X013855Y006762D03*
D77*
X012117Y006582D03*
X013942Y007982D03*
D78*
X014120Y007917D03*
X012915Y006907D03*
X013140Y006587D03*
X012560Y006587D03*
X012380Y006682D03*
X011735Y007802D03*
D79*
X012115Y006587D03*
D80*
X012550Y006592D03*
X012915Y006902D03*
X013150Y006592D03*
X013880Y006772D03*
X014130Y007912D03*
X011725Y007797D03*
D81*
X013275Y008352D03*
X012115Y006592D03*
D82*
X012540Y006597D03*
X013160Y006597D03*
X013890Y006777D03*
X014105Y007267D03*
X014110Y007272D03*
X014145Y007297D03*
X012180Y008207D03*
X011715Y007792D03*
D83*
X012115Y006597D03*
D84*
X012530Y006602D03*
X013170Y006602D03*
X013575Y006642D03*
X013910Y006787D03*
X014095Y007257D03*
X014100Y007262D03*
X014160Y007897D03*
X012170Y008202D03*
X011695Y007782D03*
D85*
X012115Y006602D03*
D86*
X011787Y006707D03*
X011777Y006712D03*
X011687Y007777D03*
X011937Y007907D03*
X012162Y008197D03*
X014172Y007892D03*
X014172Y007312D03*
X014162Y007307D03*
X013187Y006612D03*
X013177Y006607D03*
D87*
X012912Y006922D03*
X012522Y006607D03*
X012387Y006687D03*
X011797Y006702D03*
X011702Y007787D03*
X012847Y008192D03*
X014152Y007902D03*
X014152Y007302D03*
X013902Y006782D03*
D88*
X012115Y006607D03*
X013230Y008322D03*
D89*
X012237Y006612D03*
D90*
X011762Y006722D03*
X011677Y007772D03*
X012147Y008187D03*
X012152Y008192D03*
X014187Y007882D03*
X013927Y006797D03*
X013197Y006617D03*
D91*
X013365Y006877D03*
X013320Y007327D03*
X013320Y007332D03*
X013145Y007507D03*
X012545Y007482D03*
X012545Y007477D03*
X012745Y006982D03*
X012745Y006977D03*
X012640Y006617D03*
X012965Y008097D03*
X012965Y008102D03*
D92*
X012215Y006617D03*
X012205Y006622D03*
D93*
X012395Y006692D03*
X012900Y006927D03*
X013205Y006622D03*
X013935Y006802D03*
X014085Y007247D03*
X014190Y007322D03*
X014195Y007877D03*
X012140Y008182D03*
X011670Y007767D03*
X011755Y006727D03*
D94*
X012645Y006622D03*
X013320Y006792D03*
X013320Y007342D03*
X013145Y007497D03*
X013145Y007502D03*
X012555Y007447D03*
X012550Y007457D03*
X012550Y007462D03*
X012970Y008082D03*
D95*
X012967Y008077D03*
X013142Y007492D03*
X013317Y007352D03*
X013317Y007347D03*
X013362Y006897D03*
X013362Y006892D03*
X012742Y007002D03*
X012742Y007007D03*
X012417Y006737D03*
X012647Y006627D03*
X012557Y007437D03*
X012557Y007442D03*
X012552Y007452D03*
D96*
X012167Y006642D03*
X012177Y006637D03*
X012197Y006627D03*
D97*
X011740Y006737D03*
X011735Y006742D03*
X011655Y007757D03*
X012125Y008172D03*
X012130Y008177D03*
X014080Y007242D03*
X014210Y007337D03*
X014210Y007867D03*
X013950Y006812D03*
X013225Y006637D03*
X013220Y006632D03*
D98*
X013362Y006902D03*
X013362Y006907D03*
X013362Y006912D03*
X013312Y007367D03*
X013142Y007482D03*
X012562Y007422D03*
X012562Y007417D03*
X012972Y008062D03*
X012647Y006632D03*
D99*
X012185Y006632D03*
X012160Y006647D03*
X012150Y006652D03*
X012145Y006657D03*
X012135Y006662D03*
D100*
X011655Y006822D03*
X011650Y006827D03*
X011650Y006832D03*
X011645Y006837D03*
X011640Y007162D03*
X011645Y007172D03*
X011650Y007177D03*
X011650Y007182D03*
X011655Y007192D03*
X011655Y007197D03*
X011555Y007317D03*
X011550Y007322D03*
X011545Y007332D03*
X011550Y007647D03*
X011555Y007657D03*
X011560Y007662D03*
X011970Y007922D03*
X012025Y008067D03*
X012030Y008072D03*
X012030Y008077D03*
X012035Y008082D03*
X012040Y008087D03*
X012700Y006717D03*
X013575Y006637D03*
X014040Y006902D03*
X014045Y006907D03*
X014045Y006912D03*
X014050Y006917D03*
X014055Y006927D03*
X014065Y007222D03*
X014290Y007417D03*
X014295Y007427D03*
X014300Y007432D03*
X014305Y007437D03*
X014310Y007447D03*
X014310Y007757D03*
X014305Y007767D03*
X014300Y007772D03*
X014295Y007777D03*
X014290Y007787D03*
D101*
X013430Y008067D03*
X013435Y008097D03*
X013440Y008127D03*
X013445Y008157D03*
X013450Y008182D03*
X013450Y008187D03*
X013455Y008212D03*
X013455Y008217D03*
X013460Y008242D03*
X013460Y008247D03*
X013480Y008367D03*
X013480Y008372D03*
X012970Y008057D03*
X013140Y007477D03*
X013315Y007372D03*
X012740Y007027D03*
X012740Y007022D03*
X012650Y006637D03*
X012570Y007397D03*
X012570Y007402D03*
X012565Y007407D03*
X012565Y007412D03*
D102*
X011647Y007752D03*
X011642Y007747D03*
X012117Y008167D03*
X013392Y008272D03*
X013862Y008037D03*
X014217Y007862D03*
X014222Y007857D03*
X014222Y007347D03*
X014217Y007342D03*
X014077Y007237D03*
X013962Y006822D03*
X013957Y006817D03*
X013352Y006757D03*
X013232Y006642D03*
X012397Y006697D03*
X011727Y006747D03*
D103*
X012622Y006932D03*
X012622Y006937D03*
X012622Y006942D03*
X012622Y006947D03*
X012622Y006952D03*
X012622Y006957D03*
X012622Y006962D03*
X012622Y006967D03*
X012622Y006972D03*
X012617Y006982D03*
X012617Y006987D03*
X012617Y006992D03*
X012617Y006997D03*
X012612Y007032D03*
X012612Y007037D03*
X012612Y007042D03*
X012607Y007082D03*
X012607Y007087D03*
X012602Y007112D03*
X012602Y007117D03*
X012602Y007122D03*
X012602Y007127D03*
X012602Y007132D03*
X012597Y007142D03*
X012597Y007147D03*
X012597Y007152D03*
X012597Y007157D03*
X012597Y007162D03*
X012597Y007167D03*
X012597Y007172D03*
X012597Y007177D03*
X012592Y007187D03*
X012592Y007192D03*
X012592Y007197D03*
X012592Y007202D03*
X012592Y007207D03*
X012592Y007212D03*
X012572Y007387D03*
X012572Y007392D03*
X012807Y007332D03*
X012812Y007352D03*
X012817Y007377D03*
X012822Y007397D03*
X012827Y007417D03*
X012832Y007442D03*
X012837Y007462D03*
X012842Y007482D03*
X012847Y007507D03*
X012852Y007527D03*
X012857Y007547D03*
X012862Y007572D03*
X012867Y007592D03*
X012872Y007612D03*
X012877Y007637D03*
X012882Y007657D03*
X012887Y007677D03*
X012892Y007702D03*
X012897Y007722D03*
X012902Y007742D03*
X012907Y007767D03*
X012912Y007787D03*
X012917Y007807D03*
X012922Y007832D03*
X012927Y007852D03*
X012932Y007872D03*
X012937Y007892D03*
X012937Y007897D03*
X012942Y007917D03*
X012947Y007937D03*
X012972Y008047D03*
X012972Y008052D03*
X013412Y007977D03*
X013412Y007972D03*
X013412Y007967D03*
X013412Y007962D03*
X013412Y007957D03*
X013412Y007952D03*
X013407Y007942D03*
X013407Y007937D03*
X013407Y007932D03*
X013407Y007927D03*
X013407Y007922D03*
X013402Y007912D03*
X013402Y007907D03*
X013402Y007902D03*
X013402Y007897D03*
X013397Y007887D03*
X013397Y007882D03*
X013397Y007877D03*
X013397Y007872D03*
X013397Y007867D03*
X013392Y007857D03*
X013392Y007852D03*
X013392Y007847D03*
X013392Y007842D03*
X013392Y007837D03*
X013387Y007827D03*
X013387Y007822D03*
X013387Y007817D03*
X013387Y007812D03*
X013387Y007807D03*
X013382Y007797D03*
X013382Y007792D03*
X013382Y007787D03*
X013382Y007782D03*
X013377Y007772D03*
X013377Y007767D03*
X013377Y007762D03*
X013377Y007757D03*
X013377Y007752D03*
X013372Y007742D03*
X013372Y007737D03*
X013372Y007732D03*
X013372Y007727D03*
X013372Y007722D03*
X013367Y007712D03*
X013367Y007707D03*
X013367Y007702D03*
X013367Y007697D03*
X013367Y007692D03*
X013362Y007682D03*
X013362Y007677D03*
X013362Y007672D03*
X013362Y007667D03*
X013362Y007662D03*
X013357Y007652D03*
X013357Y007647D03*
X013357Y007642D03*
X013357Y007637D03*
X013352Y007627D03*
X013352Y007622D03*
X013352Y007617D03*
X013352Y007612D03*
X013352Y007607D03*
X013347Y007597D03*
X013347Y007592D03*
X013347Y007587D03*
X013347Y007582D03*
X013347Y007577D03*
X013342Y007567D03*
X013342Y007562D03*
X013342Y007557D03*
X013342Y007552D03*
X013342Y007547D03*
X013337Y007537D03*
X013337Y007532D03*
X013337Y007527D03*
X013337Y007522D03*
X013332Y007512D03*
X013332Y007507D03*
X013332Y007502D03*
X013332Y007497D03*
X013332Y007492D03*
X013312Y007377D03*
X013192Y007337D03*
X013182Y007362D03*
X013202Y007312D03*
X013212Y007287D03*
X013142Y007472D03*
X012802Y007312D03*
X012797Y007287D03*
X012792Y007267D03*
X012787Y007247D03*
X012782Y007222D03*
X012777Y007207D03*
X012777Y007202D03*
X012772Y007192D03*
X012772Y007187D03*
X012772Y007182D03*
X012767Y007167D03*
X012767Y007162D03*
X012767Y007157D03*
X012762Y007147D03*
X012762Y007142D03*
X012737Y007037D03*
X012737Y007032D03*
X012627Y006927D03*
X012627Y006922D03*
X012627Y006917D03*
X012627Y006912D03*
X012627Y006907D03*
X012627Y006902D03*
X012627Y006897D03*
X012627Y006892D03*
X012627Y006887D03*
X012627Y006882D03*
X012632Y006877D03*
X012632Y006872D03*
X012632Y006867D03*
X012632Y006862D03*
X012632Y006857D03*
X012632Y006852D03*
X012632Y006847D03*
X012632Y006842D03*
X012632Y006837D03*
X012632Y006832D03*
X012637Y006827D03*
X012637Y006822D03*
X012637Y006817D03*
X012637Y006812D03*
X012637Y006807D03*
X012637Y006802D03*
X012637Y006797D03*
X012637Y006792D03*
X012637Y006787D03*
X012637Y006782D03*
X012642Y006777D03*
X012642Y006772D03*
X012642Y006767D03*
X012642Y006762D03*
X012642Y006757D03*
X012642Y006752D03*
X012642Y006747D03*
X012642Y006742D03*
X012642Y006737D03*
X012642Y006732D03*
X012647Y006727D03*
X012652Y006642D03*
X013362Y006917D03*
X013362Y006922D03*
X013402Y007027D03*
X013412Y007052D03*
X013422Y007077D03*
X013432Y007102D03*
X013457Y007167D03*
X013467Y007192D03*
X013477Y007217D03*
X013487Y007242D03*
X013512Y007307D03*
X013522Y007332D03*
X013532Y007357D03*
X013542Y007382D03*
X013567Y007447D03*
X013577Y007472D03*
X013587Y007497D03*
X013597Y007522D03*
X013632Y007612D03*
X013642Y007637D03*
X013652Y007662D03*
X013662Y007687D03*
X013687Y007752D03*
X013697Y007777D03*
X013707Y007802D03*
X013717Y007827D03*
X013727Y007852D03*
X013737Y007877D03*
X013742Y007892D03*
X013752Y007917D03*
X013417Y007982D03*
X013417Y007987D03*
X013417Y007992D03*
X013417Y007997D03*
X013417Y008002D03*
X013417Y008007D03*
X013422Y008012D03*
X013422Y008017D03*
X013422Y008022D03*
X013422Y008027D03*
X013422Y008032D03*
X013422Y008037D03*
X013427Y008042D03*
X013427Y008047D03*
X013427Y008052D03*
X013427Y008057D03*
X013427Y008062D03*
X013432Y008072D03*
X013432Y008077D03*
X013432Y008082D03*
X013432Y008087D03*
X013432Y008092D03*
X013437Y008102D03*
X013437Y008107D03*
X013437Y008112D03*
X013437Y008117D03*
X013437Y008122D03*
X013442Y008132D03*
X013442Y008137D03*
X013442Y008142D03*
X013442Y008147D03*
X013442Y008152D03*
X013447Y008162D03*
X013447Y008167D03*
X013447Y008172D03*
X013447Y008177D03*
X013452Y008192D03*
X013452Y008197D03*
X013452Y008202D03*
X013452Y008207D03*
X013457Y008222D03*
X013457Y008227D03*
X013457Y008232D03*
X013457Y008237D03*
X013482Y008377D03*
X013482Y008382D03*
D104*
X012842Y008207D03*
X012497Y008337D03*
X011857Y006677D03*
X013577Y006647D03*
D105*
X013250Y006657D03*
X013245Y006652D03*
X013240Y006647D03*
X013970Y006827D03*
X013975Y006832D03*
X014230Y007352D03*
X014225Y007852D03*
X012110Y008162D03*
X012105Y008157D03*
X012100Y008152D03*
X011635Y007742D03*
X011630Y007737D03*
X011710Y006762D03*
X011715Y006757D03*
X011720Y006752D03*
D106*
X012620Y006977D03*
X012615Y007002D03*
X012615Y007007D03*
X012615Y007012D03*
X012615Y007017D03*
X012615Y007022D03*
X012615Y007027D03*
X012610Y007047D03*
X012610Y007052D03*
X012610Y007057D03*
X012610Y007062D03*
X012610Y007067D03*
X012610Y007072D03*
X012610Y007077D03*
X012605Y007092D03*
X012605Y007097D03*
X012605Y007102D03*
X012605Y007107D03*
X012600Y007137D03*
X012595Y007182D03*
X012660Y007212D03*
X012665Y007202D03*
X012670Y007192D03*
X012675Y007182D03*
X012680Y007172D03*
X012685Y007162D03*
X012690Y007152D03*
X012695Y007142D03*
X012765Y007152D03*
X012770Y007172D03*
X012770Y007177D03*
X012775Y007197D03*
X012780Y007212D03*
X012780Y007217D03*
X012785Y007227D03*
X012785Y007232D03*
X012785Y007237D03*
X012785Y007242D03*
X012790Y007252D03*
X012790Y007257D03*
X012790Y007262D03*
X012795Y007272D03*
X012795Y007277D03*
X012795Y007282D03*
X012800Y007292D03*
X012800Y007297D03*
X012800Y007302D03*
X012800Y007307D03*
X012805Y007317D03*
X012805Y007322D03*
X012805Y007327D03*
X012810Y007337D03*
X012810Y007342D03*
X012810Y007347D03*
X012815Y007357D03*
X012815Y007362D03*
X012815Y007367D03*
X012815Y007372D03*
X012820Y007382D03*
X012820Y007387D03*
X012820Y007392D03*
X012825Y007402D03*
X012825Y007407D03*
X012825Y007412D03*
X012830Y007422D03*
X012830Y007427D03*
X012830Y007432D03*
X012830Y007437D03*
X012835Y007447D03*
X012835Y007452D03*
X012835Y007457D03*
X012840Y007467D03*
X012840Y007472D03*
X012840Y007477D03*
X012845Y007487D03*
X012845Y007492D03*
X012845Y007497D03*
X012845Y007502D03*
X012850Y007512D03*
X012850Y007517D03*
X012850Y007522D03*
X012855Y007532D03*
X012855Y007537D03*
X012855Y007542D03*
X012860Y007552D03*
X012860Y007557D03*
X012860Y007562D03*
X012860Y007567D03*
X012865Y007577D03*
X012865Y007582D03*
X012865Y007587D03*
X012870Y007597D03*
X012870Y007602D03*
X012870Y007607D03*
X012875Y007617D03*
X012875Y007622D03*
X012875Y007627D03*
X012875Y007632D03*
X012880Y007642D03*
X012880Y007647D03*
X012880Y007652D03*
X012885Y007662D03*
X012885Y007667D03*
X012885Y007672D03*
X012890Y007682D03*
X012890Y007687D03*
X012890Y007692D03*
X012890Y007697D03*
X012895Y007707D03*
X012895Y007712D03*
X012895Y007717D03*
X012900Y007727D03*
X012900Y007732D03*
X012900Y007737D03*
X012905Y007747D03*
X012905Y007752D03*
X012905Y007757D03*
X012905Y007762D03*
X012910Y007772D03*
X012910Y007777D03*
X012910Y007782D03*
X012915Y007792D03*
X012915Y007797D03*
X012915Y007802D03*
X012920Y007812D03*
X012920Y007817D03*
X012920Y007822D03*
X012920Y007827D03*
X012925Y007837D03*
X012925Y007842D03*
X012925Y007847D03*
X012930Y007857D03*
X012930Y007862D03*
X012930Y007867D03*
X012935Y007877D03*
X012935Y007882D03*
X012935Y007887D03*
X012940Y007902D03*
X012940Y007907D03*
X012940Y007912D03*
X012945Y007922D03*
X012945Y007927D03*
X012945Y007932D03*
X012950Y007942D03*
X012950Y007947D03*
X012950Y007952D03*
X013020Y007952D03*
X013025Y007942D03*
X013030Y007932D03*
X013035Y007922D03*
X013040Y007912D03*
X013045Y007902D03*
X013050Y007892D03*
X013055Y007882D03*
X013060Y007872D03*
X013065Y007862D03*
X013070Y007852D03*
X013075Y007842D03*
X013080Y007832D03*
X013085Y007822D03*
X013090Y007812D03*
X013095Y007802D03*
X013100Y007792D03*
X013105Y007782D03*
X013110Y007772D03*
X013115Y007762D03*
X013120Y007752D03*
X013125Y007747D03*
X013125Y007742D03*
X013130Y007737D03*
X013130Y007732D03*
X013135Y007727D03*
X013135Y007722D03*
X013140Y007717D03*
X013140Y007712D03*
X013145Y007707D03*
X013150Y007697D03*
X013155Y007687D03*
X013160Y007677D03*
X013165Y007667D03*
X013170Y007657D03*
X013175Y007647D03*
X013180Y007637D03*
X013185Y007627D03*
X013190Y007617D03*
X013140Y007467D03*
X013175Y007387D03*
X013175Y007382D03*
X013175Y007377D03*
X013180Y007372D03*
X013180Y007367D03*
X013185Y007357D03*
X013185Y007352D03*
X013190Y007347D03*
X013190Y007342D03*
X013195Y007332D03*
X013195Y007327D03*
X013200Y007322D03*
X013200Y007317D03*
X013205Y007307D03*
X013205Y007302D03*
X013210Y007297D03*
X013210Y007292D03*
X013215Y007282D03*
X013215Y007277D03*
X013220Y007272D03*
X013220Y007267D03*
X013220Y007262D03*
X013225Y007257D03*
X013225Y007252D03*
X013230Y007247D03*
X013230Y007242D03*
X013230Y007237D03*
X013235Y007227D03*
X013240Y007217D03*
X013240Y007212D03*
X013245Y007202D03*
X013250Y007192D03*
X013250Y007187D03*
X013255Y007177D03*
X013260Y007167D03*
X013265Y007157D03*
X013265Y007152D03*
X013270Y007142D03*
X013275Y007132D03*
X013275Y007127D03*
X013280Y007117D03*
X013285Y007107D03*
X013285Y007102D03*
X013290Y007092D03*
X013295Y007082D03*
X013300Y007067D03*
X013305Y007057D03*
X013315Y007032D03*
X013395Y007012D03*
X013400Y007017D03*
X013400Y007022D03*
X013405Y007032D03*
X013405Y007037D03*
X013410Y007042D03*
X013410Y007047D03*
X013415Y007057D03*
X013415Y007062D03*
X013420Y007067D03*
X013420Y007072D03*
X013425Y007082D03*
X013425Y007087D03*
X013430Y007092D03*
X013430Y007097D03*
X013435Y007107D03*
X013435Y007112D03*
X013440Y007117D03*
X013440Y007122D03*
X013440Y007127D03*
X013445Y007132D03*
X013445Y007137D03*
X013450Y007142D03*
X013450Y007147D03*
X013450Y007152D03*
X013455Y007157D03*
X013455Y007162D03*
X013460Y007172D03*
X013460Y007177D03*
X013465Y007182D03*
X013465Y007187D03*
X013470Y007197D03*
X013470Y007202D03*
X013475Y007207D03*
X013475Y007212D03*
X013480Y007222D03*
X013480Y007227D03*
X013485Y007232D03*
X013485Y007237D03*
X013490Y007247D03*
X013490Y007252D03*
X013495Y007257D03*
X013495Y007262D03*
X013495Y007267D03*
X013500Y007272D03*
X013500Y007277D03*
X013505Y007282D03*
X013505Y007287D03*
X013505Y007292D03*
X013510Y007297D03*
X013510Y007302D03*
X013515Y007312D03*
X013515Y007317D03*
X013520Y007322D03*
X013520Y007327D03*
X013525Y007337D03*
X013525Y007342D03*
X013530Y007347D03*
X013530Y007352D03*
X013535Y007362D03*
X013535Y007367D03*
X013540Y007372D03*
X013540Y007377D03*
X013545Y007387D03*
X013545Y007392D03*
X013550Y007397D03*
X013550Y007402D03*
X013550Y007407D03*
X013555Y007412D03*
X013555Y007417D03*
X013560Y007422D03*
X013560Y007427D03*
X013560Y007432D03*
X013565Y007437D03*
X013565Y007442D03*
X013570Y007452D03*
X013570Y007457D03*
X013575Y007462D03*
X013575Y007467D03*
X013580Y007477D03*
X013580Y007482D03*
X013585Y007487D03*
X013585Y007492D03*
X013590Y007502D03*
X013590Y007507D03*
X013595Y007512D03*
X013595Y007517D03*
X013600Y007527D03*
X013600Y007532D03*
X013605Y007537D03*
X013605Y007542D03*
X013605Y007547D03*
X013610Y007552D03*
X013610Y007557D03*
X013615Y007562D03*
X013615Y007567D03*
X013615Y007572D03*
X013620Y007577D03*
X013620Y007582D03*
X013625Y007587D03*
X013625Y007592D03*
X013625Y007597D03*
X013630Y007602D03*
X013630Y007607D03*
X013635Y007617D03*
X013635Y007622D03*
X013640Y007627D03*
X013640Y007632D03*
X013645Y007642D03*
X013645Y007647D03*
X013650Y007652D03*
X013650Y007657D03*
X013655Y007667D03*
X013655Y007672D03*
X013660Y007677D03*
X013660Y007682D03*
X013665Y007692D03*
X013665Y007697D03*
X013670Y007702D03*
X013670Y007707D03*
X013670Y007712D03*
X013675Y007717D03*
X013675Y007722D03*
X013680Y007727D03*
X013680Y007732D03*
X013680Y007737D03*
X013685Y007742D03*
X013685Y007747D03*
X013690Y007757D03*
X013690Y007762D03*
X013695Y007767D03*
X013695Y007772D03*
X013700Y007782D03*
X013700Y007787D03*
X013705Y007792D03*
X013705Y007797D03*
X013710Y007807D03*
X013710Y007812D03*
X013715Y007817D03*
X013715Y007822D03*
X013720Y007832D03*
X013720Y007837D03*
X013725Y007842D03*
X013725Y007847D03*
X013730Y007857D03*
X013730Y007862D03*
X013735Y007867D03*
X013735Y007872D03*
X013740Y007882D03*
X013740Y007887D03*
X013745Y007897D03*
X013745Y007902D03*
X013750Y007907D03*
X013750Y007912D03*
X013755Y007922D03*
X013755Y007927D03*
X013760Y007932D03*
X013805Y008052D03*
X013805Y008057D03*
X013810Y008067D03*
X013815Y008082D03*
X013820Y008092D03*
X013825Y008107D03*
X013830Y008117D03*
X013835Y008132D03*
X013845Y008157D03*
X013855Y008182D03*
X013860Y008197D03*
X013865Y008207D03*
X013870Y008222D03*
X013875Y008232D03*
X013880Y008247D03*
X013885Y008257D03*
X013890Y008272D03*
X013895Y008282D03*
X013900Y008297D03*
X013905Y008307D03*
X013910Y008322D03*
X013915Y008332D03*
X013915Y008337D03*
X013920Y008347D03*
X013925Y008357D03*
X013925Y008362D03*
X013925Y008367D03*
X013930Y008372D03*
X013930Y008377D03*
X013935Y008382D03*
X013410Y007947D03*
X013405Y007917D03*
X013400Y007892D03*
X013395Y007862D03*
X013390Y007832D03*
X013385Y007802D03*
X013380Y007777D03*
X013375Y007747D03*
X013370Y007717D03*
X013365Y007687D03*
X013360Y007657D03*
X013355Y007632D03*
X013350Y007602D03*
X013345Y007572D03*
X013340Y007542D03*
X013335Y007517D03*
X013330Y007487D03*
X013310Y007382D03*
X012740Y007042D03*
X012575Y007377D03*
X012575Y007382D03*
X013325Y006787D03*
X012655Y006647D03*
X012975Y008037D03*
X012975Y008042D03*
X012860Y008137D03*
D107*
X013575Y006652D03*
D108*
X013362Y006927D03*
X013362Y006932D03*
X013322Y007012D03*
X013322Y007017D03*
X013317Y007022D03*
X013317Y007027D03*
X013312Y007037D03*
X013312Y007042D03*
X013307Y007047D03*
X013307Y007052D03*
X013302Y007062D03*
X013297Y007072D03*
X013297Y007077D03*
X013292Y007087D03*
X013287Y007097D03*
X013282Y007112D03*
X013277Y007122D03*
X013272Y007137D03*
X013267Y007147D03*
X013262Y007162D03*
X013257Y007172D03*
X013252Y007182D03*
X013247Y007197D03*
X013242Y007207D03*
X013237Y007222D03*
X013232Y007232D03*
X013307Y007387D03*
X013307Y007392D03*
X013257Y007487D03*
X013252Y007497D03*
X013247Y007507D03*
X013242Y007512D03*
X013242Y007517D03*
X013237Y007522D03*
X013237Y007527D03*
X013232Y007532D03*
X013232Y007537D03*
X013227Y007542D03*
X013227Y007547D03*
X013222Y007552D03*
X013222Y007557D03*
X013217Y007562D03*
X013217Y007567D03*
X013212Y007572D03*
X013212Y007577D03*
X013207Y007582D03*
X013207Y007587D03*
X013202Y007592D03*
X013202Y007597D03*
X013197Y007602D03*
X013197Y007607D03*
X013192Y007612D03*
X013187Y007622D03*
X013182Y007632D03*
X013177Y007642D03*
X013172Y007652D03*
X013167Y007662D03*
X013162Y007672D03*
X013157Y007682D03*
X013152Y007692D03*
X013147Y007702D03*
X013117Y007757D03*
X013112Y007767D03*
X013107Y007777D03*
X013102Y007787D03*
X013097Y007797D03*
X013092Y007807D03*
X013087Y007817D03*
X013082Y007827D03*
X013077Y007837D03*
X013072Y007847D03*
X013067Y007857D03*
X013062Y007867D03*
X013057Y007877D03*
X013052Y007887D03*
X013047Y007897D03*
X013042Y007907D03*
X013037Y007917D03*
X013032Y007927D03*
X013027Y007937D03*
X013022Y007947D03*
X013142Y007462D03*
X013077Y007347D03*
X013062Y007322D03*
X013047Y007297D03*
X013042Y007287D03*
X013032Y007272D03*
X013027Y007262D03*
X013022Y007252D03*
X013017Y007247D03*
X013012Y007237D03*
X013007Y007227D03*
X013002Y007222D03*
X012997Y007212D03*
X012992Y007202D03*
X012987Y007192D03*
X012982Y007187D03*
X012982Y007182D03*
X012977Y007177D03*
X012977Y007172D03*
X012972Y007167D03*
X012967Y007162D03*
X012967Y007157D03*
X012962Y007152D03*
X012962Y007147D03*
X012957Y007142D03*
X012952Y007137D03*
X012952Y007132D03*
X012947Y007127D03*
X012947Y007122D03*
X012942Y007117D03*
X012937Y007112D03*
X012937Y007107D03*
X012932Y007102D03*
X012932Y007097D03*
X012927Y007092D03*
X012922Y007087D03*
X012922Y007082D03*
X012917Y007077D03*
X012917Y007072D03*
X012912Y007067D03*
X012907Y007062D03*
X012907Y007057D03*
X012902Y007052D03*
X012902Y007047D03*
X012897Y007042D03*
X012892Y007037D03*
X012892Y007032D03*
X012887Y007027D03*
X012887Y007022D03*
X012882Y007017D03*
X012877Y007012D03*
X012877Y007007D03*
X012872Y007002D03*
X012872Y006997D03*
X012867Y006992D03*
X012862Y006987D03*
X012862Y006982D03*
X012857Y006977D03*
X012857Y006972D03*
X012852Y006967D03*
X012847Y006962D03*
X012847Y006957D03*
X012842Y006952D03*
X012737Y007047D03*
X012737Y007052D03*
X012692Y007147D03*
X012687Y007157D03*
X012682Y007167D03*
X012677Y007177D03*
X012672Y007187D03*
X012667Y007197D03*
X012662Y007207D03*
X012577Y007372D03*
X012657Y006652D03*
X013807Y008062D03*
X013812Y008072D03*
X013812Y008077D03*
X013817Y008087D03*
X013822Y008097D03*
X013822Y008102D03*
X013827Y008112D03*
X013832Y008122D03*
X013832Y008127D03*
X013837Y008137D03*
X013837Y008142D03*
X013842Y008147D03*
X013842Y008152D03*
X013847Y008162D03*
X013847Y008167D03*
X013852Y008172D03*
X013852Y008177D03*
X013857Y008187D03*
X013857Y008192D03*
X013862Y008202D03*
X013867Y008212D03*
X013867Y008217D03*
X013872Y008227D03*
X013877Y008237D03*
X013877Y008242D03*
X013882Y008252D03*
X013887Y008262D03*
X013887Y008267D03*
X013892Y008277D03*
X013897Y008287D03*
X013897Y008292D03*
X013902Y008302D03*
X013907Y008312D03*
X013907Y008317D03*
X013912Y008327D03*
X013917Y008342D03*
X013922Y008352D03*
D109*
X013940Y007987D03*
X013575Y006657D03*
D110*
X013362Y006942D03*
X012847Y006947D03*
X012662Y006657D03*
X012587Y007342D03*
X012587Y007347D03*
X013307Y007397D03*
X013307Y007402D03*
X012977Y008022D03*
X012977Y008027D03*
D111*
X012495Y008322D03*
X013950Y007972D03*
X013575Y006662D03*
D112*
X013255Y006662D03*
X013990Y006847D03*
X013995Y006852D03*
X014245Y007367D03*
X014250Y007372D03*
X014255Y007377D03*
X014255Y007827D03*
X014250Y007832D03*
X014245Y007837D03*
X012855Y008177D03*
X011605Y007717D03*
X011600Y007712D03*
X011595Y007267D03*
X011600Y007262D03*
X011605Y007257D03*
X011610Y007252D03*
X011635Y007227D03*
X011645Y007212D03*
X011695Y006777D03*
X011700Y006772D03*
X011705Y006767D03*
D113*
X012590Y007332D03*
X012590Y007337D03*
X012735Y007077D03*
X012735Y007072D03*
X012735Y007067D03*
X013140Y007447D03*
X013305Y007412D03*
X013305Y007407D03*
X012980Y008017D03*
X012860Y008142D03*
X012665Y006662D03*
D114*
X013485Y006667D03*
D115*
X012127Y006667D03*
D116*
X012670Y006672D03*
X013360Y006952D03*
X012735Y007087D03*
X012600Y007302D03*
X012600Y007307D03*
X012595Y007317D03*
X013140Y007437D03*
X013300Y007422D03*
X012980Y008002D03*
X012980Y008007D03*
X013445Y008257D03*
D117*
X011880Y007867D03*
X012360Y006672D03*
D118*
X013510Y006677D03*
D119*
X013360Y006967D03*
X012875Y006822D03*
X012860Y006812D03*
X012840Y006797D03*
X012825Y006787D03*
X012820Y006782D03*
X012810Y006777D03*
X012755Y006737D03*
X012740Y006727D03*
X012675Y006677D03*
X012730Y007102D03*
X012605Y007282D03*
X012605Y007287D03*
X013300Y007432D03*
X013300Y007437D03*
X012980Y007992D03*
X012980Y007997D03*
X013260Y008382D03*
X013820Y008047D03*
D120*
X013902Y008017D03*
X013842Y006757D03*
X012372Y006677D03*
D121*
X013517Y006682D03*
X012497Y008277D03*
D122*
X013295Y007452D03*
X012730Y007122D03*
X012730Y007117D03*
X012730Y007112D03*
X012615Y007252D03*
X012615Y007257D03*
X012860Y006942D03*
X012945Y006872D03*
X012800Y006772D03*
X012795Y006767D03*
X012780Y006757D03*
X012675Y006682D03*
X012415Y006722D03*
X013360Y006977D03*
D123*
X011845Y006682D03*
X011750Y007807D03*
X012230Y008227D03*
X012845Y008202D03*
D124*
X012857Y008152D03*
X012982Y007977D03*
X012982Y007972D03*
X013432Y008262D03*
X013297Y007457D03*
X013137Y007412D03*
X012727Y007127D03*
X012617Y007242D03*
X012617Y007247D03*
X012952Y006882D03*
X012677Y006687D03*
X013357Y006982D03*
X013357Y006987D03*
D125*
X012922Y006912D03*
X011832Y006687D03*
X012212Y008222D03*
D126*
X013535Y006692D03*
D127*
X013332Y006772D03*
X013357Y006997D03*
X012727Y007137D03*
X012627Y007217D03*
X012622Y007227D03*
X012682Y006692D03*
X012412Y006717D03*
X013292Y007472D03*
X013292Y007477D03*
X012987Y007957D03*
X012857Y008157D03*
D128*
X012497Y008272D03*
X013542Y006697D03*
D129*
X013360Y007002D03*
X012685Y006697D03*
X013135Y007392D03*
X013135Y007397D03*
X013290Y007482D03*
D130*
X013887Y008027D03*
X014142Y007907D03*
X014137Y007292D03*
X014127Y007287D03*
X014122Y007282D03*
X014117Y007277D03*
X012497Y008342D03*
X012192Y008212D03*
X011927Y007902D03*
X011807Y006697D03*
D131*
X012687Y006702D03*
X013357Y007007D03*
D132*
X013342Y006762D03*
X012887Y006932D03*
X012402Y006702D03*
X011687Y006782D03*
X011647Y007207D03*
X011592Y007272D03*
X011587Y007697D03*
X011592Y007702D03*
X011597Y007707D03*
X012062Y008117D03*
X012067Y008122D03*
X012072Y008127D03*
X012077Y008132D03*
X012497Y008347D03*
X014257Y007822D03*
X014012Y006867D03*
X014007Y006862D03*
X014002Y006857D03*
D133*
X013565Y006712D03*
X013560Y006707D03*
D134*
X013337Y006767D03*
X012692Y006707D03*
X011612Y006902D03*
X011607Y006912D03*
X011607Y006917D03*
X011607Y006922D03*
X011602Y006932D03*
X011602Y006937D03*
X011602Y006942D03*
X011597Y006952D03*
X011597Y006957D03*
X011597Y006962D03*
X011597Y006967D03*
X011597Y006972D03*
X011592Y007012D03*
X011592Y007017D03*
X011592Y007022D03*
X011597Y007042D03*
X011597Y007047D03*
X011597Y007052D03*
X011597Y007057D03*
X011597Y007062D03*
X011602Y007067D03*
X011602Y007072D03*
X011602Y007077D03*
X011602Y007082D03*
X011607Y007087D03*
X011607Y007092D03*
X011612Y007107D03*
X011522Y007377D03*
X011517Y007392D03*
X011512Y007402D03*
X011512Y007407D03*
X011512Y007412D03*
X011507Y007422D03*
X011507Y007427D03*
X011507Y007432D03*
X011507Y007437D03*
X011502Y007452D03*
X011502Y007457D03*
X011502Y007462D03*
X011502Y007467D03*
X011502Y007472D03*
X011502Y007477D03*
X011502Y007482D03*
X011502Y007487D03*
X011502Y007492D03*
X011502Y007497D03*
X011502Y007502D03*
X011502Y007507D03*
X011502Y007512D03*
X011502Y007517D03*
X011507Y007537D03*
X011507Y007542D03*
X011507Y007547D03*
X011507Y007552D03*
X011512Y007557D03*
X011512Y007562D03*
X011512Y007567D03*
X011517Y007577D03*
X011517Y007582D03*
X011977Y007927D03*
X011977Y007932D03*
X011977Y007937D03*
X011982Y007952D03*
X011982Y007957D03*
X011982Y007962D03*
X011982Y007967D03*
X011987Y007977D03*
X011987Y007982D03*
X011987Y007987D03*
X011992Y007997D03*
X011997Y008012D03*
X014082Y007177D03*
X014087Y007167D03*
X014087Y007162D03*
X014087Y007157D03*
X014092Y007147D03*
X014092Y007142D03*
X014092Y007137D03*
X014092Y007132D03*
X014097Y007122D03*
X014097Y007117D03*
X014097Y007112D03*
X014097Y007107D03*
X014097Y007102D03*
X014097Y007097D03*
X014097Y007092D03*
X014097Y007087D03*
X014097Y007082D03*
X014097Y007077D03*
X014097Y007072D03*
X014097Y007067D03*
X014097Y007062D03*
X014097Y007057D03*
X014097Y007052D03*
X014097Y007047D03*
X014097Y007042D03*
X014092Y007027D03*
X014092Y007022D03*
X014092Y007017D03*
X014092Y007012D03*
X014087Y007007D03*
X014087Y007002D03*
X014087Y006997D03*
X014082Y006987D03*
X014337Y007507D03*
X014342Y007522D03*
X014342Y007527D03*
X014342Y007532D03*
X014347Y007537D03*
X014347Y007542D03*
X014347Y007547D03*
X014347Y007552D03*
X014352Y007562D03*
X014352Y007567D03*
X014352Y007572D03*
X014352Y007577D03*
X014352Y007582D03*
X014352Y007587D03*
X014352Y007592D03*
X014352Y007597D03*
X014352Y007602D03*
X014352Y007607D03*
X014352Y007612D03*
X014352Y007617D03*
X014352Y007622D03*
X014352Y007627D03*
X014352Y007632D03*
X014352Y007637D03*
X014347Y007652D03*
X014347Y007657D03*
X014347Y007662D03*
X014347Y007667D03*
X014342Y007672D03*
X014342Y007677D03*
X014342Y007682D03*
X014337Y007692D03*
X014337Y007697D03*
D135*
X014327Y007722D03*
X014322Y007732D03*
X014317Y007742D03*
X014312Y007752D03*
X014307Y007762D03*
X014327Y007482D03*
X014322Y007472D03*
X014317Y007462D03*
X014312Y007452D03*
X014307Y007442D03*
X014067Y007212D03*
X014072Y007202D03*
X014067Y006947D03*
X014062Y006937D03*
X014057Y006932D03*
X014052Y006922D03*
X012407Y006707D03*
X011642Y006842D03*
X011637Y006847D03*
X011637Y006852D03*
X011632Y006857D03*
X011627Y006867D03*
X011622Y006877D03*
X011622Y007132D03*
X011627Y007142D03*
X011632Y007152D03*
X011637Y007157D03*
X011642Y007167D03*
X011652Y007187D03*
X011547Y007327D03*
X011542Y007337D03*
X011537Y007342D03*
X011537Y007347D03*
X011532Y007617D03*
X011537Y007627D03*
X011542Y007632D03*
X011542Y007637D03*
X011547Y007642D03*
X011552Y007652D03*
X012012Y008042D03*
X012012Y008047D03*
X012017Y008052D03*
X012017Y008057D03*
X012022Y008062D03*
X012857Y008167D03*
D136*
X012010Y008037D03*
X012005Y008032D03*
X012005Y008027D03*
X012000Y008022D03*
X012000Y008017D03*
X011995Y008007D03*
X011995Y008002D03*
X011990Y007992D03*
X011535Y007622D03*
X011530Y007612D03*
X011530Y007607D03*
X011525Y007602D03*
X011525Y007597D03*
X011520Y007592D03*
X011520Y007587D03*
X011515Y007572D03*
X011510Y007417D03*
X011515Y007397D03*
X011520Y007387D03*
X011520Y007382D03*
X011525Y007372D03*
X011525Y007367D03*
X011530Y007362D03*
X011530Y007357D03*
X011535Y007352D03*
X011630Y007147D03*
X011625Y007137D03*
X011620Y007127D03*
X011620Y007122D03*
X011615Y007117D03*
X011615Y007112D03*
X011610Y007102D03*
X011610Y007097D03*
X011605Y006927D03*
X011610Y006907D03*
X011615Y006897D03*
X011615Y006892D03*
X011620Y006887D03*
X011620Y006882D03*
X011625Y006872D03*
X011630Y006862D03*
X012695Y006712D03*
X012945Y006887D03*
X014065Y006942D03*
X014070Y006952D03*
X014070Y006957D03*
X014075Y006962D03*
X014075Y006967D03*
X014080Y006972D03*
X014080Y006977D03*
X014080Y006982D03*
X014085Y006992D03*
X014090Y007152D03*
X014085Y007172D03*
X014080Y007182D03*
X014080Y007187D03*
X014075Y007192D03*
X014075Y007197D03*
X014070Y007207D03*
X014065Y007217D03*
X014315Y007457D03*
X014320Y007467D03*
X014325Y007477D03*
X014330Y007487D03*
X014330Y007492D03*
X014335Y007497D03*
X014335Y007502D03*
X014340Y007512D03*
X014340Y007517D03*
X014340Y007687D03*
X014335Y007702D03*
X014335Y007707D03*
X014330Y007712D03*
X014330Y007717D03*
X014325Y007727D03*
X014320Y007737D03*
X014315Y007747D03*
D137*
X014350Y007647D03*
X014350Y007642D03*
X014350Y007557D03*
X014095Y007127D03*
X014095Y007037D03*
X014095Y007032D03*
X012875Y006937D03*
X012410Y006712D03*
X011600Y006947D03*
X011595Y006977D03*
X011595Y006982D03*
X011595Y006987D03*
X011595Y006992D03*
X011595Y006997D03*
X011595Y007002D03*
X011595Y007007D03*
X011595Y007027D03*
X011595Y007032D03*
X011595Y007037D03*
X011505Y007442D03*
X011505Y007447D03*
X011505Y007522D03*
X011505Y007527D03*
X011505Y007532D03*
X011980Y007942D03*
X011980Y007947D03*
X011985Y007972D03*
X012855Y008162D03*
X013420Y008267D03*
D138*
X012497Y008267D03*
X013572Y006717D03*
D139*
X013360Y006752D03*
X012925Y006897D03*
X013920Y006792D03*
X014090Y007252D03*
X014180Y007317D03*
X014180Y007887D03*
X013875Y008032D03*
X012850Y008187D03*
X011770Y006717D03*
D140*
X011667Y006807D03*
X011662Y006812D03*
X011657Y006817D03*
X011577Y007287D03*
X011572Y007292D03*
X011567Y007297D03*
X011567Y007302D03*
X011562Y007307D03*
X011557Y007312D03*
X011562Y007667D03*
X011567Y007672D03*
X011572Y007677D03*
X011572Y007682D03*
X012042Y008092D03*
X012047Y008097D03*
X013852Y008042D03*
X014277Y007802D03*
X014282Y007797D03*
X014287Y007792D03*
X014292Y007782D03*
X014292Y007422D03*
X014287Y007412D03*
X014282Y007407D03*
X014277Y007402D03*
X014037Y006897D03*
X014032Y006892D03*
X014027Y006887D03*
X012702Y006722D03*
D141*
X012417Y006727D03*
X012732Y007092D03*
X012732Y007097D03*
X012602Y007292D03*
X012602Y007297D03*
X013137Y007427D03*
X013137Y007432D03*
X013302Y007427D03*
X013357Y006962D03*
X013357Y006957D03*
X012857Y008147D03*
D142*
X012975Y008032D03*
X013455Y008252D03*
X013765Y007937D03*
X013250Y007502D03*
X013255Y007492D03*
X013140Y007457D03*
X013140Y007452D03*
X013100Y007387D03*
X013100Y007382D03*
X013095Y007377D03*
X013090Y007372D03*
X013090Y007367D03*
X013085Y007362D03*
X013085Y007357D03*
X013080Y007352D03*
X013075Y007342D03*
X013070Y007337D03*
X013070Y007332D03*
X013065Y007327D03*
X013060Y007317D03*
X013055Y007312D03*
X013055Y007307D03*
X013050Y007302D03*
X013045Y007292D03*
X013040Y007282D03*
X013035Y007277D03*
X013030Y007267D03*
X013025Y007257D03*
X013015Y007242D03*
X013010Y007232D03*
X013000Y007217D03*
X012995Y007207D03*
X012990Y007197D03*
X012735Y007062D03*
X012735Y007057D03*
X012585Y007352D03*
X012585Y007357D03*
X012580Y007362D03*
X012580Y007367D03*
X012415Y006732D03*
X013360Y006937D03*
D143*
X013597Y006737D03*
D144*
X013605Y006742D03*
D145*
X013802Y006747D03*
X013922Y008002D03*
D146*
X012245Y008232D03*
X011900Y007882D03*
X013830Y006752D03*
D147*
X014015Y006872D03*
X014020Y006877D03*
X014025Y006882D03*
X014070Y007227D03*
X014260Y007382D03*
X014265Y007387D03*
X014270Y007392D03*
X014275Y007397D03*
X014275Y007807D03*
X014270Y007812D03*
X014265Y007817D03*
X012855Y008172D03*
X012060Y008112D03*
X012055Y008107D03*
X012050Y008102D03*
X011585Y007692D03*
X011580Y007687D03*
X011580Y007282D03*
X011585Y007277D03*
X011650Y007202D03*
X011670Y006802D03*
X011675Y006797D03*
X011680Y006792D03*
X011685Y006787D03*
D148*
X012745Y006952D03*
X013365Y006852D03*
X013325Y007297D03*
X013325Y007302D03*
X012530Y007527D03*
X012530Y007532D03*
X012860Y008132D03*
D149*
X012962Y008122D03*
X012962Y008117D03*
X013147Y007527D03*
X013147Y007522D03*
X013322Y007307D03*
X012747Y006962D03*
X012747Y006957D03*
X013362Y006857D03*
X012532Y007517D03*
X012532Y007522D03*
D150*
X012535Y007512D03*
X012535Y007507D03*
X013145Y007517D03*
X013325Y007312D03*
X013365Y006862D03*
X012745Y006967D03*
X012745Y006972D03*
X012965Y008107D03*
X012965Y008112D03*
X012500Y008352D03*
D151*
X012537Y007502D03*
X012537Y007497D03*
X012542Y007492D03*
X012542Y007487D03*
X013147Y007512D03*
X013322Y007322D03*
X013322Y007317D03*
X013362Y006872D03*
X013362Y006867D03*
D152*
X013362Y006882D03*
X013362Y006887D03*
X013317Y007337D03*
X012742Y006997D03*
X012742Y006992D03*
X012742Y006987D03*
X012547Y007467D03*
X012547Y007472D03*
X012967Y008087D03*
X012967Y008092D03*
D153*
X012985Y007967D03*
X012985Y007962D03*
X013135Y007407D03*
X013135Y007402D03*
X013295Y007462D03*
X013295Y007467D03*
X012730Y007132D03*
X012625Y007222D03*
X012620Y007232D03*
X012620Y007237D03*
X013360Y006992D03*
D154*
X013315Y007357D03*
X013315Y007362D03*
X013145Y007487D03*
X012560Y007432D03*
X012560Y007427D03*
X012740Y007017D03*
X012740Y007012D03*
X012970Y008067D03*
X012970Y008072D03*
D155*
X011847Y007842D03*
X011832Y007832D03*
X011822Y007827D03*
D156*
X011840Y007837D03*
X013935Y007992D03*
D157*
X012837Y008217D03*
X012497Y008332D03*
X011872Y007862D03*
D158*
X011887Y007872D03*
X012262Y008237D03*
X013917Y008007D03*
D159*
X013975Y007942D03*
X013265Y008347D03*
D160*
X013972Y007947D03*
D161*
X013962Y007957D03*
X012497Y008317D03*
D162*
X013960Y007962D03*
D163*
X013912Y008012D03*
D164*
X012832Y008222D03*
D165*
X012830Y008227D03*
D166*
X012822Y008232D03*
X013282Y008357D03*
D167*
X012812Y008237D03*
X012497Y008312D03*
D168*
X012590Y008242D03*
D169*
X012600Y008247D03*
D170*
X012612Y008252D03*
D171*
X012627Y008257D03*
D172*
X012645Y008262D03*
D173*
X013185Y008277D03*
X013190Y008282D03*
D174*
X012497Y008282D03*
D175*
X013195Y008287D03*
D176*
X012497Y008287D03*
D177*
X012497Y008292D03*
X013202Y008297D03*
D178*
X013212Y008307D03*
X012497Y008297D03*
D179*
X012497Y008302D03*
D180*
X012495Y008307D03*
D181*
X013220Y008312D03*
D182*
X013235Y008327D03*
D183*
X012495Y008327D03*
D184*
X013242Y008332D03*
D185*
X013257Y008342D03*
D186*
X013292Y008362D03*
D187*
X021245Y003416D02*
X004709Y003416D01*
X004079Y004990D02*
X004081Y005040D01*
X004087Y005090D01*
X004097Y005139D01*
X004111Y005187D01*
X004128Y005234D01*
X004149Y005279D01*
X004174Y005323D01*
X004202Y005364D01*
X004234Y005403D01*
X004268Y005440D01*
X004305Y005474D01*
X004345Y005504D01*
X004387Y005531D01*
X004431Y005555D01*
X004477Y005576D01*
X004524Y005592D01*
X004572Y005605D01*
X004622Y005614D01*
X004671Y005619D01*
X004722Y005620D01*
X004772Y005617D01*
X004821Y005610D01*
X004870Y005599D01*
X004918Y005584D01*
X004964Y005566D01*
X005009Y005544D01*
X005052Y005518D01*
X005093Y005489D01*
X005132Y005457D01*
X005168Y005422D01*
X005200Y005384D01*
X005230Y005344D01*
X005257Y005301D01*
X005280Y005257D01*
X005299Y005211D01*
X005315Y005163D01*
X005327Y005114D01*
X005335Y005065D01*
X005339Y005015D01*
X005339Y004965D01*
X005335Y004915D01*
X005327Y004866D01*
X005315Y004817D01*
X005299Y004769D01*
X005280Y004723D01*
X005257Y004679D01*
X005230Y004636D01*
X005200Y004596D01*
X005168Y004558D01*
X005132Y004523D01*
X005093Y004491D01*
X005052Y004462D01*
X005009Y004436D01*
X004964Y004414D01*
X004918Y004396D01*
X004870Y004381D01*
X004821Y004370D01*
X004772Y004363D01*
X004722Y004360D01*
X004671Y004361D01*
X004622Y004366D01*
X004572Y004375D01*
X004524Y004388D01*
X004477Y004404D01*
X004431Y004425D01*
X004387Y004449D01*
X004345Y004476D01*
X004305Y004506D01*
X004268Y004540D01*
X004234Y004577D01*
X004202Y004616D01*
X004174Y004657D01*
X004149Y004701D01*
X004128Y004746D01*
X004111Y004793D01*
X004097Y004841D01*
X004087Y004890D01*
X004081Y004940D01*
X004079Y004990D01*
X003134Y004990D02*
X003136Y004913D01*
X003142Y004836D01*
X003151Y004759D01*
X003164Y004683D01*
X003181Y004607D01*
X003202Y004533D01*
X003226Y004459D01*
X003254Y004387D01*
X003285Y004317D01*
X003320Y004248D01*
X003358Y004180D01*
X003399Y004115D01*
X003444Y004052D01*
X003492Y003991D01*
X003542Y003932D01*
X003595Y003876D01*
X003651Y003823D01*
X003710Y003773D01*
X003771Y003725D01*
X003834Y003680D01*
X003899Y003639D01*
X003967Y003601D01*
X004036Y003566D01*
X004106Y003535D01*
X004178Y003507D01*
X004252Y003483D01*
X004326Y003462D01*
X004402Y003445D01*
X004478Y003432D01*
X004555Y003423D01*
X004632Y003417D01*
X004709Y003415D01*
X003135Y004990D02*
X003135Y014046D01*
X004079Y014046D02*
X004081Y014096D01*
X004087Y014146D01*
X004097Y014195D01*
X004111Y014243D01*
X004128Y014290D01*
X004149Y014335D01*
X004174Y014379D01*
X004202Y014420D01*
X004234Y014459D01*
X004268Y014496D01*
X004305Y014530D01*
X004345Y014560D01*
X004387Y014587D01*
X004431Y014611D01*
X004477Y014632D01*
X004524Y014648D01*
X004572Y014661D01*
X004622Y014670D01*
X004671Y014675D01*
X004722Y014676D01*
X004772Y014673D01*
X004821Y014666D01*
X004870Y014655D01*
X004918Y014640D01*
X004964Y014622D01*
X005009Y014600D01*
X005052Y014574D01*
X005093Y014545D01*
X005132Y014513D01*
X005168Y014478D01*
X005200Y014440D01*
X005230Y014400D01*
X005257Y014357D01*
X005280Y014313D01*
X005299Y014267D01*
X005315Y014219D01*
X005327Y014170D01*
X005335Y014121D01*
X005339Y014071D01*
X005339Y014021D01*
X005335Y013971D01*
X005327Y013922D01*
X005315Y013873D01*
X005299Y013825D01*
X005280Y013779D01*
X005257Y013735D01*
X005230Y013692D01*
X005200Y013652D01*
X005168Y013614D01*
X005132Y013579D01*
X005093Y013547D01*
X005052Y013518D01*
X005009Y013492D01*
X004964Y013470D01*
X004918Y013452D01*
X004870Y013437D01*
X004821Y013426D01*
X004772Y013419D01*
X004722Y013416D01*
X004671Y013417D01*
X004622Y013422D01*
X004572Y013431D01*
X004524Y013444D01*
X004477Y013460D01*
X004431Y013481D01*
X004387Y013505D01*
X004345Y013532D01*
X004305Y013562D01*
X004268Y013596D01*
X004234Y013633D01*
X004202Y013672D01*
X004174Y013713D01*
X004149Y013757D01*
X004128Y013802D01*
X004111Y013849D01*
X004097Y013897D01*
X004087Y013946D01*
X004081Y013996D01*
X004079Y014046D01*
X003134Y014046D02*
X003136Y014123D01*
X003142Y014200D01*
X003151Y014277D01*
X003164Y014353D01*
X003181Y014429D01*
X003202Y014503D01*
X003226Y014577D01*
X003254Y014649D01*
X003285Y014719D01*
X003320Y014788D01*
X003358Y014856D01*
X003399Y014921D01*
X003444Y014984D01*
X003492Y015045D01*
X003542Y015104D01*
X003595Y015160D01*
X003651Y015213D01*
X003710Y015263D01*
X003771Y015311D01*
X003834Y015356D01*
X003899Y015397D01*
X003967Y015435D01*
X004036Y015470D01*
X004106Y015501D01*
X004178Y015529D01*
X004252Y015553D01*
X004326Y015574D01*
X004402Y015591D01*
X004478Y015604D01*
X004555Y015613D01*
X004632Y015619D01*
X004709Y015621D01*
X004709Y015620D02*
X021245Y015620D01*
X020615Y014046D02*
X020617Y014096D01*
X020623Y014146D01*
X020633Y014195D01*
X020647Y014243D01*
X020664Y014290D01*
X020685Y014335D01*
X020710Y014379D01*
X020738Y014420D01*
X020770Y014459D01*
X020804Y014496D01*
X020841Y014530D01*
X020881Y014560D01*
X020923Y014587D01*
X020967Y014611D01*
X021013Y014632D01*
X021060Y014648D01*
X021108Y014661D01*
X021158Y014670D01*
X021207Y014675D01*
X021258Y014676D01*
X021308Y014673D01*
X021357Y014666D01*
X021406Y014655D01*
X021454Y014640D01*
X021500Y014622D01*
X021545Y014600D01*
X021588Y014574D01*
X021629Y014545D01*
X021668Y014513D01*
X021704Y014478D01*
X021736Y014440D01*
X021766Y014400D01*
X021793Y014357D01*
X021816Y014313D01*
X021835Y014267D01*
X021851Y014219D01*
X021863Y014170D01*
X021871Y014121D01*
X021875Y014071D01*
X021875Y014021D01*
X021871Y013971D01*
X021863Y013922D01*
X021851Y013873D01*
X021835Y013825D01*
X021816Y013779D01*
X021793Y013735D01*
X021766Y013692D01*
X021736Y013652D01*
X021704Y013614D01*
X021668Y013579D01*
X021629Y013547D01*
X021588Y013518D01*
X021545Y013492D01*
X021500Y013470D01*
X021454Y013452D01*
X021406Y013437D01*
X021357Y013426D01*
X021308Y013419D01*
X021258Y013416D01*
X021207Y013417D01*
X021158Y013422D01*
X021108Y013431D01*
X021060Y013444D01*
X021013Y013460D01*
X020967Y013481D01*
X020923Y013505D01*
X020881Y013532D01*
X020841Y013562D01*
X020804Y013596D01*
X020770Y013633D01*
X020738Y013672D01*
X020710Y013713D01*
X020685Y013757D01*
X020664Y013802D01*
X020647Y013849D01*
X020633Y013897D01*
X020623Y013946D01*
X020617Y013996D01*
X020615Y014046D01*
X021245Y015621D02*
X021322Y015619D01*
X021399Y015613D01*
X021476Y015604D01*
X021552Y015591D01*
X021628Y015574D01*
X021702Y015553D01*
X021776Y015529D01*
X021848Y015501D01*
X021918Y015470D01*
X021987Y015435D01*
X022055Y015397D01*
X022120Y015356D01*
X022183Y015311D01*
X022244Y015263D01*
X022303Y015213D01*
X022359Y015160D01*
X022412Y015104D01*
X022462Y015045D01*
X022510Y014984D01*
X022555Y014921D01*
X022596Y014856D01*
X022634Y014788D01*
X022669Y014719D01*
X022700Y014649D01*
X022728Y014577D01*
X022752Y014503D01*
X022773Y014429D01*
X022790Y014353D01*
X022803Y014277D01*
X022812Y014200D01*
X022818Y014123D01*
X022820Y014046D01*
X022820Y004990D01*
X020615Y004990D02*
X020617Y005040D01*
X020623Y005090D01*
X020633Y005139D01*
X020647Y005187D01*
X020664Y005234D01*
X020685Y005279D01*
X020710Y005323D01*
X020738Y005364D01*
X020770Y005403D01*
X020804Y005440D01*
X020841Y005474D01*
X020881Y005504D01*
X020923Y005531D01*
X020967Y005555D01*
X021013Y005576D01*
X021060Y005592D01*
X021108Y005605D01*
X021158Y005614D01*
X021207Y005619D01*
X021258Y005620D01*
X021308Y005617D01*
X021357Y005610D01*
X021406Y005599D01*
X021454Y005584D01*
X021500Y005566D01*
X021545Y005544D01*
X021588Y005518D01*
X021629Y005489D01*
X021668Y005457D01*
X021704Y005422D01*
X021736Y005384D01*
X021766Y005344D01*
X021793Y005301D01*
X021816Y005257D01*
X021835Y005211D01*
X021851Y005163D01*
X021863Y005114D01*
X021871Y005065D01*
X021875Y005015D01*
X021875Y004965D01*
X021871Y004915D01*
X021863Y004866D01*
X021851Y004817D01*
X021835Y004769D01*
X021816Y004723D01*
X021793Y004679D01*
X021766Y004636D01*
X021736Y004596D01*
X021704Y004558D01*
X021668Y004523D01*
X021629Y004491D01*
X021588Y004462D01*
X021545Y004436D01*
X021500Y004414D01*
X021454Y004396D01*
X021406Y004381D01*
X021357Y004370D01*
X021308Y004363D01*
X021258Y004360D01*
X021207Y004361D01*
X021158Y004366D01*
X021108Y004375D01*
X021060Y004388D01*
X021013Y004404D01*
X020967Y004425D01*
X020923Y004449D01*
X020881Y004476D01*
X020841Y004506D01*
X020804Y004540D01*
X020770Y004577D01*
X020738Y004616D01*
X020710Y004657D01*
X020685Y004701D01*
X020664Y004746D01*
X020647Y004793D01*
X020633Y004841D01*
X020623Y004890D01*
X020617Y004940D01*
X020615Y004990D01*
X021245Y003415D02*
X021322Y003417D01*
X021399Y003423D01*
X021476Y003432D01*
X021552Y003445D01*
X021628Y003462D01*
X021702Y003483D01*
X021776Y003507D01*
X021848Y003535D01*
X021918Y003566D01*
X021987Y003601D01*
X022055Y003639D01*
X022120Y003680D01*
X022183Y003725D01*
X022244Y003773D01*
X022303Y003823D01*
X022359Y003876D01*
X022412Y003932D01*
X022462Y003991D01*
X022510Y004052D01*
X022555Y004115D01*
X022596Y004180D01*
X022634Y004248D01*
X022669Y004317D01*
X022700Y004387D01*
X022728Y004459D01*
X022752Y004533D01*
X022773Y004607D01*
X022790Y004683D01*
X022803Y004759D01*
X022812Y004836D01*
X022818Y004913D01*
X022820Y004990D01*
D188*
X011321Y006044D02*
X011130Y006024D01*
X011110Y005960D01*
X011079Y005900D01*
X011200Y005752D01*
X011098Y005650D01*
X010950Y005771D01*
X010890Y005740D01*
X010805Y005945D01*
X010843Y005966D01*
X010875Y005996D01*
X010899Y006032D01*
X010914Y006073D01*
X010919Y006116D01*
X010914Y006159D01*
X010898Y006201D01*
X010873Y006237D01*
X010841Y006267D01*
X010802Y006288D01*
X010759Y006299D01*
X010715Y006299D01*
X010672Y006289D01*
X010632Y006269D01*
X010599Y006240D01*
X010573Y006204D01*
X010556Y006163D01*
X010550Y006120D01*
X010555Y006076D01*
X010569Y006034D01*
X010593Y005997D01*
X010626Y005967D01*
X010664Y005945D01*
X010579Y005740D01*
X010519Y005771D01*
X010371Y005650D01*
X010269Y005752D01*
X010390Y005900D01*
X010360Y005960D01*
X010339Y006024D01*
X010149Y006044D01*
X010149Y006188D01*
X010339Y006207D01*
X010360Y006271D01*
X010390Y006331D01*
X010269Y006479D01*
X010371Y006581D01*
X010519Y006460D01*
X010579Y006491D01*
X010643Y006511D01*
X010663Y006702D01*
X010807Y006702D01*
X010826Y006511D01*
X010890Y006491D01*
X010950Y006460D01*
X011098Y006581D01*
X011200Y006479D01*
X011079Y006331D01*
X011110Y006271D01*
X011130Y006207D01*
X011321Y006188D01*
X011321Y006044D01*
X011321Y006063D02*
X010911Y006063D01*
X010919Y006121D02*
X011321Y006121D01*
X011321Y006178D02*
X010907Y006178D01*
X010874Y006236D02*
X011121Y006236D01*
X011098Y006293D02*
X010779Y006293D01*
X010690Y006293D02*
X010371Y006293D01*
X010374Y006351D02*
X011095Y006351D01*
X011142Y006408D02*
X010327Y006408D01*
X010280Y006466D02*
X010512Y006466D01*
X010531Y006466D02*
X010938Y006466D01*
X010957Y006466D02*
X011189Y006466D01*
X011156Y006524D02*
X011028Y006524D01*
X010825Y006524D02*
X010645Y006524D01*
X010650Y006581D02*
X010819Y006581D01*
X010813Y006639D02*
X010656Y006639D01*
X010662Y006696D02*
X010807Y006696D01*
X010441Y006524D02*
X010314Y006524D01*
X010348Y006236D02*
X010595Y006236D01*
X010562Y006178D02*
X010149Y006178D01*
X010149Y006121D02*
X010550Y006121D01*
X010559Y006063D02*
X010149Y006063D01*
X010345Y006006D02*
X010588Y006006D01*
X010659Y005948D02*
X010366Y005948D01*
X010382Y005890D02*
X010641Y005890D01*
X010618Y005833D02*
X010335Y005833D01*
X010288Y005775D02*
X010594Y005775D01*
X010454Y005718D02*
X010303Y005718D01*
X010361Y005660D02*
X010383Y005660D01*
X010852Y005833D02*
X011134Y005833D01*
X011087Y005890D02*
X010828Y005890D01*
X010811Y005948D02*
X011103Y005948D01*
X011124Y006006D02*
X010882Y006006D01*
X010876Y005775D02*
X011181Y005775D01*
X011166Y005718D02*
X011015Y005718D01*
X011086Y005660D02*
X011108Y005660D01*
M02*
