G75*
G70*
%OFA0B0*%
%FSLAX24Y24*%
%IPPOS*%
%LPD*%
%AMOC8*
5,1,8,0,0,1.08239X$1,22.5*
%
%ADD10C,0.0740*%
%ADD11OC8,0.0480*%
%ADD12C,0.0937*%
%ADD13C,0.0768*%
%ADD14C,0.0000*%
%ADD15C,0.0160*%
%ADD16C,0.0860*%
%ADD17R,0.0356X0.0356*%
%ADD18C,0.1000*%
D10*
X016709Y004538D03*
X016709Y007538D03*
X016709Y011400D03*
X017824Y011400D03*
X018891Y011400D03*
X018891Y014400D03*
X017824Y014400D03*
X016709Y014400D03*
D11*
X017528Y010150D03*
X017028Y009400D03*
X018028Y009400D03*
X018406Y005325D03*
X019406Y005325D03*
D12*
X020656Y007552D02*
X021593Y007552D01*
X021593Y009521D02*
X020656Y009521D01*
X020656Y011489D02*
X021593Y011489D01*
X005284Y011486D02*
X004347Y011486D01*
X004347Y009518D02*
X005284Y009518D01*
X005284Y007549D02*
X004347Y007549D01*
D13*
X008843Y007156D03*
X013646Y007156D03*
X014434Y009518D03*
X013646Y011880D03*
X008843Y011880D03*
D14*
X004709Y003416D02*
X021245Y003416D01*
X020615Y004990D02*
X020617Y005040D01*
X020623Y005090D01*
X020633Y005139D01*
X020647Y005187D01*
X020664Y005234D01*
X020685Y005279D01*
X020710Y005323D01*
X020738Y005364D01*
X020770Y005403D01*
X020804Y005440D01*
X020841Y005474D01*
X020881Y005504D01*
X020923Y005531D01*
X020967Y005555D01*
X021013Y005576D01*
X021060Y005592D01*
X021108Y005605D01*
X021158Y005614D01*
X021207Y005619D01*
X021258Y005620D01*
X021308Y005617D01*
X021357Y005610D01*
X021406Y005599D01*
X021454Y005584D01*
X021500Y005566D01*
X021545Y005544D01*
X021588Y005518D01*
X021629Y005489D01*
X021668Y005457D01*
X021704Y005422D01*
X021736Y005384D01*
X021766Y005344D01*
X021793Y005301D01*
X021816Y005257D01*
X021835Y005211D01*
X021851Y005163D01*
X021863Y005114D01*
X021871Y005065D01*
X021875Y005015D01*
X021875Y004965D01*
X021871Y004915D01*
X021863Y004866D01*
X021851Y004817D01*
X021835Y004769D01*
X021816Y004723D01*
X021793Y004679D01*
X021766Y004636D01*
X021736Y004596D01*
X021704Y004558D01*
X021668Y004523D01*
X021629Y004491D01*
X021588Y004462D01*
X021545Y004436D01*
X021500Y004414D01*
X021454Y004396D01*
X021406Y004381D01*
X021357Y004370D01*
X021308Y004363D01*
X021258Y004360D01*
X021207Y004361D01*
X021158Y004366D01*
X021108Y004375D01*
X021060Y004388D01*
X021013Y004404D01*
X020967Y004425D01*
X020923Y004449D01*
X020881Y004476D01*
X020841Y004506D01*
X020804Y004540D01*
X020770Y004577D01*
X020738Y004616D01*
X020710Y004657D01*
X020685Y004701D01*
X020664Y004746D01*
X020647Y004793D01*
X020633Y004841D01*
X020623Y004890D01*
X020617Y004940D01*
X020615Y004990D01*
X021245Y003415D02*
X021322Y003417D01*
X021399Y003423D01*
X021476Y003432D01*
X021552Y003445D01*
X021628Y003462D01*
X021702Y003483D01*
X021776Y003507D01*
X021848Y003535D01*
X021918Y003566D01*
X021987Y003601D01*
X022055Y003639D01*
X022120Y003680D01*
X022183Y003725D01*
X022244Y003773D01*
X022303Y003823D01*
X022359Y003876D01*
X022412Y003932D01*
X022462Y003991D01*
X022510Y004052D01*
X022555Y004115D01*
X022596Y004180D01*
X022634Y004248D01*
X022669Y004317D01*
X022700Y004387D01*
X022728Y004459D01*
X022752Y004533D01*
X022773Y004607D01*
X022790Y004683D01*
X022803Y004759D01*
X022812Y004836D01*
X022818Y004913D01*
X022820Y004990D01*
X022820Y014046D01*
X020615Y014046D02*
X020617Y014096D01*
X020623Y014146D01*
X020633Y014195D01*
X020647Y014243D01*
X020664Y014290D01*
X020685Y014335D01*
X020710Y014379D01*
X020738Y014420D01*
X020770Y014459D01*
X020804Y014496D01*
X020841Y014530D01*
X020881Y014560D01*
X020923Y014587D01*
X020967Y014611D01*
X021013Y014632D01*
X021060Y014648D01*
X021108Y014661D01*
X021158Y014670D01*
X021207Y014675D01*
X021258Y014676D01*
X021308Y014673D01*
X021357Y014666D01*
X021406Y014655D01*
X021454Y014640D01*
X021500Y014622D01*
X021545Y014600D01*
X021588Y014574D01*
X021629Y014545D01*
X021668Y014513D01*
X021704Y014478D01*
X021736Y014440D01*
X021766Y014400D01*
X021793Y014357D01*
X021816Y014313D01*
X021835Y014267D01*
X021851Y014219D01*
X021863Y014170D01*
X021871Y014121D01*
X021875Y014071D01*
X021875Y014021D01*
X021871Y013971D01*
X021863Y013922D01*
X021851Y013873D01*
X021835Y013825D01*
X021816Y013779D01*
X021793Y013735D01*
X021766Y013692D01*
X021736Y013652D01*
X021704Y013614D01*
X021668Y013579D01*
X021629Y013547D01*
X021588Y013518D01*
X021545Y013492D01*
X021500Y013470D01*
X021454Y013452D01*
X021406Y013437D01*
X021357Y013426D01*
X021308Y013419D01*
X021258Y013416D01*
X021207Y013417D01*
X021158Y013422D01*
X021108Y013431D01*
X021060Y013444D01*
X021013Y013460D01*
X020967Y013481D01*
X020923Y013505D01*
X020881Y013532D01*
X020841Y013562D01*
X020804Y013596D01*
X020770Y013633D01*
X020738Y013672D01*
X020710Y013713D01*
X020685Y013757D01*
X020664Y013802D01*
X020647Y013849D01*
X020633Y013897D01*
X020623Y013946D01*
X020617Y013996D01*
X020615Y014046D01*
X021245Y015621D02*
X021322Y015619D01*
X021399Y015613D01*
X021476Y015604D01*
X021552Y015591D01*
X021628Y015574D01*
X021702Y015553D01*
X021776Y015529D01*
X021848Y015501D01*
X021918Y015470D01*
X021987Y015435D01*
X022055Y015397D01*
X022120Y015356D01*
X022183Y015311D01*
X022244Y015263D01*
X022303Y015213D01*
X022359Y015160D01*
X022412Y015104D01*
X022462Y015045D01*
X022510Y014984D01*
X022555Y014921D01*
X022596Y014856D01*
X022634Y014788D01*
X022669Y014719D01*
X022700Y014649D01*
X022728Y014577D01*
X022752Y014503D01*
X022773Y014429D01*
X022790Y014353D01*
X022803Y014277D01*
X022812Y014200D01*
X022818Y014123D01*
X022820Y014046D01*
X021245Y015620D02*
X004709Y015620D01*
X004079Y014046D02*
X004081Y014096D01*
X004087Y014146D01*
X004097Y014195D01*
X004111Y014243D01*
X004128Y014290D01*
X004149Y014335D01*
X004174Y014379D01*
X004202Y014420D01*
X004234Y014459D01*
X004268Y014496D01*
X004305Y014530D01*
X004345Y014560D01*
X004387Y014587D01*
X004431Y014611D01*
X004477Y014632D01*
X004524Y014648D01*
X004572Y014661D01*
X004622Y014670D01*
X004671Y014675D01*
X004722Y014676D01*
X004772Y014673D01*
X004821Y014666D01*
X004870Y014655D01*
X004918Y014640D01*
X004964Y014622D01*
X005009Y014600D01*
X005052Y014574D01*
X005093Y014545D01*
X005132Y014513D01*
X005168Y014478D01*
X005200Y014440D01*
X005230Y014400D01*
X005257Y014357D01*
X005280Y014313D01*
X005299Y014267D01*
X005315Y014219D01*
X005327Y014170D01*
X005335Y014121D01*
X005339Y014071D01*
X005339Y014021D01*
X005335Y013971D01*
X005327Y013922D01*
X005315Y013873D01*
X005299Y013825D01*
X005280Y013779D01*
X005257Y013735D01*
X005230Y013692D01*
X005200Y013652D01*
X005168Y013614D01*
X005132Y013579D01*
X005093Y013547D01*
X005052Y013518D01*
X005009Y013492D01*
X004964Y013470D01*
X004918Y013452D01*
X004870Y013437D01*
X004821Y013426D01*
X004772Y013419D01*
X004722Y013416D01*
X004671Y013417D01*
X004622Y013422D01*
X004572Y013431D01*
X004524Y013444D01*
X004477Y013460D01*
X004431Y013481D01*
X004387Y013505D01*
X004345Y013532D01*
X004305Y013562D01*
X004268Y013596D01*
X004234Y013633D01*
X004202Y013672D01*
X004174Y013713D01*
X004149Y013757D01*
X004128Y013802D01*
X004111Y013849D01*
X004097Y013897D01*
X004087Y013946D01*
X004081Y013996D01*
X004079Y014046D01*
X003134Y014046D02*
X003136Y014123D01*
X003142Y014200D01*
X003151Y014277D01*
X003164Y014353D01*
X003181Y014429D01*
X003202Y014503D01*
X003226Y014577D01*
X003254Y014649D01*
X003285Y014719D01*
X003320Y014788D01*
X003358Y014856D01*
X003399Y014921D01*
X003444Y014984D01*
X003492Y015045D01*
X003542Y015104D01*
X003595Y015160D01*
X003651Y015213D01*
X003710Y015263D01*
X003771Y015311D01*
X003834Y015356D01*
X003899Y015397D01*
X003967Y015435D01*
X004036Y015470D01*
X004106Y015501D01*
X004178Y015529D01*
X004252Y015553D01*
X004326Y015574D01*
X004402Y015591D01*
X004478Y015604D01*
X004555Y015613D01*
X004632Y015619D01*
X004709Y015621D01*
X003135Y014046D02*
X003135Y004990D01*
X004079Y004990D02*
X004081Y005040D01*
X004087Y005090D01*
X004097Y005139D01*
X004111Y005187D01*
X004128Y005234D01*
X004149Y005279D01*
X004174Y005323D01*
X004202Y005364D01*
X004234Y005403D01*
X004268Y005440D01*
X004305Y005474D01*
X004345Y005504D01*
X004387Y005531D01*
X004431Y005555D01*
X004477Y005576D01*
X004524Y005592D01*
X004572Y005605D01*
X004622Y005614D01*
X004671Y005619D01*
X004722Y005620D01*
X004772Y005617D01*
X004821Y005610D01*
X004870Y005599D01*
X004918Y005584D01*
X004964Y005566D01*
X005009Y005544D01*
X005052Y005518D01*
X005093Y005489D01*
X005132Y005457D01*
X005168Y005422D01*
X005200Y005384D01*
X005230Y005344D01*
X005257Y005301D01*
X005280Y005257D01*
X005299Y005211D01*
X005315Y005163D01*
X005327Y005114D01*
X005335Y005065D01*
X005339Y005015D01*
X005339Y004965D01*
X005335Y004915D01*
X005327Y004866D01*
X005315Y004817D01*
X005299Y004769D01*
X005280Y004723D01*
X005257Y004679D01*
X005230Y004636D01*
X005200Y004596D01*
X005168Y004558D01*
X005132Y004523D01*
X005093Y004491D01*
X005052Y004462D01*
X005009Y004436D01*
X004964Y004414D01*
X004918Y004396D01*
X004870Y004381D01*
X004821Y004370D01*
X004772Y004363D01*
X004722Y004360D01*
X004671Y004361D01*
X004622Y004366D01*
X004572Y004375D01*
X004524Y004388D01*
X004477Y004404D01*
X004431Y004425D01*
X004387Y004449D01*
X004345Y004476D01*
X004305Y004506D01*
X004268Y004540D01*
X004234Y004577D01*
X004202Y004616D01*
X004174Y004657D01*
X004149Y004701D01*
X004128Y004746D01*
X004111Y004793D01*
X004097Y004841D01*
X004087Y004890D01*
X004081Y004940D01*
X004079Y004990D01*
X003134Y004990D02*
X003136Y004913D01*
X003142Y004836D01*
X003151Y004759D01*
X003164Y004683D01*
X003181Y004607D01*
X003202Y004533D01*
X003226Y004459D01*
X003254Y004387D01*
X003285Y004317D01*
X003320Y004248D01*
X003358Y004180D01*
X003399Y004115D01*
X003444Y004052D01*
X003492Y003991D01*
X003542Y003932D01*
X003595Y003876D01*
X003651Y003823D01*
X003710Y003773D01*
X003771Y003725D01*
X003834Y003680D01*
X003899Y003639D01*
X003967Y003601D01*
X004036Y003566D01*
X004106Y003535D01*
X004178Y003507D01*
X004252Y003483D01*
X004326Y003462D01*
X004402Y003445D01*
X004478Y003432D01*
X004555Y003423D01*
X004632Y003417D01*
X004709Y003415D01*
D15*
X018028Y009400D02*
X019035Y009400D01*
X021125Y011489D01*
D16*
X014434Y009518D02*
X014434Y009518D01*
X004815Y009518D01*
X004815Y011486D02*
X005497Y011486D01*
X005891Y011880D01*
X007072Y011880D01*
X008843Y011880D01*
X005497Y007549D02*
X004815Y007549D01*
X005497Y007549D02*
X005891Y007156D01*
X007072Y007156D01*
X008843Y007156D01*
D17*
X007072Y007156D03*
X010221Y009518D03*
X011796Y009518D03*
X007072Y011880D03*
D18*
X010221Y009518D02*
X011796Y009518D01*
M02*
