G75*
G70*
%OFA0B0*%
%FSLAX24Y24*%
%IPPOS*%
%LPD*%
%AMOC8*
5,1,8,0,0,1.08239X$1,22.5*
%
%ADD10C,0.0060*%
%ADD11C,0.0090*%
%ADD12C,0.0080*%
%ADD13C,0.0320*%
%ADD14C,0.0100*%
%ADD15C,0.0050*%
%ADD16C,0.0030*%
%ADD17C,0.0000*%
D10*
X003516Y006565D02*
X003516Y012471D01*
X003807Y012471D01*
X003807Y006565D01*
X003516Y006565D01*
X003807Y006565D02*
X005788Y006565D01*
X005788Y012471D01*
X005841Y012471D01*
X006073Y012471D01*
X006469Y012471D01*
X006469Y006565D01*
X005788Y006565D01*
X005788Y012471D02*
X003807Y012471D01*
X018899Y010091D02*
X019240Y010091D01*
X019240Y010318D01*
X019240Y009950D02*
X019126Y009836D01*
X019126Y009893D02*
X019126Y009723D01*
X019240Y009723D02*
X018899Y009723D01*
X018899Y009893D01*
X018956Y009950D01*
X019070Y009950D01*
X019126Y009893D01*
X018899Y009581D02*
X018899Y009354D01*
X018899Y009468D02*
X019240Y009468D01*
X019183Y009213D02*
X019240Y009156D01*
X019240Y009043D01*
X019183Y008986D01*
X018956Y008986D01*
X018899Y009043D01*
X018899Y009156D01*
X018956Y009213D01*
X018968Y008059D02*
X018911Y008002D01*
X018911Y007889D01*
X018968Y007832D01*
X019195Y007832D01*
X019251Y007889D01*
X019251Y008002D01*
X019195Y008059D01*
X019195Y007691D02*
X019251Y007634D01*
X019251Y007521D01*
X019195Y007464D01*
X018968Y007464D01*
X018911Y007521D01*
X018911Y007634D01*
X018968Y007691D01*
X018911Y007322D02*
X019138Y007322D01*
X019251Y007209D01*
X019138Y007096D01*
X018911Y007096D01*
X019471Y006568D02*
X019867Y006568D01*
X020099Y006568D01*
X020153Y006568D01*
X020153Y012474D01*
X022133Y012474D01*
X022133Y006568D01*
X020153Y006568D01*
X019471Y006568D02*
X019471Y012474D01*
X020153Y012474D01*
X020092Y012761D02*
X020092Y013101D01*
X020233Y013101D02*
X020403Y013101D01*
X020460Y013045D01*
X020460Y012818D01*
X020403Y012761D01*
X020233Y012761D01*
X020233Y013101D01*
X019865Y013101D02*
X020092Y012761D01*
X019865Y012761D02*
X019865Y013101D01*
X019723Y013045D02*
X019667Y013101D01*
X019553Y013101D01*
X019497Y013045D01*
X019497Y012818D01*
X019553Y012761D01*
X019667Y012761D01*
X019723Y012818D01*
X019723Y012931D01*
X019610Y012931D01*
X022133Y012474D02*
X022424Y012474D01*
X022424Y006568D01*
X022133Y006568D01*
X018906Y004725D02*
X018859Y004727D01*
X018811Y004733D01*
X018765Y004742D01*
X018719Y004755D01*
X018675Y004771D01*
X018631Y004792D01*
X018590Y004815D01*
X018551Y004841D01*
X018514Y004871D01*
X018479Y004904D01*
X018447Y004939D01*
X018418Y004976D01*
X018906Y005925D02*
X018951Y005923D01*
X018997Y005918D01*
X019041Y005910D01*
X019085Y005898D01*
X019128Y005882D01*
X019170Y005864D01*
X019210Y005842D01*
X019248Y005818D01*
X019284Y005791D01*
X019319Y005761D01*
X019350Y005728D01*
X019380Y005693D01*
X018906Y005925D02*
X018861Y005923D01*
X018815Y005918D01*
X018771Y005910D01*
X018727Y005898D01*
X018684Y005882D01*
X018642Y005864D01*
X018602Y005842D01*
X018564Y005818D01*
X018528Y005791D01*
X018493Y005761D01*
X018462Y005728D01*
X018432Y005693D01*
X018906Y004725D02*
X018952Y004727D01*
X018998Y004732D01*
X019044Y004741D01*
X019089Y004753D01*
X019132Y004769D01*
X019174Y004788D01*
X019215Y004811D01*
X019254Y004836D01*
X019290Y004864D01*
X019325Y004895D01*
X019357Y004929D01*
X019386Y004965D01*
D11*
X013838Y004645D02*
X013667Y004645D01*
X013752Y004645D02*
X013752Y005155D01*
X013667Y005155D01*
X013455Y004900D02*
X013370Y004985D01*
X013200Y004985D01*
X013115Y004900D01*
X013115Y004730D01*
X013200Y004645D01*
X013370Y004645D01*
X013455Y004730D01*
X013455Y004900D01*
X012910Y004985D02*
X012825Y004985D01*
X012655Y004815D01*
X012655Y004645D02*
X012655Y004985D01*
X012456Y004985D02*
X012286Y004985D01*
X012371Y005070D02*
X012371Y004730D01*
X012456Y004645D01*
X012074Y004645D02*
X012074Y004900D01*
X011989Y004985D01*
X011734Y004985D01*
X011734Y004645D01*
X011522Y004730D02*
X011522Y004900D01*
X011437Y004985D01*
X011266Y004985D01*
X011181Y004900D01*
X011181Y004730D01*
X011266Y004645D01*
X011437Y004645D01*
X011522Y004730D01*
X010969Y004730D02*
X010884Y004645D01*
X010714Y004645D01*
X010629Y004730D01*
X010629Y005070D01*
X010714Y005155D01*
X010884Y005155D01*
X010969Y005070D01*
X009864Y004985D02*
X009864Y004560D01*
X009779Y004475D01*
X009694Y004475D01*
X009609Y004645D02*
X009864Y004645D01*
X009609Y004645D02*
X009524Y004730D01*
X009524Y004985D01*
X009312Y004900D02*
X009312Y004645D01*
X009056Y004645D01*
X008971Y004730D01*
X009056Y004815D01*
X009312Y004815D01*
X009312Y004900D02*
X009227Y004985D01*
X009056Y004985D01*
X008688Y005155D02*
X008688Y004645D01*
X008603Y004645D02*
X008773Y004645D01*
X008391Y004815D02*
X008051Y004815D01*
X008051Y004730D02*
X008051Y004900D01*
X008136Y004985D01*
X008306Y004985D01*
X008391Y004900D01*
X008391Y004815D01*
X008306Y004645D02*
X008136Y004645D01*
X008051Y004730D01*
X007838Y004645D02*
X007668Y004815D01*
X007753Y004815D02*
X007498Y004815D01*
X007498Y004645D02*
X007498Y005155D01*
X007753Y005155D01*
X007838Y005070D01*
X007838Y004900D01*
X007753Y004815D01*
X008603Y005155D02*
X008688Y005155D01*
X007883Y007206D02*
X007373Y007206D01*
X007883Y007546D01*
X007373Y007546D01*
X007458Y007759D02*
X007798Y007759D01*
X007883Y007844D01*
X007883Y008014D01*
X007798Y008099D01*
X007458Y008099D02*
X007373Y008014D01*
X007373Y007844D01*
X007458Y007759D01*
X007458Y009333D02*
X007798Y009333D01*
X007883Y009418D01*
X007883Y009589D01*
X007798Y009674D01*
X007458Y009674D02*
X007373Y009589D01*
X007373Y009418D01*
X007458Y009333D01*
X007373Y011143D02*
X007883Y011483D01*
X007373Y011483D01*
X007458Y011696D02*
X007798Y011696D01*
X007883Y011781D01*
X007883Y011951D01*
X007798Y012036D01*
X007458Y012036D01*
X007373Y011951D01*
X007373Y011781D01*
X007458Y011696D01*
X007373Y011143D02*
X007883Y011143D01*
X007904Y013106D02*
X007904Y013617D01*
X008244Y013617D02*
X008244Y013106D01*
X008457Y013106D02*
X008627Y013106D01*
X008542Y013106D02*
X008542Y013617D01*
X008457Y013617D02*
X008627Y013617D01*
X008825Y013532D02*
X008825Y013191D01*
X008910Y013106D01*
X009080Y013106D01*
X009165Y013191D01*
X009165Y013362D01*
X008995Y013362D01*
X009165Y013532D02*
X009080Y013617D01*
X008910Y013617D01*
X008825Y013532D01*
X009377Y013617D02*
X009377Y013106D01*
X009377Y013362D02*
X009718Y013362D01*
X009718Y013617D02*
X009718Y013106D01*
X010482Y013276D02*
X010482Y013617D01*
X010823Y013617D02*
X010823Y013276D01*
X010652Y013106D01*
X010482Y013276D01*
X011035Y013191D02*
X011120Y013106D01*
X011290Y013106D01*
X011375Y013191D01*
X011375Y013532D01*
X011290Y013617D01*
X011120Y013617D01*
X011035Y013532D01*
X011035Y013191D01*
X011587Y013106D02*
X011927Y013106D01*
X011587Y013106D02*
X011587Y013617D01*
X012140Y013617D02*
X012480Y013617D01*
X012310Y013617D02*
X012310Y013106D01*
X012692Y013106D02*
X012692Y013447D01*
X012862Y013617D01*
X013032Y013447D01*
X013032Y013106D01*
X013245Y013191D02*
X013330Y013106D01*
X013500Y013106D01*
X013585Y013191D01*
X013585Y013362D01*
X013415Y013362D01*
X013585Y013532D02*
X013500Y013617D01*
X013330Y013617D01*
X013245Y013532D01*
X013245Y013191D01*
X013032Y013362D02*
X012692Y013362D01*
X013797Y013362D02*
X013967Y013362D01*
X013797Y013617D02*
X013797Y013106D01*
X014137Y013106D01*
X014137Y013617D02*
X013797Y013617D01*
X012582Y014287D02*
X012411Y014458D01*
X012496Y014458D02*
X012241Y014458D01*
X012241Y014287D02*
X012241Y014798D01*
X012496Y014798D01*
X012582Y014713D01*
X012582Y014543D01*
X012496Y014458D01*
X012029Y014287D02*
X011689Y014287D01*
X011689Y014798D01*
X012029Y014798D01*
X011859Y014543D02*
X011689Y014543D01*
X011477Y014543D02*
X011477Y014372D01*
X011391Y014287D01*
X011221Y014287D01*
X011136Y014372D01*
X011136Y014713D01*
X011221Y014798D01*
X011391Y014798D01*
X011477Y014713D01*
X011477Y014543D02*
X011306Y014543D01*
X010924Y014287D02*
X010924Y014798D01*
X010584Y014798D02*
X010924Y014287D01*
X010584Y014287D02*
X010584Y014798D01*
X010372Y014628D02*
X010372Y014287D01*
X010372Y014543D02*
X010031Y014543D01*
X010031Y014628D02*
X010031Y014287D01*
X009819Y014372D02*
X009819Y014713D01*
X009734Y014798D01*
X009479Y014798D01*
X009479Y014287D01*
X009734Y014287D01*
X009819Y014372D01*
X010031Y014628D02*
X010201Y014798D01*
X010372Y014628D01*
X008244Y013362D02*
X007904Y013362D01*
D12*
X006957Y012628D02*
X015060Y012628D01*
X015089Y012626D01*
X015117Y012621D01*
X015145Y012612D01*
X015172Y012601D01*
X015196Y012586D01*
X015219Y012568D01*
X015240Y012547D01*
X015258Y012524D01*
X015273Y012500D01*
X015284Y012473D01*
X015293Y012445D01*
X015298Y012417D01*
X015300Y012388D01*
X015300Y006648D01*
X015298Y006619D01*
X015293Y006591D01*
X015284Y006563D01*
X015273Y006536D01*
X015258Y006512D01*
X015240Y006489D01*
X015219Y006468D01*
X015196Y006450D01*
X015172Y006435D01*
X015145Y006424D01*
X015117Y006415D01*
X015089Y006410D01*
X015060Y006408D01*
X006957Y006408D01*
X006928Y006410D01*
X006900Y006415D01*
X006872Y006424D01*
X006845Y006435D01*
X006821Y006450D01*
X006798Y006468D01*
X006777Y006489D01*
X006759Y006512D01*
X006744Y006536D01*
X006733Y006563D01*
X006724Y006591D01*
X006719Y006619D01*
X006717Y006648D01*
X006717Y012388D01*
X006719Y012417D01*
X006724Y012445D01*
X006733Y012473D01*
X006744Y012500D01*
X006759Y012524D01*
X006777Y012547D01*
X006798Y012568D01*
X006821Y012586D01*
X006845Y012601D01*
X006872Y012612D01*
X006900Y012621D01*
X006928Y012626D01*
X006957Y012628D01*
X010760Y011554D02*
X010760Y011344D01*
X011180Y011344D01*
X011180Y011554D01*
X011110Y011624D01*
X010830Y011624D01*
X010760Y011554D01*
X010830Y011163D02*
X010760Y011093D01*
X010760Y010883D01*
X011180Y010883D01*
X011040Y010883D02*
X011040Y011093D01*
X010970Y011163D01*
X010830Y011163D01*
X011040Y011023D02*
X011180Y011163D01*
X011110Y010703D02*
X011040Y010703D01*
X010970Y010633D01*
X010970Y010493D01*
X010900Y010423D01*
X010830Y010423D01*
X010760Y010493D01*
X010760Y010633D01*
X010830Y010703D01*
X011110Y010703D02*
X011180Y010633D01*
X011180Y010493D01*
X011110Y010423D01*
X011040Y009782D02*
X011040Y009502D01*
X010970Y009502D02*
X010900Y009572D01*
X010900Y009712D01*
X010970Y009782D01*
X011040Y009782D01*
X011180Y009712D02*
X011180Y009572D01*
X011110Y009502D01*
X010970Y009502D01*
X011180Y009335D02*
X011180Y009195D01*
X011180Y009265D02*
X010760Y009265D01*
X010760Y009195D01*
X010900Y009015D02*
X010900Y008805D01*
X010970Y008735D01*
X011110Y008735D01*
X011180Y008805D01*
X011180Y009015D01*
X011251Y009015D02*
X010900Y009015D01*
X011251Y009015D02*
X011321Y008945D01*
X011321Y008875D01*
X011180Y008555D02*
X010970Y008555D01*
X010900Y008484D01*
X010900Y008274D01*
X011180Y008274D01*
X011110Y008094D02*
X010970Y008094D01*
X010900Y008024D01*
X010900Y007884D01*
X010970Y007814D01*
X011110Y007814D01*
X011180Y007884D01*
X011180Y008024D01*
X011110Y008094D01*
X011110Y007634D02*
X011040Y007634D01*
X010970Y007564D01*
X010970Y007424D01*
X010900Y007354D01*
X010830Y007354D01*
X010760Y007424D01*
X010760Y007564D01*
X010830Y007634D01*
X011110Y007634D02*
X011180Y007564D01*
X011180Y007424D01*
X011110Y007354D01*
X016409Y007038D02*
X016409Y005038D01*
X016709Y005038D01*
X016709Y004938D01*
X016709Y005038D02*
X017009Y005038D01*
X017009Y007038D01*
X016709Y007038D01*
X016709Y007138D01*
X016709Y007038D02*
X016409Y007038D01*
X016709Y011800D02*
X016709Y011900D01*
X016409Y011900D01*
X016409Y013900D01*
X016709Y013900D01*
X016709Y014000D01*
X016709Y013900D02*
X017009Y013900D01*
X017009Y011900D01*
X016709Y011900D01*
X017524Y011900D02*
X017824Y011900D01*
X017824Y011800D01*
X017824Y011900D02*
X018124Y011900D01*
X018124Y013900D01*
X017824Y013900D01*
X017824Y014000D01*
X017824Y013900D02*
X017524Y013900D01*
X017524Y011900D01*
X018591Y011900D02*
X018891Y011900D01*
X018891Y011800D01*
X018891Y011900D02*
X019191Y011900D01*
X019191Y013900D01*
X018891Y013900D01*
X018891Y014000D01*
X018891Y013900D02*
X018591Y013900D01*
X018591Y011900D01*
X016959Y013650D02*
X016459Y013650D01*
D13*
X015930Y013887D02*
X015930Y013187D01*
X015930Y012547D02*
X015930Y011848D01*
X015930Y011208D02*
X015930Y010508D01*
X015930Y009868D02*
X015930Y009168D01*
X015930Y008528D02*
X015930Y007828D01*
X015930Y007188D02*
X015930Y006489D01*
X015930Y005849D02*
X015930Y005149D01*
X015930Y004509D02*
X015930Y003809D01*
X015930Y014527D02*
X015930Y015227D01*
D14*
X013174Y011880D02*
X012780Y011880D01*
X012780Y010699D01*
X012747Y010697D01*
X012714Y010692D01*
X012683Y010682D01*
X012652Y010670D01*
X012623Y010654D01*
X012596Y010635D01*
X012571Y010613D01*
X012549Y010588D01*
X012530Y010561D01*
X012514Y010532D01*
X012502Y010501D01*
X012492Y010470D01*
X012487Y010437D01*
X012485Y010404D01*
X012487Y010371D01*
X012492Y010338D01*
X012502Y010307D01*
X012514Y010276D01*
X012530Y010247D01*
X012549Y010220D01*
X012571Y010195D01*
X012596Y010173D01*
X012623Y010154D01*
X012652Y010138D01*
X012683Y010126D01*
X012714Y010116D01*
X012747Y010111D01*
X012780Y010109D01*
X012780Y010108D02*
X012747Y010106D01*
X012714Y010101D01*
X012683Y010091D01*
X012652Y010079D01*
X012623Y010063D01*
X012596Y010044D01*
X012571Y010022D01*
X012549Y009997D01*
X012530Y009970D01*
X012514Y009941D01*
X012502Y009910D01*
X012492Y009879D01*
X012487Y009846D01*
X012485Y009813D01*
X012487Y009780D01*
X012492Y009747D01*
X012502Y009716D01*
X012514Y009685D01*
X012530Y009656D01*
X012549Y009629D01*
X012571Y009604D01*
X012596Y009582D01*
X012623Y009563D01*
X012652Y009547D01*
X012683Y009535D01*
X012714Y009525D01*
X012747Y009520D01*
X012780Y009518D01*
X012747Y009516D01*
X012714Y009511D01*
X012683Y009501D01*
X012652Y009489D01*
X012623Y009473D01*
X012596Y009454D01*
X012571Y009432D01*
X012549Y009407D01*
X012530Y009380D01*
X012514Y009351D01*
X012502Y009320D01*
X012492Y009289D01*
X012487Y009256D01*
X012485Y009223D01*
X012487Y009190D01*
X012492Y009157D01*
X012502Y009126D01*
X012514Y009095D01*
X012530Y009066D01*
X012549Y009039D01*
X012571Y009014D01*
X012596Y008992D01*
X012623Y008973D01*
X012652Y008957D01*
X012683Y008945D01*
X012714Y008935D01*
X012747Y008930D01*
X012780Y008928D01*
X012780Y008927D02*
X012747Y008925D01*
X012714Y008920D01*
X012683Y008910D01*
X012652Y008898D01*
X012623Y008882D01*
X012596Y008863D01*
X012571Y008841D01*
X012549Y008816D01*
X012530Y008789D01*
X012514Y008760D01*
X012502Y008729D01*
X012492Y008698D01*
X012487Y008665D01*
X012485Y008632D01*
X012487Y008599D01*
X012492Y008566D01*
X012502Y008535D01*
X012514Y008504D01*
X012530Y008475D01*
X012549Y008448D01*
X012571Y008423D01*
X012596Y008401D01*
X012623Y008382D01*
X012652Y008366D01*
X012683Y008354D01*
X012714Y008344D01*
X012747Y008339D01*
X012780Y008337D01*
X012780Y007156D01*
X013174Y007156D01*
X018906Y004525D02*
X018960Y004527D01*
X019014Y004532D01*
X019067Y004541D01*
X019120Y004554D01*
X019171Y004570D01*
X019221Y004590D01*
X019270Y004613D01*
X019318Y004639D01*
X019363Y004668D01*
X019406Y004701D01*
X019447Y004736D01*
X019486Y004774D01*
X019522Y004814D01*
X019555Y004857D01*
X019585Y004902D01*
X019612Y004949D01*
X019601Y005722D02*
X019571Y005770D01*
X019538Y005815D01*
X019502Y005858D01*
X019464Y005899D01*
X019422Y005936D01*
X019378Y005971D01*
X019332Y006002D01*
X019283Y006031D01*
X019233Y006055D01*
X019181Y006076D01*
X019127Y006094D01*
X019073Y006107D01*
X019018Y006117D01*
X018962Y006123D01*
X018906Y006125D01*
X018853Y006123D01*
X018799Y006118D01*
X018747Y006109D01*
X018695Y006097D01*
X018644Y006081D01*
X018594Y006062D01*
X018545Y006039D01*
X018498Y006013D01*
X018453Y005985D01*
X018410Y005953D01*
X018370Y005919D01*
X018331Y005881D01*
X018295Y005842D01*
X018291Y004813D02*
X018327Y004773D01*
X018366Y004735D01*
X018407Y004700D01*
X018450Y004668D01*
X018495Y004638D01*
X018542Y004612D01*
X018591Y004590D01*
X018642Y004570D01*
X018693Y004554D01*
X018745Y004541D01*
X018799Y004532D01*
X018852Y004527D01*
X018906Y004525D01*
D15*
X017948Y004811D02*
X017948Y004992D01*
X017948Y005106D02*
X017678Y005106D01*
X017678Y005286D01*
X017678Y005401D02*
X017678Y005536D01*
X017723Y005581D01*
X017903Y005581D01*
X017948Y005536D01*
X017948Y005401D01*
X017678Y005401D01*
X017813Y005196D02*
X017813Y005106D01*
X017948Y005106D02*
X017948Y005286D01*
X017948Y005695D02*
X017948Y005876D01*
X017948Y005785D02*
X017678Y005785D01*
X017768Y005695D01*
X016854Y005773D02*
X016584Y005773D01*
X016584Y005908D01*
X016629Y005954D01*
X016719Y005954D01*
X016764Y005908D01*
X016764Y005773D01*
X016764Y005863D02*
X016854Y005954D01*
X016719Y006068D02*
X016719Y006248D01*
X016584Y006203D02*
X016719Y006068D01*
X016854Y006203D02*
X016584Y006203D01*
X017678Y004811D02*
X017948Y004811D01*
X018353Y008750D02*
X016704Y008750D01*
X016641Y009300D02*
X016483Y009300D01*
X017416Y009300D02*
X017641Y009300D01*
X016703Y008750D02*
X016668Y008798D01*
X016635Y008848D01*
X016604Y008900D01*
X016577Y008954D01*
X016553Y009009D01*
X016533Y009066D01*
X016515Y009123D01*
X016501Y009181D01*
X016490Y009240D01*
X016483Y009300D01*
X017838Y010403D02*
X017898Y010383D01*
X017957Y010359D01*
X018014Y010331D01*
X018069Y010300D01*
X018123Y010265D01*
X018174Y010228D01*
X018223Y010187D01*
X018269Y010143D01*
X018313Y010097D01*
X018354Y010048D01*
X018392Y009997D01*
X018426Y009944D01*
X018458Y009888D01*
X018485Y009831D01*
X018510Y009772D01*
X018530Y009712D01*
X018548Y009651D01*
X018561Y009589D01*
X018570Y009526D01*
X018576Y009463D01*
X018578Y009399D01*
X018576Y009335D01*
X018570Y009272D01*
X018561Y009209D01*
X018547Y009147D01*
X018530Y009086D01*
X018509Y009026D01*
X018485Y008967D01*
X018457Y008910D01*
X018425Y008854D01*
X018390Y008801D01*
X018353Y008750D01*
X018416Y009300D02*
X018574Y009300D01*
X017218Y010403D02*
X017159Y010383D01*
X017102Y010360D01*
X017045Y010333D01*
X016991Y010302D01*
X016938Y010269D01*
X016888Y010232D01*
X016839Y010193D01*
X016794Y010150D01*
X016750Y010105D01*
X016710Y010058D01*
X016672Y010008D01*
X016637Y009956D01*
X016606Y009902D01*
X016578Y009847D01*
X016553Y009790D01*
X016532Y009731D01*
X016514Y009671D01*
X016499Y009610D01*
X016489Y009549D01*
X016482Y009487D01*
X016478Y009425D01*
X016479Y009362D01*
X016483Y009300D01*
X016564Y012675D02*
X016564Y012810D01*
X016609Y012855D01*
X016789Y012855D01*
X016834Y012810D01*
X016834Y012675D01*
X016564Y012675D01*
X016654Y012970D02*
X016564Y013060D01*
X016834Y013060D01*
X016834Y012970D02*
X016834Y013150D01*
X017678Y013105D02*
X017678Y013015D01*
X017723Y012970D01*
X017723Y012855D02*
X017814Y012855D01*
X017859Y012810D01*
X017859Y012675D01*
X017949Y012675D02*
X017678Y012675D01*
X017678Y012810D01*
X017723Y012855D01*
X017859Y012765D02*
X017949Y012855D01*
X017949Y012970D02*
X017768Y013150D01*
X017723Y013150D01*
X017678Y013105D01*
X017949Y013150D02*
X017949Y012970D01*
X018745Y013060D02*
X018835Y012970D01*
X018790Y012855D02*
X018880Y012855D01*
X018925Y012810D01*
X018925Y012675D01*
X018925Y012765D02*
X019016Y012855D01*
X019016Y012970D02*
X019016Y013150D01*
X019016Y013060D02*
X018745Y013060D01*
X018790Y012855D02*
X018745Y012810D01*
X018745Y012675D01*
X019016Y012675D01*
X022539Y011468D02*
X022990Y011468D01*
X022990Y011618D02*
X022990Y011317D01*
X022689Y011317D02*
X022539Y011468D01*
X003400Y007611D02*
X003400Y007311D01*
X003400Y007461D02*
X002950Y007461D01*
X003100Y007311D01*
D16*
X005780Y007549D02*
X005782Y007575D01*
X005788Y007601D01*
X005798Y007626D01*
X005811Y007649D01*
X005827Y007669D01*
X005847Y007687D01*
X005869Y007702D01*
X005892Y007714D01*
X005918Y007722D01*
X005944Y007726D01*
X005970Y007726D01*
X005996Y007722D01*
X006022Y007714D01*
X006046Y007702D01*
X006067Y007687D01*
X006087Y007669D01*
X006103Y007649D01*
X006116Y007626D01*
X006126Y007601D01*
X006132Y007575D01*
X006134Y007549D01*
X006132Y007523D01*
X006126Y007497D01*
X006116Y007472D01*
X006103Y007449D01*
X006087Y007429D01*
X006067Y007411D01*
X006045Y007396D01*
X006022Y007384D01*
X005996Y007376D01*
X005970Y007372D01*
X005944Y007372D01*
X005918Y007376D01*
X005892Y007384D01*
X005868Y007396D01*
X005847Y007411D01*
X005827Y007429D01*
X005811Y007449D01*
X005798Y007472D01*
X005788Y007497D01*
X005782Y007523D01*
X005780Y007549D01*
X005780Y009518D02*
X005782Y009544D01*
X005788Y009570D01*
X005798Y009595D01*
X005811Y009618D01*
X005827Y009638D01*
X005847Y009656D01*
X005869Y009671D01*
X005892Y009683D01*
X005918Y009691D01*
X005944Y009695D01*
X005970Y009695D01*
X005996Y009691D01*
X006022Y009683D01*
X006046Y009671D01*
X006067Y009656D01*
X006087Y009638D01*
X006103Y009618D01*
X006116Y009595D01*
X006126Y009570D01*
X006132Y009544D01*
X006134Y009518D01*
X006132Y009492D01*
X006126Y009466D01*
X006116Y009441D01*
X006103Y009418D01*
X006087Y009398D01*
X006067Y009380D01*
X006045Y009365D01*
X006022Y009353D01*
X005996Y009345D01*
X005970Y009341D01*
X005944Y009341D01*
X005918Y009345D01*
X005892Y009353D01*
X005868Y009365D01*
X005847Y009380D01*
X005827Y009398D01*
X005811Y009418D01*
X005798Y009441D01*
X005788Y009466D01*
X005782Y009492D01*
X005780Y009518D01*
X005780Y011486D02*
X005782Y011512D01*
X005788Y011538D01*
X005798Y011563D01*
X005811Y011586D01*
X005827Y011606D01*
X005847Y011624D01*
X005869Y011639D01*
X005892Y011651D01*
X005918Y011659D01*
X005944Y011663D01*
X005970Y011663D01*
X005996Y011659D01*
X006022Y011651D01*
X006046Y011639D01*
X006067Y011624D01*
X006087Y011606D01*
X006103Y011586D01*
X006116Y011563D01*
X006126Y011538D01*
X006132Y011512D01*
X006134Y011486D01*
X006132Y011460D01*
X006126Y011434D01*
X006116Y011409D01*
X006103Y011386D01*
X006087Y011366D01*
X006067Y011348D01*
X006045Y011333D01*
X006022Y011321D01*
X005996Y011313D01*
X005970Y011309D01*
X005944Y011309D01*
X005918Y011313D01*
X005892Y011321D01*
X005868Y011333D01*
X005847Y011348D01*
X005827Y011366D01*
X005811Y011386D01*
X005798Y011409D01*
X005788Y011434D01*
X005782Y011460D01*
X005780Y011486D01*
X005841Y012471D02*
X005780Y012699D01*
X006134Y012699D01*
X006073Y012471D01*
X019806Y011489D02*
X019808Y011515D01*
X019814Y011541D01*
X019824Y011566D01*
X019837Y011589D01*
X019853Y011609D01*
X019873Y011627D01*
X019895Y011642D01*
X019918Y011654D01*
X019944Y011662D01*
X019970Y011666D01*
X019996Y011666D01*
X020022Y011662D01*
X020048Y011654D01*
X020072Y011642D01*
X020093Y011627D01*
X020113Y011609D01*
X020129Y011589D01*
X020142Y011566D01*
X020152Y011541D01*
X020158Y011515D01*
X020160Y011489D01*
X020158Y011463D01*
X020152Y011437D01*
X020142Y011412D01*
X020129Y011389D01*
X020113Y011369D01*
X020093Y011351D01*
X020071Y011336D01*
X020048Y011324D01*
X020022Y011316D01*
X019996Y011312D01*
X019970Y011312D01*
X019944Y011316D01*
X019918Y011324D01*
X019894Y011336D01*
X019873Y011351D01*
X019853Y011369D01*
X019837Y011389D01*
X019824Y011412D01*
X019814Y011437D01*
X019808Y011463D01*
X019806Y011489D01*
X019806Y009521D02*
X019808Y009547D01*
X019814Y009573D01*
X019824Y009598D01*
X019837Y009621D01*
X019853Y009641D01*
X019873Y009659D01*
X019895Y009674D01*
X019918Y009686D01*
X019944Y009694D01*
X019970Y009698D01*
X019996Y009698D01*
X020022Y009694D01*
X020048Y009686D01*
X020072Y009674D01*
X020093Y009659D01*
X020113Y009641D01*
X020129Y009621D01*
X020142Y009598D01*
X020152Y009573D01*
X020158Y009547D01*
X020160Y009521D01*
X020158Y009495D01*
X020152Y009469D01*
X020142Y009444D01*
X020129Y009421D01*
X020113Y009401D01*
X020093Y009383D01*
X020071Y009368D01*
X020048Y009356D01*
X020022Y009348D01*
X019996Y009344D01*
X019970Y009344D01*
X019944Y009348D01*
X019918Y009356D01*
X019894Y009368D01*
X019873Y009383D01*
X019853Y009401D01*
X019837Y009421D01*
X019824Y009444D01*
X019814Y009469D01*
X019808Y009495D01*
X019806Y009521D01*
X019806Y007552D02*
X019808Y007578D01*
X019814Y007604D01*
X019824Y007629D01*
X019837Y007652D01*
X019853Y007672D01*
X019873Y007690D01*
X019895Y007705D01*
X019918Y007717D01*
X019944Y007725D01*
X019970Y007729D01*
X019996Y007729D01*
X020022Y007725D01*
X020048Y007717D01*
X020072Y007705D01*
X020093Y007690D01*
X020113Y007672D01*
X020129Y007652D01*
X020142Y007629D01*
X020152Y007604D01*
X020158Y007578D01*
X020160Y007552D01*
X020158Y007526D01*
X020152Y007500D01*
X020142Y007475D01*
X020129Y007452D01*
X020113Y007432D01*
X020093Y007414D01*
X020071Y007399D01*
X020048Y007387D01*
X020022Y007379D01*
X019996Y007375D01*
X019970Y007375D01*
X019944Y007379D01*
X019918Y007387D01*
X019894Y007399D01*
X019873Y007414D01*
X019853Y007432D01*
X019837Y007452D01*
X019824Y007475D01*
X019814Y007500D01*
X019808Y007526D01*
X019806Y007552D01*
X019867Y006568D02*
X019806Y006340D01*
X020160Y006340D01*
X020099Y006568D01*
D17*
X021245Y003416D02*
X004709Y003416D01*
X004079Y004990D02*
X004081Y005040D01*
X004087Y005090D01*
X004097Y005139D01*
X004111Y005187D01*
X004128Y005234D01*
X004149Y005279D01*
X004174Y005323D01*
X004202Y005364D01*
X004234Y005403D01*
X004268Y005440D01*
X004305Y005474D01*
X004345Y005504D01*
X004387Y005531D01*
X004431Y005555D01*
X004477Y005576D01*
X004524Y005592D01*
X004572Y005605D01*
X004622Y005614D01*
X004671Y005619D01*
X004722Y005620D01*
X004772Y005617D01*
X004821Y005610D01*
X004870Y005599D01*
X004918Y005584D01*
X004964Y005566D01*
X005009Y005544D01*
X005052Y005518D01*
X005093Y005489D01*
X005132Y005457D01*
X005168Y005422D01*
X005200Y005384D01*
X005230Y005344D01*
X005257Y005301D01*
X005280Y005257D01*
X005299Y005211D01*
X005315Y005163D01*
X005327Y005114D01*
X005335Y005065D01*
X005339Y005015D01*
X005339Y004965D01*
X005335Y004915D01*
X005327Y004866D01*
X005315Y004817D01*
X005299Y004769D01*
X005280Y004723D01*
X005257Y004679D01*
X005230Y004636D01*
X005200Y004596D01*
X005168Y004558D01*
X005132Y004523D01*
X005093Y004491D01*
X005052Y004462D01*
X005009Y004436D01*
X004964Y004414D01*
X004918Y004396D01*
X004870Y004381D01*
X004821Y004370D01*
X004772Y004363D01*
X004722Y004360D01*
X004671Y004361D01*
X004622Y004366D01*
X004572Y004375D01*
X004524Y004388D01*
X004477Y004404D01*
X004431Y004425D01*
X004387Y004449D01*
X004345Y004476D01*
X004305Y004506D01*
X004268Y004540D01*
X004234Y004577D01*
X004202Y004616D01*
X004174Y004657D01*
X004149Y004701D01*
X004128Y004746D01*
X004111Y004793D01*
X004097Y004841D01*
X004087Y004890D01*
X004081Y004940D01*
X004079Y004990D01*
X003134Y004990D02*
X003136Y004913D01*
X003142Y004836D01*
X003151Y004759D01*
X003164Y004683D01*
X003181Y004607D01*
X003202Y004533D01*
X003226Y004459D01*
X003254Y004387D01*
X003285Y004317D01*
X003320Y004248D01*
X003358Y004180D01*
X003399Y004115D01*
X003444Y004052D01*
X003492Y003991D01*
X003542Y003932D01*
X003595Y003876D01*
X003651Y003823D01*
X003710Y003773D01*
X003771Y003725D01*
X003834Y003680D01*
X003899Y003639D01*
X003967Y003601D01*
X004036Y003566D01*
X004106Y003535D01*
X004178Y003507D01*
X004252Y003483D01*
X004326Y003462D01*
X004402Y003445D01*
X004478Y003432D01*
X004555Y003423D01*
X004632Y003417D01*
X004709Y003415D01*
X003135Y004990D02*
X003135Y014046D01*
X004079Y014046D02*
X004081Y014096D01*
X004087Y014146D01*
X004097Y014195D01*
X004111Y014243D01*
X004128Y014290D01*
X004149Y014335D01*
X004174Y014379D01*
X004202Y014420D01*
X004234Y014459D01*
X004268Y014496D01*
X004305Y014530D01*
X004345Y014560D01*
X004387Y014587D01*
X004431Y014611D01*
X004477Y014632D01*
X004524Y014648D01*
X004572Y014661D01*
X004622Y014670D01*
X004671Y014675D01*
X004722Y014676D01*
X004772Y014673D01*
X004821Y014666D01*
X004870Y014655D01*
X004918Y014640D01*
X004964Y014622D01*
X005009Y014600D01*
X005052Y014574D01*
X005093Y014545D01*
X005132Y014513D01*
X005168Y014478D01*
X005200Y014440D01*
X005230Y014400D01*
X005257Y014357D01*
X005280Y014313D01*
X005299Y014267D01*
X005315Y014219D01*
X005327Y014170D01*
X005335Y014121D01*
X005339Y014071D01*
X005339Y014021D01*
X005335Y013971D01*
X005327Y013922D01*
X005315Y013873D01*
X005299Y013825D01*
X005280Y013779D01*
X005257Y013735D01*
X005230Y013692D01*
X005200Y013652D01*
X005168Y013614D01*
X005132Y013579D01*
X005093Y013547D01*
X005052Y013518D01*
X005009Y013492D01*
X004964Y013470D01*
X004918Y013452D01*
X004870Y013437D01*
X004821Y013426D01*
X004772Y013419D01*
X004722Y013416D01*
X004671Y013417D01*
X004622Y013422D01*
X004572Y013431D01*
X004524Y013444D01*
X004477Y013460D01*
X004431Y013481D01*
X004387Y013505D01*
X004345Y013532D01*
X004305Y013562D01*
X004268Y013596D01*
X004234Y013633D01*
X004202Y013672D01*
X004174Y013713D01*
X004149Y013757D01*
X004128Y013802D01*
X004111Y013849D01*
X004097Y013897D01*
X004087Y013946D01*
X004081Y013996D01*
X004079Y014046D01*
X003134Y014046D02*
X003136Y014123D01*
X003142Y014200D01*
X003151Y014277D01*
X003164Y014353D01*
X003181Y014429D01*
X003202Y014503D01*
X003226Y014577D01*
X003254Y014649D01*
X003285Y014719D01*
X003320Y014788D01*
X003358Y014856D01*
X003399Y014921D01*
X003444Y014984D01*
X003492Y015045D01*
X003542Y015104D01*
X003595Y015160D01*
X003651Y015213D01*
X003710Y015263D01*
X003771Y015311D01*
X003834Y015356D01*
X003899Y015397D01*
X003967Y015435D01*
X004036Y015470D01*
X004106Y015501D01*
X004178Y015529D01*
X004252Y015553D01*
X004326Y015574D01*
X004402Y015591D01*
X004478Y015604D01*
X004555Y015613D01*
X004632Y015619D01*
X004709Y015621D01*
X004709Y015620D02*
X021245Y015620D01*
X020615Y014046D02*
X020617Y014096D01*
X020623Y014146D01*
X020633Y014195D01*
X020647Y014243D01*
X020664Y014290D01*
X020685Y014335D01*
X020710Y014379D01*
X020738Y014420D01*
X020770Y014459D01*
X020804Y014496D01*
X020841Y014530D01*
X020881Y014560D01*
X020923Y014587D01*
X020967Y014611D01*
X021013Y014632D01*
X021060Y014648D01*
X021108Y014661D01*
X021158Y014670D01*
X021207Y014675D01*
X021258Y014676D01*
X021308Y014673D01*
X021357Y014666D01*
X021406Y014655D01*
X021454Y014640D01*
X021500Y014622D01*
X021545Y014600D01*
X021588Y014574D01*
X021629Y014545D01*
X021668Y014513D01*
X021704Y014478D01*
X021736Y014440D01*
X021766Y014400D01*
X021793Y014357D01*
X021816Y014313D01*
X021835Y014267D01*
X021851Y014219D01*
X021863Y014170D01*
X021871Y014121D01*
X021875Y014071D01*
X021875Y014021D01*
X021871Y013971D01*
X021863Y013922D01*
X021851Y013873D01*
X021835Y013825D01*
X021816Y013779D01*
X021793Y013735D01*
X021766Y013692D01*
X021736Y013652D01*
X021704Y013614D01*
X021668Y013579D01*
X021629Y013547D01*
X021588Y013518D01*
X021545Y013492D01*
X021500Y013470D01*
X021454Y013452D01*
X021406Y013437D01*
X021357Y013426D01*
X021308Y013419D01*
X021258Y013416D01*
X021207Y013417D01*
X021158Y013422D01*
X021108Y013431D01*
X021060Y013444D01*
X021013Y013460D01*
X020967Y013481D01*
X020923Y013505D01*
X020881Y013532D01*
X020841Y013562D01*
X020804Y013596D01*
X020770Y013633D01*
X020738Y013672D01*
X020710Y013713D01*
X020685Y013757D01*
X020664Y013802D01*
X020647Y013849D01*
X020633Y013897D01*
X020623Y013946D01*
X020617Y013996D01*
X020615Y014046D01*
X021245Y015621D02*
X021322Y015619D01*
X021399Y015613D01*
X021476Y015604D01*
X021552Y015591D01*
X021628Y015574D01*
X021702Y015553D01*
X021776Y015529D01*
X021848Y015501D01*
X021918Y015470D01*
X021987Y015435D01*
X022055Y015397D01*
X022120Y015356D01*
X022183Y015311D01*
X022244Y015263D01*
X022303Y015213D01*
X022359Y015160D01*
X022412Y015104D01*
X022462Y015045D01*
X022510Y014984D01*
X022555Y014921D01*
X022596Y014856D01*
X022634Y014788D01*
X022669Y014719D01*
X022700Y014649D01*
X022728Y014577D01*
X022752Y014503D01*
X022773Y014429D01*
X022790Y014353D01*
X022803Y014277D01*
X022812Y014200D01*
X022818Y014123D01*
X022820Y014046D01*
X022820Y004990D01*
X020615Y004990D02*
X020617Y005040D01*
X020623Y005090D01*
X020633Y005139D01*
X020647Y005187D01*
X020664Y005234D01*
X020685Y005279D01*
X020710Y005323D01*
X020738Y005364D01*
X020770Y005403D01*
X020804Y005440D01*
X020841Y005474D01*
X020881Y005504D01*
X020923Y005531D01*
X020967Y005555D01*
X021013Y005576D01*
X021060Y005592D01*
X021108Y005605D01*
X021158Y005614D01*
X021207Y005619D01*
X021258Y005620D01*
X021308Y005617D01*
X021357Y005610D01*
X021406Y005599D01*
X021454Y005584D01*
X021500Y005566D01*
X021545Y005544D01*
X021588Y005518D01*
X021629Y005489D01*
X021668Y005457D01*
X021704Y005422D01*
X021736Y005384D01*
X021766Y005344D01*
X021793Y005301D01*
X021816Y005257D01*
X021835Y005211D01*
X021851Y005163D01*
X021863Y005114D01*
X021871Y005065D01*
X021875Y005015D01*
X021875Y004965D01*
X021871Y004915D01*
X021863Y004866D01*
X021851Y004817D01*
X021835Y004769D01*
X021816Y004723D01*
X021793Y004679D01*
X021766Y004636D01*
X021736Y004596D01*
X021704Y004558D01*
X021668Y004523D01*
X021629Y004491D01*
X021588Y004462D01*
X021545Y004436D01*
X021500Y004414D01*
X021454Y004396D01*
X021406Y004381D01*
X021357Y004370D01*
X021308Y004363D01*
X021258Y004360D01*
X021207Y004361D01*
X021158Y004366D01*
X021108Y004375D01*
X021060Y004388D01*
X021013Y004404D01*
X020967Y004425D01*
X020923Y004449D01*
X020881Y004476D01*
X020841Y004506D01*
X020804Y004540D01*
X020770Y004577D01*
X020738Y004616D01*
X020710Y004657D01*
X020685Y004701D01*
X020664Y004746D01*
X020647Y004793D01*
X020633Y004841D01*
X020623Y004890D01*
X020617Y004940D01*
X020615Y004990D01*
X021245Y003415D02*
X021322Y003417D01*
X021399Y003423D01*
X021476Y003432D01*
X021552Y003445D01*
X021628Y003462D01*
X021702Y003483D01*
X021776Y003507D01*
X021848Y003535D01*
X021918Y003566D01*
X021987Y003601D01*
X022055Y003639D01*
X022120Y003680D01*
X022183Y003725D01*
X022244Y003773D01*
X022303Y003823D01*
X022359Y003876D01*
X022412Y003932D01*
X022462Y003991D01*
X022510Y004052D01*
X022555Y004115D01*
X022596Y004180D01*
X022634Y004248D01*
X022669Y004317D01*
X022700Y004387D01*
X022728Y004459D01*
X022752Y004533D01*
X022773Y004607D01*
X022790Y004683D01*
X022803Y004759D01*
X022812Y004836D01*
X022818Y004913D01*
X022820Y004990D01*
M02*
