%
M48
M72
T01C0.0236
T02C0.0320
T03C0.0354
T04C0.0512
T05C0.0551
T06C0.1260
%
T01
X7072Y7156
X10221Y9518
X11796Y9518
X7072Y11880
T02
X17028Y9400
X17528Y10150
X18028Y9400
X18406Y5325
X19406Y5325
T03
X16709Y4538
X16709Y7538
X16709Y11400
X17824Y11400
X18891Y11400
X18891Y14400
X17824Y14400
X16709Y14400
T04
X13646Y11880
X14434Y9518
X13646Y7156
X8843Y7156
X8843Y11880
T05
X4815Y11486
X4815Y9518
X4815Y7549
X21125Y7552
X21125Y9521
X21125Y11489
T06
X4709Y4990
X4709Y14046
X21245Y14046
X21245Y4990
M30
